<svg width="28" height="28" viewBox="0 0 28 28" fill="none" xmlns="http://www.w3.org/2000/svg">
<path d="M19.5413 4.15594V2.33594C19.5413 1.8576 19.1446 1.46094 18.6663 1.46094C18.1879 1.46094 17.7913 1.8576 17.7913 2.33594V4.08594H10.2079V2.33594C10.2079 1.8576 9.81128 1.46094 9.33295 1.46094C8.85462 1.46094 8.45795 1.8576 8.45795 2.33594V4.15594C5.30795 4.4476 3.77962 6.32594 3.54628 9.11427C3.52295 9.4526 3.80295 9.7326 4.12962 9.7326H23.8696C24.2079 9.7326 24.4879 9.44094 24.4529 9.11427C24.2196 6.32594 22.6913 4.4476 19.5413 4.15594Z" fill="#EFC74D"/>
<path d="M23.3333 11.4766H4.66667C4.025 11.4766 3.5 12.0016 3.5 12.6432V19.8299C3.5 23.3299 5.25 25.6632 9.33333 25.6632H18.6667C22.75 25.6632 24.5 23.3299 24.5 19.8299V12.6432C24.5 12.0016 23.975 11.4766 23.3333 11.4766ZM10.745 21.2416C10.6867 21.2882 10.6283 21.3466 10.57 21.3816C10.5 21.4282 10.43 21.4632 10.36 21.4866C10.29 21.5216 10.22 21.5449 10.15 21.5566C10.0683 21.5682 9.99833 21.5799 9.91667 21.5799C9.765 21.5799 9.61333 21.5449 9.47333 21.4866C9.32167 21.4282 9.205 21.3466 9.08833 21.2416C8.87833 21.0199 8.75 20.7166 8.75 20.4132C8.75 20.1099 8.87833 19.8066 9.08833 19.5849C9.205 19.4799 9.32167 19.3982 9.47333 19.3399C9.68333 19.2466 9.91667 19.2232 10.15 19.2699C10.22 19.2816 10.29 19.3049 10.36 19.3399C10.43 19.3632 10.5 19.3982 10.57 19.4449C10.6283 19.4916 10.6867 19.5382 10.745 19.5849C10.955 19.8066 11.0833 20.1099 11.0833 20.4132C11.0833 20.7166 10.955 21.0199 10.745 21.2416ZM10.745 17.1582C10.5233 17.3682 10.22 17.4966 9.91667 17.4966C9.61333 17.4966 9.31 17.3682 9.08833 17.1582C8.87833 16.9366 8.75 16.6332 8.75 16.3299C8.75 16.0266 8.87833 15.7232 9.08833 15.5016C9.415 15.1749 9.92833 15.0699 10.36 15.2566C10.5117 15.3149 10.64 15.3966 10.745 15.5016C10.955 15.7232 11.0833 16.0266 11.0833 16.3299C11.0833 16.6332 10.955 16.9366 10.745 17.1582ZM14.8283 21.2416C14.6067 21.4516 14.3033 21.5799 14 21.5799C13.6967 21.5799 13.3933 21.4516 13.1717 21.2416C12.9617 21.0199 12.8333 20.7166 12.8333 20.4132C12.8333 20.1099 12.9617 19.8066 13.1717 19.5849C13.6033 19.1532 14.3967 19.1532 14.8283 19.5849C15.0383 19.8066 15.1667 20.1099 15.1667 20.4132C15.1667 20.7166 15.0383 21.0199 14.8283 21.2416ZM14.8283 17.1582C14.77 17.2049 14.7117 17.2516 14.6533 17.2982C14.5833 17.3449 14.5133 17.3799 14.4433 17.4032C14.3733 17.4382 14.3033 17.4616 14.2333 17.4732C14.1517 17.4849 14.0817 17.4966 14 17.4966C13.6967 17.4966 13.3933 17.3682 13.1717 17.1582C12.9617 16.9366 12.8333 16.6332 12.8333 16.3299C12.8333 16.0266 12.9617 15.7232 13.1717 15.5016C13.2767 15.3966 13.405 15.3149 13.5567 15.2566C13.9883 15.0699 14.5017 15.1749 14.8283 15.5016C15.0383 15.7232 15.1667 16.0266 15.1667 16.3299C15.1667 16.6332 15.0383 16.9366 14.8283 17.1582ZM18.9117 21.2416C18.69 21.4516 18.3867 21.5799 18.0833 21.5799C17.78 21.5799 17.4767 21.4516 17.255 21.2416C17.045 21.0199 16.9167 20.7166 16.9167 20.4132C16.9167 20.1099 17.045 19.8066 17.255 19.5849C17.6867 19.1532 18.48 19.1532 18.9117 19.5849C19.1217 19.8066 19.25 20.1099 19.25 20.4132C19.25 20.7166 19.1217 21.0199 18.9117 21.2416ZM18.9117 17.1582C18.8533 17.2049 18.795 17.2516 18.7367 17.2982C18.6667 17.3449 18.5967 17.3799 18.5267 17.4032C18.4567 17.4382 18.3867 17.4616 18.3167 17.4732C18.235 17.4849 18.1533 17.4966 18.0833 17.4966C17.78 17.4966 17.4767 17.3682 17.255 17.1582C17.045 16.9366 16.9167 16.6332 16.9167 16.3299C16.9167 16.0266 17.045 15.7232 17.255 15.5016C17.3717 15.3966 17.4883 15.3149 17.64 15.2566C17.85 15.1632 18.0833 15.1399 18.3167 15.1866C18.3867 15.1982 18.4567 15.2216 18.5267 15.2566C18.5967 15.2799 18.6667 15.3149 18.7367 15.3616C18.795 15.4082 18.8533 15.4549 18.9117 15.5016C19.1217 15.7232 19.25 16.0266 19.25 16.3299C19.25 16.6332 19.1217 16.9366 18.9117 17.1582Z" fill="#EFC74D"/>
</svg>
