<svg width="20" height="20" viewBox="0 0 20 20" fill="none" xmlns="http://www.w3.org/2000/svg">
<circle cx="10" cy="10" r="10" fill="#EFC74D"/>
<path d="M14.2501 6.5C14.0512 6.5 13.8605 6.57902 13.7198 6.71967C13.5791 6.86032 13.5001 7.05109 13.5001 7.25V9.5H13.0001V6.25C13.0001 6.05109 12.9211 5.86032 12.7805 5.71967C12.6398 5.57902 12.449 5.5 12.2501 5.5C12.0512 5.5 11.8605 5.57902 11.7198 5.71967C11.5791 5.86032 11.5001 6.05109 11.5001 6.25V9.5H11.0001V5.75C11.0001 5.55109 10.9211 5.36032 10.7805 5.21967C10.6398 5.07902 10.449 5 10.2501 5C10.0512 5 9.86045 5.07902 9.7198 5.21967C9.57915 5.36032 9.50013 5.55109 9.50013 5.75V9.5H9.00013V6.75C9.00013 6.55109 8.92111 6.36032 8.78046 6.21967C8.63981 6.07902 8.44904 6 8.25013 6C8.05122 6 7.86045 6.07902 7.7198 6.21967C7.57915 6.36032 7.50013 6.55109 7.50013 6.75V12.155L6.39013 10.355C6.28537 10.1853 6.11747 10.0641 5.92337 10.0181C5.72927 9.9722 5.52487 10.0052 5.35513 10.11C5.18539 10.2148 5.06422 10.3827 5.01827 10.5768C4.97233 10.7709 5.00537 10.9753 5.11013 11.145L6.76513 13.815C6.9891 14.1771 7.30186 14.4761 7.67375 14.6835C8.04563 14.8908 8.46433 14.9998 8.89013 15H12.5001C13.1632 15 13.7991 14.7366 14.2679 14.2678C14.7367 13.7989 15.0001 13.163 15.0001 12.5V7.25C15.0001 7.05109 14.9211 6.86032 14.7805 6.71967C14.6398 6.57902 14.449 6.5 14.2501 6.5Z" fill="#14141F"/>
</svg>
