<svg width="18" height="18" viewBox="0 0 18 18" fill="none" xmlns="http://www.w3.org/2000/svg">
<path d="M16.6503 2.7C16.2923 2.7 15.949 2.84223 15.6959 3.09541C15.4428 3.34858 15.3006 3.69196 15.3006 4.05V8.1H14.4007V2.25C14.4007 1.89196 14.2585 1.54858 14.0054 1.29541C13.7523 1.04223 13.409 0.9 13.051 0.9C12.6931 0.9 12.3498 1.04223 12.0966 1.29541C11.8435 1.54858 11.7013 1.89196 11.7013 2.25V8.1H10.8015V1.35C10.8015 0.991958 10.6593 0.64858 10.4062 0.395406C10.1531 0.142232 9.80975 0 9.45178 0C9.09381 0 8.75051 0.142232 8.49739 0.395406C8.24426 0.64858 8.10206 0.991958 8.10206 1.35V8.1H7.20225V3.15C7.20225 2.79196 7.06005 2.44858 6.80693 2.19541C6.5538 1.94223 6.2105 1.8 5.85253 1.8C5.49456 1.8 5.15126 1.94223 4.89814 2.19541C4.64501 2.44858 4.50281 2.79196 4.50281 3.15V12.879L2.50523 9.639C2.3167 9.33347 2.01454 9.11536 1.66524 9.03266C1.31593 8.94996 0.948081 9.00943 0.642615 9.198C0.33715 9.38657 0.119088 9.68879 0.0364018 10.0382C-0.0462845 10.3875 0.0131777 10.7555 0.201707 11.061L3.18009 15.867C3.58315 16.5188 4.146 17.0569 4.81526 17.4302C5.48451 17.8035 6.23801 17.9996 7.00429 18H13.5009C14.6942 18 15.8385 17.5259 16.6823 16.682C17.526 15.8381 18 14.6935 18 13.5V4.05C18 3.69196 17.8578 3.34858 17.6047 3.09541C17.3516 2.84223 17.0082 2.7 16.6503 2.7Z" fill="#D0D0D2"/>
</svg>
