<svg width="20" height="20" viewBox="0 0 20 20" fill="none" xmlns="http://www.w3.org/2000/svg">
<circle cx="10" cy="10" r="10" fill="#EFC74D"/>
<path d="M10 11.5C10.5304 11.5 11.0391 11.2893 11.4142 10.9142C11.7893 10.5391 12 10.0304 12 9.5V7C12 6.46957 11.7893 5.96086 11.4142 5.58579C11.0391 5.21071 10.5304 5 10 5C9.46957 5 8.96086 5.21071 8.58579 5.58579C8.21071 5.96086 8 6.46957 8 7V9.5C8 10.0304 8.21071 10.5391 8.58579 10.9142C8.96086 11.2893 9.46957 11.5 10 11.5Z" fill="#14141F"/>
<path d="M13.5 9.5C13.5 9.36739 13.4473 9.24021 13.3536 9.14645C13.2598 9.05268 13.1326 9 13 9C12.8674 9 12.7402 9.05268 12.6464 9.14645C12.5527 9.24021 12.5 9.36739 12.5 9.5C12.5 10.163 12.2366 10.7989 11.7678 11.2678C11.2989 11.7366 10.663 12 10 12C9.33696 12 8.70107 11.7366 8.23223 11.2678C7.76339 10.7989 7.5 10.163 7.5 9.5C7.5 9.36739 7.44732 9.24021 7.35355 9.14645C7.25979 9.05268 7.13261 9 7 9C6.86739 9 6.74021 9.05268 6.64645 9.14645C6.55268 9.24021 6.5 9.36739 6.5 9.5C6.50099 10.3409 6.8047 11.1534 7.35559 11.7887C7.90648 12.4241 8.6677 12.8399 9.5 12.96V14H8.445C8.32698 14 8.21379 14.0469 8.13034 14.1303C8.04688 14.2138 8 14.327 8 14.445V14.555C8 14.673 8.04688 14.7862 8.13034 14.8697C8.21379 14.9531 8.32698 15 8.445 15H11.555C11.673 15 11.7862 14.9531 11.8697 14.8697C11.9531 14.7862 12 14.673 12 14.555V14.445C12 14.327 11.9531 14.2138 11.8697 14.1303C11.7862 14.0469 11.673 14 11.555 14H10.5V12.96C11.3323 12.8399 12.0935 12.4241 12.6444 11.7887C13.1953 11.1534 13.499 10.3409 13.5 9.5Z" fill="#14141F"/>
</svg>
