<svg width="60" height="60" viewBox="0 0 60 60" fill="none" xmlns="http://www.w3.org/2000/svg">
<circle cx="30" cy="30" r="30" transform="rotate(-180 30 30)" fill="#363642"/>
<path d="M35.0736 31.0642C35.4576 30.2937 35.6611 29.4459 35.6686 28.585V21.5017C35.6529 20.1023 35.12 18.7582 34.1724 17.7283C33.2249 16.6985 31.9297 16.0556 30.5365 15.9237C29.1432 15.7918 27.7504 16.18 26.6264 17.0138C25.5024 17.8475 24.7266 19.0676 24.4486 20.4392M39.9186 28.585C39.9186 28.2093 39.7693 27.849 39.5036 27.5833C39.2379 27.3176 38.8776 27.1684 38.5019 27.1684C38.1262 27.1684 37.7658 27.3176 37.5002 27.5833C37.2345 27.849 37.0852 28.2093 37.0852 28.585C37.0811 29.8227 36.7434 31.0364 36.1077 32.0984L38.1902 34.2517C39.3303 32.5831 39.9333 30.6059 39.9186 28.585ZM30.0019 34.2517H30.2286L24.3352 28.3442V28.585C24.3352 30.0879 24.9322 31.5293 25.995 32.592C27.0577 33.6547 28.499 34.2517 30.0019 34.2517ZM42.3411 40.3292L19.6744 17.6625C19.5423 17.5305 19.3855 17.4257 19.2129 17.3542C19.0403 17.2827 18.8554 17.2459 18.6686 17.2459C18.4818 17.2459 18.2968 17.2827 18.1242 17.3542C17.9516 17.4257 17.7948 17.5305 17.6627 17.6625C17.396 17.9293 17.2461 18.2911 17.2461 18.6684C17.2461 19.0456 17.396 19.4074 17.6627 19.6742L40.3294 42.3409C40.4611 42.4737 40.6178 42.5791 40.7904 42.651C40.963 42.7229 41.1482 42.7599 41.3352 42.7599C41.5222 42.7599 41.7074 42.7229 41.88 42.651C42.0527 42.5791 42.2094 42.4737 42.3411 42.3409C42.4738 42.2092 42.5792 42.0525 42.6512 41.8799C42.7231 41.7072 42.7601 41.5221 42.7601 41.335C42.7601 41.148 42.7231 40.9629 42.6512 40.7902C42.5792 40.6176 42.4738 40.4609 42.3411 40.3292Z" fill="#B8B8BC"/>
<path d="M34.2487 41.3307H31.4154V38.3841C32.217 38.2725 33.0021 38.0631 33.7529 37.7607L31.4862 35.4941C30.9986 35.6081 30.4994 35.6651 29.9987 35.6641C28.1201 35.6641 26.3184 34.9178 24.99 33.5894C23.6616 32.261 22.9154 30.4593 22.9154 28.5807C22.9154 28.205 22.7661 27.8447 22.5004 27.579C22.2348 27.3133 21.8744 27.1641 21.4987 27.1641C21.123 27.1641 20.7626 27.3133 20.497 27.579C20.2313 27.8447 20.082 28.205 20.082 28.5807C20.0848 30.9633 20.9454 33.2653 22.5062 35.0655C24.067 36.8657 26.2239 38.0437 28.582 38.3841V41.3307H25.7487C25.373 41.3307 25.0126 41.48 24.747 41.7457C24.4813 42.0113 24.332 42.3717 24.332 42.7474C24.332 43.1231 24.4813 43.4835 24.747 43.7491C25.0126 44.0148 25.373 44.1641 25.7487 44.1641H34.2487C34.6244 44.1641 34.9848 44.0148 35.2504 43.7491C35.5161 43.4835 35.6654 43.1231 35.6654 42.7474C35.6654 42.3717 35.5161 42.0113 35.2504 41.7457C34.9848 41.48 34.6244 41.3307 34.2487 41.3307Z" fill="#B8B8BC"/>
</svg>
