<svg width="20" height="20" viewBox="0 0 20 20" fill="none" xmlns="http://www.w3.org/2000/svg">
<circle cx="10" cy="10" r="10" fill="#363642"/>
<path d="M11.7901 10.3761C11.9256 10.1041 11.9975 9.8049 12.0001 9.50106V7.00106C11.9946 6.50716 11.8065 6.03278 11.472 5.66929C11.1376 5.30579 10.6805 5.07891 10.1888 5.03235C9.69704 4.98578 9.20547 5.12283 8.80875 5.41708C8.41203 5.71133 8.13823 6.14198 8.04009 6.62606M13.5001 9.50106C13.5001 9.36846 13.4474 9.24128 13.3536 9.14751C13.2599 9.05374 13.1327 9.00106 13.0001 9.00106C12.8675 9.00106 12.7403 9.05374 12.6465 9.14751C12.5528 9.24128 12.5001 9.36846 12.5001 9.50106C12.4986 9.93789 12.3795 10.3663 12.1551 10.7411L12.8901 11.5011C13.2925 10.9121 13.5053 10.2143 13.5001 9.50106ZM10.0001 11.5011H10.0801L8.00009 9.41606V9.50106C8.00009 10.0315 8.21081 10.5402 8.58588 10.9153C8.96095 11.2904 9.46966 11.5011 10.0001 11.5011ZM14.3551 13.6461L6.35509 5.64606C6.30847 5.59944 6.25313 5.56246 6.19222 5.53723C6.13131 5.512 6.06602 5.49902 6.00009 5.49902C5.93416 5.49902 5.86888 5.512 5.80797 5.53723C5.74706 5.56246 5.69171 5.59944 5.64509 5.64606C5.55094 5.74022 5.49805 5.86791 5.49805 6.00106C5.49805 6.13421 5.55094 6.26191 5.64509 6.35606L13.6451 14.3561C13.6916 14.4029 13.7469 14.4401 13.8078 14.4655C13.8687 14.4909 13.9341 14.504 14.0001 14.504C14.0661 14.504 14.1315 14.4909 14.1924 14.4655C14.2533 14.4401 14.3086 14.4029 14.3551 14.3561C14.402 14.3096 14.4392 14.2543 14.4645 14.1934C14.4899 14.1324 14.503 14.0671 14.503 14.0011C14.503 13.9351 14.4899 13.8697 14.4645 13.8088C14.4392 13.7478 14.402 13.6925 14.3551 13.6461Z" fill="#B8B8BC"/>
<path d="M11.5 14H10.5V12.96C10.7829 12.9206 11.06 12.8467 11.325 12.74L10.525 11.94C10.3529 11.9802 10.1767 12.0004 10 12C9.33696 12 8.70107 11.7366 8.23223 11.2678C7.76339 10.7989 7.5 10.163 7.5 9.5C7.5 9.36739 7.44732 9.24021 7.35355 9.14645C7.25979 9.05268 7.13261 9 7 9C6.86739 9 6.74021 9.05268 6.64645 9.14645C6.55268 9.24021 6.5 9.36739 6.5 9.5C6.50099 10.3409 6.8047 11.1534 7.35559 11.7887C7.90648 12.4241 8.6677 12.8399 9.5 12.96V14H8.5C8.36739 14 8.24021 14.0527 8.14645 14.1464C8.05268 14.2402 8 14.3674 8 14.5C8 14.6326 8.05268 14.7598 8.14645 14.8536C8.24021 14.9473 8.36739 15 8.5 15H11.5C11.6326 15 11.7598 14.9473 11.8536 14.8536C11.9473 14.7598 12 14.6326 12 14.5C12 14.3674 11.9473 14.2402 11.8536 14.1464C11.7598 14.0527 11.6326 14 11.5 14Z" fill="#B8B8BC"/>
</svg>
