<svg width="21" height="18" viewBox="0 0 21 18" fill="none" xmlns="http://www.w3.org/2000/svg">
<path d="M11.9999 9.52195L17.648 3.0157C17.5655 3.00695 17.5099 2.99508 17.4537 2.99508C16.9774 2.99508 16.5005 2.99508 16.0243 2.99508C15.4499 2.98945 15.0168 2.57758 14.9943 2.02445C14.9893 1.89285 15.0106 1.76158 15.0571 1.63836C15.1036 1.51514 15.1742 1.40246 15.2649 1.30695C15.3556 1.21144 15.4645 1.13503 15.5851 1.08223C15.7057 1.02942 15.8357 1.00127 15.9674 0.999453C17.3187 0.981953 18.6701 0.981953 20.0218 0.999453C20.5905 1.00695 20.9868 1.43195 20.9899 1.99945C20.9974 3.3357 20.9974 4.67195 20.9899 6.0082C20.9838 6.26722 20.8768 6.51361 20.6916 6.69479C20.5064 6.87598 20.2577 6.97762 19.9986 6.97803C19.7395 6.97843 19.4906 6.87758 19.3048 6.69697C19.119 6.51637 19.0112 6.27032 19.0043 6.01133C18.993 5.54258 18.9962 5.07383 18.9924 4.60508C18.9924 4.60133 18.9799 4.59758 18.9487 4.5782C18.878 4.6582 18.8018 4.74195 18.7274 4.8282C16.7628 7.07029 14.7976 9.31487 12.8318 11.562C12.3318 12.1357 11.713 12.1488 11.1693 11.612C10.4524 10.9045 9.72804 10.2051 8.98617 9.48195C8.92367 9.5532 8.83054 9.65383 8.74054 9.75633C6.74262 12.0434 4.74575 14.3328 2.74992 16.6245C2.45429 16.9645 2.09741 17.1076 1.66304 16.9876C0.945539 16.7888 0.708664 15.9251 1.20929 15.3495C1.92616 14.5232 2.64679 13.7026 3.36929 12.8795C4.95929 11.0624 6.54825 9.24508 8.13617 7.42758C8.42679 7.09445 8.77054 6.90383 9.20929 7.0332C9.40831 7.09766 9.59001 7.20667 9.74054 7.35195C10.4418 8.00945 11.1274 8.68258 11.8187 9.35195C11.8749 9.40445 11.9305 9.45508 11.9999 9.52195Z" fill="#7D7D8E"/>
</svg>
