<svg width="22" height="16" viewBox="0 0 22 16" fill="none" xmlns="http://www.w3.org/2000/svg">
<path d="M21.0976 8.83441L17.0945 14.8344C16.9579 15.0399 16.7725 15.2082 16.5549 15.3244C16.3373 15.4406 16.0943 15.5009 15.8476 15.5H1.25071C1.11563 15.5014 0.982799 15.4654 0.866961 15.3959C0.751123 15.3264 0.656801 15.2261 0.594459 15.1063C0.529296 14.9876 0.497503 14.8534 0.502455 14.718C0.507407 14.5827 0.548919 14.4512 0.622584 14.3375L4.85071 8.00004L0.622584 1.66254C0.548919 1.54888 0.507407 1.4174 0.502455 1.28204C0.497503 1.14669 0.529296 1.01253 0.594459 0.893789C0.656801 0.773944 0.751123 0.673711 0.866961 0.604208C0.982799 0.534705 1.11563 0.498649 1.25071 0.500039H15.8476C16.0943 0.499151 16.3373 0.559499 16.5549 0.67567C16.7725 0.791842 16.9579 0.960205 17.0945 1.16566L21.0976 7.16566C21.2628 7.41255 21.3511 7.70295 21.3511 8.00004C21.3511 8.29713 21.2628 8.58753 21.0976 8.83441Z" fill="#7D7D8E"/>
</svg>
