<svg width="24" height="24" viewBox="0 0 24 24" fill="none" xmlns="http://www.w3.org/2000/svg">
<path d="M19.4012 4.11719H4.58284V17.5853H19.4012V4.11719Z" fill="white"/>
<path fill-rule="evenodd" clip-rule="evenodd" d="M23.992 12.0002C23.992 18.6188 18.6231 23.9842 12 23.9842C5.37699 23.9842 0.00798035 18.6188 0.00798035 12.0002C0.00798035 5.38155 5.37699 0.0161133 12 0.0161133C18.6231 0.0161133 23.992 5.38155 23.992 12.0002ZM8.6018 16.7692H6.27449C5.78545 16.7692 5.54388 16.7692 5.3966 16.675C5.2375 16.572 5.14029 16.4012 5.12851 16.2128C5.11966 16.0391 5.24046 15.8271 5.48202 15.4032L11.2285 5.28103C11.473 4.8512 11.5967 4.63629 11.7528 4.5568C11.9207 4.47143 12.1211 4.47143 12.289 4.5568C12.4451 4.63629 12.5689 4.8512 12.8134 5.28103L13.9947 7.34184L14.0007 7.35236C14.2648 7.81348 14.3988 8.04732 14.4572 8.29275C14.522 8.56066 14.522 8.84328 14.4572 9.11119C14.3983 9.35848 14.2658 9.59401 13.9977 10.0621L10.9792 15.3943L10.9714 15.408C10.7056 15.8729 10.5708 16.1086 10.3841 16.2863C10.1809 16.4807 9.93633 16.6219 9.66824 16.7015C9.42372 16.7692 9.14976 16.7692 8.6018 16.7692ZM14.479 16.7692H17.8138C18.3058 16.7692 18.5533 16.7692 18.7007 16.6722C18.8597 16.5691 18.9598 16.3953 18.9688 16.207C18.9772 16.039 18.8591 15.8352 18.6275 15.4359C18.6196 15.4223 18.6116 15.4085 18.6034 15.3944L16.933 12.5387L16.914 12.5066C16.6793 12.1099 16.5608 11.9096 16.4086 11.8322C16.2408 11.7468 16.0433 11.7468 15.8754 11.8322C15.7222 11.9116 15.5985 12.1207 15.354 12.5417L13.6895 15.3974L13.6838 15.4072C13.4402 15.8275 13.3184 16.0375 13.3272 16.2099C13.339 16.3983 13.4362 16.572 13.5952 16.675C13.7396 16.7692 13.9871 16.7692 14.479 16.7692Z" fill="#E84142"/>
</svg>
