<svg width="24" height="24" viewBox="0 0 24 24" fill="none" xmlns="http://www.w3.org/2000/svg">
<path d="M12 24C18.6274 24 24 18.6274 24 12C24 5.37258 18.6274 0 12 0C5.37258 0 0 5.37258 0 12C0 18.6274 5.37258 24 12 24Z" fill="black"/>
<path d="M19.7733 10.9656L19.3559 10.2592L17.0568 6.39316H17.044L16.9734 6.2583H16.1321L12.8633 12.006L16.1835 17.7216H17.0247L17.044 17.6894L19.7862 12.995H18.0972L16.6394 15.5895L14.5587 11.9931L16.5945 8.39682L18.0779 10.9528L19.7733 10.9656Z" fill="#41E6AF"/>
<path d="M6.97718 10.0284L8.51203 7.41467L7.99827 6.58623L7.63864 5.99541L5.01205 10.6321L4.94141 10.7605L5.35884 11.4991H11.9671L15.3001 5.79633L14.8377 5L10.2139 5.01284H10.1432L9.40469 5L9.79643 5.73853L10.1882 6.47706L13.2129 6.46421L11.1322 10.0284H6.97718Z" fill="#41E6AF"/>
<path d="M10.2465 7.00342C10.1309 7.00342 10.0024 7.02268 9.88042 7.06764C9.74555 7.11259 9.60427 7.17039 9.48225 7.24745C9.12262 7.4658 8.87216 7.78048 8.83363 8.07589C8.81437 8.21075 8.84648 8.32635 8.91712 8.40983C8.92996 8.4291 8.94923 8.44194 8.96207 8.46121C8.97492 8.47405 8.98134 8.47405 8.99418 8.48048C9.00703 8.49332 9.00703 8.49332 9.01345 8.49974C9.03271 8.51259 9.04556 8.51901 9.06482 8.53185C9.28317 8.6346 9.62996 8.61534 9.97032 8.46121L9.98317 8.44837C10.0153 8.43552 10.0474 8.41626 10.0795 8.40341C10.1116 8.39057 10.1309 8.3713 10.163 8.35204C10.1951 8.33277 10.2272 8.30708 10.2593 8.28782C10.2914 8.26855 10.3107 8.24286 10.3428 8.2236L10.3621 8.21075C10.3813 8.19149 10.407 8.17864 10.4263 8.15938C10.4391 8.14653 10.4391 8.14653 10.4456 8.14011C10.4648 8.12727 10.4777 8.108 10.4905 8.09516C10.5033 8.08231 10.5098 8.07589 10.5226 8.0502C10.5355 8.02451 10.5547 8.01809 10.5676 7.99883C10.5804 7.98598 10.5804 7.98598 10.5868 7.97956C10.5997 7.9603 10.6189 7.94745 10.6318 7.92818L10.6511 7.90892C10.6639 7.88965 10.6703 7.87681 10.6832 7.85754C10.6832 7.85754 10.6832 7.85754 10.6832 7.8447L10.696 7.82543C10.7153 7.80617 10.7281 7.77406 10.741 7.75479C10.7538 7.73553 10.7602 7.70342 10.7731 7.68415L10.7859 7.67131C10.7859 7.65846 10.7988 7.65204 10.7988 7.65204C10.7988 7.6392 10.7988 7.6392 10.8116 7.63277C10.8116 7.61351 10.8244 7.60066 10.8244 7.5814C10.8244 7.56213 10.8373 7.56213 10.8373 7.54929C10.8373 7.53644 10.8373 7.53002 10.8373 7.53002C10.8373 7.51076 10.8373 7.49791 10.8373 7.48507V7.4658C10.8373 7.44654 10.8373 7.43369 10.8373 7.41443C10.8373 7.40158 10.8373 7.40158 10.8373 7.39516C10.8373 7.38874 10.8373 7.37589 10.8373 7.37589C10.8373 7.36305 10.8373 7.36305 10.8373 7.35663V7.34378C10.8373 7.32452 10.8244 7.31167 10.818 7.29241C10.8116 7.27314 10.7988 7.2603 10.7859 7.24103C10.6767 7.07406 10.4777 7.00342 10.2465 7.00342Z" fill="#41E6AF"/>
<path d="M11.0198 7.76794C11.0198 7.78721 11.0069 7.80005 11.0005 7.81932C11.0005 7.83216 11.0005 7.83216 10.9876 7.83858C10.9748 7.87069 10.9684 7.88996 10.9427 7.92207C10.8271 8.14041 10.6409 8.35234 10.4097 8.51931C10.3776 8.53858 10.3454 8.56427 10.3133 8.58353C10.2812 8.6028 10.2491 8.62849 10.217 8.63491H10.2042C10.1913 8.64775 10.1849 8.64775 10.172 8.65417C10.1528 8.66702 10.1399 8.67344 10.1207 8.68628H10.1078C10.095 8.68628 10.0886 8.69913 10.0757 8.69913C10.0565 8.71197 10.0308 8.71839 10.0115 8.71839L9.99223 8.73124C9.99223 8.73124 9.99223 8.73124 9.97939 8.73124C9.96655 8.73124 9.96012 8.74408 9.94728 8.74408C9.92801 8.75693 9.90233 8.75693 9.88306 8.76335L9.86379 8.77619H9.85095C9.83168 8.78904 9.806 8.78904 9.78673 8.79546C9.77389 8.79546 9.76746 8.8083 9.74178 8.8083H9.72893C9.70967 8.8083 9.68398 8.82115 9.67756 8.82115C9.67113 8.82115 9.64545 8.82115 9.6326 8.83399H9.61976C9.60691 8.83399 9.60049 8.83399 9.58765 8.84683C9.5748 8.84683 9.56838 8.84683 9.55554 8.84683C9.52343 8.84683 9.4849 8.85968 9.45279 8.85968H9.43994C9.40783 8.85968 9.37572 8.85968 9.34361 8.85968C9.33077 8.85968 9.32435 8.85968 9.32435 8.85968H9.33719C9.31792 8.85968 9.29224 8.85968 9.27297 8.84683C9.26013 8.84683 9.25371 8.84683 9.24086 8.83399C9.2216 8.83399 9.19591 8.82115 9.17664 8.82115C9.1638 8.82115 9.15738 8.8083 9.14453 8.8083L9.72251 9.74591L10.962 9.73307L11.6042 8.59638L11.0262 7.65234C11.0262 7.66519 11.0262 7.67161 11.0133 7.68445C11.0133 7.6973 11.0133 7.6973 11.0133 7.70372C11.0133 7.71014 11.0005 7.72299 11.0005 7.74867C11.0198 7.7551 11.0198 7.76794 11.0198 7.76794Z" fill="#41E6AF"/>
<path d="M17.5979 11.1845C17.6621 11.2809 17.7006 11.3965 17.7328 11.5313C17.7649 11.6662 17.7841 11.8139 17.7841 11.9616C17.7841 12.379 17.6493 12.7579 17.4181 12.9506C17.3153 13.0341 17.1997 13.079 17.0841 13.0533C17.0649 13.0533 17.0392 13.0405 17.0199 13.0405C17.0071 13.0405 17.0007 13.0276 16.9878 13.0276C16.975 13.0276 16.9685 13.0148 16.9557 13.0148C16.9364 13.002 16.9107 12.9955 16.9043 12.9827C16.6924 12.8478 16.5383 12.5396 16.4933 12.1735V12.1607C16.4933 12.1286 16.4805 12.0965 16.4805 12.0579C16.4805 12.0258 16.4805 11.9937 16.4805 11.9616C16.4805 11.9166 16.4805 11.8909 16.4805 11.846C16.4805 11.8139 16.4805 11.7818 16.4933 11.7497V11.7304C16.4933 11.7111 16.5062 11.679 16.5062 11.6598C16.5062 11.6469 16.5062 11.6405 16.5062 11.6276C16.5062 11.6084 16.519 11.5827 16.519 11.5634C16.519 11.5442 16.5318 11.5313 16.5318 11.5121C16.5447 11.4928 16.5447 11.4671 16.5511 11.4478C16.5511 11.435 16.564 11.4286 16.564 11.4157C16.5768 11.3965 16.5768 11.3708 16.5832 11.3515L16.5961 11.3194C16.6089 11.3001 16.6153 11.2873 16.6153 11.268C16.6153 11.268 16.6153 11.268 16.6153 11.2552L16.6282 11.2359C16.641 11.2038 16.6603 11.1845 16.6731 11.1653C16.686 11.146 16.7052 11.1203 16.7181 11.101L16.7309 11.0882C16.7438 11.0754 16.7438 11.0754 16.7502 11.0689C16.763 11.0561 16.763 11.0561 16.763 11.0497C16.7759 11.0368 16.7823 11.0304 16.7951 11.0176C16.808 11.0047 16.8144 10.9983 16.8144 10.9983C16.8273 10.9854 16.8273 10.9854 16.8337 10.979C16.8465 10.9662 16.8529 10.9598 16.8658 10.9469L16.8851 10.9341C16.8979 10.9212 16.9172 10.9148 16.93 10.902C16.9429 10.902 16.9429 10.902 16.9493 10.8891C16.9621 10.8891 16.9685 10.8763 16.9685 10.8763C16.9685 10.8763 16.9814 10.8763 16.9814 10.8634H16.9942C17.0135 10.8634 17.0263 10.8506 17.0456 10.8506C17.0649 10.8506 17.0906 10.8506 17.1098 10.8506C17.3153 10.857 17.4759 10.9854 17.5979 11.1845Z" fill="#41E6AF"/>
<path d="M16.5386 10.9338C16.5257 10.9467 16.5193 10.966 16.5065 10.9788C16.5065 10.9916 16.4936 10.9916 16.4936 10.9981C16.4743 11.0173 16.4615 11.0494 16.4422 11.0687C16.3074 11.2806 16.2303 11.5504 16.211 11.8329C16.211 11.8779 16.211 11.9036 16.211 11.9485C16.211 11.9806 16.211 12.0192 16.211 12.0513V12.0641C16.211 12.077 16.211 12.0962 16.211 12.1091C16.211 12.1283 16.211 12.154 16.2239 12.1733V12.1861C16.2239 12.199 16.2239 12.2054 16.2239 12.2182C16.2239 12.2375 16.2367 12.2632 16.2367 12.2825V12.3017C16.2367 12.3017 16.2367 12.3017 16.2367 12.3146C16.2367 12.3274 16.2367 12.3338 16.2496 12.3467C16.2496 12.366 16.2624 12.3916 16.2624 12.4109L16.2753 12.4302V12.443C16.2753 12.4623 16.2881 12.488 16.2945 12.5072C16.2945 12.5201 16.3074 12.5265 16.3074 12.5393V12.5522C16.3202 12.5715 16.3202 12.5843 16.3266 12.6036C16.3266 12.6164 16.3395 12.6228 16.3459 12.6485V12.6614C16.3459 12.6742 16.3587 12.6806 16.3587 12.6935C16.3716 12.7063 16.3716 12.7127 16.3716 12.7127C16.3844 12.7448 16.4037 12.777 16.423 12.8091L16.4358 12.8219C16.4551 12.854 16.4679 12.8733 16.4872 12.8926C16.4872 12.9054 16.5 12.9054 16.5 12.9118L16.5129 12.9247C16.5257 12.9439 16.545 12.9568 16.5578 12.976C16.5707 12.9889 16.5707 12.9953 16.5771 12.9953C16.5964 13.0146 16.6092 13.0274 16.622 13.0467C16.6349 13.0595 16.6413 13.0595 16.6413 13.0659H15.5367L14.8945 12.0063L15.5239 10.8696H16.6285C16.6156 10.8825 16.6156 10.8825 16.6092 10.8889L16.5964 10.9017C16.5707 10.9017 16.5642 10.9082 16.5386 10.9338C16.5386 10.9338 16.5514 10.9338 16.5386 10.9338Z" fill="#41E6AF"/>
<path d="M10.2465 16.9698C10.1309 16.9698 10.0024 16.9506 9.88042 16.9056C9.74555 16.8607 9.60427 16.8029 9.48225 16.7258C9.12262 16.5075 8.87216 16.1928 8.83363 15.8974C8.81437 15.7625 8.84648 15.6469 8.91712 15.5634C8.92996 15.5442 8.94923 15.5313 8.96207 15.5121C8.97492 15.4992 8.98134 15.4992 8.99418 15.4928C9.00703 15.4864 9.00703 15.4799 9.01345 15.4735C9.03271 15.4607 9.04556 15.4543 9.06482 15.4414C9.28317 15.3387 9.62996 15.3579 9.97032 15.5121L9.98317 15.5249C10.0153 15.5377 10.0474 15.557 10.0795 15.5698C10.1116 15.5827 10.1309 15.602 10.163 15.6212C10.1951 15.6405 10.2272 15.6662 10.2593 15.6854C10.2914 15.7047 10.3107 15.7304 10.3428 15.7497L10.3621 15.7625C10.3813 15.7818 10.407 15.7946 10.4263 15.8139C10.4391 15.8267 10.4391 15.8267 10.4456 15.8332C10.4648 15.846 10.4777 15.8653 10.4905 15.8781C10.5033 15.8909 10.5098 15.8974 10.5226 15.9231C10.5355 15.9487 10.5547 15.9552 10.5676 15.9744C10.5804 15.9873 10.5804 15.9873 10.5868 15.9937C10.5997 16.013 10.6189 16.0258 10.6318 16.0451L10.6511 16.0643C10.6639 16.0836 10.6703 16.0965 10.6832 16.1157V16.1286L10.696 16.1478C10.7153 16.1671 10.7281 16.1992 10.741 16.2185C10.7538 16.2377 10.7602 16.2698 10.7731 16.2891L10.7859 16.302C10.7859 16.3148 10.7988 16.3212 10.7988 16.3212C10.7988 16.3341 10.7988 16.3341 10.8116 16.3405C10.8116 16.3598 10.8244 16.3726 10.8244 16.3919C10.8244 16.4111 10.8373 16.4111 10.8373 16.424C10.8373 16.4368 10.8373 16.4432 10.8373 16.4432C10.8373 16.4625 10.8373 16.4754 10.8373 16.4882V16.5075C10.8373 16.5267 10.8373 16.5396 10.8373 16.5588C10.8373 16.5717 10.8373 16.5717 10.8373 16.5781C10.8373 16.5909 10.8373 16.5974 10.8373 16.5974C10.8373 16.6102 10.8373 16.6102 10.8373 16.6166V16.6295C10.8373 16.6487 10.8244 16.6616 10.818 16.6809C10.8052 16.7001 10.7988 16.713 10.7859 16.7322C10.6767 16.8992 10.4777 16.9827 10.2465 16.9698Z" fill="#41E6AF"/>
<path d="M11.0198 16.206C11.0198 16.1867 11.0069 16.1739 11.0005 16.1546C11.0005 16.1418 11.0005 16.1418 10.9876 16.1354C10.9748 16.1032 10.9684 16.084 10.9427 16.0519C10.8271 15.8335 10.6409 15.6216 10.4097 15.4546C10.3776 15.4354 10.3454 15.4097 10.3133 15.3904C10.2812 15.3711 10.2491 15.3455 10.217 15.339H10.2042C10.1913 15.3262 10.1849 15.3262 10.172 15.3198C10.1528 15.3069 10.1399 15.3005 10.1207 15.2877H10.1078C10.095 15.2877 10.0886 15.2748 10.0757 15.2748C10.0565 15.262 10.0308 15.2555 10.0115 15.2555L9.99223 15.2427C9.99223 15.2427 9.99223 15.2427 9.97939 15.2427C9.96655 15.2427 9.96012 15.2299 9.94728 15.2299C9.92801 15.217 9.90233 15.217 9.88306 15.2106L9.86379 15.1977H9.85095C9.83168 15.1849 9.806 15.1849 9.78673 15.1785C9.77389 15.1785 9.76746 15.1656 9.74178 15.1656H9.72893C9.70967 15.1656 9.68398 15.1528 9.67756 15.1528C9.67113 15.1528 9.64545 15.1528 9.6326 15.14H9.61976C9.60691 15.14 9.60049 15.1399 9.58765 15.1271C9.5748 15.1271 9.56838 15.1271 9.55554 15.1271C9.52343 15.1271 9.4849 15.1143 9.45279 15.1143H9.43994C9.40783 15.1143 9.37572 15.1143 9.34361 15.1143C9.33077 15.1143 9.32435 15.1143 9.32435 15.1143H9.33719C9.31792 15.1143 9.29224 15.1143 9.27297 15.1271C9.26013 15.1271 9.25371 15.1271 9.24086 15.14C9.2216 15.14 9.19591 15.1528 9.17664 15.1528C9.1638 15.1528 9.15738 15.1656 9.14453 15.1656L9.72251 14.228L10.962 14.2409L11.6042 15.3776L11.0262 16.3216C11.0262 16.3088 11.0262 16.3023 11.0133 16.2895C11.0133 16.2766 11.0133 16.2766 11.0133 16.2702C11.0133 16.2574 11.0005 16.251 11.0005 16.2253C11.0198 16.2188 11.0198 16.206 11.0198 16.206Z" fill="#41E6AF"/>
<path d="M13.2129 17.5296L10.1882 17.5168L9.72579 18.3902L9.41111 18.9874L10.2203 18.9746V18.9874L14.8441 19.0003L15.3065 18.2039L11.9671 12.4948L5.35884 12.4819L4.94141 13.2205L5.02489 13.3553H5.01205L7.63864 17.9792L8.51203 16.5599L6.97718 13.9526H11.1322L13.2129 17.5296Z" fill="#41E6AF"/>
</svg>
