<svg width="24" height="24" viewBox="0 0 24 24" fill="none" xmlns="http://www.w3.org/2000/svg">
<path d="M12 24C18.6274 24 24 18.6274 24 12C24 5.37258 18.6274 0 12 0C5.37258 0 0 5.37258 0 12C0 18.6274 5.37258 24 12 24Z" fill="#0032AD"/>
<path d="M8.55373 11.9413C8.51829 12.583 8.99228 13.1324 9.60802 13.1693C9.63016 13.1693 9.65231 13.1693 9.67446 13.1693C10.2946 13.1693 10.7952 12.6476 10.7908 12.0013C10.7908 11.355 10.2902 10.8333 9.67003 10.8379C9.07644 10.8379 8.58474 11.3227 8.55373 11.9413Z" fill="white"/>
<path d="M4.38133 11.641C4.18199 11.6271 4.00923 11.7887 4.00037 11.9964C3.99151 12.2042 4.14212 12.3842 4.34146 12.3935C4.5408 12.4073 4.70914 12.2457 4.72243 12.038C4.73571 11.8302 4.58067 11.6548 4.38133 11.641Z" fill="white"/>
<path d="M8.48367 5.17324C8.66086 5.08091 8.73174 4.85008 8.64314 4.66542C8.55455 4.48076 8.33306 4.40689 8.15587 4.49922C7.97867 4.59155 7.9078 4.81777 7.99639 5.00243C8.08499 5.19171 8.30205 5.27019 8.48367 5.17324C8.47924 5.17324 8.48367 5.17324 8.48367 5.17324Z" fill="white"/>
<path d="M9.61659 7.23687C9.89124 7.09376 10.002 6.7429 9.86466 6.45667C9.72733 6.17044 9.39067 6.05503 9.11603 6.19814C8.84138 6.34125 8.73064 6.69211 8.86796 6.97834C9.00528 7.26457 9.34194 7.37998 9.61659 7.23687Z" fill="white"/>
<path d="M5.79785 8.65427C6.01048 8.79738 6.29398 8.73736 6.43574 8.51577C6.57306 8.29417 6.51547 7.99871 6.30284 7.85098C6.09021 7.70787 5.80671 7.76788 5.66496 7.98948C5.5232 8.21107 5.58522 8.51115 5.79785 8.65427Z" fill="white"/>
<path d="M6.4767 11.4336C6.16661 11.4151 5.90526 11.6598 5.88754 11.983C5.86982 12.3061 6.1046 12.5785 6.41468 12.597C6.72477 12.6154 6.98612 12.3708 7.00384 12.0476C7.02156 11.7291 6.78678 11.4521 6.4767 11.4336Z" fill="white"/>
<path d="M5.8611 15.3436C5.63518 15.4636 5.54216 15.7499 5.65733 15.9899C5.7725 16.2254 6.04715 16.3223 6.2775 16.2023C6.50342 16.0822 6.59644 15.796 6.48127 15.556C6.36609 15.3205 6.08702 15.2236 5.8611 15.3436Z" fill="white"/>
<path d="M8.03079 10.2281C8.33645 10.4359 8.74399 10.3482 8.9389 10.0296C9.13824 9.71109 9.05407 9.28637 8.74842 9.08324C8.44276 8.87549 8.03522 8.96321 7.84031 9.28175C7.64097 9.59568 7.72514 10.0204 8.03079 10.2281Z" fill="white"/>
<path d="M14.9197 7.19083C15.1767 7.36626 15.5266 7.2924 15.695 7.02464C15.8633 6.75688 15.7924 6.39217 15.5355 6.21674C15.2786 6.04131 14.9286 6.11517 14.7603 6.38293C14.5875 6.65531 14.6584 7.0154 14.9197 7.19083Z" fill="white"/>
<path d="M16.0615 5.13656C16.2298 5.25198 16.4513 5.2012 16.5621 5.02577C16.6728 4.85034 16.6241 4.61951 16.4557 4.50409C16.2874 4.38868 16.0659 4.43946 15.9552 4.61027C15.8489 4.7857 15.8976 5.02115 16.0615 5.13656Z" fill="white"/>
<path d="M15.0049 10.8286C14.3892 10.7917 13.8576 11.2856 13.8266 11.9273C13.7911 12.5691 14.2651 13.123 14.8809 13.1554C14.903 13.1554 14.9252 13.1554 14.9429 13.1554C15.5586 13.1554 16.0592 12.6337 16.0592 11.9874C16.0636 11.3734 15.5985 10.8609 15.0049 10.8286Z" fill="white"/>
<path d="M9.9847 10.1455C10.1752 10.5379 10.5606 10.7872 10.9858 10.7872C11.6016 10.7872 12.1021 10.2656 12.1021 9.61925C12.1021 9.4392 12.0623 9.25916 11.9825 9.09296C11.7035 8.51589 11.0301 8.28506 10.4808 8.5759C9.92711 8.87137 9.70562 9.57308 9.9847 10.1455Z" fill="white"/>
<path d="M18.7507 8.65419C18.9767 8.53416 19.0653 8.24331 18.9501 8.00787C18.8349 7.77242 18.5558 7.68009 18.3299 7.80012C18.104 7.92015 18.0154 8.20638 18.1261 8.44183C18.2458 8.67727 18.5204 8.77422 18.7507 8.65419Z" fill="white"/>
<path d="M15.9154 9.02339C15.592 9.19421 15.4591 9.60508 15.623 9.94209C15.7869 10.2791 16.1812 10.4176 16.5045 10.2468C16.8279 10.076 16.9608 9.6651 16.7969 9.32809C16.633 8.99108 16.2388 8.8572 15.9154 9.02339Z" fill="white"/>
<path d="M12.2623 4.96093C12.5148 4.97478 12.7319 4.77165 12.7496 4.50851C12.7673 4.24536 12.568 4.01915 12.3155 4.00068C12.063 3.98683 11.8459 4.18535 11.8282 4.44849C11.8149 4.71625 12.0098 4.94246 12.2623 4.96093Z" fill="white"/>
<path d="M12.2563 7.9757C12.6195 7.99878 12.9296 7.70794 12.9473 7.32938C12.9695 6.95082 12.6904 6.62766 12.3272 6.60919C11.9639 6.58611 11.6538 6.87696 11.6361 7.25551C11.6184 7.63407 11.8931 7.95723 12.2563 7.9757Z" fill="white"/>
<path d="M8.69619 14.9744C9.01956 14.8036 9.15245 14.3927 8.98855 14.0557C8.82465 13.7187 8.4304 13.5802 8.10703 13.751C7.78365 13.9218 7.65076 14.3327 7.81466 14.6697C7.97856 15.0067 8.37281 15.1452 8.69619 14.9744Z" fill="white"/>
<path d="M12.6829 8.97746C12.3462 9.5176 12.488 10.2378 13.0063 10.5886C13.5246 10.9395 14.2156 10.7918 14.5523 10.2516C14.8889 9.7115 14.7472 8.99131 14.2289 8.64045C14.0473 8.5158 13.8346 8.45117 13.6176 8.45117C13.241 8.45117 12.8911 8.64968 12.6829 8.97746Z" fill="white"/>
<path d="M14.6286 13.8522C14.3495 13.2752 13.6762 13.0443 13.1269 13.3352C12.5732 13.626 12.3517 14.3277 12.6307 14.9002C12.9098 15.4773 13.5831 15.7081 14.1324 15.4173C14.6817 15.131 14.9076 14.4385 14.633 13.8615C14.633 13.8569 14.633 13.8569 14.6286 13.8522Z" fill="white"/>
<path d="M16.5808 13.7693C16.2751 13.5615 15.8676 13.6492 15.6727 13.9678C15.4734 14.2863 15.5575 14.7111 15.8632 14.9142C16.1688 15.1219 16.5764 15.0342 16.7713 14.7157C16.9706 14.4017 16.8865 13.977 16.5808 13.7693Z" fill="white"/>
<path d="M18.7248 12.0198C18.7425 11.6966 18.5077 11.4242 18.1976 11.4058C17.8875 11.3873 17.6262 11.632 17.6085 11.9551C17.5907 12.2783 17.8255 12.5507 18.1356 12.5691C18.4413 12.5876 18.7071 12.3383 18.7248 12.0198Z" fill="white"/>
<path d="M20.272 11.6043C20.0727 11.5905 19.8999 11.7521 19.891 11.9598C19.8822 12.1676 20.0328 12.3476 20.2321 12.3568C20.4315 12.3707 20.5998 12.2091 20.6131 12.0014C20.622 11.7936 20.4713 11.6182 20.272 11.6043Z" fill="white"/>
<path d="M18.8125 15.3437C18.5999 15.2005 18.3164 15.2606 18.1746 15.4822C18.0373 15.7038 18.0949 15.9992 18.3075 16.1469C18.5201 16.2901 18.8036 16.23 18.9454 16.0084C19.0871 15.7868 19.0251 15.4868 18.8125 15.3437Z" fill="white"/>
<path d="M8.54493 18.8615C8.3766 18.7461 8.15511 18.7969 8.04436 18.9677C7.93362 19.1431 7.98235 19.374 8.14625 19.4894C8.31458 19.6048 8.53607 19.554 8.64681 19.3832C8.76199 19.2124 8.71326 18.9769 8.54493 18.8615Z" fill="white"/>
<path d="M16.13 18.8244C15.9528 18.9167 15.882 19.1475 15.9706 19.3322C16.0592 19.5169 16.2806 19.5907 16.4578 19.4984C16.635 19.4061 16.7059 19.1799 16.6173 18.9952C16.5287 18.8059 16.3117 18.7274 16.13 18.8244C16.1345 18.8244 16.13 18.8244 16.13 18.8244Z" fill="white"/>
<path d="M11.9294 15.0202C12.2661 14.4801 12.1243 13.7599 11.606 13.4044C11.0878 13.0536 10.3967 13.2013 10.0556 13.7414C9.71453 14.2816 9.86071 15.0018 10.379 15.3572C10.5606 15.4819 10.7732 15.5465 10.9903 15.5465C11.3713 15.5511 11.7212 15.3526 11.9294 15.0202Z" fill="white"/>
<path d="M9.69235 16.8071C9.43542 16.6316 9.08547 16.7055 8.91714 16.9733C8.74881 17.241 8.81969 17.6057 9.07661 17.7812C9.33354 17.9566 9.68349 17.8827 9.85182 17.615C10.0246 17.3472 9.95371 16.9825 9.69235 16.8071Z" fill="white"/>
<path d="M12.3015 19.0368C12.049 19.023 11.832 19.2261 11.8143 19.4892C11.7965 19.7524 11.9959 19.9786 12.2484 19.997C12.5009 20.0109 12.7179 19.8124 12.7356 19.5492C12.7489 19.2815 12.554 19.0553 12.3015 19.0368Z" fill="white"/>
<path d="M12.306 16.0223C11.9427 15.9992 11.6326 16.29 11.6149 16.6686C11.5928 17.0472 11.8718 17.3703 12.2351 17.3888C12.5983 17.4073 12.9084 17.121 12.9261 16.7425C12.9483 16.3685 12.6692 16.0407 12.306 16.0223Z" fill="white"/>
<path d="M14.9954 16.7607C14.7207 16.9084 14.61 17.2593 14.7517 17.5455C14.8935 17.8318 15.2301 17.9472 15.5048 17.7994C15.7794 17.6563 15.8902 17.3055 15.7528 17.0192C15.6111 16.733 15.2744 16.613 14.9954 16.7607Z" fill="white"/>
</svg>
