<svg width="24" height="24" viewBox="0 0 24 24" fill="none" xmlns="http://www.w3.org/2000/svg">
<path d="M12 24C18.6274 24 24 18.6274 24 12C24 5.37258 18.6274 0 12 0C5.37258 0 0 5.37258 0 12C0 18.6274 5.37258 24 12 24Z" fill="#7C49CC"/>
<path d="M16.3106 9.2789C16.0201 9.11273 15.6466 9.11273 15.3146 9.2789L12.9904 10.6498L11.4133 11.5222L9.1307 12.8931C8.84019 13.0593 8.46666 13.0593 8.13464 12.8931L6.35003 11.813C6.05951 11.6468 5.852 11.3145 5.852 10.9406V8.86347C5.852 8.53113 6.01801 8.19879 6.35003 7.99108L8.13464 6.95251C8.42516 6.78634 8.79868 6.78634 9.1307 6.95251L10.9153 8.03262C11.2058 8.19879 11.4133 8.53113 11.4133 8.90501V10.2759L12.9904 9.36198V7.94953C12.9904 7.61719 12.8244 7.28485 12.4924 7.07714L9.17221 5.12463C8.88169 4.95846 8.50816 4.95846 8.17614 5.12463L4.77293 7.11868C4.44091 7.28485 4.2749 7.61719 4.2749 7.94953V11.8545C4.2749 12.1869 4.44091 12.5192 4.77293 12.7269L8.13464 14.6795C8.42516 14.8456 8.79868 14.8456 9.1307 14.6795L11.4133 13.3501L12.9904 12.4361L15.2731 11.1068C15.5636 10.9406 15.9371 10.9406 16.2691 11.1068L18.0538 12.1453C18.3443 12.3115 18.5518 12.6439 18.5518 13.0177V15.0949C18.5518 15.4272 18.3858 15.7596 18.0538 15.9673L16.3106 17.0058C16.0201 17.172 15.6466 17.172 15.3146 17.0058L13.53 15.9673C13.2395 15.8011 13.0319 15.4688 13.0319 15.0949V13.7655L11.4548 14.6795V16.0504C11.4548 16.3827 11.6209 16.715 11.9529 16.9228L15.3146 18.8753C15.6051 19.0414 15.9786 19.0414 16.3106 18.8753L19.6724 16.9228C19.9629 16.7566 20.1704 16.4242 20.1704 16.0504V12.1038C20.1704 11.7715 20.0044 11.4391 19.6724 11.2314L16.3106 9.2789Z" fill="white"/>
</svg>
