<svg width="24" height="24" viewBox="0 0 24 24" fill="none" xmlns="http://www.w3.org/2000/svg">
<path d="M12 24C18.6274 24 24 18.6274 24 12C24 5.37258 18.6274 0 12 0C5.37258 0 0 5.37258 0 12C0 18.6274 5.37258 24 12 24Z" fill="#0F0338"/>
<g clip-path="url(#clip0_2501_3838)">
<path d="M6.59895 15.159C6.6955 15.0666 6.82826 15.0127 6.96907 15.0127H19.7385C19.9718 15.0127 20.0885 15.2822 19.9236 15.44L17.4011 17.8539C17.3045 17.9463 17.1717 18.0002 17.0309 18.0002H4.26151C4.02816 18.0002 3.91149 17.7307 4.07644 17.5728L6.59895 15.159Z" fill="url(#paint0_linear_2501_3838)"/>
<path d="M6.5991 6.14629C6.69968 6.0539 6.83244 6 6.96923 6H19.7387C19.972 6 20.0887 6.26949 19.9237 6.42733L17.4012 8.84119C17.3047 8.93359 17.1719 8.98749 17.0311 8.98749H4.26166C4.02832 8.98749 3.91165 8.718 4.07659 8.56015L6.5991 6.14629Z" fill="url(#paint1_linear_2501_3838)"/>
<path d="M17.4011 10.6238C17.3045 10.5314 17.1717 10.4775 17.0309 10.4775H4.26151C4.02816 10.4775 3.91149 10.747 4.07644 10.9049L6.59895 13.3187C6.6955 13.4111 6.82826 13.465 6.96907 13.465H19.7385C19.9718 13.465 20.0885 13.1955 19.9236 13.0377L17.4011 10.6238Z" fill="url(#paint2_linear_2501_3838)"/>
</g>
<defs>
<linearGradient id="paint0_linear_2501_3838" x1="18.5186" y1="4.55821" x2="10.2773" y2="21.0542" gradientUnits="userSpaceOnUse">
<stop stop-color="#00FFA3"/>
<stop offset="1" stop-color="#DC1FFF"/>
</linearGradient>
<linearGradient id="paint1_linear_2501_3838" x1="14.6546" y1="2.62747" x2="6.41321" y2="19.1235" gradientUnits="userSpaceOnUse">
<stop stop-color="#00FFA3"/>
<stop offset="1" stop-color="#DC1FFF"/>
</linearGradient>
<linearGradient id="paint2_linear_2501_3838" x1="16.5742" y1="3.58676" x2="8.33286" y2="20.0828" gradientUnits="userSpaceOnUse">
<stop stop-color="#00FFA3"/>
<stop offset="1" stop-color="#DC1FFF"/>
</linearGradient>
<clipPath id="clip0_2501_3838">
<rect width="16" height="12" fill="white" transform="translate(4 6)"/>
</clipPath>
</defs>
</svg>
