<svg width="40" height="40" viewBox="0 0 40 40" fill="none" xmlns="http://www.w3.org/2000/svg">
<path d="M21.905 23.0848C22.1049 23.1676 22.3191 23.2103 22.5355 23.2102C22.8614 23.2104 23.18 23.1139 23.451 22.9329C23.7221 22.752 23.9334 22.4948 24.0582 22.1937C24.183 21.8927 24.2158 21.5614 24.1523 21.2417C24.0889 20.9221 23.932 20.6284 23.7017 20.3979C23.4713 20.1674 23.1778 20.0104 22.8581 19.9467C22.5385 19.8831 22.2072 19.9156 21.9061 20.0402C21.605 20.1649 21.3476 20.376 21.1665 20.647C20.9854 20.9179 20.8887 21.2364 20.8886 21.5623C20.8885 21.7787 20.9309 21.993 21.0136 22.1929C21.0963 22.3929 21.2176 22.5745 21.3705 22.7276C21.5235 22.8806 21.7051 23.002 21.905 23.0848Z" fill="#B8B8BC"/>
<path d="M18.961 27.2732C21.6328 27.2732 22.8139 26.0702 22.8633 26.0198C22.9378 25.9389 22.9776 25.8321 22.9744 25.7222C22.9712 25.6124 22.9251 25.5081 22.8461 25.4317C22.7671 25.3554 22.6613 25.3129 22.5514 25.3134C22.4415 25.3139 22.3361 25.3574 22.2578 25.4345L22.2566 25.4356C22.2162 25.4741 21.2099 26.4316 18.961 26.4316C16.7146 26.4316 15.8181 25.4782 15.7942 25.4512C15.7208 25.3678 15.6176 25.3166 15.5069 25.3085C15.3961 25.3004 15.2866 25.3362 15.2019 25.408C15.1173 25.4807 15.0649 25.584 15.0562 25.6952C15.0476 25.8065 15.0833 25.9166 15.1556 26.0016C15.2006 26.0541 16.2744 27.2732 18.961 27.2732Z" fill="#B8B8BC"/>
<path d="M14.1275 20.9229C14.0464 21.1262 14.0066 21.3435 14.0103 21.5623C14.0178 21.9942 14.1945 22.4058 14.5025 22.7087C14.8105 23.0115 15.225 23.1813 15.6569 23.1815C16.0888 23.1817 16.5036 23.0123 16.8118 22.7097C17.1201 22.4072 17.2972 21.9957 17.3051 21.5639C17.309 21.3451 17.2694 21.1277 17.1885 20.9244C17.1075 20.7211 16.9869 20.5359 16.8336 20.3798C16.6803 20.2236 16.4975 20.0995 16.2957 20.0148C16.0939 19.93 15.8773 19.8863 15.6585 19.8862C15.4397 19.8861 15.223 19.9296 15.0212 20.0142C14.8193 20.0987 14.6363 20.2226 14.4829 20.3787C14.3295 20.5347 14.2087 20.7197 14.1275 20.9229Z" fill="#B8B8BC"/>
<path fill-rule="evenodd" clip-rule="evenodd" d="M20 40C31.0457 40 40 31.0457 40 20C40 8.95431 31.0457 0 20 0C8.9543 0 0 8.95431 0 20C0 31.0457 8.9543 40 20 40ZM27.9562 17.0568C29.4343 17.0568 30.6381 18.2596 30.6381 19.7384C30.6381 20.6672 30.1522 21.5244 29.367 22.0127C29.4126 22.2732 29.4363 22.5372 29.4377 22.8018C29.4377 26.6721 24.7463 29.821 18.9795 29.821C13.2137 29.821 8.52252 26.6721 8.52252 22.8018C8.52439 22.5294 8.54988 22.2577 8.5987 21.9898C7.83404 21.4979 7.36214 20.6529 7.36214 19.7382C7.36214 18.2596 8.56412 17.0565 10.0427 17.0565C10.6948 17.0565 11.3024 17.2973 11.7894 17.7198C13.5982 16.5667 16.0155 15.8449 18.6828 15.7948L20.5577 10.4674L25.0723 11.5464C25.3973 10.7461 26.1812 10.1788 27.0987 10.1788C28.3057 10.1788 29.2885 11.1608 29.2885 12.3687C29.2885 13.5762 28.3057 14.5582 27.0987 14.5582C25.8926 14.5582 24.9127 13.5788 24.9095 12.3742L21.099 11.4632L19.5723 15.8046C22.1301 15.9014 24.4426 16.6138 26.1864 17.7294C26.1956 17.7235 26.2051 17.7178 26.2146 17.7122C26.2209 17.7084 26.2272 17.7047 26.2335 17.7008C26.7168 17.2911 27.3158 17.0568 27.9562 17.0568Z" fill="#B8B8BC"/>
</svg>
