<svg width="40" height="40" viewBox="0 0 40 40" fill="none" xmlns="http://www.w3.org/2000/svg">
<path fill-rule="evenodd" clip-rule="evenodd" d="M40 20C40 31.0457 31.0457 40 20 40C8.95431 40 0 31.0457 0 20C0 8.95431 8.95431 0 20 0C31.0457 0 40 8.95431 40 20ZM20.8244 13.9796C18.5874 14.9101 14.1163 16.836 7.41136 19.7572C6.32258 20.1902 5.75223 20.6137 5.70031 21.0279C5.61256 21.7279 6.4891 22.0035 7.68272 22.3788C7.84509 22.4299 8.01331 22.4828 8.18578 22.5388C9.36012 22.9206 10.9398 23.3671 11.761 23.3849C12.506 23.401 13.3374 23.0939 14.2553 22.4636C20.52 18.2348 23.7538 16.0973 23.9568 16.0512C24.1001 16.0187 24.2985 15.9778 24.433 16.0974C24.5675 16.2169 24.5543 16.4433 24.5401 16.504C24.4532 16.8742 21.0124 20.0731 19.2318 21.7285C18.6768 22.2445 18.283 22.6105 18.2026 22.6941C18.0222 22.8814 17.8385 23.0586 17.6619 23.2288C16.5709 24.2805 15.7527 25.0692 17.7072 26.3572C18.6464 26.9761 19.398 27.4879 20.1477 27.9985C20.9666 28.5562 21.7833 29.1123 22.84 29.805C23.1092 29.9815 23.3663 30.1648 23.6168 30.3433C24.5697 31.0227 25.4258 31.633 26.4835 31.5357C27.0981 31.4792 27.733 30.9012 28.0554 29.1777C28.8173 25.1044 30.315 16.2787 30.6612 12.6419C30.6915 12.3232 30.6533 11.9154 30.6227 11.7364C30.5921 11.5574 30.528 11.3024 30.2954 11.1136C30.0198 10.89 29.5944 10.8428 29.4041 10.8462C28.539 10.8614 27.2118 11.3229 20.8244 13.9796Z" fill="#B8B8BC"/>
</svg>
