<svg width="40" height="40" viewBox="0 0 40 40" fill="none" xmlns="http://www.w3.org/2000/svg">
<path fill-rule="evenodd" clip-rule="evenodd" d="M19.989 29.785H19.993C25.441 29.785 29.875 25.35 29.877 19.9C29.8811 18.6011 29.6277 17.3142 29.1313 16.1139C28.6349 14.9136 27.9054 13.8236 26.985 12.907C25.119 11.039 22.637 10.009 19.997 10.009C14.544 10.009 10.11 14.443 10.108 19.893C10.1053 21.7538 10.6291 23.5773 11.619 25.153L11.854 25.527L10.855 29.175L14.597 28.193L14.957 28.407C16.4804 29.3094 18.2184 29.7853 19.989 29.785ZM23.384 21.415C23.656 21.515 25.117 22.233 25.415 22.382H25.414C25.4724 22.4112 25.5269 22.4375 25.5775 22.4619C25.7848 22.5619 25.9245 22.6293 25.984 22.729C26.058 22.853 26.058 23.448 25.811 24.142C25.563 24.836 24.375 25.47 23.805 25.555C23.293 25.632 22.645 25.664 21.933 25.437C21.502 25.301 20.949 25.118 20.239 24.812C17.458 23.6113 15.5778 20.9181 15.217 20.4014C15.1911 20.3642 15.173 20.3383 15.163 20.325L15.1606 20.3217C15.0028 20.1111 13.95 18.7053 13.95 17.251C13.95 15.8792 14.6244 15.1615 14.9335 14.8325C14.954 14.8107 14.973 14.7905 14.99 14.772C15.262 14.474 15.584 14.4 15.782 14.4C15.98 14.4 16.178 14.402 16.352 14.41C16.3736 14.4112 16.3962 14.4111 16.4195 14.411C16.5922 14.4105 16.8077 14.4099 17.02 14.92C17.1063 15.127 17.2344 15.439 17.3679 15.7641C17.6183 16.3738 17.8877 17.0298 17.936 17.127C18.011 17.276 18.061 17.449 17.961 17.647C17.946 17.6771 17.9322 17.7054 17.9191 17.7325C17.8449 17.8846 17.7905 17.9963 17.664 18.144C17.6128 18.2035 17.5599 18.2679 17.507 18.3321C17.4063 18.4546 17.3059 18.5767 17.218 18.664C17.069 18.812 16.915 18.973 17.088 19.27C17.261 19.568 17.858 20.541 18.741 21.329C19.6866 22.1721 20.5094 22.5301 20.9294 22.7128C21.0135 22.7494 21.0814 22.779 21.131 22.804C21.428 22.952 21.601 22.928 21.775 22.729C21.948 22.531 22.517 21.861 22.715 21.565C22.914 21.267 23.112 21.316 23.384 21.415Z" fill="#B8B8BC"/>
<path fill-rule="evenodd" clip-rule="evenodd" d="M20 40C31.0457 40 40 31.0457 40 20C40 8.9543 31.0457 0 20 0C8.9543 0 0 8.9543 0 20C0 31.0457 8.9543 40 20 40ZM24.5481 8.9008C25.9922 9.49954 27.3032 10.3789 28.405 11.488C29.5124 12.5907 30.3901 13.902 30.9874 15.346C31.5848 16.7901 31.8898 18.3383 31.885 19.901C31.883 26.459 26.547 31.794 19.993 31.794H19.988C18.0021 31.794 16.0479 31.2961 14.304 30.346L8 32L9.687 25.837C8.64437 24.0294 8.09696 21.9788 8.1 19.892C8.102 13.335 13.438 8 19.992 8C21.5553 7.99588 23.1039 8.30206 24.5481 8.9008Z" fill="#B8B8BC"/>
</svg>
