<svg width="19" height="19" viewBox="0 0 19 19" fill="none" xmlns="http://www.w3.org/2000/svg">
<path d="M18.2083 8.70833C17.7713 8.70833 17.4167 9.063 17.4167 9.5C17.4167 13.8653 13.8653 17.4167 9.5 17.4167C5.13475 17.4167 1.58333 13.8653 1.58333 9.5C1.58333 5.13475 5.13475 1.58333 9.5 1.58333C11.6252 1.58333 13.6202 2.41379 15.1181 3.92192C15.4256 4.23225 15.9271 4.23423 16.2375 3.92588C16.5478 3.61792 16.5494 3.11679 16.2414 2.80646C14.4444 0.996708 12.05 0 9.5 0C4.26154 0 0 4.26154 0 9.5C0 14.7385 4.26154 19 9.5 19C14.7385 19 19 14.7385 19 9.5C19 9.063 18.6453 8.70833 18.2083 8.70833Z" fill="white"/>
<path d="M12.6667 8.70833H10.2917V6.33333C10.2917 5.89633 9.937 5.54167 9.5 5.54167C9.063 5.54167 8.70833 5.89633 8.70833 6.33333V8.70833H6.33333C5.89633 8.70833 5.54167 9.063 5.54167 9.5C5.54167 9.937 5.89633 10.2917 6.33333 10.2917H8.70833V12.6667C8.70833 13.1037 9.063 13.4583 9.5 13.4583C9.937 13.4583 10.2917 13.1037 10.2917 12.6667V10.2917H12.6667C13.1037 10.2917 13.4583 9.937 13.4583 9.5C13.4583 9.063 13.1037 8.70833 12.6667 8.70833Z" fill="white"/>
</svg>
