<svg width="29" height="29" viewBox="0 0 29 29" fill="none" xmlns="http://www.w3.org/2000/svg">
<path d="M14.5003 0.357422C22.3107 0.357422 28.6431 6.68989 28.6431 14.5003C28.6431 22.3107 22.3107 28.6431 14.5003 28.6431C6.68989 28.6431 0.357422 22.3107 0.357422 14.5003C0.357422 6.68989 6.68989 0.357422 14.5003 0.357422ZM14.5003 7.42885C14.2867 7.42886 14.0803 7.50622 13.9193 7.64661C13.7583 7.78701 13.6537 7.98095 13.6246 8.19256L13.6164 8.31278V13.6164H8.31278C8.08882 13.6164 7.87324 13.7015 7.7096 13.8544C7.54595 14.0073 7.44644 14.2166 7.43118 14.44C7.41591 14.6635 7.48603 14.8844 7.62736 15.0581C7.76869 15.2318 7.9707 15.3454 8.19256 15.376L8.31278 15.3842H13.6164V20.6878C13.6164 20.9117 13.7015 21.1273 13.8544 21.291C14.0073 21.4546 14.2166 21.5541 14.44 21.5694C14.6635 21.5846 14.8844 21.5145 15.0581 21.3732C15.2318 21.2319 15.3454 21.0299 15.376 20.808L15.3842 20.6878V15.3842H20.6878C20.9117 15.3841 21.1273 15.2991 21.291 15.1462C21.4546 14.9933 21.5541 14.784 21.5694 14.5605C21.5846 14.3371 21.5145 14.1162 21.3732 13.9425C21.2319 13.7687 21.0299 13.6551 20.808 13.6246L20.6878 13.6164H15.3842V8.31278C15.3842 8.07835 15.2911 7.85352 15.1253 7.68775C14.9595 7.52198 14.7347 7.42885 14.5003 7.42885Z" fill="#F1C94A"/>
</svg>
