<svg width="16" height="9" viewBox="0 0 16 9" fill="none" xmlns="http://www.w3.org/2000/svg">
<path d="M7.9993 7.9993C7.76565 7.99976 7.53921 7.91838 7.3593 7.7693L1.3593 2.7693C1.15508 2.59956 1.02666 2.35565 1.00228 2.09122C0.977899 1.8268 1.05956 1.56352 1.2293 1.3593C1.39904 1.15508 1.64295 1.02666 1.90738 1.00228C2.1718 0.977899 2.43508 1.05956 2.6393 1.2293L7.9993 5.7093L13.3593 1.3893C13.4616 1.30623 13.5793 1.2442 13.7056 1.20677C13.832 1.16934 13.9645 1.15724 14.0955 1.17118C14.2265 1.18512 14.3535 1.22482 14.4691 1.28799C14.5848 1.35117 14.6868 1.43657 14.7693 1.5393C14.8609 1.64212 14.9302 1.76275 14.973 1.89362C15.0158 2.02449 15.0311 2.16279 15.018 2.29986C15.0048 2.43692 14.9635 2.56979 14.8967 2.69015C14.8298 2.81051 14.7387 2.91575 14.6293 2.9993L8.6293 7.8293C8.44422 7.95481 8.2224 8.01467 7.9993 7.9993Z" fill="#7D7D8E"/>
</svg>
