<svg width="22" height="21" viewBox="0 0 22 21" fill="none" xmlns="http://www.w3.org/2000/svg">
<path d="M11.0003 5.79961C9.62114 5.79961 8.2985 6.34746 7.32331 7.32265C6.34812 8.29784 5.80027 9.62048 5.80027 10.9996C5.80027 12.3787 6.34812 13.7014 7.32331 14.6766C8.2985 15.6518 9.62114 16.1996 11.0003 16.1996C12.3794 16.1996 13.702 15.6518 14.6772 14.6766C15.6524 13.7014 16.2003 12.3787 16.2003 10.9996C16.2003 9.62048 15.6524 8.29784 14.6772 7.32265C13.702 6.34746 12.3794 5.79961 11.0003 5.79961ZM7.10027 10.9996C7.10027 9.96526 7.51116 8.97328 8.24255 8.24189C8.97394 7.5105 9.96592 7.09961 11.0003 7.09961C12.0346 7.09961 13.0266 7.5105 13.758 8.24189C14.4894 8.97328 14.9003 9.96526 14.9003 10.9996C14.9003 12.034 14.4894 13.0259 13.758 13.7573C13.0266 14.4887 12.0346 14.8996 11.0003 14.8996C9.96592 14.8996 8.97394 14.4887 8.24255 13.7573C7.51116 13.0259 7.10027 12.034 7.10027 10.9996ZM8.56147 0.599609C8.20013 0.599621 7.84589 0.700033 7.53829 0.889642C7.2307 1.07925 6.98183 1.3506 6.81947 1.67341L6.05247 3.19961H3.85547C2.99352 3.19961 2.16686 3.54202 1.55737 4.15151C0.947878 4.76101 0.605469 5.58766 0.605469 6.44961V16.8496C0.605469 17.7116 0.947878 18.5382 1.55737 19.1477C2.16686 19.7572 2.99352 20.0996 3.85547 20.0996H18.1555C19.0174 20.0996 19.8441 19.7572 20.4536 19.1477C21.0631 18.5382 21.4055 17.7116 21.4055 16.8496V6.44961C21.4055 5.58766 21.0631 4.76101 20.4536 4.15151C19.8441 3.54202 19.0174 3.19961 18.1555 3.19961H15.9585L15.1993 1.67861C15.0374 1.35443 14.7885 1.08176 14.4803 0.891171C14.1722 0.700584 13.817 0.599622 13.4547 0.599609H8.56147ZM7.98037 2.25711C8.03458 2.14952 8.11763 2.05912 8.22024 1.99599C8.32286 1.93286 8.44099 1.89949 8.56147 1.89961H13.4547C13.5755 1.89937 13.694 1.93282 13.7969 1.9962C13.8998 2.05958 13.9829 2.15038 14.0371 2.25841L14.977 4.13951C15.031 4.24734 15.114 4.33801 15.2166 4.40138C15.3192 4.46474 15.4375 4.49831 15.5581 4.49831H18.1568C18.6739 4.49831 19.1699 4.70375 19.5356 5.06945C19.9013 5.43515 20.1068 5.93114 20.1068 6.44831V16.8496C20.1068 17.3668 19.9013 17.8628 19.5356 18.2285C19.1699 18.5942 18.6739 18.7996 18.1568 18.7996H3.85677C3.3396 18.7996 2.84361 18.5942 2.47791 18.2285C2.11221 17.8628 1.90677 17.3668 1.90677 16.8496V6.44961C1.90677 5.93244 2.11221 5.43645 2.47791 5.07075C2.84361 4.70505 3.3396 4.49961 3.85677 4.49961H6.45417C6.57456 4.49936 6.69252 4.46569 6.79489 4.40234C6.89726 4.33898 6.98003 4.24844 7.03397 4.14081L7.98037 2.25711Z" fill="#B8B8BC"/>
</svg>
