<svg width="19" height="19" viewBox="0 0 19 19" fill="none" xmlns="http://www.w3.org/2000/svg">
<path d="M18.2083 8.70833C17.7713 8.70833 17.4167 9.063 17.4167 9.5C17.4167 13.8653 13.8653 17.4167 9.5 17.4167C5.13475 17.4167 1.58333 13.8653 1.58333 9.5C1.58333 5.13475 5.13475 1.58333 9.5 1.58333C11.6252 1.58333 13.6202 2.41379 15.1181 3.92192C15.4256 4.23225 15.9271 4.23423 16.2375 3.92588C16.5478 3.61792 16.5494 3.11679 16.2414 2.80646C14.4444 0.996708 12.05 0 9.5 0C4.26154 0 0 4.26154 0 9.5C0 14.7385 4.26154 19 9.5 19C14.7385 19 19 14.7385 19 9.5C19 9.063 18.6453 8.70833 18.2083 8.70833Z" fill="#20242A"/>
<path d="M12.668 8.70866H10.293V6.33366C10.293 5.89666 9.9383 5.54199 9.5013 5.54199C9.0643 5.54199 8.70964 5.89666 8.70964 6.33366V8.70866H6.33464C5.89764 8.70866 5.54297 9.06333 5.54297 9.50033C5.54297 9.93733 5.89764 10.292 6.33464 10.292H8.70964V12.667C8.70964 13.104 9.0643 13.4587 9.5013 13.4587C9.9383 13.4587 10.293 13.104 10.293 12.667V10.292H12.668C13.105 10.292 13.4596 9.93733 13.4596 9.50033C13.4596 9.06333 13.105 8.70866 12.668 8.70866Z" fill="#20242A"/>
</svg>
