<svg width="12" height="14" viewBox="0 0 12 14" fill="none" xmlns="http://www.w3.org/2000/svg">
<path fill-rule="evenodd" clip-rule="evenodd" d="M9 3H9.75C10.9926 3 12 4.00736 12 5.25V11.25C12 12.4926 10.9926 13.5 9.75 13.5H5.25C4.00736 13.5 3 12.4926 3 11.25V10.5H2.25C1.00736 10.5 0 9.49264 0 8.25V2.25C0 1.00736 1.00736 0 2.25 0H6.75C7.99264 0 9 1.00736 9 2.25V3ZM6.75 1.5H2.25C1.83579 1.5 1.5 1.83579 1.5 2.25V8.25C1.5 8.66421 1.83579 9 2.25 9H3V5.25C3 4.00736 4.00736 3 5.25 3H7.5V2.25C7.5 1.83579 7.16421 1.5 6.75 1.5ZM5.25 4.5H9.75C10.1642 4.5 10.5 4.83579 10.5 5.25V11.25C10.5 11.6642 10.1642 12 9.75 12H5.25C4.83579 12 4.5 11.6642 4.5 11.25V5.25C4.5 4.83579 4.83579 4.5 5.25 4.5Z" fill="#818182"/>
</svg>
