<svg width="15" height="19" viewBox="0 0 15 19" fill="none" xmlns="http://www.w3.org/2000/svg">
<path fill-rule="evenodd" clip-rule="evenodd" d="M0.25 5C0.25 2.37665 2.37665 0.25 5 0.25H11V1.75H5C3.20507 1.75 1.75 3.20507 1.75 5V13H0.25V5Z" fill="#14141F"/>
<path fill-rule="evenodd" clip-rule="evenodd" d="M13.5 13.5V9.5C13.5 8.29233 13.4978 7.51212 13.4319 6.92828C13.3695 6.37466 13.2662 6.18617 13.19 6.08686C13.1102 5.98286 13.0171 5.88977 12.9131 5.80997C12.8138 5.73376 12.6253 5.63046 12.0717 5.56805C11.4879 5.50223 10.7077 5.5 9.5 5.5C8.29233 5.5 7.51212 5.50223 6.92828 5.56805C6.37466 5.63046 6.18617 5.73376 6.08686 5.80997C5.98286 5.88977 5.88977 5.98286 5.80997 6.08686C5.73376 6.18617 5.63046 6.37466 5.56805 6.92828C5.50223 7.51212 5.5 8.29233 5.5 9.5V13.5C5.5 14.7077 5.50223 15.4879 5.56805 16.0717C5.63046 16.6253 5.73376 16.8138 5.80997 16.9131C5.88977 17.0171 5.98286 17.1102 6.08686 17.19C6.18617 17.2662 6.37466 17.3695 6.92828 17.4319C7.51212 17.4978 8.29233 17.5 9.5 17.5C10.7077 17.5 11.4879 17.4978 12.0717 17.4319C12.6253 17.3695 12.8138 17.2662 12.9131 17.19C13.0171 17.1102 13.1102 17.0171 13.19 16.9131C13.2662 16.8138 13.3695 16.6253 13.4319 16.0717C13.4978 15.4879 13.5 14.7077 13.5 13.5ZM4.61994 5.17372C4 5.98164 4 7.15442 4 9.5V13.5C4 15.8456 4 17.0184 4.61994 17.8263C4.77954 18.0343 4.96572 18.2205 5.17372 18.3801C5.98164 19 7.15442 19 9.5 19C11.8456 19 13.0184 19 13.8263 18.3801C14.0343 18.2205 14.2205 18.0343 14.3801 17.8263C15 17.0184 15 15.8456 15 13.5V9.5C15 7.15442 15 5.98164 14.3801 5.17372C14.2205 4.96572 14.0343 4.77954 13.8263 4.61994C13.0184 4 11.8456 4 9.5 4C7.15442 4 5.98164 4 5.17372 4.61994C4.96572 4.77954 4.77954 4.96572 4.61994 5.17372Z" fill="#14141F"/>
</svg>
