<svg width="16" height="16" viewBox="0 0 16 16" fill="none" xmlns="http://www.w3.org/2000/svg">
<path d="M15.5 8C15.5 8.98491 15.306 9.96018 14.9291 10.8701C14.5522 11.7801 13.9997 12.6069 13.3033 13.3033C12.6069 13.9997 11.7801 14.5522 10.8701 14.9291C9.96018 15.306 8.98491 15.5 8 15.5C7.01509 15.5 6.03982 15.306 5.12987 14.9291C4.21993 14.5522 3.39314 13.9997 2.6967 13.3033C2.00026 12.6069 1.44781 11.7801 1.0709 10.8701C0.693993 9.96018 0.5 8.98491 0.5 8C0.5 6.01088 1.29018 4.10322 2.6967 2.6967C4.10322 1.29018 6.01088 0.5 8 0.5C9.98912 0.5 11.8968 1.29018 13.3033 2.6967C14.7098 4.10322 15.5 6.01088 15.5 8ZM11.09 6.09C11.1675 6.01252 11.2289 5.92054 11.2709 5.81931C11.3128 5.71807 11.3344 5.60957 11.3344 5.5C11.3344 5.39043 11.3128 5.28193 11.2709 5.18069C11.2289 5.07946 11.1675 4.98748 11.09 4.91C11.0125 4.83252 10.9205 4.77106 10.8193 4.72913C10.7181 4.6872 10.6096 4.66561 10.5 4.66561C10.3904 4.66561 10.2819 4.6872 10.1807 4.72913C10.0795 4.77106 9.98748 4.83252 9.91 4.91L8 6.82167L6.09 4.91C5.93352 4.75352 5.72129 4.66561 5.5 4.66561C5.27871 4.66561 5.06648 4.75352 4.91 4.91C4.75352 5.06648 4.66561 5.27871 4.66561 5.5C4.66561 5.72129 4.75352 5.93352 4.91 6.09L6.82167 8L4.91 9.91C4.75352 10.0665 4.66561 10.2787 4.66561 10.5C4.66561 10.7213 4.75352 10.9335 4.91 11.09C5.06648 11.2465 5.27871 11.3344 5.5 11.3344C5.72129 11.3344 5.93352 11.2465 6.09 11.09L8 9.17833L9.91 11.09C10.0665 11.2465 10.2787 11.3344 10.5 11.3344C10.7213 11.3344 10.9335 11.2465 11.09 11.09C11.2465 10.9335 11.3344 10.7213 11.3344 10.5C11.3344 10.2787 11.2465 10.0665 11.09 9.91L9.17833 8L11.09 6.09Z" fill="#89898F"/>
</svg>
