<svg width="32" height="32" viewBox="0 0 32 32" fill="none" xmlns="http://www.w3.org/2000/svg">
<path fill-rule="evenodd" clip-rule="evenodd" d="M0.988281 15.9999C0.988281 12.0185 2.56991 8.20007 5.38523 5.38475C8.20055 2.56942 12.0189 0.987793 16.0004 0.987793C19.9819 0.987793 23.8003 2.56942 26.6156 5.38475C29.4309 8.20007 31.0125 12.0185 31.0125 15.9999C31.0125 19.9814 29.4309 23.7998 26.6156 26.6151C23.8003 29.4304 19.9819 31.0121 16.0004 31.0121C12.0189 31.0121 8.20055 29.4304 5.38523 26.6151C2.56991 23.7998 0.988281 19.9814 0.988281 15.9999ZM16.0004 3.14113C12.59 3.14113 9.31936 4.49589 6.90787 6.90738C4.49638 9.31887 3.14161 12.5896 3.14161 15.9999C3.14161 19.4103 4.49638 22.681 6.90787 25.0925C9.31936 27.504 12.59 28.8587 16.0004 28.8587C19.4108 28.8587 22.6815 27.504 25.093 25.0925C27.5045 22.681 28.8592 19.4103 28.8592 15.9999C28.8592 12.5896 27.5045 9.31887 25.093 6.90738C22.6815 4.49589 19.4108 3.14113 16.0004 3.14113ZM21.3361 10.6665C21.5486 10.879 21.668 11.1672 21.668 11.4677C21.668 11.7682 21.5486 12.0565 21.3361 12.269L17.6029 15.9999L21.3361 19.7309C21.549 19.9437 21.6685 20.2323 21.6685 20.5333C21.6685 20.8342 21.549 21.1229 21.3361 21.3357C21.1233 21.5485 20.8347 21.668 20.5337 21.668C20.2328 21.668 19.9442 21.5485 19.7313 21.3357L16.0004 17.6025L12.2695 21.3357C12.1641 21.441 12.039 21.5246 11.9013 21.5816C11.7637 21.6387 11.6161 21.668 11.4671 21.668C11.3181 21.668 11.1705 21.6387 11.0328 21.5816C10.8951 21.5246 10.7701 21.441 10.6647 21.3357C10.5593 21.2303 10.4757 21.1052 10.4187 20.9675C10.3617 20.8298 10.3323 20.6823 10.3323 20.5333C10.3323 20.3842 10.3617 20.2367 10.4187 20.099C10.4757 19.9613 10.5593 19.8362 10.6647 19.7309L14.3979 15.9999L10.6647 12.269C10.4519 12.0562 10.3323 11.7676 10.3323 11.4666C10.3323 11.1656 10.4519 10.877 10.6647 10.6642C10.8775 10.4514 11.1661 10.3318 11.4671 10.3318C11.768 10.3318 12.0567 10.4514 12.2695 10.6642L16.0004 14.3974L19.7313 10.6642C19.8366 10.5587 19.9617 10.4749 20.0994 10.4178C20.2371 10.3606 20.3847 10.3312 20.5337 10.3312C20.6828 10.3312 20.8304 10.3606 20.9681 10.4178C21.1058 10.4749 21.2309 10.5587 21.3361 10.6642V10.6665Z" fill="white"/>
</svg>
