<svg width="30" height="34" viewBox="0 0 30 34" fill="none" xmlns="http://www.w3.org/2000/svg">
<path d="M0.0666216 8.47741C1.30845 7.76122 2.55051 7.04546 3.79278 6.33015C7.39257 4.2675 10.995 2.20617 14.6002 0.146163C14.6673 0.108294 14.7498 0.0916836 14.7653 0H15.0337C15.1833 0.20662 15.4276 0.275715 15.6376 0.393973C20.2533 3.03685 24.8701 5.6773 29.4881 8.3153C29.5833 8.36978 29.7404 8.38174 29.737 8.54518C29.7867 8.67407 29.7618 8.81093 29.7618 8.93982C29.7618 14.3053 29.7618 19.6708 29.7618 25.0363C29.7618 25.1691 29.7384 25.302 29.7847 25.4309C29.7732 25.5704 29.6504 25.591 29.5552 25.6435C25.4673 27.9812 21.379 30.3187 17.2903 32.656C16.6023 33.0484 15.9161 33.4424 15.2316 33.8379C15.1578 33.8804 15.0585 33.8977 15.0303 34H14.7619C14.3345 33.6439 13.8265 33.4154 13.3481 33.141C8.96409 30.631 4.58011 28.1247 0.196128 25.6222C0.149537 25.5923 0.104728 25.5597 0.061924 25.5246C0.0176368 25.4176 0.0377683 25.306 0.0377683 25.1964C0.0377683 19.7326 0.0377683 14.2688 0.0377683 8.80495C0.0411234 8.69533 0.0203214 8.58371 0.0666216 8.47741Z" fill="#4A9DA0"/>
<path d="M29.7825 25.4287C29.6986 25.347 29.7274 25.2427 29.7274 25.1463C29.7274 19.6542 29.7274 14.164 29.7274 8.67584C29.7274 8.63133 29.7315 8.58748 29.7335 8.54297C29.8241 8.60941 29.7925 8.70375 29.7925 8.78746C29.7925 14.3124 29.7925 19.8375 29.7925 25.3629C29.7908 25.3851 29.7875 25.407 29.7825 25.4287Z" fill="#479699"/>
<path d="M0.0692183 8.47656C0.0719024 11.627 0.0741395 14.7777 0.0759289 17.9286C0.0759289 20.4603 0.0736917 22.992 0.0692183 25.5237C-0.0341184 25.4354 0.0115117 25.3171 0.0115117 25.2121C0.00882768 19.7373 0.00882768 14.2624 0.0115117 8.78749C0.0101697 8.68318 -0.0368025 8.5616 0.0692183 8.47656Z" fill="#479699"/>
<path d="M28.7897 17.0567C28.7897 19.004 28.7897 20.9519 28.7937 22.8992C28.7937 23.1118 28.7393 23.2314 28.54 23.3397C27.7429 23.7862 27.2919 24.4558 27.3141 25.388C27.3208 25.6577 27.2363 25.8291 26.9826 25.9726C24.3482 27.4626 21.7187 28.9607 19.0941 30.4671C18.3023 30.9195 17.5172 31.3846 16.7221 31.8317C16.1712 32.142 15.8498 31.9467 15.8498 31.3195V21.1938C15.8498 20.7068 15.8558 20.2198 15.8498 19.7321C15.8457 19.489 15.9263 19.3335 16.151 19.196C16.9496 18.7176 17.426 18.0294 17.3884 17.0753C17.3777 16.7697 17.5112 16.6182 17.7588 16.4774C19.4363 15.5313 21.1045 14.5726 22.7773 13.6206C24.3918 12.702 26.0074 11.7847 27.6241 10.8687C27.7113 10.8196 27.7919 10.7565 27.8824 10.7159C28.0556 10.6389 28.2025 10.4701 28.4327 10.6216C28.6628 10.7731 28.8071 10.8973 28.8038 11.2115C28.7789 13.1615 28.7897 15.1088 28.7897 17.0567Z" fill="#63D2D6"/>
<path d="M13.961 25.5728C13.961 27.4867 13.961 29.4009 13.961 31.3157C13.961 31.9428 13.6355 32.1408 13.0886 31.8279C11.1648 30.7323 9.24773 29.6255 7.32594 28.526C5.81928 27.6645 4.31061 26.8068 2.79993 25.9528C2.58721 25.8326 2.48992 25.6871 2.49864 25.4499C2.53554 24.5032 2.07992 23.8255 1.28745 23.3538C1.09017 23.2369 1.01301 23.1173 1.01368 22.8887C1.02128 19.0048 1.02307 15.1209 1.01905 11.237C1.01905 10.7932 1.54646 10.4862 1.93834 10.7094C3.96839 11.8655 5.99733 13.0237 8.02514 14.1841C9.37791 14.9561 10.73 15.7295 12.0875 16.4935C12.3136 16.621 12.4357 16.7659 12.423 17.0409C12.3854 18.0229 12.8625 18.7278 13.6919 19.2114C13.9294 19.3496 13.9603 19.5323 13.9603 19.7649C13.9607 21.7 13.961 23.6359 13.961 25.5728Z" fill="#63D2D6"/>
<path d="M27.3713 8.51327C27.3968 8.72654 27.2539 8.8355 27.0955 8.92651C26.1487 9.46665 25.1985 10.0015 24.2517 10.5423C22.4646 11.561 20.6786 12.5826 18.8937 13.607C18.1213 14.0488 17.3503 14.4893 16.5786 14.9358C16.4444 15.0142 16.3304 14.9942 16.2049 14.9218C15.3397 14.4231 14.4728 14.4213 13.604 14.9165C13.5455 14.9561 13.4761 14.9768 13.4052 14.9758C13.3344 14.9749 13.2655 14.9523 13.2081 14.9112C10.4507 13.3251 7.68989 11.7448 4.92575 10.1702C4.26949 9.79552 3.61145 9.42435 2.95161 9.05673C2.76104 8.95043 2.60201 8.85742 2.6161 8.58636C2.6302 8.31529 2.64966 8.12462 2.93148 7.96517C5.7672 6.35937 8.59219 4.73498 11.4199 3.11524C11.9989 2.78305 12.5807 2.45551 13.1571 2.11868C13.2259 2.0742 13.3061 2.05014 13.3883 2.04931C13.4704 2.04849 13.5511 2.07094 13.6208 2.11402C14.4106 2.50601 15.2138 2.50866 15.9969 2.10472C16.0955 2.04502 16.2095 2.01483 16.3251 2.01777C16.4407 2.02072 16.553 2.05668 16.6484 2.12133C17.8419 2.81228 19.0381 3.4988 20.237 4.18089C21.9079 5.13582 23.5789 6.08986 25.2502 7.04301C25.8783 7.40111 26.509 7.75389 27.1364 8.11465C27.2827 8.19836 27.4035 8.31463 27.3713 8.51327Z" fill="#63D2D6"/>
<path d="M14.8998 33.9479C14.9254 33.9479 14.9461 30.1937 14.9461 25.5628C14.9461 20.9319 14.9254 17.1777 14.8998 17.1777C14.8742 17.1777 14.8535 20.9319 14.8535 25.5628C14.8535 30.1937 14.8742 33.9479 14.8998 33.9479Z" fill="#4EA1A4"/>
</svg>
