<svg width="24" height="24" viewBox="0 0 24 24" fill="none" xmlns="http://www.w3.org/2000/svg">
<path d="M12.586 2.586C12.211 2.2109 11.7024 2.00011 11.172 2H4C3.46957 2 2.96086 2.21071 2.58579 2.58579C2.21071 2.96086 2 3.46957 2 4V11.172C2.00011 11.7024 2.2109 12.211 2.586 12.586L10.586 20.586C10.9611 20.9609 11.4697 21.1716 12 21.1716C12.5303 21.1716 13.0389 20.9609 13.414 20.586L20.586 13.414C20.9609 13.0389 21.1716 12.5303 21.1716 12C21.1716 11.4697 20.9609 10.9611 20.586 10.586L12.586 2.586Z" fill="white"/>
<path d="M7 9.00002C6.46943 8.99989 5.96065 8.789 5.58558 8.41374C5.21051 8.03848 4.99987 7.52959 5 6.99902C5.00013 6.46846 5.21103 5.95968 5.58629 5.5846C5.96155 5.20953 6.47043 4.99889 7.001 4.99902C7.53157 4.99916 8.04035 5.21005 8.41542 5.58531C8.79049 5.96057 9.00113 6.46946 9.001 7.00002C9.00087 7.53059 8.78997 8.03937 8.41471 8.41444C8.03945 8.78952 7.53057 9.00016 7 9.00002Z" fill="white"/>
</svg>
