<svg width="18" height="18" viewBox="0 0 18 18" fill="none" xmlns="http://www.w3.org/2000/svg">
<path fill-rule="evenodd" clip-rule="evenodd" d="M3.85904 3.66877C2.5726 4.89078 1.75 6.68843 1.75 9C1.75 11.3116 2.5726 13.1092 3.85904 14.3312C5.15142 15.5589 6.95939 16.25 9 16.25C9.41421 16.25 9.75 16.5858 9.75 17C9.75 17.4142 9.41421 17.75 9 17.75C6.62061 17.75 4.42858 16.9411 2.82596 15.4188C1.2174 13.8908 0.25 11.6884 0.25 9C0.25 6.31157 1.2174 4.10922 2.82596 2.58123C4.42858 1.05888 6.62061 0.25 9 0.25C9.41421 0.25 9.75 0.585786 9.75 1C9.75 1.41421 9.41421 1.75 9 1.75C6.95939 1.75 5.15142 2.44112 3.85904 3.66877ZM14.1496 5.96967C14.4425 5.67678 14.9174 5.67678 15.2103 5.96967L17.7703 8.52967C18.0632 8.82256 18.0632 9.29744 17.7703 9.59033L15.2103 12.1503C14.9174 12.4432 14.4425 12.4432 14.1496 12.1503C13.8567 11.8574 13.8567 11.3826 14.1496 11.0897L15.4292 9.81006H7C6.58579 9.81006 6.25 9.47427 6.25 9.06006C6.25 8.64584 6.58579 8.31006 7 8.31006H15.4293L14.1496 7.03033C13.8567 6.73744 13.8567 6.26256 14.1496 5.96967Z" fill="#F1C94A"/>
</svg>
