<svg width="26" height="26" viewBox="0 0 26 26" fill="none" xmlns="http://www.w3.org/2000/svg">
<path d="M1.63334 12.5307C1.61235 14.7563 2.04772 16.6128 2.98006 18.3482C3.0195 18.4159 3.04347 18.4915 3.05025 18.5696C3.05704 18.6477 3.04648 18.7263 3.01933 18.7998C2.56207 20.2686 2.11068 21.7386 1.66516 23.2096C1.49995 23.7513 1.77891 24.2537 2.3199 24.3411C2.51166 24.3609 2.7053 24.3315 2.88256 24.2557C4.17263 23.7493 5.45909 23.2336 6.74194 22.7086C6.80907 22.6769 6.88338 22.6636 6.95734 22.6699C7.0313 22.6762 7.10227 22.7019 7.16308 22.7445C11.512 25.3174 16.8609 24.817 20.6147 21.4438C22.8355 19.4478 24.0902 16.9331 24.3387 13.9505C24.7449 9.00782 22.0494 4.43074 17.4568 2.53965C13.2115 0.792772 9.2099 1.41095 5.66266 4.33324C3.02678 6.49991 1.77011 9.39512 1.63334 12.5307ZM3.6998 22.1778C4.02954 21.0802 4.32678 20.0328 4.66329 18.9995C4.80954 18.552 4.7574 18.187 4.52787 17.774C3.19537 15.3832 2.88662 12.8523 3.64766 10.2239C5.22527 4.77334 10.969 1.82803 16.3497 3.68256C21.4719 5.44907 24.208 11.2124 22.3365 16.2946C20.1272 22.2963 13.0246 24.6539 7.66954 21.1533C7.2897 20.9055 6.94574 20.8649 6.52933 21.0409C5.61256 21.4282 4.68292 21.7851 3.6998 22.1778Z" fill="#A1A1A5"/>
<path d="M17.0664 13.0074C17.0687 13.3285 17.1661 13.6417 17.3462 13.9075C17.5264 14.1733 17.7812 14.3798 18.0786 14.5009C18.376 14.622 18.7026 14.6522 19.0172 14.5879C19.3318 14.5235 19.6203 14.3673 19.8462 14.1391C20.0721 13.911 20.2253 13.621 20.2866 13.3058C20.3478 12.9905 20.3143 12.6643 20.1902 12.3681C20.0662 12.0719 19.8572 11.8191 19.5896 11.6416C19.322 11.4642 19.0078 11.3699 18.6867 11.3709C18.4727 11.3715 18.261 11.4143 18.0636 11.497C17.8663 11.5797 17.6872 11.7005 17.5366 11.8525C17.3861 12.0046 17.2671 12.1849 17.1864 12.3831C17.1057 12.5812 17.0649 12.7934 17.0664 13.0074Z" fill="#A1A1A5"/>
<path d="M13.0129 14.6203C13.3339 14.6178 13.647 14.5202 13.9126 14.3399C14.1783 14.1596 14.3845 13.9046 14.5054 13.6072C14.6263 13.3098 14.6564 12.9832 14.5918 12.6687C14.5273 12.3542 14.3711 12.0659 14.1428 11.8401C13.9146 11.6143 13.6246 11.4612 13.3094 11.4001C12.9942 11.339 12.668 11.3726 12.3719 11.4966C12.0758 11.6207 11.8231 11.8298 11.6457 12.0973C11.4683 12.3649 11.3741 12.679 11.375 13.0001C11.3756 13.2141 11.4185 13.426 11.5013 13.6234C11.584 13.8209 11.705 14 11.8572 14.1506C12.0094 14.3012 12.1898 14.4202 12.3882 14.5008C12.5865 14.5814 12.7988 14.622 13.0129 14.6203Z" fill="#A1A1A5"/>
<path d="M7.3246 11.3709C7.00342 11.3685 6.68874 11.4613 6.42029 11.6377C6.15185 11.814 5.94168 12.066 5.81634 12.3617C5.691 12.6574 5.65611 12.9837 5.71607 13.2992C5.77603 13.6147 5.92815 13.9054 6.15322 14.1346C6.37829 14.3637 6.66622 14.521 6.98064 14.5866C7.29506 14.6522 7.62186 14.6231 7.91978 14.5031C8.21769 14.3831 8.47336 14.1775 8.65448 13.9122C8.8356 13.647 8.93406 13.334 8.93741 13.0128C8.93964 12.799 8.89966 12.5869 8.81976 12.3886C8.73986 12.1903 8.62161 12.0097 8.47178 11.8571C8.32196 11.7046 8.1435 11.5831 7.94664 11.4997C7.74978 11.4163 7.5384 11.3725 7.3246 11.3709Z" fill="#A1A1A5"/>
</svg>
