<svg width="24" height="24" viewBox="0 0 24 24" fill="none" xmlns="http://www.w3.org/2000/svg">
<path d="M11.1096 23.0001C10.9936 23 10.8786 22.9797 10.7696 22.9401C10.5593 22.8631 10.381 22.7178 10.2631 22.5274C10.1453 22.337 10.0947 22.1126 10.1196 21.8901L10.8896 14.8001H4.99956C4.81789 14.8004 4.63957 14.7512 4.48377 14.6577C4.32797 14.5643 4.20056 14.4302 4.11522 14.2698C4.02989 14.1094 3.98986 13.9288 3.99944 13.7474C4.00901 13.566 4.06782 13.3906 4.16956 13.2401L12.0596 1.4401C12.1843 1.25544 12.3672 1.11775 12.5792 1.04891C12.7912 0.980061 13.0201 0.983999 13.2296 1.0601C13.4309 1.13486 13.6029 1.27248 13.72 1.45259C13.837 1.63269 13.893 1.84571 13.8796 2.0601L13.1096 9.2001H18.9996C19.1812 9.19982 19.3595 9.24904 19.5153 9.34247C19.6711 9.4359 19.7986 9.57001 19.8839 9.73039C19.9692 9.89077 20.0092 10.0714 19.9997 10.2528C19.9901 10.4342 19.9313 10.6096 19.8296 10.7601L11.9396 22.5601C11.8478 22.6958 11.7242 22.8069 11.5794 22.8836C11.4347 22.9603 11.2734 23.0003 11.1096 23.0001Z" fill="white"/>
</svg>
