<svg width="32" height="28" viewBox="0 0 32 28" fill="none" xmlns="http://www.w3.org/2000/svg">
<path d="M24.1844 8.35026C23.6028 8.02598 22.855 8.02598 22.1904 8.35026L17.5376 11.0256L14.3804 12.7281L9.81075 15.4034C9.22916 15.7277 8.4814 15.7277 7.81672 15.4034L4.24408 13.2956C3.66249 12.9713 3.24706 12.3227 3.24706 11.5931V7.53956C3.24706 6.89099 3.5794 6.24243 4.24408 5.83708L7.81672 3.81031C8.39831 3.48603 9.14607 3.48603 9.81075 3.81031L13.3834 5.91815C13.965 6.24243 14.3804 6.891 14.3804 7.62063V10.296L17.5376 8.51241V5.75601C17.5376 5.10744 17.2053 4.45888 16.5406 4.05353L9.89384 0.243212C9.31224 -0.0810705 8.56448 -0.0810705 7.8998 0.243212L1.08686 4.1346C0.422183 4.45888 0.0898438 5.10744 0.0898438 5.75601V13.3766C0.0898438 14.0252 0.422183 14.6738 1.08686 15.0791L7.81672 18.8894C8.39831 19.2137 9.14607 19.2137 9.81075 18.8894L14.3804 16.2952L17.5376 14.5116L22.1073 11.9174C22.6889 11.5931 23.4366 11.5931 24.1013 11.9174L27.674 13.9441C28.2556 14.2684 28.671 14.917 28.671 15.6466V19.7001C28.671 20.3487 28.3386 20.9973 27.674 21.4026L24.1844 23.4294C23.6028 23.7537 22.855 23.7537 22.1904 23.4294L18.6177 21.4026C18.0361 21.0783 17.6207 20.4298 17.6207 19.7001V17.1059L14.4635 18.8894V21.5648C14.4635 22.2133 14.7958 22.8619 15.4605 23.2672L22.1904 27.0776C22.772 27.4018 23.5197 27.4018 24.1844 27.0776L30.9143 23.2672C31.4959 22.943 31.9113 22.2944 31.9113 21.5648V13.8631C31.9113 13.2145 31.5789 12.5659 30.9143 12.1606L24.1844 8.35026Z" fill="#8247E5"/>
</svg>
