<svg width="16" height="20" viewBox="0 0 16 20" fill="none" xmlns="http://www.w3.org/2000/svg">
<path d="M15.7268 0.10625C15.8107 0.163297 15.8796 0.240462 15.9272 0.330933C15.9749 0.421403 15.9999 0.522398 16 0.625V10C16 10.1248 15.9631 10.2468 15.8943 10.3501C15.8254 10.4535 15.7276 10.5336 15.6135 10.58L15.3846 10L15.6135 10.58L15.6098 10.5813L15.6025 10.585L15.5742 10.5963C15.4123 10.6616 15.2494 10.7241 15.0855 10.7837C14.7606 10.9025 14.3089 11.0625 13.7969 11.2213C12.7926 11.5363 11.4843 11.875 10.4615 11.875C9.41908 11.875 8.55631 11.525 7.80554 11.2188L7.77108 11.2063C6.99077 10.8875 6.32615 10.625 5.53846 10.625C4.67692 10.625 3.52246 10.9125 2.53908 11.2213C2.09878 11.3606 1.66249 11.5128 1.23077 11.6775V19.375C1.23077 19.5408 1.16593 19.6997 1.05053 19.8169C0.93512 19.9342 0.778595 20 0.615385 20C0.452174 20 0.295649 19.9342 0.180242 19.8169C0.0648351 19.6997 0 19.5408 0 19.375V0.625C0 0.45924 0.0648351 0.300269 0.180242 0.183058C0.295649 0.065848 0.452174 0 0.615385 0C0.778595 0 0.93512 0.065848 1.05053 0.183058C1.16593 0.300269 1.23077 0.45924 1.23077 0.625V0.9775C1.50892 0.87875 1.84123 0.765 2.20308 0.6525C3.20738 0.34 4.51692 0 5.53846 0C6.57231 0 7.41415 0.34625 8.14892 0.64875L8.20185 0.67125C8.96738 0.985 9.63446 1.25 10.4615 1.25C11.3231 1.25 12.4775 0.9625 13.4609 0.65375C14.0213 0.476015 14.5751 0.27755 15.1212 0.05875L15.1446 0.05L15.1495 0.0475H15.1508" fill="#FF2323"/>
</svg>
