<svg width="16" height="16" viewBox="0 0 16 16" fill="none" xmlns="http://www.w3.org/2000/svg">
<path d="M1.72415 1.05281C1.64045 1.01095 1.54668 0.993419 1.45351 1.00221C1.36034 1.01101 1.27151 1.04577 1.19711 1.10255C1.12272 1.15934 1.06576 1.23586 1.03271 1.32341C0.999658 1.41096 0.991841 1.50604 1.01015 1.59781L2.41315 6.44781C2.43931 6.5382 2.49044 6.61936 2.56067 6.68198C2.6309 6.74461 2.71737 6.78614 2.81015 6.80181L8.50015 7.75481C8.76815 7.80781 8.76815 8.19181 8.50015 8.24481L2.81015 9.19781C2.71737 9.21349 2.6309 9.25502 2.56067 9.31764C2.49044 9.38026 2.43931 9.46143 2.41315 9.55181L1.01015 14.4018C0.991841 14.4936 0.999658 14.5887 1.03271 14.6762C1.06576 14.7638 1.12272 14.8403 1.19711 14.8971C1.27151 14.9539 1.36034 14.9886 1.45351 14.9974C1.54668 15.0062 1.64045 14.9887 1.72415 14.9468L14.7241 8.44681C14.8071 8.40524 14.8768 8.34142 14.9256 8.26248C14.9743 8.18353 15.0001 8.09259 15.0001 7.99981C15.0001 7.90704 14.9743 7.81609 14.9256 7.73715C14.8768 7.65821 14.8071 7.59438 14.7241 7.55281L1.72415 1.05281Z" fill="#14141F"/>
</svg>
