<svg width="22" height="22" viewBox="0 0 22 22" fill="none" xmlns="http://www.w3.org/2000/svg">
<path d="M15.91 5.03003C17.91 6.42003 19.29 8.63003 19.57 11.18M2.44 11.23C2.7 8.68996 4.06 6.47996 6.04 5.07996M7.14001 19.7999C8.30001 20.3899 9.62002 20.7199 11.01 20.7199C12.35 20.7199 13.61 20.4199 14.74 19.8699M13.79 3.78C13.79 5.31535 12.5454 6.56 11.01 6.56C9.47469 6.56 8.23004 5.31535 8.23004 3.78C8.23004 2.24465 9.47469 1 11.01 1C12.5454 1 13.79 2.24465 13.79 3.78ZM6.56 16C6.56 17.5353 5.31535 18.78 3.78 18.78C2.24465 18.78 1 17.5353 1 16C1 14.4646 2.24465 13.22 3.78 13.22C5.31535 13.22 6.56 14.4646 6.56 16ZM20.9 16C20.9 17.5353 19.6554 18.78 18.12 18.78C16.5847 18.78 15.34 17.5353 15.34 16C15.34 14.4646 16.5847 13.22 18.12 13.22C19.6554 13.22 20.9 14.4646 20.9 16Z" stroke="#A1A1A5" stroke-width="1.5" stroke-linecap="round" stroke-linejoin="round"/>
</svg>
