<svg width="18" height="20" viewBox="0 0 18 20" fill="none" xmlns="http://www.w3.org/2000/svg">
<path d="M8.81667 0.0625H9.12633C9.22181 0.114251 9.31935 0.161862 9.41225 0.217753C11.8431 1.66678 14.2738 3.11581 16.7043 4.56484C16.9969 4.73873 17.1285 4.97316 17.1249 5.31058C17.1177 6.09926 17.1249 6.88795 17.1249 7.67664C17.1249 9.64732 16.7492 11.5414 15.9379 13.3403C14.8025 15.86 13.0751 17.8509 10.655 19.2052C10.1632 19.4805 9.63727 19.6948 9.12736 19.9375H8.8177C8.20663 19.6379 7.56304 19.39 6.99017 19.0298C3.10957 16.5892 1.16902 12.993 0.853677 8.47257C0.779358 7.41064 0.830451 6.33991 0.820129 5.27332C0.817032 4.94884 0.963091 4.73148 1.24024 4.56795C2.68791 3.71147 4.13043 2.84567 5.57552 1.98557C6.65453 1.3411 7.73491 0.700073 8.81667 0.0625ZM7.62446 11.2609C7.29725 10.9302 6.98707 10.6114 6.6707 10.2989C6.37755 10.008 5.97292 9.99974 5.70558 10.2714C5.43824 10.5431 5.45424 10.9483 5.74377 11.2413C6.20276 11.7049 6.66347 12.1667 7.1259 12.6266C7.43557 12.932 7.81542 12.9371 8.11941 12.6354C9.48502 11.2702 10.8486 9.90297 12.2101 8.53363C12.4934 8.24797 12.4986 7.84431 12.2379 7.57883C11.9773 7.31334 11.5639 7.31645 11.2718 7.60315C11.0653 7.80653 10.8589 8.01405 10.6555 8.22002L7.62446 11.2609Z" fill="#B8B8BC"/>
</svg>
