<svg width="20" height="20" viewBox="0 0 20 20" fill="none" xmlns="http://www.w3.org/2000/svg">
<path d="M3 3C3.30381 2.65617 3.67929 2.3831 4.1 2.2C4.70955 1.98004 5.352 1.86508 6 1.86C6.38143 1.86 6.6712 1.85127 7.02969 1.84047C7.61106 1.82296 8.37316 1.8 10 1.8C12.63 1.8 13 1.8 14 1.86M3 3L2.6702 2.62419C2.66223 2.63119 2.6543 2.63821 2.6464 2.64527M3 3C2.65627 3.30166 2.38605 3.67791 2.21 4.1L3 3ZM2.6464 2.64527C2.99482 2.25781 3.42246 1.94957 3.90047 1.74154L3.91519 1.73513L3.93029 1.72968C4.59303 1.49053 5.29153 1.36554 5.99608 1.36002L6 1.35998C6.37329 1.36 6.65391 1.35155 7.01032 1.34082C7.12261 1.33744 7.24242 1.33383 7.37503 1.33019C7.92607 1.31506 8.68065 1.3 10 1.3H10.0223C12.6182 1.3 13.0119 1.3 14.0181 1.36019M2.6464 2.64527C2.25669 2.99359 1.94984 3.42487 1.74853 3.90753L1.7449 3.91623L1.7416 3.92507C1.49564 4.58366 1.36655 5.2801 1.36012 5.98303C1.3 6.98837 1.3 7.38271 1.3 9.97774V10C1.3 11.3193 1.31506 12.0739 1.33019 12.625C1.33383 12.7576 1.33744 12.8774 1.34082 12.9897C1.35155 13.3461 1.36 13.6267 1.36 14V14.0078L1.36025 14.0157C1.38243 14.723 1.52875 15.421 1.79251 16.0776C1.9725 16.5787 2.26443 17.0321 2.64608 17.4033C3.00386 17.7725 3.43341 18.0647 3.90833 18.2618L3.924 18.2683L3.94008 18.2737C4.61284 18.5008 5.31944 18.6113 6.02933 18.6003C7.03002 18.66 7.42814 18.66 10.0177 18.66H10.04C12.6631 18.66 13.0494 18.6501 14.0555 18.5998C14.7436 18.5909 15.4251 18.4657 16.0715 18.2297L16.0715 18.2297L16.0766 18.2278C16.5755 18.0394 17.0277 17.7451 17.4019 17.3653C17.7879 16.992 18.0845 16.5363 18.2694 16.0322L18.2697 16.0315C18.5057 15.3851 18.6309 14.7036 18.6398 14.0155C18.6901 13.0094 18.7 12.6231 18.7 10C18.7 7.37844 18.6901 6.99109 18.6399 5.98624C18.6357 5.2842 18.5104 4.58812 18.2697 3.92857L18.2672 3.92172L18.2645 3.91495C18.0734 3.43533 17.7803 3.00308 17.4056 2.64812M2.6464 2.64527L17.8 4.1C17.6338 3.68273 17.3777 3.30718 17.05 3M14.0181 1.36019C14.014 1.36013 14.0099 1.36008 14.0057 1.36003L14 1.86M14.0181 1.36019C14.022 1.36042 14.026 1.36066 14.0299 1.3609L14 1.86M14.0181 1.36019C14.7052 1.36946 15.3859 1.49459 16.0315 1.73034L16.034 1.73124C16.5568 1.92527 17.0266 2.23936 17.4056 2.64812M14 1.86C14.6348 1.86728 15.2637 1.98225 15.86 2.2C16.3144 2.36865 16.7223 2.64285 17.05 3M17.4056 2.64812C17.4011 2.6438 17.3965 2.6395 17.3919 2.63521L17.05 3M17.4056 2.64812C17.4099 2.65272 17.4142 2.65733 17.4184 2.66196L17.05 3M19.4401 5.89172L19.4403 5.89999L19.4408 5.90826C19.4999 6.95157 19.5 7.27695 19.5 10C19.5 11.3558 19.4851 12.1163 19.4702 12.6691C19.4668 12.7953 19.4634 12.9116 19.4601 13.0224C19.4492 13.393 19.4401 13.7017 19.44 14.114C19.4213 14.8863 19.2764 15.6504 19.0112 16.376C18.7855 16.9744 18.4305 17.5157 17.9717 17.9613L17.9659 17.9669L17.9604 17.9726C17.5179 18.4306 16.977 18.7821 16.3787 19.0003L16.3787 19.0002L16.3732 19.0023C15.6491 19.276 14.8836 19.4241 14.1096 19.4401L14.1007 19.4403L14.0917 19.4408C13.0484 19.4999 12.723 19.5 10 19.5C7.27695 19.5 6.95157 19.4999 5.90826 19.4408L5.89931 19.4403L5.89035 19.4401C5.11642 19.4241 4.35089 19.276 3.6268 19.0023L3.62311 19.0009C3.0247 18.7801 2.48321 18.4283 2.03826 17.9712L2.03291 17.9657L2.0274 17.9604C1.56935 17.5179 1.21794 16.977 0.999739 16.3787L0.999771 16.3787L0.997701 16.3732C0.723988 15.6491 0.575924 14.8836 0.559893 14.1096L0.559707 14.1007L0.559201 14.0917C0.500146 13.0484 0.5 12.723 0.5 10C0.5 7.27695 0.500146 6.95157 0.559201 5.90826L0.559707 5.89931L0.559893 5.89035C0.575924 5.11641 0.723988 4.35089 0.997701 3.62679L0.997733 3.62681L0.999739 3.6213C1.21794 3.02297 1.56935 2.4821 2.0274 2.0396L2.03291 2.03428L2.03826 2.02878C2.48321 1.57174 3.0247 1.21992 3.62311 0.999075L3.62312 0.999089L3.62679 0.997701C4.35089 0.723988 5.11641 0.575924 5.89035 0.559893L5.89931 0.559707L5.90826 0.559201C6.95157 0.500146 7.27695 0.5 10 0.5C12.723 0.5 13.0484 0.500146 14.0917 0.559201L14.1007 0.559707L14.1096 0.559893C14.8836 0.575924 15.6491 0.723988 16.3732 0.997701L16.3732 0.997733L16.3787 0.999739C16.977 1.21794 17.5179 1.56935 17.9604 2.0274L17.9603 2.02753L17.9702 2.03728C18.4278 2.48523 18.783 3.02684 19.0116 3.62495C19.2772 4.35207 19.422 5.11779 19.4401 5.89172ZM10.001 5.37L10.002 5.37C10.6109 5.36762 11.2144 5.48566 11.7776 5.71733C12.3408 5.94901 12.8526 6.28975 13.2837 6.71995C13.7147 7.15015 14.0564 7.66132 14.2892 8.22407C14.522 8.78682 14.6412 9.39003 14.64 9.99902V10C14.64 10.9153 14.3687 11.8101 13.8603 12.5713C13.352 13.3326 12.6294 13.926 11.7839 14.2767C10.9384 14.6274 10.0079 14.7196 9.11005 14.5417C8.21216 14.3638 7.38716 13.9237 6.73928 13.2771C6.09141 12.6305 5.64973 11.8063 5.47007 10.9088C5.2904 10.0113 5.3808 9.0806 5.72985 8.23442C6.0789 7.38824 6.67094 6.66451 7.43115 6.15468C8.19136 5.64484 9.08563 5.37178 10.001 5.37ZM14.9511 4.07797C15.0662 4.00105 15.2016 3.96 15.34 3.96C15.5257 3.96 15.7037 4.03375 15.835 4.16502C15.9663 4.2963 16.04 4.47435 16.04 4.66C16.04 4.79844 15.9989 4.93378 15.922 5.0489C15.8451 5.16401 15.7358 5.25373 15.6079 5.30672C15.48 5.3597 15.3392 5.37356 15.2034 5.34655C15.0676 5.31954 14.9429 5.25287 14.845 5.15497C14.7471 5.05708 14.6805 4.93235 14.6535 4.79656C14.6264 4.66078 14.6403 4.52003 14.6933 4.39212C14.7463 4.26421 14.836 4.15489 14.9511 4.07797ZM7.87217 13.1845C8.50201 13.6054 9.2425 13.83 10 13.83C10.503 13.83 11.001 13.7309 11.4657 13.5385C11.9304 13.346 12.3526 13.0639 12.7082 12.7082C13.0639 12.3526 13.346 11.9304 13.5385 11.4657C13.7309 11.001 13.83 10.503 13.83 10C13.83 9.2425 13.6054 8.50201 13.1845 7.87217C12.7637 7.24233 12.1655 6.75142 11.4657 6.46154C10.7658 6.17166 9.99575 6.09581 9.2528 6.24359C8.50986 6.39137 7.82742 6.75615 7.29178 7.29178C6.75615 7.82742 6.39137 8.50986 6.24359 9.2528C6.09581 9.99575 6.17166 10.7658 6.46154 11.4657C6.75142 12.1655 7.24233 12.7637 7.87217 13.1845Z" fill="white" stroke="#EFC74D"/>
</svg>
