<svg width="24" height="24" viewBox="0 0 24 24" fill="none" xmlns="http://www.w3.org/2000/svg">
<path d="M12 0C5.37391 0 0 5.37391 0 12C0 18.6261 5.37391 24 12 24C18.6261 24 24 18.6261 24 12C24 5.37391 18.6261 0 12 0ZM12.9652 21.8609C12.913 21.8609 12.8609 21.8609 12.7826 21.887V16.2261C14.1391 16.2 15.3652 16.1739 16.487 16.0957C15.4957 19.1478 13.6435 21.1826 12.9652 21.8609ZM11.0348 21.8609C10.3304 21.1565 8.50435 19.1217 7.51304 16.0957C8.6087 16.1739 9.86087 16.2261 11.2174 16.2261V21.887C11.1652 21.887 11.113 21.8609 11.0348 21.8609ZM2.08696 12C2.08696 11.3478 2.16522 10.6957 2.26957 10.0696C2.84348 9.96522 3.93913 9.8087 5.47826 9.65217C5.34783 10.4087 5.26957 11.1913 5.26957 12.0261C5.26957 12.8609 5.34783 13.6435 5.45217 14.3739C3.93913 14.2174 2.81739 14.0609 2.24348 13.9565C2.16522 13.3043 2.08696 12.6522 2.08696 12ZM6.86087 12C6.86087 11.113 6.96522 10.2783 7.12174 9.49565C8.32174 9.41739 9.67826 9.33913 11.2174 9.33913V14.6609C9.70435 14.6348 8.32174 14.5826 7.09565 14.4783C6.96522 13.7217 6.86087 12.887 6.86087 12ZM12.9391 2.13913C13.6435 2.84348 15.4435 4.93043 16.4609 7.90435C15.3652 7.82609 14.1391 7.77391 12.7826 7.77391V2.11304C12.8348 2.11304 12.887 2.13913 12.9391 2.13913ZM11.2174 2.11304V7.77391C9.86087 7.8 8.63478 7.82609 7.53913 7.90435C8.53043 4.93043 10.3565 2.84348 11.0348 2.13913C11.113 2.13913 11.1652 2.11304 11.2174 2.11304ZM12.7826 14.6609V9.33913C14.2957 9.36522 15.6783 9.41739 16.8783 9.49565C17.0348 10.2783 17.1391 11.113 17.1391 12C17.1391 12.887 17.0609 13.7217 16.9043 14.5043C15.7043 14.5826 14.3217 14.6348 12.7826 14.6609ZM18.4957 9.65217C20.0348 9.8087 21.1304 9.96522 21.7043 10.0696C21.8348 10.6957 21.913 11.3478 21.913 12C21.913 12.6522 21.8348 13.3043 21.7304 13.9304C21.1565 14.0348 20.0609 14.1913 18.5217 14.3478C18.6522 13.5913 18.7043 12.8087 18.7043 11.9739C18.7043 11.1913 18.6261 10.3826 18.4957 9.65217ZM21.2348 8.4C20.5043 8.29565 19.4609 8.16522 18.1304 8.03478C17.5043 5.7913 16.4087 3.9913 15.4957 2.71304C18.1304 3.70435 20.2174 5.7913 21.2348 8.4ZM8.50435 2.71304C7.56522 3.96522 6.49565 5.76522 5.86957 8.0087C4.56522 8.11304 3.52174 8.26956 2.76522 8.37391C3.78261 5.7913 5.89565 3.70435 8.50435 2.71304ZM2.76522 15.6C3.49565 15.7043 4.53913 15.8348 5.84348 15.9652C6.46956 18.2087 7.51304 20.0087 8.45217 21.2609C5.84348 20.2435 3.78261 18.1826 2.76522 15.6ZM15.5478 21.2609C16.487 20.0087 17.5304 18.2348 18.1565 15.9913C19.4609 15.887 20.5043 15.7304 21.2348 15.6261C20.2174 18.1826 18.1565 20.2435 15.5478 21.2609Z" fill="#EFC74D"/>
</svg>
