<svg width="20" height="18" viewBox="0 0 20 18" fill="none" xmlns="http://www.w3.org/2000/svg">
<path d="M1.52505 2.53839C2.49857 3.58854 3.65172 4.45976 4.93231 5.1099C6.45063 5.88074 8.11413 6.32355 9.81474 6.40957L10.4828 6.44336L10.3261 5.79306C10.1393 5.01809 10.2151 4.20304 10.5414 3.47575C10.8678 2.74846 11.4263 2.15006 12.1294 1.7744C12.8325 1.39874 13.6404 1.26708 14.4264 1.40006C15.2124 1.53303 15.932 1.92313 16.4724 2.50916L16.6622 2.71494L16.9368 2.66075C17.3827 2.57275 17.8203 2.45013 18.2456 2.2944C17.999 2.57426 17.7089 2.81664 17.3836 3.01097L17.7 3.9366C17.9838 3.90229 18.2654 3.85452 18.5439 3.79353C18.2808 4.05444 17.9992 4.29706 17.7011 4.51939L17.5 4.66936V4.92021V4.92126V4.92232V4.92337V4.92443V4.92548V4.92654V4.92759V4.92865V4.9297V4.93076V4.93181V4.93287V4.93392V4.93497V4.93603V4.93708V4.93814V4.93919V4.94025V4.9413V4.94236V4.94341V4.94447V4.94552V4.94658V4.94763V4.94868V4.94974V4.95079V4.95185V4.9529V4.95396V4.95501V4.95607V4.95712V4.95817V4.95923V4.96028V4.96134V4.96239V4.96345V4.9645V4.96556V4.96661V4.96766V4.96872V4.96977V4.97083V4.97188V4.97293V4.97399V4.97504V4.9761V4.97715V4.9782V4.97926V4.98031V4.98137V4.98242V4.98347V4.98453V4.98558V4.98664V4.98769V4.98874V4.9898V4.99085V4.9919V4.99296V4.99401V4.99507V4.99612V4.99717V4.99823V4.99928V5.00033V5.00139V5.00244V5.00349V5.00455V5.0056V5.00665V5.00771V5.00876V5.00981V5.01087V5.01192V5.01297V5.01402V5.01508V5.01613V5.01718V5.01824V5.01929V5.02034V5.02139V5.02245V5.0235V5.02455V5.0256V5.02666V5.02771V5.02876V5.02981V5.03087V5.03192V5.03297V5.03402V5.03507V5.03613V5.03718V5.03823V5.03928V5.04033V5.04139V5.04244V5.04349V5.04454V5.04559V5.04664V5.04769V5.04875V5.0498V5.05085V5.0519V5.05295V5.054V5.05505V5.0561V5.05716V5.05821V5.05926V5.06031V5.06136V5.06241V5.06346V5.06451V5.06556V5.06661V5.06766V5.06871V5.06976V5.07081V5.07186V5.07291V5.07396V5.07501V5.07606V5.07711V5.07816V5.07921V5.08026V5.08131V5.08236V5.08341V5.08446V5.08551V5.08656V5.0876V5.08865V5.0897V5.09075V5.0918V5.09285V5.0939V5.09495V5.09599V5.09704V5.09809V5.09914V5.10019V5.10124V5.10228V5.10333V5.10438V5.10543V5.10648V5.10752V5.10857V5.10962V5.11067V5.11171V5.11276V5.11381V5.11485V5.1159V5.11695V5.118V5.11904V5.12009V5.12114V5.12218V5.12323V5.12427V5.12532V5.12637V5.12741V5.12846V5.1295V5.13055V5.1316V5.13264V5.13369V5.13473V5.13578V5.13682V5.13787V5.13891V5.13996V5.141V5.14205V5.14309V5.14414V5.14518V5.14623V5.14727V5.14831V5.14936V5.1504V5.15145V5.15249V5.15353V5.15458V5.15562V5.15667V5.15771V5.15875V5.15979V5.16084V5.16188V5.16292V5.16397V5.16501V5.16605V5.16709V5.16814V5.16918V5.17022V5.17126V5.1723V5.17335V5.17439V5.17543V5.17647V5.17751V5.17855V5.17959V5.18064V5.18168V5.18272V5.18376V5.1848V5.18584V5.18688V5.18792V5.18896V5.19V5.19104V5.19208V5.19312V5.19416V5.1952V5.19624V5.19728V5.19831V5.19935V5.20039V5.20143V5.20247V5.20351V5.20455V5.20559V5.20662V5.20766V5.2087V5.20974V5.21077V5.21181V5.21285V5.21389V5.21492V5.21596V5.217V5.21803V5.21907V5.22011V5.22114V5.22218V5.22322V5.22425V5.22529V5.22632V5.22736V5.22839V5.22943V5.23046V5.2315V5.23253V5.23357V5.2346V5.23564V5.23667V5.23771V5.23874V5.23977V5.24081V5.24184V5.24288V5.24391V5.24494V5.24598V5.24701V5.24804V5.24907V5.25011V5.25114V5.25217V5.2532V5.25424V5.25527V5.2563V5.25733V5.25836V5.25939V5.26043V5.26146V5.26249V5.26352V5.26455V5.26558V5.26661V5.26764V5.26867V5.2697V5.27073V5.27176V5.27279V5.27382V5.27485V5.27587V5.2769V5.27793V5.27896V5.27999V5.28102V5.28204V5.28307V5.2841V5.28513V5.28616V5.28718V5.28821V5.28924V5.29026V5.29129V5.29232V5.29334V5.29437V5.29539V5.29642V5.29745V5.29847V5.2995V5.30052V5.30155V5.30257V5.3036V5.30462V5.30565V5.30667V5.30769V5.30872V5.30974V5.31076V5.31179V5.31281V5.31383V5.31486V5.31588V5.3169V5.31792V5.31895V5.31997V5.32099V5.32201V5.32303V5.32405V5.32508V5.3261V5.32712V5.32814V5.32916V5.33018V5.3312V5.33222V5.33324V5.33426V5.33528V5.3363V5.33732V5.33833V5.33935V5.34037V5.34139V5.34241V5.34343V5.34444V5.34546V5.34648V5.3475V5.34851V5.34953V5.35055V5.35156V5.35258V5.3536V5.35461V5.35563V5.35664V5.35766V5.35867V5.35969V5.3607V5.36172V5.36273V5.36375V5.36476V5.36577V5.36679V5.3678V5.36881V5.36983V5.37084V5.37185V5.37287V5.37388V5.37489V5.3759V5.37691V5.37792V5.37894V5.37995V5.38096V5.38197V5.38298V5.38399V5.385V5.38601V5.38702V5.38803V5.38904V5.39005V5.39106V5.39207V5.39307V5.39408V5.39509V5.3961V5.39711V5.39811V5.39912V5.40013V5.40113V5.40214V5.40315V5.40415V5.40516V5.40617V5.40717V5.40818V5.40918V5.41019V5.41119V5.4122V5.4132V5.41421V5.41521V5.41621V5.41722V5.41822V5.41922V5.42023V5.42123V5.42223V5.42323V5.42423V5.42524V5.42624V5.42724V5.42824V5.42924V5.43024V5.43124V5.43224V5.43324V5.43424V5.43524V5.43624V5.43724V5.43824V5.43924V5.44024V5.44124V5.44223V5.44323V5.44423V5.44523V5.44622V5.44722V5.44822V5.44921L17.5 5.45021L17.5 5.45412C17.5115 6.92742 17.2294 8.38825 16.67 9.75128C16.1106 11.1143 15.2853 12.3522 14.2421 13.3927C13.199 14.4332 11.9589 15.2554 10.5945 15.8112C9.23001 16.3671 7.76846 16.6455 6.29519 16.6302V16.6302L6.28939 16.6302C4.81624 16.632 3.36443 16.3398 2.01667 15.7781C3.59917 15.588 5.1064 14.9668 6.36919 13.9732L7.46965 13.1073L6.06962 13.0803C5.31914 13.0659 4.59183 12.8178 3.98889 12.3707C3.60049 12.0827 3.27614 11.7213 3.03253 11.3098C3.44375 11.3027 3.85202 11.2383 4.24557 11.1186L4.19755 10.1498C3.38383 9.98794 2.65099 9.54997 2.123 8.90998C1.75594 8.46506 1.50355 7.94149 1.38235 7.3849C1.79001 7.51546 2.2155 7.5883 2.6464 7.60002L4.38073 7.64721L2.93751 6.68429C2.4451 6.35575 2.04158 5.91056 1.76286 5.38835C1.48414 4.86613 1.33888 4.2831 1.34 3.69116L1.34 3.68988C1.33974 3.29705 1.40271 2.90838 1.52505 2.53839ZM1.00164 15.8402L1 15.3402L1.0014 15.8402C1.00148 15.8402 1.00156 15.8402 1.00164 15.8402Z" fill="white" fill-opacity="0.1" stroke="#EFC74D"/>
</svg>
