<svg width="100" height="100" viewBox="0 0 100 100" fill="none" xmlns="http://www.w3.org/2000/svg">
<circle cx="50" cy="50" r="50" fill="#87DC53"/>
<path d="M44.2842 60.2758V44.1891C44.2842 43.5558 44.4742 42.9383 44.8225 42.4158L49.145 35.9874C49.8258 34.9583 51.52 34.2299 52.9608 34.7683C54.5125 35.2908 55.5417 37.0324 55.2092 38.5841L54.3858 43.7616C54.3225 44.2366 54.4492 44.6641 54.7183 44.9966C54.9875 45.2974 55.3833 45.4874 55.8108 45.4874H62.3183C63.5692 45.4874 64.6458 45.9941 65.2792 46.8808C65.8808 47.7358 65.9917 48.8441 65.5958 49.9683L61.7008 61.8274C61.21 63.7908 59.0725 65.3899 56.9508 65.3899H50.7758C49.715 65.3899 48.2267 65.0258 47.5458 64.3449L45.5192 62.7774C44.7433 62.1916 44.2842 61.2574 44.2842 60.2758Z" fill="white"/>
<path d="M39.2491 41.1017H37.6183C35.1641 41.1017 34.1666 42.0517 34.1666 44.395V60.3234C34.1666 62.6667 35.1641 63.6167 37.6183 63.6167H39.2491C41.7033 63.6167 42.7008 62.6667 42.7008 60.3234V44.395C42.7008 42.0517 41.7033 41.1017 39.2491 41.1017Z" fill="white"/>
</svg>
