<svg width="100" height="100" viewBox="0 0 100 100" fill="none" xmlns="http://www.w3.org/2000/svg">
<circle cx="50" cy="50" r="50" fill="#EA4335"/>
<path d="M55.7159 39.7083V55.7949C55.7159 56.4283 55.5259 57.0458 55.1776 57.5683L50.8551 63.9966C50.1743 65.0258 48.4801 65.7541 47.0393 65.2158C45.4876 64.6933 44.4584 62.9516 44.7909 61.4L45.6143 56.2225C45.6776 55.7474 45.5509 55.3199 45.2818 54.9874C45.0126 54.6866 44.6168 54.4966 44.1893 54.4966H37.6818C36.4309 54.4966 35.3543 53.99 34.7209 53.1033C34.1193 52.2483 34.0084 51.1399 34.4043 50.0158L38.2993 38.1566C38.7901 36.1933 40.9276 34.5941 43.0493 34.5941H49.2243C50.2851 34.5941 51.7734 34.9583 52.4543 35.6391L54.4809 37.2066C55.2568 37.8083 55.7159 38.7266 55.7159 39.7083Z" fill="white"/>
<path d="M60.7507 58.8825H62.3816C64.8357 58.8825 65.8332 57.9325 65.8332 55.5891V39.6766C65.8332 37.3333 64.8357 36.3833 62.3816 36.3833H60.7507C58.2966 36.3833 57.2991 37.3333 57.2991 39.6766V55.605C57.2991 57.9325 58.2966 58.8825 60.7507 58.8825Z" fill="white"/>
</svg>
