<svg width="123" height="61" viewBox="0 0 123 61" fill="none" xmlns="http://www.w3.org/2000/svg">
<path d="M5.70703 33.5548V7.99312C5.70703 7.17121 5.99451 6.45203 6.56947 5.87669C7.14443 5.30134 7.86312 5.01367 8.68449 5.01367H11.5798V28.2534H25.5226V33.5753H5.70703V33.5548Z" fill="white"/>
<path d="M78.8281 33.5548V7.99312C78.8281 7.17121 79.1156 6.45203 79.6906 5.87669C80.2655 5.30134 80.9842 5.01367 81.8056 5.01367H92.2575C95.1939 5.01367 97.4321 5.63011 98.9722 6.84244C100.512 8.17806 101.293 9.96573 101.293 12.2465C101.293 13.6849 100.985 14.8972 100.389 15.9041C99.773 16.8493 98.9311 17.589 97.8223 18.1438C99.2597 18.7602 100.369 19.6027 101.149 20.7123C101.868 21.7602 102.237 23.1575 102.237 24.863C102.237 27.637 101.354 29.7945 99.5882 31.3356C97.7607 32.8356 95.1939 33.5753 91.8674 33.5753H78.8281V33.5548ZM84.475 16.0274H91.1897C92.6271 16.0274 93.6744 15.7808 94.352 15.2876C95.0091 14.7945 95.3376 14.0137 95.3376 12.9657C95.3376 11.9178 95.0091 11.137 94.352 10.6438C93.7976 10.1918 92.7298 9.98627 91.1076 9.98627H84.475V16.0274ZM84.475 28.3972H91.4361C92.9762 28.3972 94.1672 28.089 95.0091 27.4931C95.7894 26.9383 96.1795 25.9931 96.1795 24.6781C96.1795 23.3424 95.7894 22.3767 95.0091 21.7808C94.2904 21.226 93.0789 20.9589 91.354 20.9589H84.475V28.3972Z" fill="white"/>
<path d="M105.48 33.5549V22.8494C105.48 20.6918 105.788 18.8836 106.425 17.4042C107.062 15.9453 107.924 14.7535 109.033 13.8699C110.08 13.048 111.312 12.4316 112.729 12.0412C114.146 11.6508 115.583 11.4658 117.082 11.4658C117.185 11.4658 117.329 11.4658 117.493 11.4658C117.657 11.4658 117.801 11.4658 117.904 11.4658V17.3631H116.015C114.413 17.3631 113.222 17.7535 112.442 18.5343C111.661 19.3151 111.271 20.5275 111.271 22.1918V33.5754H105.48V33.5549Z" fill="white"/>
<path d="M35.8102 20.8974C36.4906 20.8974 37.0422 20.3454 37.0422 19.6645C37.0422 18.9836 36.4906 18.4316 35.8102 18.4316C35.1297 18.4316 34.5781 18.9836 34.5781 19.6645C34.5781 20.3454 35.1297 20.8974 35.8102 20.8974Z" fill="#FBB040"/>
<path d="M39.9781 20.8974C40.6586 20.8974 41.2102 20.3454 41.2102 19.6645C41.2102 18.9836 40.6586 18.4316 39.9781 18.4316C39.2977 18.4316 38.7461 18.9836 38.7461 19.6645C38.7461 20.3454 39.2977 20.8974 39.9781 20.8974Z" fill="#8DC63F"/>
<path d="M44.1696 20.8974C44.85 20.8974 45.4016 20.3454 45.4016 19.6645C45.4016 18.9836 44.85 18.4316 44.1696 18.4316C43.4891 18.4316 42.9375 18.9836 42.9375 19.6645C42.9375 20.3454 43.4891 20.8974 44.1696 20.8974Z" fill="#FFDE17"/>
<path d="M54.5795 8.17765C54.6411 8.15711 54.7027 8.11601 54.7437 8.09546C54.7027 8.13656 54.6411 8.17765 54.5795 8.2393C54.5178 8.30094 54.4357 8.34204 54.3536 8.40368C55.1955 7.88998 56.1811 7.31464 57.1668 6.84204C58.1524 6.34889 59.1586 5.95848 59.9594 5.6708C60.5549 5.54752 61.0888 5.42423 61.1299 5.32149C61.1504 5.28039 61.0477 5.2393 60.8629 5.21875C60.6781 5.21875 60.4112 5.2393 60.0826 5.28039C59.9389 5.30094 59.7746 5.32149 59.6925 5.32149C58.789 5.38313 57.6801 5.60916 56.5097 6.08176C56.7356 5.99957 56.982 5.93793 57.2078 5.85574C57.0436 5.91738 56.8793 5.97902 56.6945 6.04067C56.5302 6.10231 56.3454 6.1845 56.1811 6.2667C56.2222 6.2667 56.2838 6.2667 56.3249 6.24615C56.0374 6.34889 55.7294 6.49272 55.4214 6.65711C55.2776 6.7393 55.1133 6.82149 54.9696 6.92423C54.8259 7.00642 54.6821 7.10916 54.5384 7.2119C54.3946 7.31464 54.2714 7.41738 54.1482 7.52012C54.025 7.62286 53.9018 7.7256 53.7992 7.82834C53.5733 8.03382 53.409 8.2393 53.2653 8.40368C53.2037 8.48587 53.1421 8.56807 53.1215 8.62971C53.0805 8.69135 53.0599 8.753 53.0599 8.79409C53.0394 8.87628 53.0805 8.91738 53.1626 8.91738C53.2447 8.91738 53.3679 8.85574 53.5322 8.77354C53.6143 8.73245 53.717 8.67081 53.8197 8.60916C53.9224 8.54752 54.025 8.46533 54.1688 8.40368L54.5795 8.17765Z" fill="url(#paint0_linear_433_2719)"/>
<path d="M56.6938 7.52062C56.0778 7.78775 55.4823 8.05487 54.9074 8.38364L54.7841 8.42473L54.9074 8.52747V8.50693C55.318 8.05487 56.1599 7.45898 57.0018 7.02747C57.1045 6.96583 57.2072 6.92473 57.2893 6.86309C57.4331 6.7809 57.5152 6.71925 57.5357 6.67816C57.5768 6.57542 57.2893 6.63706 56.8786 6.80145L56.4064 7.02747C55.8314 7.27405 55.1332 7.68501 54.5377 8.13706C54.2503 8.36309 53.9833 8.58912 53.778 8.81514C53.6753 8.91788 53.5726 9.04117 53.511 9.12336C53.4289 9.2261 53.3878 9.3083 53.3467 9.39049C53.2646 9.53432 53.4289 9.49323 53.4905 9.51377C53.511 9.55487 53.6137 9.53432 53.778 9.43158C53.9422 9.32884 54.1476 9.18501 54.3735 8.97953C54.6199 8.7946 54.8252 8.60967 54.969 8.46583C55.1332 8.32199 55.2154 8.19871 55.2154 8.15761C55.2975 8.09597 55.4002 8.05487 55.4823 7.99323C55.4207 8.05487 55.3591 8.09597 55.2975 8.15761C55.3386 8.07542 55.4823 7.95213 55.6466 7.82884C55.7287 7.7672 55.8314 7.68501 55.9135 7.62336C56.0162 7.56172 56.0983 7.50008 56.1805 7.43843L56.4474 7.27405C56.5296 7.2124 56.6322 7.17131 56.7144 7.13021C56.5706 7.10967 56.4269 7.08912 56.3037 7.08912L56.0367 7.27405C56.0573 7.27405 56.1189 7.2535 56.1189 7.2535C55.6055 7.60282 55.1332 7.99323 54.6199 8.42473C54.4145 8.63021 54.2092 8.81514 54.0038 9.02062C53.8601 9.20556 53.9217 9.2261 54.1271 9.10282C54.2297 9.04117 54.3324 8.95898 54.4351 8.89734C54.394 8.91788 54.3324 8.95898 54.2913 8.97953C54.9895 8.46583 55.7493 7.99323 56.509 7.64391C56.6322 7.58227 56.776 7.50008 56.817 7.45898C56.8786 7.47953 56.817 7.47953 56.6938 7.52062Z" fill="url(#paint1_linear_433_2719)"/>
<path d="M54.2115 9.22559C54.0883 9.30778 53.9856 9.36942 53.8419 9.51326C53.8213 9.55435 53.8008 9.5749 53.8008 9.5749C53.8624 9.5338 53.9445 9.47216 54.0267 9.43107C54.1909 9.32833 54.2525 9.24613 54.2115 9.22559Z" fill="url(#paint2_linear_433_2719)"/>
<path d="M53.7971 9.5752C53.736 9.61629 53.6953 9.63684 53.6953 9.63684C53.7157 9.61629 53.736 9.61629 53.7564 9.59574C53.7768 9.59574 53.7768 9.59574 53.7971 9.5752C53.7768 9.59574 53.7768 9.59574 53.7971 9.5752Z" fill="url(#paint3_linear_433_2719)"/>
<path d="M56.6963 9.96565C56.7374 9.82181 56.7785 9.69852 56.8195 9.55469C56.7579 9.69852 56.7168 9.84236 56.6758 9.96565H56.6963Z" fill="url(#paint4_linear_433_2719)"/>
<path d="M57.9075 7.97266C57.8048 7.97266 57.7227 7.9932 57.7227 7.9932C57.8048 7.97266 57.8664 7.97266 57.9075 7.97266Z" fill="url(#paint5_linear_433_2719)"/>
<path d="M55.2365 8.91797C55.1954 8.93852 55.1543 8.93852 55.1133 8.95906C55.1954 8.93852 55.216 8.93852 55.2365 8.91797Z" fill="url(#paint6_linear_433_2719)"/>
<path d="M60.8619 6.37028C60.2048 6.43192 59.5067 6.5963 58.8906 6.74014C59.0754 6.69904 59.2397 6.69904 59.404 6.6785C59.5683 6.6785 59.712 6.65795 59.8557 6.6785C60.0816 6.61685 60.3486 6.55521 60.595 6.51411C60.7592 6.49357 60.9441 6.45247 61.1083 6.43192C61.2726 6.41137 61.4574 6.39083 61.6217 6.37028C61.9502 6.34973 62.2993 6.32918 62.6279 6.32918C62.5457 6.28809 62.71 6.28809 62.7716 6.28809C62.8537 6.28809 62.9359 6.28809 63.018 6.28809C62.2993 6.28809 61.5806 6.30863 60.8619 6.37028Z" fill="url(#paint7_linear_433_2719)"/>
<path d="M54.5385 9.37012C54.5181 9.39067 54.4774 9.41121 54.457 9.43176C54.4978 9.43176 54.5385 9.41121 54.5385 9.37012Z" fill="url(#paint8_linear_433_2719)"/>
<path d="M54.5603 9.22579C54.5603 9.16414 54.5806 9.12305 54.5806 9.12305C54.5195 9.24633 54.5195 9.24633 54.5195 9.24633C54.5195 9.24633 54.5399 9.22579 54.5603 9.22579Z" fill="url(#paint9_linear_433_2719)"/>
<path d="M61.582 6.5957C61.6026 6.5957 61.6231 6.5957 61.6436 6.5957C61.89 6.6368 62.1365 6.6779 62.1365 6.6779C61.8079 6.5957 61.8079 6.5957 61.8079 6.5957C61.7463 6.5957 61.6642 6.5957 61.582 6.5957Z" fill="url(#paint10_linear_433_2719)"/>
<path d="M43.2231 5.77394C43.3052 5.79449 43.3873 5.83558 43.4695 5.85613C43.3873 5.85613 43.2847 5.83558 43.182 5.79449C43.0588 5.77394 42.9356 5.75339 42.8124 5.71229C43.1409 5.79449 43.4695 5.89723 43.8186 5.99997C44.1471 6.10271 44.4962 6.22599 44.8453 6.34928C45.5434 6.59586 46.2416 6.90408 46.8987 7.23284C47.5558 7.56161 48.1923 7.93147 48.7673 8.32188C49.3423 8.71229 49.8556 9.10271 50.3074 9.45202C50.5948 9.73969 50.8823 10.0274 51.0877 10.2328C51.1903 10.3356 51.293 10.4178 51.3751 10.4794C51.4573 10.5411 51.4984 10.5822 51.5394 10.5822C51.6626 10.5822 51.3546 10.0274 50.7591 9.41092C50.6359 9.26709 50.4922 9.10271 50.3895 8.99997C49.9994 8.52736 49.5271 8.03421 48.9521 7.56161C48.8084 7.43832 48.6646 7.31503 48.5004 7.21229C48.3361 7.08901 48.1923 6.98627 48.0281 6.86298C47.8638 6.76024 47.6995 6.63695 47.5147 6.53421C47.3504 6.43147 47.1656 6.32873 46.9808 6.22599C47.1246 6.30818 47.2683 6.39038 47.3915 6.49312C47.5352 6.59586 47.6585 6.67805 47.8022 6.78079C47.5968 6.6575 47.3915 6.51366 47.1862 6.39038C46.9603 6.26709 46.7549 6.1438 46.5085 6.04106C46.5496 6.08216 46.6112 6.12325 46.6523 6.16435C45.9336 5.75339 44.989 5.38353 44.0855 5.1575C43.182 4.93147 42.3196 4.89038 41.7446 4.91092C41.1696 4.95202 40.9848 5.05476 41.1286 5.1575C41.2928 5.28079 41.7857 5.38353 42.5454 5.56846C42.7713 5.65065 42.9972 5.71229 43.2231 5.77394Z" fill="url(#paint11_linear_433_2719)"/>
<path d="M45.8095 7.1921C45.0087 6.76059 44.1873 6.43183 43.3249 6.1647L43.1606 6.10306L43.1811 6.26744H43.2017C44.0436 6.30854 45.3783 6.6784 46.5282 7.2332C46.672 7.29484 46.7952 7.35648 46.9389 7.41813C47.1442 7.50032 47.2674 7.56196 47.329 7.56196C47.3906 7.56196 47.3496 7.50032 47.2264 7.39758C47.1648 7.35648 47.0826 7.27429 46.98 7.21265C46.8773 7.151 46.7541 7.08936 46.6309 7.00717C46.4255 6.88388 46.2202 6.80169 46.0149 6.69895C45.2551 6.30854 44.2078 5.93868 43.2222 5.75374C42.2366 5.56881 41.3331 5.56881 40.8608 5.67155C40.6554 5.7332 40.8402 5.79484 40.8813 5.87703C40.8402 5.91813 40.984 5.95922 41.2304 6.02087C41.3536 6.04142 41.4973 6.08251 41.6821 6.10306C41.8464 6.12361 42.0312 6.1647 42.2366 6.18525C43.0374 6.30854 43.7356 6.41128 43.8177 6.32909C43.9409 6.37018 44.0846 6.41128 44.2284 6.47292C44.1257 6.45237 44.0025 6.43183 43.8998 6.41128C44.023 6.41128 44.2694 6.43183 44.5569 6.51402C44.8444 6.57566 45.1524 6.6784 45.4194 6.76059C45.6863 6.84279 45.9533 6.96607 46.1997 7.06881L45.8506 6.65785C45.7068 6.61676 45.5631 6.55511 45.4194 6.51402C45.4399 6.53457 45.5015 6.57566 45.5015 6.57566C44.6801 6.32909 43.9204 6.14415 42.9963 6.02087L42.4214 5.95922L41.8464 5.91813C41.6821 5.91813 41.6205 5.93868 41.6205 5.97977C41.6205 6.00032 41.7232 6.04142 41.8875 6.08251L42.3803 6.18525C42.2982 6.1647 42.2366 6.14415 42.1544 6.12361C43.3043 6.30854 44.4748 6.6784 45.5015 7.17155C45.6658 7.25374 45.8711 7.33594 45.9533 7.35648C46.0354 7.31539 45.9738 7.27429 45.8095 7.1921Z" fill="url(#paint12_linear_433_2719)"/>
<path d="M41.8887 6.14372C41.7039 6.10262 41.5191 6.08207 41.2521 6.06152C41.1905 6.06152 41.1494 6.06152 41.1289 6.06152C41.2316 6.08207 41.3548 6.10262 41.4985 6.12317C41.7655 6.18481 41.8887 6.18481 41.8887 6.14372Z" fill="url(#paint13_linear_433_2719)"/>
<path d="M41.1476 6.06156C41.0655 6.04102 41.0039 6.04102 41.0039 6.04102C41.045 6.04102 41.0655 6.06156 41.1066 6.06156C41.1271 6.06156 41.1271 6.06156 41.1271 6.06156C41.1271 6.06156 41.1271 6.06156 41.1476 6.06156Z" fill="url(#paint14_linear_433_2719)"/>
<path d="M31.8679 30.5754C30.4305 29.4453 29.1985 28.0069 28.3155 26.4042C27.412 24.8015 26.837 23.0138 26.6317 21.185C26.6112 21.0617 26.5906 20.959 26.5701 20.959C26.5496 20.959 26.5496 21.0412 26.5701 21.1645C26.7754 22.9932 27.3504 24.7809 28.2334 26.3836C29.1369 27.9864 30.3484 29.4247 31.7858 30.5754C31.8885 30.6576 31.9706 30.6987 31.9911 30.6987C32.0322 30.6987 31.9706 30.6371 31.8679 30.5754Z" fill="#1C75BC"/>
<path d="M34.29 8.58905C34.2284 8.63014 34.2284 8.65069 34.3105 8.6096C34.3721 8.58905 34.4953 8.5274 34.5569 8.48631C34.6186 8.44521 34.598 8.42466 34.5364 8.46576C34.4337 8.48631 34.3311 8.5274 34.29 8.58905Z" fill="url(#paint15_linear_433_2719)"/>
<path d="M57.9469 20.8974C58.6273 20.8974 59.179 20.3454 59.179 19.6645C59.179 18.9836 58.6273 18.4316 57.9469 18.4316C57.2665 18.4316 56.7148 18.9836 56.7148 19.6645C56.7148 20.3454 57.2665 20.8974 57.9469 20.8974Z" fill="#1C75BC"/>
<path d="M62.1149 20.8974C62.7953 20.8974 63.3469 20.3454 63.3469 19.6645C63.3469 18.9836 62.7953 18.4316 62.1149 18.4316C61.4344 18.4316 60.8828 18.9836 60.8828 19.6645C60.8828 20.3454 61.4344 20.8974 62.1149 20.8974Z" fill="#EE2A7B"/>
<path d="M66.2828 20.8974C66.9633 20.8974 67.5149 20.3454 67.5149 19.6645C67.5149 18.9836 66.9633 18.4316 66.2828 18.4316C65.6024 18.4316 65.0508 18.9836 65.0508 19.6645C65.0508 20.3454 65.6024 20.8974 66.2828 20.8974Z" fill="#92278F"/>
<path d="M43.1408 6.75989C43.0792 6.71879 43.0382 6.71879 42.9766 6.69824C43.1408 6.75989 43.1408 6.75989 43.1408 6.75989Z" fill="url(#paint16_linear_433_2719)"/>
<path d="M43.5117 8.5686L43.5528 8.58915C43.6349 8.5686 43.7171 8.5275 43.7992 8.50696L44.0456 8.44531L43.7787 8.50696L43.5117 8.5686Z" fill="url(#paint17_linear_433_2719)"/>
<path d="M46.3242 8.38379C46.4064 8.44543 46.4474 8.50708 46.509 8.54817C46.4474 8.50708 46.4064 8.44543 46.3858 8.42489C46.3448 8.40434 46.3242 8.38379 46.3242 8.38379Z" fill="url(#paint18_linear_433_2719)"/>
<path d="M48.4609 8.87695C48.8306 9.22627 49.077 9.55504 49.3028 9.84271C49.426 9.94545 49.5493 10.0687 49.6725 10.192C49.7957 10.3153 49.9189 10.4386 50.0421 10.5619C50.6786 11.2605 51.2125 12.0002 51.6643 12.7811C51.6437 12.6578 51.7464 12.8427 51.808 12.9454C51.8696 13.0482 51.9312 13.1304 51.9928 13.2331C51.5616 12.3701 51.0277 11.5482 50.4117 10.7879C49.8162 10.1098 49.0975 9.43175 48.4609 8.87695Z" fill="url(#paint19_linear_433_2719)"/>
<path d="M39.8774 33.0616C39.7748 33.041 39.631 33.041 39.5078 33.041C39.631 33.041 39.7542 33.0616 39.8774 33.0616Z" fill="url(#paint20_linear_433_2719)"/>
<path d="M50.8829 11.9995C50.8213 11.8968 50.7803 11.8146 50.7188 11.7324C50.7393 11.753 50.7393 11.7735 50.7598 11.8146C50.8214 11.9584 50.9035 12.1228 50.9445 12.2256C51.0061 12.3283 51.0267 12.4105 51.0267 12.4105C50.9445 12.205 50.9035 12.1023 50.8829 12.0406C50.8829 11.9995 50.8829 11.9995 50.8829 11.9995Z" fill="url(#paint21_linear_433_2719)"/>
<path d="M41.7065 33.0621C42.4457 33.0005 43.1849 32.8772 43.9036 32.7128C44.3554 32.5895 44.8071 32.4251 45.2589 32.2607C44.3348 32.5895 43.3903 32.8155 42.4252 32.9388C41.5832 33.0621 40.7413 33.0827 39.8994 33.0621C39.8994 33.0621 39.8789 33.0621 39.8789 33.0827C40.4949 33.1032 41.0904 33.1032 41.7065 33.0621Z" fill="#662D91"/>
<path d="M54.3336 17.4042C54.3131 17.4658 54.2926 17.5274 54.272 17.5891C54.2515 17.3631 54.231 17.1987 54.231 17.0137C54.231 16.9316 54.2104 16.8288 54.2104 16.7261C54.1899 16.6233 54.1694 16.5206 54.1488 16.3973C54.1488 16.5411 54.1694 16.6644 54.1694 16.8083V16.7877C54.1488 16.5206 54.0872 16.2329 54.0257 15.9452C53.9436 15.637 53.882 15.3288 53.7588 15.0206C53.5945 14.322 53.3276 13.5411 52.9579 12.7603C52.5883 11.9795 52.0955 11.1987 51.5205 10.4589C50.9456 9.71922 50.268 9.02059 49.5287 8.40415C48.7895 7.78771 47.9887 7.27402 47.1673 6.84251C46.9209 6.71922 46.6745 6.61648 46.6334 6.61648C46.5923 6.63703 46.7565 6.73977 47.0029 6.88361C47.9475 7.4384 48.7279 8.07539 49.5698 8.83566C51.1304 10.2946 52.2392 11.9795 53.0811 13.9726C53.1222 14.0959 53.1632 14.2192 53.2043 14.3425C53.2453 14.5274 53.2864 14.6918 53.3275 14.8768C53.3275 14.8562 53.3069 14.8357 53.3069 14.7946C53.2248 14.5685 53.1633 14.3425 53.0811 14.1165C53.1017 14.1576 53.1017 14.1987 53.1017 14.2398C52.7526 13.3768 52.3419 12.5343 51.8286 11.774C51.3768 11.0137 50.8223 10.274 50.1652 9.59593C49.5081 8.91785 48.7484 8.28086 47.9476 7.76717C47.1262 7.23292 46.2637 6.80141 45.3807 6.49319C44.4977 6.18497 43.5942 5.9795 42.7523 5.8973C42.4443 5.83566 42.2185 5.85621 42.2596 5.8973C42.2801 5.91785 42.3623 5.9384 42.465 5.9795C42.5676 6.00004 42.7113 6.04114 42.855 6.06169C44.4977 6.411 46.079 7.08908 47.3316 7.9521C47.3726 7.99319 47.27 7.97265 47.3521 8.03429C47.3932 8.07539 47.4342 8.11648 47.4958 8.15758C47.3521 8.03429 47.1672 7.93155 46.9824 7.82881C46.9002 7.78771 46.7976 7.74662 46.736 7.70552C46.6538 7.66443 46.5923 7.64388 46.5102 7.60278C46.3665 7.54114 46.2637 7.50004 46.161 7.45895C45.9762 7.37676 45.8531 7.33566 45.7504 7.31511C45.7504 7.31511 45.7504 7.31511 45.6888 7.29456C45.6067 7.25347 45.5245 7.23292 45.4012 7.19182C45.3807 7.19182 45.3602 7.17128 45.3191 7.17128C45.2164 7.13018 45.0933 7.06854 44.9907 7.02744C44.8675 6.9658 44.7442 6.94525 44.6621 6.9247C44.621 6.90415 44.5799 6.86306 44.5183 6.84251C44.354 6.78087 44.2309 6.73977 44.1282 6.69867C44.0256 6.65758 43.9434 6.63703 43.8613 6.61648C43.697 6.55484 43.5327 6.51374 43.1836 6.43155C43.1836 6.43155 43.1836 6.4521 43.2042 6.47265C43.1836 6.47265 43.122 6.4521 43.0399 6.43155C42.9372 6.411 42.814 6.39045 42.6908 6.36991C42.5676 6.34936 42.4855 6.32881 42.3828 6.30826C42.2596 6.28771 42.0953 6.26717 41.7668 6.20552C41.7668 6.20552 41.7667 6.20552 42.0747 6.28771C42.0747 6.28771 42.0747 6.28771 41.8078 6.22607C41.8078 6.22607 41.8078 6.22607 41.8694 6.28771C41.8694 6.28771 41.8695 6.28771 41.7463 6.22607C41.7463 6.22607 41.7463 6.22607 41.7257 6.22607C41.7052 6.22607 41.6846 6.22607 41.623 6.24662C41.623 6.24662 41.623 6.24662 41.0686 6.08224C41.0276 6.08224 40.9249 6.08224 40.6579 6.08224C40.6579 6.08224 40.5757 6.08224 40.5346 6.10278C40.5346 6.12333 40.5346 6.12333 40.3088 6.16443C40.3088 6.16443 40.3088 6.18497 40.3293 6.20552C40.3909 6.22607 40.3909 6.22607 40.4114 6.26717C40.4114 6.26717 40.4936 6.28771 40.5962 6.30826C40.6989 6.32881 40.7194 6.30826 41.1096 6.36991C41.0685 6.36991 41.0481 6.39045 41.007 6.39045C40.9249 6.47265 40.9249 6.47265 41.3972 6.69867C41.3972 6.69867 41.4588 6.71922 41.582 6.73977C41.7052 6.76032 41.8694 6.82196 42.0747 6.86306C42.3211 6.90415 42.4444 6.94525 42.5676 6.9658C42.6908 6.98635 42.8346 7.02744 43.122 7.08908C43.122 7.08908 43.2452 7.13018 43.4506 7.19182C43.5943 7.25347 43.6353 7.27402 43.738 7.33566C43.6353 7.31511 43.5326 7.27402 43.4506 7.27402C43.2042 7.23292 43.1426 7.27402 43.3479 7.35621C43.0399 7.41785 43.1835 7.56169 43.4916 7.76717C43.3889 7.78771 43.3274 7.80826 43.3274 7.86991C42.9167 7.89045 42.6498 7.9521 42.5266 8.05484L42.465 8.15758C42.5676 8.26032 42.8551 8.40415 43.2863 8.58908L43.4095 8.65073L43.2658 8.69182C43.5122 8.87676 43.9022 9.10278 44.2719 9.36991C44.3745 9.43155 44.4567 9.49319 44.5593 9.57539C44.6415 9.63703 44.7443 9.71922 44.8264 9.78086C44.9907 9.90415 45.1548 10.0685 45.278 10.1918C45.3396 10.2535 45.4012 10.3151 45.4628 10.3562L45.6478 10.5411C45.9147 10.8083 46.3664 11.1781 46.8592 11.6302C47.0234 11.7946 47.2084 11.9589 47.3726 12.1233C47.4753 12.2261 47.5779 12.3288 47.6805 12.4316C47.5368 12.3083 47.3932 12.2261 47.27 12.1439C47.1468 12.0617 47.0235 12.0206 46.9413 12C46.7565 11.9384 46.6539 11.9589 46.6539 12.0822C46.6539 12.2672 46.9209 12.637 47.27 13.1507C47.6396 13.6644 48.0912 14.322 48.5019 15.0411C49.0358 16.0069 49.4055 17.0548 49.5698 18.1439C49.7341 19.2329 49.7135 20.3425 49.5082 21.4316C49.3028 22.5 48.8921 23.548 48.3172 24.5137C47.7422 25.4795 46.9824 26.3425 46.0994 27.0617C45.7503 27.3288 45.4013 27.5959 45.0317 27.8014C43.7791 29.8768 42.0132 31.6644 39.8776 33.0617C40.7195 33.0822 41.5614 33.0617 42.4033 32.9384C43.3685 32.7946 44.3129 32.5685 45.237 32.2603C44.8058 32.4452 44.3541 32.5891 43.8818 32.7124C43.1631 32.8973 42.4239 33 41.6847 33.0617C41.0686 33.1028 40.4526 33.1028 39.8366 33.0617C39.7955 33.0822 39.7544 33.1233 39.7134 33.1439C39.8366 33.1439 39.9598 33.1644 40.083 33.1644C40.7606 33.185 41.4587 33.1644 42.1363 33.0822C41.2944 33.2055 40.4525 33.2466 39.6106 33.2261C39.5285 33.2877 39.4258 33.3288 39.3438 33.3905C40.4526 33.4521 41.5613 33.411 42.6497 33.2055C43.779 33 44.8879 32.6713 45.9352 32.1987C46.5512 32.0548 47.4752 31.685 48.4403 31.0891C48.9331 30.8014 49.4055 30.4316 49.8778 30.0411C50.1037 29.8357 50.3501 29.6302 50.5554 29.4042C50.6581 29.3014 50.7812 29.1781 50.8839 29.0754C50.9866 28.9521 51.0893 28.8494 51.192 28.7261C51.767 28.048 52.2186 27.3288 52.6088 26.5891C52.5061 26.7535 52.4035 26.9179 52.3008 27.0822C52.1982 27.2466 52.0955 27.411 51.9723 27.5548C52.1366 27.3083 52.2802 27.0822 52.4035 26.8562C52.5267 26.6096 52.6499 26.3836 52.7526 26.1576C52.9579 25.7055 53.1426 25.2535 53.2864 24.7809C53.3275 24.6987 53.348 24.637 53.3891 24.5548C53.8613 23.548 54.1694 22.3562 54.3336 21.1233C54.5184 19.8699 54.4774 18.5959 54.3336 17.4042ZM41.9104 6.47265C41.9516 6.47265 41.9926 6.49319 42.0542 6.49319C42.0131 6.51374 41.9516 6.51374 41.9104 6.47265ZM42.2184 6.411C42.1979 6.411 42.1774 6.39045 42.1363 6.39045C42.1363 6.39045 42.1364 6.39045 42.3212 6.34936C42.3212 6.36991 42.28 6.39045 42.2184 6.411ZM42.9782 6.67813C43.0398 6.69867 43.081 6.71922 43.1426 6.73977C43.1426 6.76032 43.1425 6.76032 42.9782 6.67813ZM43.779 8.50689C43.6969 8.52744 43.6149 8.54799 43.5326 8.58908L43.4916 8.56854L43.779 8.50689ZM46.5102 8.56854C46.4691 8.52744 46.4075 8.4658 46.3254 8.40415C46.3254 8.40415 46.3459 8.4247 46.387 8.44525C46.4075 8.4658 46.4486 8.50689 46.5102 8.56854ZM50.966 12.2261C50.9044 12.1028 50.8428 11.9589 50.7812 11.8151C50.7607 11.774 50.7608 11.7535 50.7402 11.7329C50.7812 11.8151 50.8428 11.8973 50.9044 12C50.9044 12 50.9044 12 50.925 12.0617C50.9455 12.1233 50.9867 12.2261 51.0688 12.4316C51.0483 12.411 51.0276 12.3288 50.966 12.2261ZM51.7874 12.9658C51.7258 12.8631 51.6231 12.6781 51.6437 12.8014C51.1919 12.0206 50.6581 11.2603 50.0215 10.5822C49.8982 10.4589 49.7751 10.3357 49.6519 10.2124C49.5287 10.0891 49.4054 9.98634 49.2822 9.86306C49.0563 9.55484 48.8099 9.24662 48.4403 8.8973C49.0974 9.4521 49.7957 10.1302 50.3501 10.8288C50.9661 11.5891 51.4999 12.411 51.9311 13.274C51.9106 13.1507 51.849 13.048 51.7874 12.9658Z" fill="url(#paint22_linear_433_2719)"/>
<path d="M42.0539 6.4932C42.0128 6.4932 41.9718 6.47266 41.9102 6.47266C41.9512 6.51375 42.0128 6.51375 42.0539 6.4932Z" fill="url(#paint23_linear_433_2719)"/>
<path d="M42.2189 6.41125C42.2805 6.37016 42.3215 6.34961 42.3215 6.34961C42.1367 6.39071 42.1367 6.39071 42.1367 6.39071C42.1573 6.41125 42.1983 6.41125 42.2189 6.41125Z" fill="url(#paint24_linear_433_2719)"/>
<path d="M67.3523 31.0684L67.188 31.13L67.1059 31.1506C67.0032 31.2533 66.9005 31.3355 66.7773 31.4383C67.1264 31.315 67.455 31.1917 67.7835 31.0479C67.5987 31.0889 67.455 31.0889 67.3523 31.0684Z" fill="url(#paint25_linear_433_2719)"/>
<path d="M70.9641 25.2536C70.3276 26.281 69.5062 27.2056 68.5411 27.9864C68.1304 28.3152 67.7197 28.5823 67.3296 28.8495C66.9189 29.096 66.5082 29.3221 66.0975 29.5275C65.2556 29.918 64.3932 30.2467 63.4281 30.4111C63.3665 30.4111 63.3665 30.4317 63.4075 30.4522C63.4486 30.4522 63.5307 30.4522 63.5923 30.4522C65.1529 30.2673 66.6519 29.7125 67.9661 28.9111C68.6232 28.5001 69.2598 28.0275 69.8347 27.4933C70.0196 27.3289 70.2044 27.144 70.3686 26.9591C70.6972 26.3015 70.9641 25.6234 71.19 24.9248C71.0873 25.0275 71.0257 25.1508 70.9641 25.2536Z" fill="url(#paint26_linear_433_2719)"/>
<path d="M69.8163 27.9043C69.3235 28.2947 68.8101 28.6235 68.2557 28.9111L68.0298 29.0139C67.8861 29.0755 67.7424 29.1577 67.6397 29.2399C67.5165 29.3221 67.4343 29.3837 67.3727 29.4454C67.3317 29.4865 67.3111 29.507 67.3111 29.5276C66.7978 29.7742 66.2844 29.9796 65.73 30.1646C65.1961 30.329 64.6212 30.4522 64.0667 30.5344C62.9374 30.7194 61.808 30.7194 60.6991 30.5961C60.5964 30.5755 60.5348 30.5961 60.5348 30.6166C60.4938 30.5961 60.4322 30.5961 60.3911 30.5755C60.2679 30.5755 60.1242 30.555 59.9804 30.5139C59.8367 30.4933 59.6929 30.4728 59.5287 30.4317C59.4671 30.4111 59.426 30.4111 59.4465 30.4317C59.4671 30.4522 59.5492 30.4933 59.6108 30.4933C59.7751 30.5344 59.9188 30.555 60.0831 30.5755C60.2268 30.5961 60.3911 30.6166 60.5348 30.6372C60.5759 30.6372 60.5964 30.6372 60.5964 30.6372C60.6581 30.6577 60.7607 30.6988 60.8634 30.6988C61.4384 30.781 61.9928 30.8221 62.5677 30.8221C63.1222 30.8221 63.6971 30.781 64.2515 30.6783C64.806 30.5961 65.3399 30.4522 65.8737 30.2879C66.4076 30.1235 66.921 29.918 67.4549 29.692C66.9621 29.9591 66.4487 30.1851 65.8943 30.3701C65.3399 30.555 64.7649 30.6988 64.1694 30.8016C63.4507 30.9248 62.732 30.9659 62.0133 30.9659C61.2946 30.9454 60.5759 30.8632 59.8572 30.6988C59.7751 30.6783 59.734 30.6783 59.734 30.6988C59.734 30.7194 59.7956 30.7399 59.8778 30.7605C61.3768 31.1303 62.8757 31.1303 64.2926 30.8632C65.7095 30.5961 67.0853 30.1029 68.42 29.3427C68.5227 29.281 68.6253 29.2194 68.728 29.1577C67.9682 29.7331 67.1469 30.2468 66.2434 30.6166C64.847 31.0687 63.3686 31.2331 61.8901 31.1509C60.4322 31.0687 58.9742 30.6988 57.6395 30.0824C57.5163 30.0207 57.3931 29.9796 57.3931 30.0002C57.3931 30.0207 57.4752 30.1029 57.619 30.1646C59.0975 30.9454 60.7813 31.418 62.4856 31.5207C62.3624 31.5207 62.2392 31.5413 62.116 31.5413L61.7669 31.5207C60.658 31.418 59.5697 31.1714 58.543 30.781C58.1529 30.6166 57.8243 30.5344 57.7627 30.5961C57.7217 30.6577 57.9886 30.8427 58.3582 31.007C58.2966 30.9865 58.235 30.9659 58.1734 30.9454C58.1118 30.9248 58.0707 30.9248 58.0707 30.9248C58.0913 30.9454 58.1734 30.9865 58.235 31.007C58.4609 31.0892 58.6868 31.1509 58.9126 31.2125C60.9455 31.9522 63.1838 32.0755 65.3193 31.644C63.0606 32.1783 60.5759 32.0344 58.3171 31.1714C58.3582 31.1714 58.3788 31.1714 58.3171 31.1303C58.2761 31.1098 58.1734 31.0687 58.1323 31.0481C58.0707 31.0276 58.0707 31.0481 58.1323 31.0892C57.5369 30.8427 56.9414 30.555 56.4075 30.2057C55.853 29.8564 55.3192 29.4865 54.8263 29.055C54.7647 29.0139 54.7031 28.9728 54.7031 28.9933C54.7031 29.0139 54.7442 29.055 54.8058 29.1166C56.4485 30.5344 58.4814 31.4796 60.5759 31.829C62.6704 32.1988 64.847 31.9728 66.7773 31.2536L67.0853 31.1509L67.1674 31.1303C68.1941 30.1646 69.0976 29.0755 69.8163 27.9043Z" fill="url(#paint27_linear_433_2719)"/>
<path d="M63.5337 32.1169C62.3017 32.1786 61.0696 32.0553 59.8581 31.747C59.6938 31.7059 59.5296 31.6854 59.5296 31.7059C59.509 31.7265 59.6528 31.7881 59.8376 31.8498C60.1251 31.9114 60.4331 31.9936 60.7411 32.0347C60.6179 32.0347 60.5152 32.0347 60.4331 32.0553C60.3509 32.0758 60.3099 32.0758 60.2893 32.1169C60.2688 32.1786 60.3715 32.2607 60.5768 32.3429C59.8992 32.2402 59.2216 32.0964 58.5645 31.9114C57.9074 31.7059 57.2708 31.4594 56.6548 31.1922C56.5726 31.1512 56.5316 31.1512 56.5521 31.1717C56.5726 31.1922 56.6342 31.2333 56.7164 31.2744C57.5994 31.7265 58.5234 32.0553 59.4885 32.3018C60.4331 32.5279 61.3982 32.6512 62.3838 32.6717C63.3695 32.7539 64.3756 32.7539 65.3818 32.5895C65.8952 32.2402 66.388 31.8498 66.8398 31.4388C65.7514 31.8087 64.6631 32.0347 63.5337 32.1169Z" fill="url(#paint28_linear_433_2719)"/>
<path d="M64.2923 32.959C62.6496 33.1645 60.9863 33.1028 59.3641 32.7124C57.7419 32.3426 56.1813 31.6645 54.785 30.7193C54.6002 30.596 54.4564 30.4933 54.3332 30.4316C54.21 30.37 54.1484 30.3494 54.1484 30.3905C54.1484 30.4727 54.4359 30.7604 54.785 31.007C56.1403 31.9522 57.5982 32.6097 59.1383 32.9796C60.6783 33.3494 62.2595 33.4727 63.9022 33.2878C64.0254 33.2672 64.1486 33.2467 64.2718 33.2467C64.4977 33.1234 64.703 32.9796 64.9289 32.8357C64.7236 32.8974 64.5182 32.9179 64.2923 32.959Z" fill="url(#paint29_linear_433_2719)"/>
<path d="M58.7081 31.3361C58.7697 31.3567 58.7697 31.3361 58.7081 31.295C58.667 31.2745 58.5849 31.2334 58.5233 31.2334C58.4822 31.2334 58.4617 31.2334 58.5233 31.2745C58.5643 31.295 58.667 31.3156 58.7081 31.3361Z" fill="url(#paint30_linear_433_2719)"/>
<path d="M33.1846 31.377C33.1846 31.418 33.1846 31.4591 33.1641 31.5002L33.4926 31.6852L33.6774 31.7879L33.8622 31.8907L34.2524 32.0756C34.7657 32.3222 35.2996 32.5482 35.854 32.7126C36.4085 32.8975 36.9629 33.0413 37.5173 33.1441C38.0923 33.2468 38.6467 33.329 39.2217 33.3701C39.2627 33.3701 39.3038 33.3701 39.3449 33.3701C39.427 33.3085 39.5297 33.2674 39.6118 33.2057C37.3736 33.1235 35.1353 32.4865 33.1846 31.377Z" fill="url(#paint31_linear_433_2719)"/>
<path d="M41.604 29.0548L41.296 29.0959L40.988 29.1164L40.8443 29.137H40.68L40.372 29.1575C40.2693 29.1575 40.1666 29.1575 40.064 29.1575C39.9613 29.1575 39.8586 29.1575 39.7559 29.1575C39.5506 29.137 39.3453 29.137 39.1399 29.1164C38.7292 29.0753 38.3185 28.9931 37.9079 28.9109L37.5999 28.8288L37.4561 28.7877L37.3124 28.7466C37.2097 28.7055 37.107 28.6849 37.0044 28.6438C36.9017 28.6027 36.799 28.5616 36.7169 28.5205L36.5731 28.4794L36.4294 28.4178L36.1419 28.2945L35.875 28.1712C35.7723 28.1301 35.6902 28.089 35.608 28.0274L35.3411 27.8835C35.2589 27.8425 35.1563 27.7808 35.0741 27.7397C34.8893 27.637 34.7251 27.5342 34.5608 27.4109C33.8832 26.9589 33.2671 26.4246 32.7127 25.8082C32.1788 25.1918 31.686 24.5342 31.2958 23.8151C30.9057 23.0959 30.5977 22.3151 30.3923 21.5137C30.0433 20.1575 29.9611 18.863 30.0433 17.6301C30.0843 17.0137 30.187 16.3972 30.3513 15.7808C30.5155 15.1644 30.7209 14.5685 31.0084 13.9726C31.0494 13.9109 31.0289 13.8904 31.0084 13.9109C30.9673 13.952 30.9057 14.0548 30.8852 14.1164C29.92 16.0068 29.5299 18.1438 29.7558 20.2603C29.9611 22.3562 30.803 24.4109 32.1788 26.0959C32.4868 26.4863 32.8359 26.8561 33.185 27.1849C33.2261 27.226 33.2671 27.2671 33.3082 27.3082C33.6367 27.6164 33.9653 27.9041 34.3349 28.1712C34.2117 28.089 34.0885 28.0068 33.9653 27.9041C33.8421 27.8014 33.7189 27.7192 33.6367 27.6781C33.5546 27.6164 33.4725 27.5959 33.4519 27.5959C33.4314 27.6164 33.4519 27.6575 33.5135 27.7192C33.0618 27.3698 32.6306 26.9794 32.2404 26.5685C31.8503 26.1575 31.4807 25.7055 31.1521 25.2534C30.9673 24.9657 30.803 24.6986 30.6593 24.4726C30.0843 23.2603 29.7558 21.9657 29.6531 20.6507L29.6326 20.3219C29.612 19.8904 29.5915 19.4589 29.5299 19.2534C29.5094 19.1918 29.4888 19.1507 29.4888 19.1301C29.4888 18.3699 29.5915 17.589 29.7558 16.8493C29.92 16.089 30.1665 15.3699 30.495 14.6712C31.1316 13.274 32.0556 12.0205 33.1234 10.9931C33.2261 10.8904 33.2877 10.8288 33.2466 10.8288C33.2877 10.8082 33.3493 10.7466 33.4109 10.7055C33.4725 10.6438 33.5341 10.5822 33.6162 10.5205C33.6983 10.4589 33.76 10.3972 33.8421 10.3356C33.9242 10.274 34.0064 10.2123 34.0885 10.1507C34.1706 10.089 34.2528 10.0274 34.3349 9.96574C34.417 9.9041 34.4376 9.863 34.3965 9.88355C34.3554 9.9041 34.2528 9.94519 34.1912 10.0068C33.8421 10.2534 33.5135 10.5411 33.2261 10.8082C33.2055 10.8288 33.185 10.8493 33.185 10.8698C33.1029 10.9109 33.0002 10.9931 32.8975 11.0959C31.7476 12.1438 30.8646 13.4178 30.2486 14.7945C29.6326 16.1712 29.304 17.6712 29.263 19.2123C29.2424 17.7123 29.5299 16.1507 30.187 14.6507C30.5977 13.7466 31.0905 12.9041 31.686 12.1644C31.9735 11.774 32.302 11.4246 32.6511 11.0753C32.8359 10.9109 33.0002 10.726 33.2055 10.5822C33.3082 10.5 33.3903 10.4178 33.493 10.3356C33.5957 10.2534 33.6983 10.1918 33.801 10.1096C33.8832 10.0479 33.9448 10.0068 33.9242 9.98629C33.9037 9.98629 33.8216 10.0274 33.7394 10.089C33.6367 10.1712 33.5341 10.2534 33.4314 10.3151C33.3287 10.3972 33.2261 10.4794 33.1234 10.5616L32.9797 10.6849L32.8359 10.8082C32.7332 10.8904 32.6511 10.9726 32.5484 11.0753C32.3636 11.2603 32.1788 11.4246 32.0145 11.6301C31.9324 11.7329 31.8503 11.8151 31.7681 11.9178L31.5423 12.2055C31.4601 12.3082 31.3985 12.4109 31.3164 12.5137C31.2548 12.6164 31.1726 12.7192 31.111 12.8219C30.9878 13.0274 30.8441 13.2329 30.7209 13.4589C30.4745 13.8904 30.2691 14.3219 30.0638 14.774C29.6942 15.6781 29.4272 16.6233 29.2835 17.589C29.263 17.7123 29.2424 17.8356 29.2219 17.9589C29.2014 18.0822 29.2014 18.2055 29.1808 18.3288L29.1603 18.5137V18.6986C29.1603 18.8219 29.1397 18.9452 29.1397 19.0685C29.1397 19.1918 29.1397 19.3151 29.1397 19.4589V19.6438V19.8288C29.1397 19.952 29.1397 20.0959 29.1603 20.2192C29.1603 20.3425 29.1808 20.4863 29.2014 20.6096C29.2014 20.774 29.2424 20.9383 29.2424 21.1027C28.9549 19.8288 28.8933 18.5137 29.0576 17.2192C29.263 16.2534 29.571 15.2877 30.0022 14.4041C30.2075 13.952 30.4745 13.5205 30.7414 13.1096C30.8852 12.9041 31.0084 12.6986 31.1726 12.4931L31.3985 12.2055L31.6449 11.9178C31.7271 11.8151 31.8092 11.7329 31.8913 11.6301L32.1377 11.363C32.3226 11.1986 32.4868 11.0137 32.6716 10.8493C33.0413 10.5 33.4314 10.2123 33.8216 9.9041L34.1296 9.69862L34.2938 9.59588L34.4581 9.49314L34.7867 9.30821L35.1152 9.12327L35.2795 9.04108L35.4438 8.95889L35.7723 8.79451C35.8955 8.75341 35.9982 8.69177 36.1214 8.65067C36.2446 8.60958 36.3473 8.54793 36.4705 8.50684C36.6553 8.44519 36.799 8.363 36.7785 8.34245C36.7579 8.3219 36.5937 8.34245 36.4089 8.42464C34.2117 9.02053 32.2404 10.3972 30.803 12.226C30.8852 12.0822 30.9878 11.9589 31.07 11.8151L31.378 11.4452C32.3842 10.3356 33.5751 9.41095 34.9304 8.71232C34.992 8.67122 35.0536 8.65067 35.1152 8.60958C35.1768 8.58903 35.2384 8.54793 35.2795 8.52738C35.3822 8.46574 35.4848 8.42464 35.567 8.363C35.7312 8.26026 35.8339 8.19862 35.8339 8.15752C35.8339 8.11643 35.7107 8.13697 35.5464 8.17807C35.3822 8.21916 35.1563 8.30136 34.8893 8.42464C34.9715 8.38355 35.0536 8.34245 35.1357 8.30136C35.2179 8.26026 35.2795 8.21916 35.2384 8.21916C35.1973 8.21916 35.0947 8.26026 35.0125 8.30136C34.8688 8.38355 34.7251 8.46574 34.6019 8.54793C34.4581 8.63012 34.3349 8.71232 34.1912 8.79451C32.918 9.51369 31.7681 10.4589 30.8236 11.589C29.879 12.7192 29.1398 14.0137 28.6675 15.3904C29.1603 13.8904 29.9406 12.4726 30.9878 11.2397C32.0351 10.0068 33.3287 8.99999 34.7867 8.26026C34.7251 8.30136 34.7251 8.3219 34.8072 8.28081C34.8688 8.26026 34.992 8.19862 35.0536 8.15752C35.1152 8.11643 35.0947 8.11642 35.0331 8.13697C36.6142 7.3767 38.3801 6.98629 40.1256 6.96574C40.2282 6.96574 40.3104 6.94519 40.3104 6.94519C40.3104 6.92464 40.2077 6.92464 40.105 6.92464C38.6471 6.92464 37.1892 7.23286 35.8134 7.74656C34.4581 8.26026 33.2055 9.04108 32.1172 10.0068C31.5833 10.4794 31.0905 11.0137 30.6387 11.5685C30.187 12.1233 29.7968 12.7397 29.4683 13.3562C29.1397 13.9726 28.8523 14.6301 28.6264 15.3082C28.4005 15.9863 28.2568 16.6644 28.1541 17.363C28.0925 17.6712 28.072 17.9589 28.0309 18.2671C27.9693 18.3493 27.9077 18.5548 27.8461 18.8219C27.8872 17.8151 28.0514 16.8288 28.3184 15.8835C28.5853 14.9178 28.996 13.9931 29.4888 13.1301C30.3513 11.6918 31.4806 10.4383 32.8359 9.43149C33.0413 9.28766 33.185 9.16437 33.1645 9.12327C33.1439 9.10273 32.9797 9.18492 32.7743 9.32875C32.61 9.45204 32.4458 9.57533 32.2815 9.69862C32.1172 9.8219 31.9735 9.96574 31.8092 10.1096C32.0351 9.863 32.1788 9.65752 32.1583 9.59588C32.1377 9.53423 31.9735 9.59588 31.7271 9.76026C33.0823 8.48629 34.7251 7.47944 36.4499 6.863C36.5526 6.8219 36.6142 6.80136 36.5731 6.80136C36.5321 6.80136 36.4294 6.8219 36.3267 6.863C33.7805 7.70547 31.5628 9.3493 29.9817 11.4452C29.8174 11.6507 29.6531 11.8562 29.5094 12.0616C29.3451 12.2671 29.2014 12.4931 29.0576 12.6986C28.7701 13.1301 28.5032 13.5822 28.2773 14.0548C28.0309 14.5274 27.8461 15.0205 27.6613 15.5342C27.497 16.0479 27.3327 16.5822 27.2301 17.1575C26.9221 18.7808 26.9426 20.4246 27.2711 21.9657C27.5791 23.5068 28.1746 24.9657 29.0165 26.2808C29.571 27.2466 30.2486 28.1301 31.0084 28.9109C30.8852 28.8288 30.7825 28.7671 30.762 28.8082C30.762 28.8082 30.762 28.8288 30.762 28.8493C30.0843 28.1507 29.4888 27.3698 28.9549 26.5068C28.6675 26.0137 28.38 25.5 28.1541 24.9863C28.0309 24.7192 27.9282 24.452 27.8256 24.1849C27.764 24.0616 27.7229 23.9178 27.6818 23.774C27.6408 23.6301 27.5791 23.5068 27.5586 23.363C27.2301 22.274 27.0247 21.1438 26.9837 20.0137C26.9426 18.8835 27.0042 17.7534 27.2301 16.6644C27.2917 16.3972 27.3533 16.1096 27.4149 15.8425C27.4559 15.6986 27.4765 15.5753 27.5175 15.4315L27.6408 15.0411C27.6818 14.8972 27.7229 14.774 27.7845 14.6507L27.9282 14.2603L28.0925 13.8698C28.1541 13.7466 28.1952 13.6027 28.2568 13.4794C28.7291 12.4726 29.3451 11.5068 30.0433 10.6644C30.3923 10.2329 30.7825 9.8219 31.1932 9.43149C31.6039 9.06163 32.0351 8.67122 32.4868 8.34245C34.2938 7.00684 36.4499 6.10273 38.7087 5.79451C38.7908 5.77396 38.8524 5.77396 38.914 5.75341C38.9756 5.75341 39.0372 5.73286 39.0988 5.73286C39.2221 5.71232 39.3247 5.69177 39.4069 5.67122C39.5711 5.63012 39.6533 5.58903 39.6327 5.56848C39.5917 5.52738 39.4479 5.52738 39.2221 5.50684C39.1194 5.50684 38.9756 5.50684 38.8524 5.50684C38.7087 5.52738 38.565 5.52738 38.4212 5.54793C38.1543 5.56848 37.8668 5.63012 37.5999 5.69177C37.3329 5.75341 37.066 5.81506 36.799 5.8767C36.2651 6.02053 35.7518 6.18492 35.2589 6.3904C34.2528 6.80136 33.3082 7.31505 32.4458 7.93149C31.5833 8.54793 30.7825 9.28766 30.0843 10.089C29.3862 10.9109 28.7701 11.8151 28.2568 12.8014C27.8872 13.5 27.5997 14.2192 27.3738 14.9383C27.1479 15.6575 26.9837 16.3767 26.8605 17.0959C26.6346 18.5548 26.6551 20.0342 26.9015 21.5753C27.2095 23.3835 27.8666 25.0479 28.7701 26.5479C29.571 27.863 30.5977 29.0342 31.8092 30C31.8913 29.2397 31.8503 28.2945 31.5833 27.1438C32.0556 27.6575 33.2671 29.1164 33.185 31.0479C33.1439 32.5274 32.3636 33.5959 31.4396 34.8904C30.5566 36.1233 29.6326 36.9657 28.9755 37.5L38.0927 32.8767C38.6266 32.9794 39.181 33.0411 39.7354 33.0616C39.7765 33.0411 39.8175 33 39.8586 32.9794C39.7354 32.9794 39.6122 32.9589 39.489 32.9589C39.6122 32.9589 39.7559 32.9589 39.8791 32.9794C42.0147 31.6027 43.7807 29.7945 45.0332 27.7192C43.9655 28.4589 42.8155 28.8698 41.604 29.0548Z" fill="url(#paint32_linear_433_2719)"/>
<path d="M72.3642 28.7671C72.4053 28.726 72.4464 28.6849 72.4669 28.6438C72.5696 28.5411 72.6517 28.4383 72.7544 28.315C73.3088 27.7192 73.8222 27.0616 74.2329 26.3835C74.1918 26.4863 74.1918 26.5685 74.2123 26.589C74.2123 26.589 74.2329 26.589 74.2534 26.589C73.8632 27.2055 73.432 27.7808 72.9392 28.3356C72.7544 28.5616 72.5491 28.7671 72.3437 28.9726C72.3437 29.0753 72.3437 29.1781 72.3437 29.2602C72.3642 29.2397 72.4053 29.1986 72.4259 29.1781C72.5491 29.0548 72.6517 28.952 72.7544 28.8287C72.8571 28.7055 72.9803 28.6027 73.0829 28.4794L73.391 28.1096L73.6784 27.7192C73.7811 27.5959 73.8632 27.452 73.9659 27.3287C74.0481 27.1849 74.1507 27.0616 74.2329 26.9178C74.5819 26.3835 74.9105 25.8082 75.1774 25.2123C75.2801 24.9863 75.4033 24.7397 75.4855 24.4931C75.5676 24.2465 75.6703 24 75.7319 23.7328C76.0604 22.7465 76.2863 21.7397 76.389 20.7329C76.4916 19.726 76.4916 18.6986 76.389 17.6918C76.7586 20.0959 76.4711 22.5822 75.6292 24.863C75.5676 25.0274 75.5471 25.1507 75.5676 25.1301C75.6087 25.1096 75.6908 24.9657 75.7524 24.8219C76.3684 23.2397 76.697 21.5342 76.7175 19.8493C76.738 18.1438 76.4506 16.4589 75.8756 14.8561C75.8345 14.3835 75.6497 13.6644 75.3006 12.8835C74.9721 12.1027 74.4793 11.2808 73.9043 10.5822C73.4936 10.0685 73.0624 9.63696 72.5696 9.24655C72.6723 9.34929 72.7749 9.45203 72.8571 9.55477C72.9597 9.65751 73.0419 9.76025 73.1446 9.88353C73.0008 9.7397 72.8571 9.57532 72.7133 9.45203C72.5696 9.32874 72.4259 9.20545 72.2821 9.08217C71.9741 8.85614 71.6866 8.65066 71.3991 8.44518C71.3581 8.40408 71.2965 8.36299 71.2554 8.32189C70.6394 7.7671 69.8796 7.27395 69.0788 6.84244C68.2574 6.43148 67.395 6.08216 66.5325 5.83559C66.5531 5.87669 66.5941 5.91778 66.6352 5.95888C66.4709 5.89723 66.3477 5.85614 66.2245 5.79449C66.1013 5.7534 65.9576 5.69175 65.7933 5.65066C65.896 5.69175 65.9781 5.73285 66.0808 5.77395H66.0602C65.8754 5.7123 65.6701 5.65066 65.4442 5.58901C65.2183 5.54792 64.9925 5.48627 64.746 5.46573C64.4791 5.40408 64.2122 5.34244 63.9247 5.2808C63.7809 5.26025 63.6372 5.2397 63.4729 5.21915C63.3292 5.1986 63.1649 5.1986 63.0006 5.17806C62.3641 5.13696 61.6865 5.13696 61.0088 5.1986C59.633 5.34244 58.1956 5.73285 56.9841 6.32874C56.7993 6.41093 56.635 6.51367 56.6145 6.55477C56.6145 6.59586 56.7377 6.55477 56.943 6.47258C57.1279 6.41093 57.3127 6.34929 57.4975 6.2671C57.6823 6.20545 57.8671 6.16436 58.0519 6.10271C58.4215 5.99997 58.8117 5.91778 59.2223 5.81504C60.0026 5.65066 60.7419 5.56847 61.5222 5.52737C62.2819 5.50682 63.0417 5.52737 63.8425 5.60956C63.9452 5.63011 64.0274 5.63011 64.13 5.65066C64.2532 5.69175 64.397 5.73285 64.5202 5.77395C64.4996 5.77395 64.4791 5.77395 64.4586 5.77395L64.1916 5.73285L63.9247 5.69175C63.9657 5.69175 63.9863 5.7123 64.0274 5.7123C63.3497 5.63011 62.6516 5.60956 61.9739 5.63011C61.3168 5.60956 60.6392 5.67121 59.941 5.79449C59.2429 5.91778 58.5447 6.10271 57.8876 6.34929C57.5591 6.47258 57.2305 6.61641 56.902 6.7808C56.7377 6.86299 56.594 6.94518 56.4297 7.02737C56.2654 7.10956 56.1217 7.2123 55.9779 7.29449C55.8958 7.33559 55.8342 7.37669 55.7521 7.43833C55.6699 7.47943 55.6083 7.54107 55.5467 7.58217C55.403 7.68491 55.2592 7.7671 55.136 7.86984C54.8691 8.07532 54.6227 8.2808 54.3968 8.50682C54.212 8.65066 54.1093 8.77395 54.1504 8.77395C54.1915 8.77395 54.3763 8.67121 54.5405 8.52737L54.7253 8.40408L54.9102 8.28079C55.0334 8.1986 55.1771 8.11641 55.3003 8.03422C55.5673 7.89038 55.8342 7.726 56.1011 7.58217C56.635 7.29449 57.1895 7.08901 57.7439 6.90408C57.785 6.88353 57.7233 6.96573 57.826 6.94518C57.8671 6.94518 57.9082 6.92463 57.9492 6.92463C57.8876 6.94518 57.8055 6.96573 57.7439 6.98627C57.6823 7.00682 57.6001 7.04792 57.518 7.06847C57.3948 7.15066 57.2716 7.2123 57.1895 7.2534C57.0868 7.31504 57.0252 7.35614 56.9636 7.39723C56.8404 7.47943 56.7582 7.52052 56.6966 7.56162C56.6966 7.56162 56.6966 7.56162 56.6556 7.58217C56.594 7.62326 56.5529 7.66436 56.4708 7.70545C56.4502 7.726 56.4502 7.726 56.4297 7.74655C56.3476 7.78764 56.2654 7.82874 56.1833 7.86984C56.1011 7.91093 56.019 7.97258 55.9779 8.01367C55.9369 8.01367 55.8958 8.03422 55.8547 8.05477C55.403 8.30134 55.403 8.30134 54.9718 8.58901C54.9718 8.58901 54.9718 8.58901 54.9923 8.60956C54.9923 8.60956 54.9512 8.65066 54.8896 8.69175C54.828 8.73285 54.7664 8.79449 54.6843 8.85614C54.6021 8.91778 54.5611 8.93833 54.4995 8.99997C54.4584 9.02052 54.4173 9.06162 54.3557 9.10271C54.2941 9.14381 54.2325 9.20545 54.1299 9.28764C54.1299 9.28764 54.1299 9.28764 54.3352 9.16436C54.3352 9.16436 54.3352 9.16436 54.1504 9.2671C54.1504 9.2671 54.1504 9.2671 54.2325 9.2671C54.2325 9.2671 54.2325 9.2671 54.1299 9.28764C54.1299 9.28764 54.1299 9.28764 54.0888 9.36984C54.0888 9.36984 54.0888 9.36984 54.0477 9.39038C54.0067 9.41093 53.904 9.45203 53.7192 9.55477C53.6986 9.57532 53.637 9.63696 53.5138 9.7808C53.5138 9.7808 53.4728 9.82189 53.4728 9.86299C53.4728 9.88353 53.4728 9.88353 53.3906 10.0274C53.3906 10.0274 53.3906 10.0479 53.4317 10.0479C53.4728 10.0274 53.4728 10.0274 53.5138 10.0479C53.5138 10.0479 53.5754 10.0274 53.637 9.98627C53.6986 9.94518 53.7192 9.92463 53.9451 9.7397C53.9245 9.76025 53.9245 9.7808 53.904 9.80134C53.904 9.84244 53.9245 9.88353 53.9656 9.88353C54.0272 9.88353 54.1093 9.86299 54.3147 9.82189C54.3147 9.82189 54.4995 9.7397 54.7664 9.55477C54.9102 9.45203 54.9923 9.39038 55.0744 9.34929C55.1566 9.28764 55.2387 9.226 55.4235 9.12326C55.4235 9.12326 55.5056 9.08217 55.6289 8.99997C55.7521 8.95888 55.7726 8.95888 55.8547 8.91778C55.7931 8.95888 55.7315 9.02052 55.6905 9.06162C55.5467 9.1849 55.5673 9.24655 55.711 9.18491C55.6083 9.41093 55.7931 9.43148 56.0601 9.39038C56.019 9.47258 56.019 9.53422 56.0601 9.55477C55.9779 9.67806 55.9163 9.80134 55.8753 9.90408C55.8342 10.0068 55.8137 10.089 55.8342 10.1712L55.8753 10.2739C55.9369 10.2945 56.019 10.2739 56.1422 10.2329C56.2654 10.2123 56.4092 10.1507 56.5529 10.089C56.594 10.0685 56.6145 10.0685 56.6556 10.0479L56.6145 10.1712C56.7377 10.1507 56.8814 10.1301 57.0457 10.1096C57.1279 10.089 57.21 10.0685 57.2921 10.0479C57.3743 10.0274 57.4564 10.0068 57.5385 10.0068C57.7028 9.96573 57.8671 9.94518 58.0314 9.92463C58.1956 9.90408 58.3394 9.88353 58.4831 9.88353L58.8733 9.84244C59.017 9.84244 59.2018 9.82189 59.3866 9.7808C59.4893 9.76025 59.592 9.7397 59.7152 9.71915C59.8178 9.6986 59.941 9.65751 60.0642 9.63696C60.2285 9.59586 60.4133 9.55477 60.5776 9.53422C60.6803 9.51367 60.7829 9.49312 60.9062 9.47258C60.3928 9.6986 60.1464 9.94518 60.2901 10.089C60.3517 10.1507 60.4749 10.1918 60.6187 10.2123C60.7008 10.2329 60.7829 10.2329 60.8856 10.2329C60.9267 10.2329 60.9883 10.2329 61.0499 10.2329C61.1115 10.2329 61.1526 10.2329 61.2142 10.2329C61.6865 10.2329 62.2614 10.2123 62.8774 10.1918C64.5202 10.1918 66.1218 10.6233 67.5387 11.4041C68.2369 11.7945 68.894 12.2876 69.51 12.863C69.7975 13.1507 70.1055 13.4589 70.3519 13.7876C70.4956 13.952 70.5983 14.1164 70.742 14.2808C70.8036 14.363 70.8652 14.4657 70.9269 14.5479C70.9885 14.6301 71.0501 14.7329 71.0911 14.815C71.7482 15.8835 72.1794 17.0342 72.3848 18.2465C72.5901 19.4383 72.5491 20.6918 72.241 21.9041C72.0357 22.952 71.6661 23.9794 71.1322 24.9041C70.9269 25.6027 70.6394 26.2808 70.3108 26.9383C70.6804 26.5479 71.0295 26.1164 71.3375 25.6644C71.4402 25.5 71.5429 25.3561 71.6455 25.2123C71.7482 25.0479 71.8509 24.9041 71.933 24.7602C71.9536 24.7192 71.9741 24.6986 71.9946 24.6575L72.1178 24.452C72.1589 24.3904 72.2 24.3082 72.241 24.2465C72.3232 24.1027 72.4053 23.9589 72.4669 23.815C72.4258 23.9178 72.3848 24.0205 72.3232 24.1233C72.2205 24.3287 72.1589 24.5137 72.2 24.5548C72.2205 24.5548 72.241 24.5548 72.2821 24.5137C71.933 25.2945 71.5018 26.0137 71.009 26.7123C70.9679 26.7534 70.9269 26.815 70.8858 26.8561C70.8447 26.8972 70.8036 26.9383 70.7626 27C70.6804 27.0822 70.6188 27.1849 70.5572 27.2671C70.2903 27.5137 70.0233 27.7397 69.7359 27.9657C69.0172 29.137 68.1137 30.226 67.0459 31.2123L67.128 31.1918L67.2923 31.1301C67.3744 31.1507 67.5387 31.1507 67.744 31.1096C67.4155 31.2534 67.087 31.3972 66.7379 31.5C66.2861 31.9109 65.7933 32.2808 65.2799 32.6507C65.8344 32.5685 66.3888 32.4452 66.9637 32.2808C67.5592 32.0959 68.1137 31.8698 68.6476 31.6233C69.1814 31.3561 69.6948 31.0685 70.1671 30.7192C70.4751 30.5137 70.7626 30.2876 71.0295 30.0616C71.3375 28.7055 72.1589 27.7192 72.5285 27.3082C72.4669 27.7808 72.4053 28.2945 72.3642 28.7671ZM75.9577 15.6575L76.0399 15.9041C76.0809 16.0685 76.1425 16.2329 76.1836 16.4178C76.389 17.4863 76.4916 18.5753 76.43 19.6849C76.43 18.9657 76.389 18.2465 76.3068 17.5274C76.2247 16.8082 76.0809 16.1096 75.8961 15.4109L75.9577 15.6575ZM54.4584 9.43148C54.4789 9.41093 54.52 9.39038 54.5405 9.36984C54.5405 9.41093 54.4995 9.43148 54.4584 9.43148ZM54.5611 9.226C54.5405 9.226 54.52 9.24655 54.4995 9.24655C54.4995 9.24655 54.4995 9.24655 54.5611 9.12326C54.5816 9.12326 54.5816 9.16436 54.5611 9.226ZM55.1155 8.97943C55.1566 8.95888 55.1771 8.93833 55.2387 8.93833C55.2182 8.93833 55.1976 8.93833 55.1155 8.97943ZM56.6966 9.94518H56.6761C56.7172 9.80134 56.7788 9.67806 56.8198 9.53422C56.7788 9.67806 56.7377 9.82189 56.6966 9.94518ZM57.9082 7.97258C57.8671 7.97258 57.8055 7.97258 57.7233 7.99312C57.7233 7.97258 57.8055 7.97258 57.9082 7.97258ZM61.6659 6.59586C61.6454 6.59586 61.6248 6.59586 61.6043 6.59586C61.6659 6.59586 61.7481 6.59586 61.8302 6.59586C61.8302 6.59586 61.8302 6.59586 62.1587 6.67806C62.1587 6.67806 61.9123 6.63696 61.6659 6.59586ZM62.7542 6.32874C62.6721 6.32874 62.5078 6.32874 62.6105 6.36984C62.2819 6.36984 61.9534 6.39038 61.6043 6.41093C61.44 6.43148 61.2758 6.45203 61.091 6.47258C60.9267 6.49312 60.7419 6.51367 60.5776 6.55477C60.3312 6.59586 60.0642 6.65751 59.8384 6.71915C59.6946 6.71915 59.5509 6.71915 59.3866 6.71915C59.2223 6.71915 59.0581 6.7397 58.8733 6.7808C59.4893 6.63696 60.1875 6.47258 60.8445 6.41093C61.5632 6.32874 62.2819 6.30819 63.0006 6.34929C62.939 6.30819 62.8569 6.30819 62.7542 6.32874Z" fill="url(#paint33_linear_433_2719)"/>
<path d="M69.0158 31.4382C67.7427 32.1162 66.3669 32.5888 64.9501 32.8354C64.7447 32.9793 64.5188 33.1025 64.293 33.2464C64.7447 33.1847 65.1759 33.1025 65.5866 32.9998C65.8536 32.9382 66.1205 32.856 66.3875 32.7943C66.5107 32.7532 66.6544 32.7121 66.7776 32.671C66.9008 32.6299 67.0446 32.5888 67.1678 32.5477C67.4142 32.445 67.6811 32.3628 67.9275 32.2395C68.0507 32.1779 68.1739 32.1368 68.2971 32.0751C68.4203 32.0135 68.5436 31.9519 68.6668 31.8902C68.79 31.8286 68.9132 31.7669 69.0364 31.7053C69.1596 31.6436 69.2828 31.582 69.406 31.4998C69.6524 31.356 69.8988 31.2121 70.1247 31.0477C70.4327 30.8423 70.7202 30.6368 71.0077 30.4108C71.0282 30.308 71.0282 30.2053 71.0487 30.1025C70.4122 30.6162 69.7345 31.0683 69.0158 31.4382Z" fill="url(#paint34_linear_433_2719)"/>
<path d="M72.7134 34.9723C71.7893 33.6984 71.0296 32.6504 70.968 31.1299C70.968 30.8833 70.968 30.6573 71.009 30.4107C71.0296 30.308 71.0296 30.2052 71.0501 30.1025C71.0501 30.0614 71.0706 30.0203 71.0706 29.9792C71.1528 29.6504 71.2554 29.3217 71.3786 29.034L70.9269 28.1299L66.2656 32.7943L75.4239 37.5614C74.623 36.8422 73.1446 35.5271 72.7134 34.9723Z" fill="url(#paint35_linear_433_2719)"/>
<path d="M76.0393 15.9043L75.9571 15.6577L75.875 15.4111C76.0598 16.1098 76.2035 16.8084 76.2857 17.5276C76.3678 18.2467 76.4089 18.9659 76.4089 19.6851C76.4705 18.5961 76.3678 17.507 76.1625 16.418C76.1419 16.2331 76.0803 16.0687 76.0393 15.9043Z" fill="url(#paint36_linear_433_2719)"/>
<path d="M7.62269 42.5697C7.47706 42.5697 7.37304 42.5888 7.26903 42.6462C7.16501 42.7036 7.1026 42.7802 7.04019 42.8567C6.97777 42.9524 6.93617 43.0481 6.91536 43.1438C6.89456 43.2395 6.87376 43.3544 6.87376 43.4692C6.87376 43.5649 6.89456 43.6797 6.91536 43.7754C6.93617 43.8711 6.97777 43.9859 7.04019 44.0625C7.1026 44.139 7.16501 44.2156 7.26903 44.273C7.37304 44.3304 7.47706 44.3496 7.62269 44.3496C7.83073 44.3496 7.99716 44.2922 8.10117 44.1965C8.20519 44.1008 8.28841 43.9477 8.30921 43.7754H9.14136C9.07895 44.1582 8.91252 44.4453 8.64207 44.6366C8.37162 44.828 8.01796 44.9237 7.60188 44.9237C7.37304 44.9237 7.1442 44.8855 6.95697 44.8089C6.74893 44.7323 6.5825 44.6366 6.45768 44.5027C6.31206 44.3687 6.20804 44.2156 6.12482 44.0433C6.04161 43.8711 6 43.6797 6 43.45C6 43.2395 6.04161 43.029 6.10402 42.8376C6.16643 42.6462 6.29125 42.4931 6.41607 42.3591C6.5617 42.2252 6.72813 42.1103 6.93617 42.0338C7.1442 41.9572 7.37304 41.9189 7.62269 41.9189C7.80992 41.9189 7.99716 41.9381 8.16358 41.9764C8.33001 42.0146 8.49644 42.0912 8.62127 42.1677C8.76689 42.2634 8.87091 42.3783 8.95413 42.4931C9.03734 42.6079 9.07895 42.7802 9.09975 42.9716H8.2468C8.20519 42.7228 7.99716 42.5697 7.62269 42.5697Z" fill="white"/>
<path d="M12.3035 42.0525V42.5884H12.3243C12.3659 42.4927 12.4284 42.4162 12.4908 42.3396C12.5532 42.2631 12.6364 42.2056 12.7404 42.1482C12.8236 42.0908 12.9276 42.0525 13.0317 42.0334C13.1357 41.9951 13.2397 41.9951 13.3437 41.9951C13.4061 41.9951 13.4685 41.9951 13.5309 42.0143V42.7415C13.4893 42.7415 13.4477 42.7224 13.3853 42.7224C13.3229 42.7224 13.2813 42.7224 13.2189 42.7224C13.0525 42.7224 12.9276 42.7415 12.8236 42.7989C12.7196 42.8372 12.6156 42.9138 12.5532 42.9903C12.4908 43.0669 12.4284 43.1626 12.4076 43.2774C12.3867 43.3922 12.3659 43.5071 12.3659 43.6411V44.9233H11.4922V42.0908H12.3035V42.0525Z" fill="white"/>
<path d="M16.5258 44.2154C16.6507 44.3302 16.8379 44.3877 17.0875 44.3877C17.254 44.3877 17.4204 44.3494 17.5452 44.2728C17.67 44.1963 17.7533 44.1197 17.7741 44.024H18.5438C18.419 44.3685 18.2317 44.5982 17.9821 44.7513C17.7324 44.9044 17.4204 44.9618 17.0667 44.9618C16.8171 44.9618 16.5882 44.9235 16.401 44.847C16.193 44.7704 16.0265 44.6747 15.8809 44.5408C15.7353 44.4068 15.6313 44.2537 15.5689 44.0623C15.4856 43.8709 15.4648 43.6795 15.4648 43.4499C15.4648 43.2393 15.5065 43.0479 15.5897 42.8566C15.6729 42.6652 15.7769 42.5121 15.9225 42.3781C16.0682 42.2441 16.2346 42.1484 16.4426 42.0719C16.6507 41.9953 16.8587 41.957 17.1083 41.957C17.3788 41.957 17.6076 41.9953 17.8157 42.091C18.0237 42.1867 18.1901 42.3015 18.315 42.4738C18.4398 42.6269 18.5438 42.8183 18.5854 43.0097C18.6478 43.2202 18.6686 43.4116 18.6478 43.6412H16.3594C16.3178 43.9092 16.3802 44.1006 16.5258 44.2154ZM17.5036 42.7226C17.3996 42.6269 17.2332 42.5695 17.0251 42.5695C16.8795 42.5695 16.7755 42.5886 16.6715 42.6269C16.5882 42.6652 16.505 42.7226 16.4426 42.78C16.3802 42.8374 16.3386 42.914 16.3178 42.9714C16.297 43.0479 16.2762 43.1054 16.2762 43.1628H17.6908C17.6908 42.9714 17.6076 42.8183 17.5036 42.7226Z" fill="white"/>
<path d="M20.9178 42.9329C20.9386 42.7415 20.9802 42.6076 21.0634 42.4736C21.1466 42.3588 21.2715 42.2631 21.4171 42.1865C21.5627 42.1099 21.7083 42.0525 21.8956 42.0334C22.0828 42.0143 22.2492 41.9951 22.4157 41.9951C22.5821 41.9951 22.7277 42.0143 22.8941 42.0334C23.0606 42.0525 23.2062 42.0908 23.3518 42.1482C23.4766 42.2056 23.6015 42.2822 23.6847 42.397C23.7679 42.5119 23.8095 42.6458 23.8095 42.8181V44.2918C23.8095 44.4257 23.8095 44.5406 23.8303 44.6554C23.8511 44.7702 23.8719 44.8659 23.9135 44.9233H23.019C22.9982 44.8851 22.9982 44.8277 22.9774 44.7894C22.9774 44.7511 22.9566 44.6937 22.9566 44.6554C22.8109 44.7894 22.6445 44.8659 22.4573 44.9233C22.27 44.9808 22.0828 44.9999 21.8748 44.9999C21.7291 44.9999 21.5835 44.9808 21.4587 44.9425C21.3339 44.9042 21.209 44.8659 21.105 44.7894C21.001 44.7128 20.9386 44.6363 20.8762 44.5214C20.8138 44.4066 20.793 44.2918 20.793 44.1387C20.793 43.9855 20.8346 43.8516 20.897 43.7367C20.9594 43.6411 21.0426 43.5454 21.1466 43.4879C21.2506 43.4305 21.3547 43.3731 21.5003 43.354C21.6251 43.3157 21.7499 43.2966 21.8956 43.2774C22.0204 43.2583 22.1452 43.2391 22.2908 43.2391C22.4157 43.22 22.5405 43.22 22.6237 43.1817C22.7277 43.1626 22.7901 43.1243 22.8525 43.086C22.9149 43.0477 22.9358 42.9903 22.9358 42.8946C22.9358 42.8181 22.9149 42.7415 22.8941 42.7033C22.8733 42.665 22.8317 42.6076 22.7693 42.5884C22.7277 42.5693 22.6653 42.5501 22.5821 42.531C22.4989 42.5119 22.4365 42.5119 22.374 42.5119C22.2076 42.5119 22.062 42.5501 21.9788 42.6076C21.8748 42.665 21.8332 42.7798 21.8124 42.9329H20.9178ZM22.9358 43.5071C22.8941 43.5454 22.8525 43.5645 22.7901 43.5836C22.7277 43.6028 22.6653 43.6219 22.6029 43.6219C22.5405 43.6411 22.4781 43.6411 22.3949 43.6411C22.3116 43.6411 22.2492 43.6602 22.1868 43.6602C22.1244 43.6793 22.062 43.6793 21.9996 43.6985C21.9372 43.7176 21.8748 43.7367 21.8332 43.775C21.7915 43.8133 21.7499 43.8516 21.7291 43.8899C21.7083 43.9281 21.6875 44.0047 21.6875 44.0621C21.6875 44.1387 21.7083 44.1961 21.7291 44.2344C21.7499 44.2726 21.7915 44.3109 21.854 44.3492C21.8956 44.3683 21.958 44.3875 22.0204 44.4066C22.0828 44.4257 22.1452 44.4257 22.2284 44.4257C22.3949 44.4257 22.5405 44.4066 22.6237 44.3492C22.7277 44.2918 22.7901 44.2344 22.8317 44.1578C22.8733 44.0812 22.8941 44.0238 22.9149 43.9473C22.9149 43.8707 22.9358 43.8133 22.9358 43.775V43.5071Z" fill="white"/>
<path d="M28.0726 42.053V42.5698H27.4277V43.9669C27.4277 44.1009 27.4485 44.1774 27.5109 44.2349C27.5526 44.2731 27.6566 44.2923 27.8022 44.2923C27.8438 44.2923 27.9062 44.2923 27.9478 44.2923C27.9894 44.2923 28.031 44.2923 28.0726 44.2731V44.8856C27.9894 44.9047 27.927 44.9047 27.823 44.9047C27.7398 44.9047 27.6358 44.9047 27.5526 44.9047C27.4277 44.9047 27.2821 44.9047 27.1781 44.8856C27.0533 44.8664 26.9492 44.8282 26.866 44.7899C26.7828 44.7516 26.6996 44.6751 26.658 44.5794C26.5956 44.4837 26.5748 44.3688 26.5748 44.2349V42.5698H26.0547V42.053H26.5748V41.2109H27.4485V42.053H28.0726Z" fill="white"/>
<path d="M31.2563 44.2154C31.3811 44.3302 31.5684 44.3877 31.818 44.3877C31.9844 44.3877 32.1509 44.3494 32.2757 44.2728C32.4005 44.1963 32.4837 44.1197 32.5045 44.024H33.2743C33.1494 44.3685 32.9622 44.5982 32.7126 44.7513C32.4629 44.9044 32.1509 44.9618 31.7972 44.9618C31.5476 44.9618 31.3187 44.9235 31.1315 44.847C30.9234 44.7704 30.757 44.6747 30.6114 44.5408C30.4658 44.4068 30.3617 44.2537 30.2993 44.0623C30.2161 43.8709 30.1953 43.6795 30.1953 43.4499C30.1953 43.2393 30.2369 43.0479 30.3201 42.8566C30.4034 42.6652 30.5074 42.5121 30.653 42.3781C30.7986 42.2441 30.965 42.1484 31.1731 42.0719C31.3811 41.9953 31.5892 41.957 31.8388 41.957C32.1093 41.957 32.3381 41.9953 32.5461 42.091C32.7542 42.1867 32.9206 42.3015 33.0454 42.4738C33.1702 42.6269 33.2743 42.8183 33.3159 43.0097C33.3783 43.2202 33.3991 43.4116 33.3783 43.6412H31.0899C31.0483 43.9092 31.1315 44.1006 31.2563 44.2154ZM32.2549 42.7226C32.1509 42.6269 31.9844 42.5695 31.7764 42.5695C31.6308 42.5695 31.5268 42.5886 31.4227 42.6269C31.3395 42.6652 31.2563 42.7226 31.1939 42.78C31.1315 42.8374 31.0899 42.914 31.0691 42.9714C31.0483 43.0479 31.0275 43.1054 31.0275 43.1628H32.4421C32.4213 42.9714 32.3589 42.8183 32.2549 42.7226Z" fill="white"/>
<path d="M41.0742 43.0674V43.7372H39.2227V43.0674H41.0742Z" fill="white"/>
<path d="M48.8773 42.053V42.5698H48.2324V43.9669C48.2324 44.1009 48.2532 44.1774 48.3156 44.2349C48.3572 44.2731 48.4613 44.2923 48.6069 44.2923C48.6485 44.2923 48.7109 44.2923 48.7525 44.2923C48.7941 44.2923 48.8357 44.2923 48.8773 44.2731V44.8856C48.7941 44.9047 48.7317 44.9047 48.6277 44.9047C48.5445 44.9047 48.4405 44.9047 48.3572 44.9047C48.2324 44.9047 48.0868 44.9047 47.9828 44.8856C47.858 44.8664 47.7539 44.8282 47.6707 44.7899C47.5875 44.7516 47.5043 44.6751 47.4627 44.5794C47.4003 44.4837 47.3795 44.3688 47.3795 44.2349V42.5698H46.8594V42.053H47.3795V41.2109H48.2532V42.053H48.8773Z" fill="white"/>
<path d="M51.9559 42.0525V42.5884H51.9767C52.0183 42.4927 52.0807 42.4162 52.1431 42.3396C52.2055 42.2631 52.2887 42.2056 52.3928 42.1482C52.476 42.0908 52.58 42.0525 52.684 42.0334C52.788 41.9951 52.892 41.9951 52.9961 41.9951C53.0585 41.9951 53.1209 41.9951 53.1833 42.0143V42.7415C53.1417 42.7415 53.1001 42.7224 53.0377 42.7224C52.9753 42.7224 52.9337 42.7224 52.8712 42.7224C52.7048 42.7224 52.58 42.7415 52.476 42.7989C52.372 42.8372 52.2679 42.9138 52.2055 42.9903C52.1431 43.0669 52.0807 43.1626 52.0599 43.2774C52.0391 43.3922 52.0183 43.5071 52.0183 43.6411V44.9233H51.1445V42.0908H51.9559V42.0525Z" fill="white"/>
<path d="M55.324 42.9329C55.3448 42.7415 55.3865 42.6076 55.4697 42.4736C55.5529 42.3588 55.6777 42.2631 55.8233 42.1865C55.969 42.1099 56.1146 42.0525 56.3018 42.0334C56.4891 42.0143 56.6555 41.9951 56.8219 41.9951C56.9883 41.9951 57.134 42.0143 57.3004 42.0334C57.4668 42.0525 57.6125 42.0908 57.7581 42.1482C57.8829 42.2056 58.0077 42.2822 58.0909 42.397C58.1741 42.5119 58.2158 42.6458 58.2158 42.8181V44.2918C58.2158 44.4257 58.2158 44.5406 58.2366 44.6554C58.2574 44.7702 58.2782 44.8659 58.3198 44.9233H57.4252C57.4044 44.8851 57.4044 44.8277 57.3836 44.7894C57.3836 44.7511 57.3628 44.6937 57.3628 44.6554C57.2172 44.7894 57.0507 44.8659 56.8635 44.9233C56.6763 44.9808 56.4891 44.9999 56.281 44.9999C56.1354 44.9999 55.9898 44.9808 55.8649 44.9425C55.7401 44.9042 55.6153 44.8659 55.5113 44.7894C55.4073 44.7128 55.3448 44.6363 55.2824 44.5214C55.22 44.4066 55.1992 44.2918 55.1992 44.1387C55.1992 43.9855 55.2408 43.8516 55.3032 43.7367C55.3656 43.6411 55.4489 43.5454 55.5529 43.4879C55.6569 43.4305 55.7609 43.3731 55.9065 43.354C56.0314 43.3157 56.1562 43.2966 56.3018 43.2774C56.4266 43.2583 56.5515 43.2391 56.6971 43.2391C56.8219 43.22 56.9467 43.22 57.0299 43.1817C57.134 43.1626 57.1964 43.1243 57.2588 43.086C57.3212 43.0477 57.342 42.9903 57.342 42.8946C57.342 42.8181 57.3212 42.7415 57.3004 42.7033C57.2796 42.665 57.238 42.6076 57.1756 42.5884C57.134 42.5693 57.0716 42.5501 56.9883 42.531C56.9051 42.5119 56.8427 42.5119 56.7803 42.5119C56.6139 42.5119 56.4682 42.5501 56.385 42.6076C56.281 42.665 56.2394 42.7798 56.2186 42.9329H55.324ZM57.342 43.5071C57.3004 43.5454 57.2588 43.5645 57.1964 43.5836C57.134 43.6028 57.0716 43.6219 57.0091 43.6219C56.9467 43.6411 56.8843 43.6411 56.8011 43.6411C56.7179 43.6411 56.6555 43.6602 56.5931 43.6602C56.5307 43.6793 56.4682 43.6793 56.4058 43.6985C56.3434 43.7176 56.281 43.7367 56.2394 43.775C56.1978 43.8133 56.1562 43.8516 56.1354 43.8899C56.1146 43.9281 56.0938 44.0047 56.0938 44.0621C56.0938 44.1387 56.1146 44.1961 56.1354 44.2344C56.1562 44.2726 56.1978 44.3109 56.2602 44.3492C56.3018 44.3683 56.3642 44.3875 56.4266 44.4066C56.489 44.4257 56.5515 44.4257 56.6347 44.4257C56.8011 44.4257 56.9467 44.4066 57.0299 44.3492C57.134 44.2918 57.1964 44.2344 57.238 44.1578C57.2796 44.0812 57.3004 44.0238 57.3212 43.9473C57.3212 43.8707 57.342 43.8133 57.342 43.775V43.5071Z" fill="white"/>
<path d="M62.981 44.5215C62.877 44.6746 62.7522 44.7895 62.5857 44.8469C62.4193 44.9234 62.2321 44.9426 62.024 44.9426C61.7952 44.9426 61.5872 44.9043 61.3999 44.8278C61.2127 44.7512 61.0671 44.6364 60.963 44.5024C60.8382 44.3684 60.755 44.1962 60.6926 44.0239C60.6302 43.8325 60.6094 43.6603 60.6094 43.4498C60.6094 43.2584 60.6302 43.067 60.6926 42.8947C60.755 42.7225 60.8382 42.5694 60.963 42.4354C61.0879 42.3014 61.2335 42.1866 61.3999 42.11C61.5663 42.0335 61.7744 41.9952 62.024 41.9952C62.2113 41.9952 62.3985 42.0335 62.5649 42.11C62.7314 42.1866 62.877 42.2823 62.9602 42.4163H62.981V41H63.8548V44.9234H63.0226L62.981 44.5215ZM62.9602 43.1244C62.9394 43.0096 62.8978 42.9139 62.8354 42.8373C62.773 42.7608 62.6897 42.6842 62.6065 42.6459C62.5025 42.5885 62.3985 42.5694 62.2529 42.5694C62.1072 42.5694 61.9824 42.5885 61.8992 42.6459C61.7952 42.7033 61.712 42.7608 61.6704 42.8565C61.6288 42.9522 61.5663 43.0287 61.5455 43.1435C61.5247 43.2584 61.5039 43.3732 61.5039 43.488C61.5039 43.6029 61.5247 43.6986 61.5455 43.8134C61.5663 43.9282 61.6288 44.0239 61.6912 44.1005C61.7536 44.177 61.8368 44.2536 61.9408 44.311C62.0448 44.3684 62.1489 44.3876 62.2945 44.3876C62.4401 44.3876 62.5649 44.3684 62.6481 44.311C62.7522 44.2536 62.8146 44.1962 62.877 44.1005C62.9394 44.0239 62.981 43.9091 63.0018 43.8134C63.0226 43.7177 63.0434 43.5837 63.0434 43.4689C63.0434 43.3541 62.981 43.2392 62.9602 43.1244Z" fill="white"/>
<path d="M67.2667 44.2154C67.3916 44.3302 67.5788 44.3877 67.8284 44.3877C67.9949 44.3877 68.1613 44.3494 68.2861 44.2728C68.4109 44.1963 68.4942 44.1197 68.515 44.024H69.2847C69.1599 44.3685 68.9727 44.5982 68.723 44.7513C68.4734 44.9044 68.1613 44.9618 67.8076 44.9618C67.558 44.9618 67.3292 44.9235 67.1419 44.847C66.9339 44.7704 66.7675 44.6747 66.6426 44.5408C66.497 44.4068 66.393 44.2537 66.3306 44.0623C66.2474 43.8709 66.2266 43.6795 66.2266 43.4499C66.2266 43.2393 66.2682 43.0479 66.3514 42.8566C66.4346 42.6652 66.5386 42.5121 66.6842 42.3781C66.8299 42.2441 66.9963 42.1484 67.2043 42.0719C67.4124 41.9953 67.6204 41.957 67.8701 41.957C68.1405 41.957 68.3693 41.9953 68.5774 42.091C68.7854 42.1867 68.9518 42.3015 69.0767 42.4738C69.2015 42.6269 69.3055 42.8183 69.3471 43.0097C69.4095 43.2202 69.4303 43.4116 69.4095 43.6412H67.1211C67.0587 43.9092 67.1211 44.1006 67.2667 44.2154ZM68.2445 42.7226C68.1405 42.6269 67.9741 42.5695 67.766 42.5695C67.6204 42.5695 67.5164 42.5886 67.4124 42.6269C67.3292 42.6652 67.2459 42.7226 67.1835 42.78C67.1211 42.8374 67.0795 42.914 67.0587 42.9714C67.0379 43.0479 67.0171 43.1054 67.0171 43.1628H68.4318C68.4318 42.9714 68.3485 42.8183 68.2445 42.7226Z" fill="white"/>
<path d="M77.0859 43.0674V43.7372H75.2344V43.0674H77.0859Z" fill="white"/>
<path d="M84.6578 42.5697C84.5122 42.5697 84.4082 42.5888 84.3042 42.6462C84.2002 42.7036 84.1378 42.7802 84.0753 42.8567C84.0129 42.9524 83.9713 43.0481 83.9505 43.1438C83.9297 43.2395 83.9089 43.3544 83.9089 43.4692C83.9089 43.5649 83.9297 43.6797 83.9505 43.7754C83.9713 43.8711 84.0129 43.9859 84.0753 44.0625C84.1378 44.139 84.2002 44.2156 84.3042 44.273C84.4082 44.3304 84.5122 44.3496 84.6578 44.3496C84.8659 44.3496 85.0323 44.2922 85.1363 44.1965C85.2403 44.1008 85.3236 43.9477 85.3444 43.7754H86.1765C86.1141 44.1582 85.9477 44.4453 85.6772 44.6366C85.4068 44.828 85.0531 44.9237 84.637 44.9237C84.4082 44.9237 84.1794 44.8855 83.9921 44.8089C83.7841 44.7323 83.6177 44.6366 83.4928 44.5027C83.3472 44.3687 83.2432 44.2156 83.16 44.0433C83.0768 43.8711 83.0352 43.6797 83.0352 43.45C83.0352 43.2395 83.0768 43.029 83.1392 42.8376C83.2016 42.6462 83.3264 42.4931 83.4512 42.3591C83.5969 42.2252 83.7633 42.1103 83.9713 42.0338C84.1794 41.9572 84.4082 41.9189 84.6578 41.9189C84.8451 41.9189 85.0323 41.9381 85.1987 41.9764C85.3652 42.0146 85.5316 42.0912 85.6564 42.1677C85.802 42.2634 85.9061 42.3783 85.9893 42.4931C86.0725 42.6079 86.1141 42.7802 86.1349 42.9716H85.282C85.2403 42.7228 85.0323 42.5697 84.6578 42.5697Z" fill="white"/>
<path d="M88.5272 42.8566C88.6104 42.6652 88.7144 42.5121 88.86 42.3781C89.0057 42.2441 89.1721 42.1484 89.3801 42.0719C89.5882 41.9953 89.7962 41.957 90.0458 41.957C90.2955 41.957 90.5243 41.9953 90.7324 42.0719C90.9404 42.1484 91.1068 42.2441 91.2525 42.3781C91.3981 42.5121 91.5021 42.6652 91.5853 42.8566C91.6685 43.0479 91.7101 43.2393 91.7101 43.469C91.7101 43.6987 91.6685 43.9092 91.5853 44.0814C91.5021 44.2537 91.3981 44.4259 91.2525 44.5408C91.1068 44.6747 90.9404 44.7704 90.7324 44.847C90.5243 44.9235 90.2955 44.9427 90.0458 44.9427C89.7962 44.9427 89.5674 44.9044 89.3801 44.847C89.1929 44.7896 89.0057 44.6747 88.86 44.5408C88.7144 44.4068 88.6104 44.2537 88.5272 44.0814C88.444 43.89 88.4023 43.6987 88.4023 43.469C88.4023 43.2393 88.444 43.0479 88.5272 42.8566ZM89.3177 43.8135C89.3385 43.9283 89.3801 44.024 89.4425 44.1006C89.5049 44.1771 89.5882 44.2537 89.6714 44.3111C89.7754 44.3685 89.9002 44.3877 90.0458 44.3877C90.1915 44.3877 90.3163 44.3685 90.4203 44.3111C90.5243 44.2537 90.6075 44.1963 90.6699 44.1006C90.7324 44.024 90.774 43.9092 90.7948 43.8135C90.8156 43.7178 90.8364 43.603 90.8364 43.4881C90.8364 43.3733 90.8156 43.2585 90.7948 43.1628C90.774 43.0671 90.7324 42.9522 90.6699 42.8757C90.6075 42.7991 90.5243 42.7226 90.4203 42.6652C90.3163 42.6077 90.1915 42.5886 90.0458 42.5886C89.9002 42.5886 89.7754 42.6077 89.6714 42.6652C89.5674 42.7226 89.4841 42.78 89.4425 42.8757C89.3801 42.9522 89.3385 43.0479 89.3177 43.1628C89.2969 43.2776 89.2761 43.3924 89.2761 43.4881C89.2761 43.5838 89.2969 43.6987 89.3177 43.8135Z" fill="white"/>
<path d="M94.9363 42.0531V42.455H94.9571C95.0612 42.2828 95.2068 42.168 95.394 42.0914C95.5605 42.0148 95.7477 41.9766 95.9349 41.9766C96.1638 41.9766 96.351 41.9957 96.5174 42.0531C96.6631 42.1105 96.7879 42.1871 96.8711 42.2828C96.9543 42.3785 97.0167 42.5124 97.0583 42.6464C97.0999 42.7995 97.1207 42.9526 97.1207 43.1249V44.8665H96.247V43.2589C96.247 43.0292 96.2054 42.8569 96.1222 42.7421C96.0389 42.6273 95.8933 42.5699 95.6853 42.5699C95.4564 42.5699 95.2692 42.6273 95.1652 42.7613C95.0612 42.8952 94.9988 43.0866 94.9988 43.3928V44.8857H94.125V42.0531H94.9363Z" fill="white"/>
<path d="M100.409 42.0531V42.455H100.43C100.534 42.2828 100.679 42.168 100.867 42.0914C101.033 42.0148 101.22 41.9766 101.408 41.9766C101.636 41.9766 101.824 41.9957 101.99 42.0531C102.136 42.1105 102.261 42.1871 102.344 42.2828C102.427 42.3785 102.489 42.5124 102.531 42.6464C102.573 42.7995 102.593 42.9526 102.593 43.1249V44.8665H101.72V43.2589C101.72 43.0292 101.678 42.8569 101.595 42.7421C101.512 42.6273 101.366 42.5699 101.158 42.5699C100.929 42.5699 100.742 42.6273 100.638 42.7613C100.534 42.8952 100.471 43.0866 100.471 43.3928V44.8857H99.5977V42.0531H100.409Z" fill="white"/>
<path d="M106.005 44.2154C106.13 44.3302 106.317 44.3877 106.567 44.3877C106.733 44.3877 106.9 44.3494 107.024 44.2728C107.149 44.1963 107.232 44.1197 107.253 44.024H108.023C107.898 44.3685 107.711 44.5982 107.461 44.7513C107.212 44.9044 106.9 44.9618 106.546 44.9618C106.296 44.9618 106.067 44.9235 105.88 44.847C105.672 44.7704 105.506 44.6747 105.381 44.5408C105.235 44.4068 105.131 44.2537 105.069 44.0623C104.986 43.8709 104.965 43.6795 104.965 43.4499C104.965 43.2393 105.006 43.0479 105.09 42.8566C105.173 42.6652 105.277 42.5121 105.423 42.3781C105.568 42.2441 105.735 42.1484 105.943 42.0719C106.151 41.9953 106.359 41.957 106.608 41.957C106.879 41.957 107.108 41.9953 107.316 42.091C107.524 42.1867 107.69 42.3015 107.815 42.4738C107.94 42.6269 108.044 42.8183 108.085 43.0097C108.148 43.2202 108.169 43.4116 108.148 43.6412H105.859C105.797 43.9092 105.859 44.1006 106.005 44.2154ZM106.983 42.7226C106.879 42.6269 106.712 42.5695 106.504 42.5695C106.359 42.5695 106.255 42.5886 106.151 42.6269C106.067 42.6652 105.984 42.7226 105.922 42.78C105.859 42.8374 105.818 42.914 105.797 42.9714C105.776 43.0479 105.755 43.1054 105.755 43.1628H107.17C107.17 42.9714 107.087 42.8183 106.983 42.7226Z" fill="white"/>
<path d="M111.955 42.5697C111.809 42.5697 111.705 42.5888 111.601 42.6462C111.497 42.7036 111.435 42.7802 111.372 42.8567C111.31 42.9524 111.268 43.0481 111.247 43.1438C111.227 43.2395 111.206 43.3544 111.206 43.4692C111.206 43.5649 111.227 43.6797 111.247 43.7754C111.268 43.8711 111.31 43.9859 111.372 44.0625C111.435 44.139 111.497 44.2156 111.601 44.273C111.705 44.3304 111.809 44.3496 111.955 44.3496C112.163 44.3496 112.329 44.2922 112.433 44.1965C112.537 44.1008 112.62 43.9477 112.641 43.7754H113.473C113.411 44.1582 113.245 44.4453 112.974 44.6366C112.704 44.828 112.35 44.9237 111.934 44.9237C111.705 44.9237 111.476 44.8855 111.289 44.8089C111.081 44.7323 110.915 44.6366 110.79 44.5027C110.644 44.3687 110.54 44.2156 110.457 44.0433C110.374 43.8711 110.332 43.6797 110.332 43.45C110.332 43.2395 110.374 43.029 110.436 42.8376C110.498 42.6462 110.623 42.4931 110.748 42.3591C110.894 42.2252 111.06 42.1103 111.268 42.0338C111.476 41.9572 111.705 41.9189 111.955 41.9189C112.142 41.9189 112.329 41.9381 112.496 41.9764C112.662 42.0146 112.828 42.0912 112.953 42.1677C113.099 42.2634 113.203 42.3783 113.286 42.4931C113.369 42.6079 113.411 42.7802 113.432 42.9716H112.579C112.537 42.7228 112.329 42.5697 111.955 42.5697Z" fill="white"/>
<path d="M117.549 42.053V42.5698H116.904V43.9669C116.904 44.1009 116.925 44.1774 116.988 44.2349C117.05 44.2923 117.133 44.2923 117.279 44.2923C117.32 44.2923 117.383 44.2923 117.424 44.2923C117.466 44.2923 117.508 44.2923 117.549 44.2731V44.8856C117.466 44.9047 117.404 44.9047 117.3 44.9047C117.216 44.9047 117.112 44.9047 117.029 44.9047C116.904 44.9047 116.759 44.9047 116.655 44.8856C116.53 44.8664 116.426 44.8282 116.343 44.7899C116.259 44.7516 116.176 44.6751 116.135 44.5794C116.072 44.4837 116.051 44.3688 116.051 44.2349V42.5698H115.531V42.053H116.051V41.2109H116.925V42.053H117.549Z" fill="white"/>
<path d="M6.50472 57V54.63H8.20472C9.64472 54.63 10.4447 53.64 10.4447 52.48C10.4447 51.31 9.65472 50.33 8.20472 50.33H5.08472V57H6.50472ZM8.01472 53.38H6.50472V51.58H8.01472C8.57472 51.58 8.99472 51.92 8.99472 52.48C8.99472 53.03 8.57472 53.38 8.01472 53.38ZM13.3689 57.12C14.9689 57.12 15.9289 55.96 15.9289 54.58C15.9289 53.21 14.9689 52.05 13.3689 52.05C11.7789 52.05 10.8189 53.21 10.8189 54.58C10.8189 55.96 11.7789 57.12 13.3689 57.12ZM13.3689 55.99C12.5789 55.99 12.1389 55.34 12.1389 54.58C12.1389 53.83 12.5789 53.18 13.3689 53.18C14.1589 53.18 14.6089 53.83 14.6089 54.58C14.6089 55.34 14.1589 55.99 13.3689 55.99ZM22.4611 57L23.9311 52.17H22.6111L21.7111 55.42L20.6511 52.17H19.5211L18.4611 55.42L17.5611 52.17H16.2411L17.7111 57H19.0711L20.0911 53.71L21.1111 57H22.4611ZM26.8267 57.12C27.5767 57.12 28.3367 56.89 28.8167 56.45L28.2567 55.63C27.9467 55.93 27.3767 56.11 26.9667 56.11C26.1467 56.11 25.6567 55.6 25.5767 54.99H29.1667V54.71C29.1667 53.13 28.1867 52.05 26.7467 52.05C25.2767 52.05 24.2467 53.18 24.2467 54.58C24.2467 56.13 25.3567 57.12 26.8267 57.12ZM27.9367 54.13H25.5567C25.6167 53.65 25.9567 53.06 26.7467 53.06C27.5867 53.06 27.9067 53.67 27.9367 54.13ZM31.354 57V53.81C31.564 53.5 32.124 53.26 32.544 53.26C32.684 53.26 32.804 53.27 32.894 53.29V52.05C32.294 52.05 31.694 52.4 31.354 52.83V52.17H30.084V57H31.354ZM35.9575 57.12C36.7075 57.12 37.4675 56.89 37.9475 56.45L37.3875 55.63C37.0775 55.93 36.5075 56.11 36.0975 56.11C35.2775 56.11 34.7875 55.6 34.7075 54.99H38.2975V54.71C38.2975 53.13 37.3175 52.05 35.8775 52.05C34.4075 52.05 33.3775 53.18 33.3775 54.58C33.3775 56.13 34.4875 57.12 35.9575 57.12ZM37.0675 54.13H34.6875C34.7475 53.65 35.0875 53.06 35.8775 53.06C36.7175 53.06 37.0375 53.67 37.0675 54.13ZM43.8149 57V50.33H42.5349V52.79C42.1549 52.3 41.6149 52.05 41.0449 52.05C39.8149 52.05 38.9049 53.01 38.9049 54.59C38.9049 56.2 39.8249 57.12 41.0449 57.12C41.6249 57.12 42.1549 56.86 42.5349 56.38V57H43.8149ZM41.4349 55.99C40.7149 55.99 40.2149 55.42 40.2149 54.59C40.2149 53.75 40.7149 53.18 41.4349 53.18C41.8649 53.18 42.3249 53.41 42.5349 53.73V55.44C42.3249 55.76 41.8649 55.99 41.4349 55.99ZM48.9028 55.45V53.74C49.1128 53.42 49.5828 53.18 49.9928 53.18C50.7328 53.18 51.2228 53.75 51.2228 54.59C51.2228 55.43 50.7328 55.99 49.9928 55.99C49.5828 55.99 49.1128 55.76 48.9028 55.45ZM48.9028 57V56.38C49.2828 56.86 49.8128 57.12 50.3928 57.12C51.6128 57.12 52.5328 56.2 52.5328 54.59C52.5328 53.01 51.6228 52.05 50.3928 52.05C49.8228 52.05 49.2828 52.3 48.9028 52.79V50.33H47.6328V57H48.9028ZM53.3222 58.89C53.4822 58.93 53.8022 58.96 53.9522 58.96C54.7822 58.94 55.4222 58.7 55.7822 57.79L58.0522 52.17H56.6822L55.4222 55.53L54.1622 52.17H52.8022L54.7622 57.07L54.5822 57.48C54.4622 57.74 54.2422 57.83 53.9122 57.83C53.7922 57.83 53.6222 57.8 53.5122 57.75L53.3222 58.89ZM68.4378 57V50.33H66.4378L64.8178 54.36L63.1978 50.33H61.2078V57H62.6278V52.33L64.5078 57H65.1278L67.0078 52.33V57H68.4378ZM74.4824 57V55.75H71.1824V54.24H74.4124V52.99H71.1824V51.58H74.4824V50.33H69.7624V57H74.4824ZM78.5625 57V51.58H80.5025V50.33H75.1825V51.58H77.1325V57H78.5625ZM86.9883 57L84.4183 50.33H82.6383L80.0583 57H81.6783L82.0983 55.87H84.9583L85.3683 57H86.9883ZM84.5683 54.62H82.4883L83.5283 51.75L84.5683 54.62ZM93.0042 57L91.5042 54.46C92.2242 54.29 92.9642 53.66 92.9642 52.48C92.9642 51.24 92.1142 50.33 90.7242 50.33H87.6042V57H89.0242V54.63H90.0642L91.3742 57H93.0042ZM90.5142 53.38H89.0242V51.58H90.5142C91.0842 51.58 91.5142 51.92 91.5142 52.48C91.5142 53.04 91.0842 53.38 90.5142 53.38ZM97.04 57.12C99.07 57.12 100.05 55.99 100.05 54.33V50.33H98.6V54.29C98.6 55.22 98.07 55.86 97.04 55.86C96.01 55.86 95.47 55.22 95.47 54.29V50.33H94.03V54.34C94.03 55.98 95.01 57.12 97.04 57.12ZM102.784 57V54.24H106.014V52.99H102.784V51.58H106.084V50.33H101.364V57H102.784ZM108.497 57V54.24H111.727V52.99H108.497V51.58H111.797V50.33H107.077V57H108.497ZM116.07 57V54.27L118.62 50.33H117L115.36 53.01L113.7 50.33H112.08L114.65 54.27V57H116.07Z" fill="#EFC74D"/>
<defs>
<linearGradient id="paint0_linear_433_2719" x1="56.7817" y1="5.78859" x2="62.6043" y2="30.0104" gradientUnits="userSpaceOnUse">
<stop stop-color="#FFF33B"/>
<stop offset="0.053592" stop-color="#FDE23B"/>
<stop offset="0.2252" stop-color="#F7B03B"/>
<stop offset="0.3951" stop-color="#F2873A"/>
<stop offset="0.5602" stop-color="#EE673A"/>
<stop offset="0.7189" stop-color="#EB503A"/>
<stop offset="0.8686" stop-color="#EA433A"/>
<stop offset="1" stop-color="#E93E3A"/>
</linearGradient>
<linearGradient id="paint1_linear_433_2719" x1="54.9876" y1="6.22023" x2="60.8102" y2="30.442" gradientUnits="userSpaceOnUse">
<stop stop-color="#FFF33B"/>
<stop offset="0.053592" stop-color="#FDE23B"/>
<stop offset="0.2252" stop-color="#F7B03B"/>
<stop offset="0.3951" stop-color="#F2873A"/>
<stop offset="0.5602" stop-color="#EE673A"/>
<stop offset="0.7189" stop-color="#EB503A"/>
<stop offset="0.8686" stop-color="#EA433A"/>
<stop offset="1" stop-color="#E93E3A"/>
</linearGradient>
<linearGradient id="paint2_linear_433_2719" x1="53.3389" y1="6.6166" x2="59.1614" y2="30.8384" gradientUnits="userSpaceOnUse">
<stop stop-color="#FFF33B"/>
<stop offset="0.053592" stop-color="#FDE23B"/>
<stop offset="0.2252" stop-color="#F7B03B"/>
<stop offset="0.3951" stop-color="#F2873A"/>
<stop offset="0.5602" stop-color="#EE673A"/>
<stop offset="0.7189" stop-color="#EB503A"/>
<stop offset="0.8686" stop-color="#EA433A"/>
<stop offset="1" stop-color="#E93E3A"/>
</linearGradient>
<linearGradient id="paint3_linear_433_2719" x1="53.0479" y1="6.68743" x2="58.9129" y2="30.8876" gradientUnits="userSpaceOnUse">
<stop stop-color="#FFF33B"/>
<stop offset="0.053592" stop-color="#FDE23B"/>
<stop offset="0.2252" stop-color="#F7B03B"/>
<stop offset="0.3951" stop-color="#F2873A"/>
<stop offset="0.5602" stop-color="#EE673A"/>
<stop offset="0.7189" stop-color="#EB503A"/>
<stop offset="0.8686" stop-color="#EA433A"/>
<stop offset="1" stop-color="#E93E3A"/>
</linearGradient>
<linearGradient id="paint4_linear_433_2719" x1="55.8415" y1="6.01539" x2="61.6639" y2="30.2372" gradientUnits="userSpaceOnUse">
<stop stop-color="#FFF33B"/>
<stop offset="0.053592" stop-color="#FDE23B"/>
<stop offset="0.2252" stop-color="#F7B03B"/>
<stop offset="0.3951" stop-color="#F2873A"/>
<stop offset="0.5602" stop-color="#EE673A"/>
<stop offset="0.7189" stop-color="#EB503A"/>
<stop offset="0.8686" stop-color="#EA433A"/>
<stop offset="1" stop-color="#E93E3A"/>
</linearGradient>
<linearGradient id="paint5_linear_433_2719" x1="57.2714" y1="5.67166" x2="63.094" y2="29.8937" gradientUnits="userSpaceOnUse">
<stop stop-color="#FFF33B"/>
<stop offset="0.053592" stop-color="#FDE23B"/>
<stop offset="0.2252" stop-color="#F7B03B"/>
<stop offset="0.3951" stop-color="#F2873A"/>
<stop offset="0.5602" stop-color="#EE673A"/>
<stop offset="0.7189" stop-color="#EB503A"/>
<stop offset="0.8686" stop-color="#EA433A"/>
<stop offset="1" stop-color="#E93E3A"/>
</linearGradient>
<linearGradient id="paint6_linear_433_2719" x1="54.544" y1="6.32712" x2="60.3663" y2="30.5486" gradientUnits="userSpaceOnUse">
<stop stop-color="#FFF33B"/>
<stop offset="0.053592" stop-color="#FDE23B"/>
<stop offset="0.2252" stop-color="#F7B03B"/>
<stop offset="0.3951" stop-color="#F2873A"/>
<stop offset="0.5602" stop-color="#EE673A"/>
<stop offset="0.7189" stop-color="#EB503A"/>
<stop offset="0.8686" stop-color="#EA433A"/>
<stop offset="1" stop-color="#E93E3A"/>
</linearGradient>
<linearGradient id="paint7_linear_433_2719" x1="60.5513" y1="4.88306" x2="66.3738" y2="29.1048" gradientUnits="userSpaceOnUse">
<stop stop-color="#FFF33B"/>
<stop offset="0.053592" stop-color="#FDE23B"/>
<stop offset="0.2252" stop-color="#F7B03B"/>
<stop offset="0.3951" stop-color="#F2873A"/>
<stop offset="0.5602" stop-color="#EE673A"/>
<stop offset="0.7189" stop-color="#EB503A"/>
<stop offset="0.8686" stop-color="#EA433A"/>
<stop offset="1" stop-color="#E93E3A"/>
</linearGradient>
<linearGradient id="paint8_linear_433_2719" x1="53.815" y1="6.50386" x2="59.6801" y2="30.7041" gradientUnits="userSpaceOnUse">
<stop stop-color="#FFF33B"/>
<stop offset="0.053592" stop-color="#FDE23B"/>
<stop offset="0.2252" stop-color="#F7B03B"/>
<stop offset="0.3951" stop-color="#F2873A"/>
<stop offset="0.5602" stop-color="#EE673A"/>
<stop offset="0.7189" stop-color="#EB503A"/>
<stop offset="0.8686" stop-color="#EA433A"/>
<stop offset="1" stop-color="#E93E3A"/>
</linearGradient>
<linearGradient id="paint9_linear_433_2719" x1="53.8988" y1="6.48343" x2="59.7641" y2="30.6834" gradientUnits="userSpaceOnUse">
<stop stop-color="#FFF33B"/>
<stop offset="0.053592" stop-color="#FDE23B"/>
<stop offset="0.2252" stop-color="#F7B03B"/>
<stop offset="0.3951" stop-color="#F2873A"/>
<stop offset="0.5602" stop-color="#EE673A"/>
<stop offset="0.7189" stop-color="#EB503A"/>
<stop offset="0.8686" stop-color="#EA433A"/>
<stop offset="1" stop-color="#E93E3A"/>
</linearGradient>
<linearGradient id="paint10_linear_433_2719" x1="61.3997" y1="4.67886" x2="67.2222" y2="28.9007" gradientUnits="userSpaceOnUse">
<stop stop-color="#FFF33B"/>
<stop offset="0.053592" stop-color="#FDE23B"/>
<stop offset="0.2252" stop-color="#F7B03B"/>
<stop offset="0.3951" stop-color="#F2873A"/>
<stop offset="0.5602" stop-color="#EE673A"/>
<stop offset="0.7189" stop-color="#EB503A"/>
<stop offset="0.8686" stop-color="#EA433A"/>
<stop offset="1" stop-color="#E93E3A"/>
</linearGradient>
<linearGradient id="paint11_linear_433_2719" x1="44.8001" y1="28.9605" x2="46.5605" y2="4.1958" gradientUnits="userSpaceOnUse">
<stop stop-color="#662D91"/>
<stop offset="0.0940942" stop-color="#7C2D8D"/>
<stop offset="0.2912" stop-color="#A52C87"/>
<stop offset="0.4845" stop-color="#C52B82"/>
<stop offset="0.6705" stop-color="#DC2A7E"/>
<stop offset="0.846" stop-color="#E92A7C"/>
<stop offset="1" stop-color="#EE2A7B"/>
</linearGradient>
<linearGradient id="paint12_linear_433_2719" x1="42.4869" y1="28.7965" x2="44.2473" y2="4.03177" gradientUnits="userSpaceOnUse">
<stop stop-color="#662D91"/>
<stop offset="0.0940942" stop-color="#7C2D8D"/>
<stop offset="0.2912" stop-color="#A52C87"/>
<stop offset="0.4845" stop-color="#C52B82"/>
<stop offset="0.6705" stop-color="#DC2A7E"/>
<stop offset="0.846" stop-color="#E92A7C"/>
<stop offset="1" stop-color="#EE2A7B"/>
</linearGradient>
<linearGradient id="paint13_linear_433_2719" x1="39.9166" y1="28.6132" x2="41.677" y2="3.84853" gradientUnits="userSpaceOnUse">
<stop stop-color="#662D91"/>
<stop offset="0.0940942" stop-color="#7C2D8D"/>
<stop offset="0.2912" stop-color="#A52C87"/>
<stop offset="0.4845" stop-color="#C52B82"/>
<stop offset="0.6705" stop-color="#DC2A7E"/>
<stop offset="0.846" stop-color="#E92A7C"/>
<stop offset="1" stop-color="#EE2A7B"/>
</linearGradient>
<linearGradient id="paint14_linear_433_2719" x1="39.4665" y1="28.5818" x2="41.2271" y2="3.81667" gradientUnits="userSpaceOnUse">
<stop stop-color="#662D91"/>
<stop offset="0.0940942" stop-color="#7C2D8D"/>
<stop offset="0.2912" stop-color="#A52C87"/>
<stop offset="0.4845" stop-color="#C52B82"/>
<stop offset="0.6705" stop-color="#DC2A7E"/>
<stop offset="0.846" stop-color="#E92A7C"/>
<stop offset="1" stop-color="#EE2A7B"/>
</linearGradient>
<linearGradient id="paint15_linear_433_2719" x1="33.017" y1="28.123" x2="34.7774" y2="3.35826" gradientUnits="userSpaceOnUse">
<stop stop-color="#662D91"/>
<stop offset="0.0940942" stop-color="#7C2D8D"/>
<stop offset="0.2912" stop-color="#A52C87"/>
<stop offset="0.4845" stop-color="#C52B82"/>
<stop offset="0.6705" stop-color="#DC2A7E"/>
<stop offset="0.846" stop-color="#E92A7C"/>
<stop offset="1" stop-color="#EE2A7B"/>
</linearGradient>
<linearGradient id="paint16_linear_433_2719" x1="41.4991" y1="28.7258" x2="43.2595" y2="3.96075" gradientUnits="userSpaceOnUse">
<stop stop-color="#662D91"/>
<stop offset="0.0940942" stop-color="#7C2D8D"/>
<stop offset="0.2912" stop-color="#A52C87"/>
<stop offset="0.4845" stop-color="#C52B82"/>
<stop offset="0.6705" stop-color="#DC2A7E"/>
<stop offset="0.846" stop-color="#E92A7C"/>
<stop offset="1" stop-color="#EE2A7B"/>
</linearGradient>
<linearGradient id="paint17_linear_433_2719" x1="42.3287" y1="28.785" x2="44.0891" y2="4.02015" gradientUnits="userSpaceOnUse">
<stop stop-color="#662D91"/>
<stop offset="0.0940942" stop-color="#7C2D8D"/>
<stop offset="0.2912" stop-color="#A52C87"/>
<stop offset="0.4845" stop-color="#C52B82"/>
<stop offset="0.6705" stop-color="#DC2A7E"/>
<stop offset="0.846" stop-color="#E92A7C"/>
<stop offset="1" stop-color="#EE2A7B"/>
</linearGradient>
<linearGradient id="paint18_linear_433_2719" x1="44.9609" y1="28.9721" x2="46.7214" y2="4.20745" gradientUnits="userSpaceOnUse">
<stop stop-color="#662D91"/>
<stop offset="0.0940942" stop-color="#7C2D8D"/>
<stop offset="0.2912" stop-color="#A52C87"/>
<stop offset="0.4845" stop-color="#C52B82"/>
<stop offset="0.6705" stop-color="#DC2A7E"/>
<stop offset="0.846" stop-color="#E92A7C"/>
<stop offset="1" stop-color="#EE2A7B"/>
</linearGradient>
<linearGradient id="paint19_linear_433_2719" x1="48.9144" y1="29.2531" x2="50.6748" y2="4.48841" gradientUnits="userSpaceOnUse">
<stop stop-color="#662D91"/>
<stop offset="0.0940942" stop-color="#7C2D8D"/>
<stop offset="0.2912" stop-color="#A52C87"/>
<stop offset="0.4845" stop-color="#C52B82"/>
<stop offset="0.6705" stop-color="#DC2A7E"/>
<stop offset="0.846" stop-color="#E92A7C"/>
<stop offset="1" stop-color="#EE2A7B"/>
</linearGradient>
<linearGradient id="paint20_linear_433_2719" x1="39.6943" y1="34.3616" x2="39.6943" y2="4.98394" gradientUnits="userSpaceOnUse">
<stop stop-color="#00AEEF"/>
<stop offset="0.0150842" stop-color="#01ABEC"/>
<stop offset="0.2295" stop-color="#1082CB"/>
<stop offset="0.4396" stop-color="#1C62B2"/>
<stop offset="0.6418" stop-color="#244B9F"/>
<stop offset="0.8325" stop-color="#293E94"/>
<stop offset="1" stop-color="#2B3990"/>
</linearGradient>
<linearGradient id="paint21_linear_433_2719" x1="49.6658" y1="29.3059" x2="51.4262" y2="4.54122" gradientUnits="userSpaceOnUse">
<stop stop-color="#662D91"/>
<stop offset="0.0940942" stop-color="#7C2D8D"/>
<stop offset="0.2912" stop-color="#A52C87"/>
<stop offset="0.4845" stop-color="#C52B82"/>
<stop offset="0.6705" stop-color="#DC2A7E"/>
<stop offset="0.846" stop-color="#E92A7C"/>
<stop offset="1" stop-color="#EE2A7B"/>
</linearGradient>
<linearGradient id="paint22_linear_433_2719" x1="46.2598" y1="29.0642" x2="48.0202" y2="4.29952" gradientUnits="userSpaceOnUse">
<stop stop-color="#662D91"/>
<stop offset="0.0940942" stop-color="#7C2D8D"/>
<stop offset="0.2912" stop-color="#A52C87"/>
<stop offset="0.4845" stop-color="#C52B82"/>
<stop offset="0.6705" stop-color="#DC2A7E"/>
<stop offset="0.846" stop-color="#E92A7C"/>
<stop offset="1" stop-color="#EE2A7B"/>
</linearGradient>
<linearGradient id="paint23_linear_433_2719" x1="40.4146" y1="28.6487" x2="42.175" y2="3.88405" gradientUnits="userSpaceOnUse">
<stop stop-color="#662D91"/>
<stop offset="0.0940942" stop-color="#7C2D8D"/>
<stop offset="0.2912" stop-color="#A52C87"/>
<stop offset="0.4845" stop-color="#C52B82"/>
<stop offset="0.6705" stop-color="#DC2A7E"/>
<stop offset="0.846" stop-color="#E92A7C"/>
<stop offset="1" stop-color="#EE2A7B"/>
</linearGradient>
<linearGradient id="paint24_linear_433_2719" x1="40.6461" y1="28.6656" x2="42.4065" y2="3.90067" gradientUnits="userSpaceOnUse">
<stop stop-color="#662D91"/>
<stop offset="0.0940942" stop-color="#7C2D8D"/>
<stop offset="0.2912" stop-color="#A52C87"/>
<stop offset="0.4845" stop-color="#C52B82"/>
<stop offset="0.6705" stop-color="#DC2A7E"/>
<stop offset="0.846" stop-color="#E92A7C"/>
<stop offset="1" stop-color="#EE2A7B"/>
</linearGradient>
<linearGradient id="paint25_linear_433_2719" x1="55.7312" y1="32.947" x2="64.319" y2="31.663" gradientUnits="userSpaceOnUse">
<stop stop-color="#006838"/>
<stop offset="0.1509" stop-color="#056B38"/>
<stop offset="0.3229" stop-color="#127439"/>
<stop offset="0.5051" stop-color="#29843A"/>
<stop offset="0.6947" stop-color="#49993C"/>
<stop offset="0.8878" stop-color="#72B43E"/>
<stop offset="1" stop-color="#8DC63F"/>
</linearGradient>
<linearGradient id="paint26_linear_433_2719" x1="55.2123" y1="29.4913" x2="63.8001" y2="28.2074" gradientUnits="userSpaceOnUse">
<stop stop-color="#006838"/>
<stop offset="0.1509" stop-color="#056B38"/>
<stop offset="0.3229" stop-color="#127439"/>
<stop offset="0.5051" stop-color="#29843A"/>
<stop offset="0.6947" stop-color="#49993C"/>
<stop offset="0.8878" stop-color="#72B43E"/>
<stop offset="1" stop-color="#8DC63F"/>
</linearGradient>
<linearGradient id="paint27_linear_433_2719" x1="55.4512" y1="31.0755" x2="64.039" y2="29.7916" gradientUnits="userSpaceOnUse">
<stop stop-color="#006838"/>
<stop offset="0.1509" stop-color="#056B38"/>
<stop offset="0.3229" stop-color="#127439"/>
<stop offset="0.5051" stop-color="#29843A"/>
<stop offset="0.6947" stop-color="#49993C"/>
<stop offset="0.8878" stop-color="#72B43E"/>
<stop offset="1" stop-color="#8DC63F"/>
</linearGradient>
<linearGradient id="paint28_linear_433_2719" x1="55.6878" y1="32.6523" x2="64.2756" y2="31.3684" gradientUnits="userSpaceOnUse">
<stop stop-color="#006838"/>
<stop offset="0.1509" stop-color="#056B38"/>
<stop offset="0.3229" stop-color="#127439"/>
<stop offset="0.5051" stop-color="#29843A"/>
<stop offset="0.6947" stop-color="#49993C"/>
<stop offset="0.8878" stop-color="#72B43E"/>
<stop offset="1" stop-color="#8DC63F"/>
</linearGradient>
<linearGradient id="paint29_linear_433_2719" x1="55.6422" y1="32.3547" x2="64.23" y2="31.0707" gradientUnits="userSpaceOnUse">
<stop stop-color="#006838"/>
<stop offset="0.1509" stop-color="#056B38"/>
<stop offset="0.3229" stop-color="#127439"/>
<stop offset="0.5051" stop-color="#29843A"/>
<stop offset="0.6947" stop-color="#49993C"/>
<stop offset="0.8878" stop-color="#72B43E"/>
<stop offset="1" stop-color="#8DC63F"/>
</linearGradient>
<linearGradient id="paint30_linear_433_2719" x1="55.5505" y1="31.7347" x2="64.1382" y2="30.4508" gradientUnits="userSpaceOnUse">
<stop stop-color="#006838"/>
<stop offset="0.1509" stop-color="#056B38"/>
<stop offset="0.3229" stop-color="#127439"/>
<stop offset="0.5051" stop-color="#29843A"/>
<stop offset="0.6947" stop-color="#49993C"/>
<stop offset="0.8878" stop-color="#72B43E"/>
<stop offset="1" stop-color="#8DC63F"/>
</linearGradient>
<linearGradient id="paint31_linear_433_2719" x1="36.3994" y1="34.362" x2="36.3994" y2="4.98081" gradientUnits="userSpaceOnUse">
<stop stop-color="#00AEEF"/>
<stop offset="0.0150842" stop-color="#01ABEC"/>
<stop offset="0.2295" stop-color="#1082CB"/>
<stop offset="0.4396" stop-color="#1C62B2"/>
<stop offset="0.6418" stop-color="#244B9F"/>
<stop offset="0.8325" stop-color="#293E94"/>
<stop offset="1" stop-color="#2B3990"/>
</linearGradient>
<linearGradient id="paint32_linear_433_2719" x1="38.74" y1="39.7761" x2="30.8863" y2="6.08195" gradientUnits="userSpaceOnUse">
<stop stop-color="#00AEEF"/>
<stop offset="0.0150842" stop-color="#01ABEC"/>
<stop offset="0.2295" stop-color="#1082CB"/>
<stop offset="0.4396" stop-color="#1C62B2"/>
<stop offset="0.6418" stop-color="#244B9F"/>
<stop offset="0.8325" stop-color="#293E94"/>
<stop offset="1" stop-color="#2B3990"/>
</linearGradient>
<linearGradient id="paint33_linear_433_2719" x1="62.7791" y1="4.34786" x2="68.6016" y2="28.5697" gradientUnits="userSpaceOnUse">
<stop stop-color="#FFF33B"/>
<stop offset="0.053592" stop-color="#FDE23B"/>
<stop offset="0.2252" stop-color="#F7B03B"/>
<stop offset="0.3951" stop-color="#F2873A"/>
<stop offset="0.5602" stop-color="#EE673A"/>
<stop offset="0.7189" stop-color="#EB503A"/>
<stop offset="0.8686" stop-color="#EA433A"/>
<stop offset="1" stop-color="#E93E3A"/>
</linearGradient>
<linearGradient id="paint34_linear_433_2719" x1="61.2086" y1="4.72493" x2="67.0311" y2="28.9467" gradientUnits="userSpaceOnUse">
<stop stop-color="#FFF33B"/>
<stop offset="0.053592" stop-color="#FDE23B"/>
<stop offset="0.2252" stop-color="#F7B03B"/>
<stop offset="0.3951" stop-color="#F2873A"/>
<stop offset="0.5602" stop-color="#EE673A"/>
<stop offset="0.7189" stop-color="#EB503A"/>
<stop offset="0.8686" stop-color="#EA433A"/>
<stop offset="1" stop-color="#E93E3A"/>
</linearGradient>
<linearGradient id="paint35_linear_433_2719" x1="71.3985" y1="40.014" x2="70.2327" y2="29.5286" gradientUnits="userSpaceOnUse">
<stop stop-color="#FFF33B"/>
<stop offset="0.0438805" stop-color="#FDE23B"/>
<stop offset="0.1844" stop-color="#F7B03B"/>
<stop offset="0.3235" stop-color="#F2873A"/>
<stop offset="0.4587" stop-color="#EE673A"/>
<stop offset="0.5886" stop-color="#EB503A"/>
<stop offset="0.7112" stop-color="#EA433A"/>
<stop offset="0.8188" stop-color="#E93E3A"/>
</linearGradient>
<linearGradient id="paint36_linear_433_2719" x1="76.1527" y1="34.362" x2="76.1527" y2="4.98078" gradientUnits="userSpaceOnUse">
<stop stop-color="#00AEEF"/>
<stop offset="0.0150842" stop-color="#01ABEC"/>
<stop offset="0.2295" stop-color="#1082CB"/>
<stop offset="0.4396" stop-color="#1C62B2"/>
<stop offset="0.6418" stop-color="#244B9F"/>
<stop offset="0.8325" stop-color="#293E94"/>
<stop offset="1" stop-color="#2B3990"/>
</linearGradient>
</defs>
</svg>
