<svg width="30" height="34" viewBox="0 0 30 34" fill="none" xmlns="http://www.w3.org/2000/svg">
<path d="M25.8999 3.86673L16.7332 0.433398C15.7832 0.0833985 14.2332 0.0833985 13.2832 0.433398L4.11651 3.86673C2.34984 4.5334 0.916504 6.60006 0.916504 8.48339V21.9834C0.916504 23.3334 1.79984 25.1167 2.88317 25.9167L12.0498 32.7667C13.6665 33.9834 16.3165 33.9834 17.9332 32.7667L27.0998 25.9167C28.1832 25.1001 29.0665 23.3334 29.0665 21.9834V8.48339C29.0832 6.60006 27.6499 4.5334 25.8999 3.86673ZM20.7998 13.2001L13.6332 20.3667C13.3832 20.6167 13.0665 20.7334 12.7498 20.7334C12.4332 20.7334 12.1165 20.6167 11.8665 20.3667L9.19984 17.6667C8.71651 17.1834 8.71651 16.3834 9.19984 15.9001C9.68318 15.4167 10.4832 15.4167 10.9665 15.9001L12.7665 17.7001L19.0498 11.4167C19.5332 10.9334 20.3332 10.9334 20.8165 11.4167C21.2998 11.9001 21.2998 12.7167 20.7998 13.2001Z" fill="#EFC74D"/>
</svg>
