<svg width="1603" height="1603" viewBox="0 0 1603 1603" fill="none" xmlns="http://www.w3.org/2000/svg">
<path d="M288.037 506.054V1096.34L210.57 1141.19V461.658L288.037 506.054Z" fill="#1D1D1B"/>
<path d="M1387.97 461.205L1310.51 506.054L799.047 211.138V121.893L1387.97 461.205Z" fill="#1D1D1B"/>
<path d="M1387.97 1141.19L799.494 1480.95V1391.71L1310.95 1096.79L1387.97 1141.19Z" fill="#1D1D1B"/>
<g opacity="0.3">
<path opacity="0.3" d="M799.499 1391.25V1480.5L211.025 1140.73L288.492 1095.89L799.499 1391.25Z" fill="#1D1D1B"/>
</g>
<g opacity="0.3">
<path opacity="0.3" d="M1387.97 461.205V1140.73L1310.5 1095.89V506.054L1387.97 461.205Z" fill="#1D1D1B"/>
</g>
<g opacity="0.3">
<path opacity="0.3" d="M799.499 121.439V210.684L288.492 505.601L211.025 460.752L799.499 121.439Z" fill="#1D1D1B"/>
</g>
<path fill-rule="evenodd" clip-rule="evenodd" d="M799.04 496.993L1001.54 558.151C1004.26 559.51 1006.98 561.775 1008.34 564.493C1009.69 567.212 1010.15 570.836 1008.79 573.554C1007.88 576.725 1006.07 578.99 1003.35 580.802C1000.63 582.614 997.463 583.067 994.292 582.614L799.04 523.722L604.241 582.614C601.07 583.067 597.899 582.614 595.181 580.802C592.463 578.99 590.651 576.725 589.745 573.554C588.839 570.383 588.839 567.212 590.198 564.493C591.557 561.775 593.822 559.51 596.993 558.151L799.04 496.993Z" fill="#1D1D1B"/>
<path fill-rule="evenodd" clip-rule="evenodd" d="M1091.24 594.393C1090.79 591.674 1089.43 588.956 1087.62 587.144C1085.81 585.332 1083.09 583.973 1080.37 583.52C1077.65 583.067 1074.93 583.52 1072.22 584.879C1069.95 586.238 1067.69 588.05 1066.33 590.768L948.995 819.997H649.548L532.216 590.768C530.857 588.503 529.045 586.691 526.78 585.332C524.515 583.973 521.797 583.52 519.078 583.52C516.36 583.973 513.189 584.879 511.377 587.144C509.112 588.956 507.753 591.674 507.3 594.845C496.427 669.141 500.505 744.342 518.625 817.278C547.619 930.986 620.102 1063.72 793.609 1148.44L799.045 1151.15L804.481 1148.44C977.535 1064.17 1050.92 930.986 1079.46 816.825C1098.04 743.889 1102.12 668.235 1091.24 594.393ZM543.995 810.483C530.404 754.309 524.968 696.775 528.592 639.242L630.521 838.117L768.693 1106.31C629.615 1025.67 568.911 910.601 543.995 810.483ZM799.045 1109.02L662.686 845.366H935.404L799.045 1109.02ZM1055 810.483C1029.63 910.601 968.928 1025.67 829.85 1106.31L968.474 838.57L1070.4 639.695C1074.03 696.775 1068.59 754.309 1055 810.483Z" fill="#1D1D1B"/>
</svg>
