<svg width="1603" height="1603" viewBox="0 0 1603 1603" fill="none" xmlns="http://www.w3.org/2000/svg">
<path d="M804.141 121.441C1177.92 120.6 1494.67 427.471 1487.31 819.544C1480.59 1178.6 1183.93 1495.65 786.688 1487.37C430.95 1479.97 110.579 1184.58 121.724 782.158C131.607 424.738 425.315 122.619 804.141 121.441Z" fill="#FCE9F0"/>
<path d="M1136.03 755.033C1190.7 755.033 1230.9 796.204 1230.32 850.791C1229.73 902.56 1186.41 946.759 1134.39 943.647C1076.82 940.198 1041.87 913.073 1041.28 846.249C1040.65 791.578 1079.55 754.865 1136.03 755.033Z" fill="#F85191"/>
<path d="M297.129 850.328C291.536 802.638 336.324 751.542 394.948 754.738C419.732 755.782 443.121 766.491 460.105 784.571C477.089 802.651 486.317 826.663 485.811 851.464C485.305 876.265 475.106 899.881 457.399 917.253C439.692 934.625 415.885 944.372 391.079 944.404C338.048 944.951 297.087 903.947 297.129 850.328Z" fill="#F85191"/>
<path d="M779.622 1133.65C689.289 1130.92 609.133 1112.37 545.463 1049.08C539.783 1043.91 534.666 1038.16 530.197 1031.92C522.501 1019.93 523.342 1007.65 533.814 997.603C544.285 987.552 555.262 988.645 566.574 995.416C570.098 997.675 573.295 1000.41 576.078 1003.53C641.305 1072.38 724.615 1083.44 813.139 1077.84C826.344 1076.96 839.339 1073.64 852.46 1071.83C869.282 1069.35 882.192 1075.57 885.725 1092.86C889.258 1110.14 878.828 1120.74 862.595 1124.52C833.956 1131.04 804.56 1131.88 779.622 1133.65Z" fill="#F85192"/>
<path d="M912.051 778.121C912.051 754.36 911.714 730.599 912.051 706.628C912.513 679.293 928.242 662.723 952.381 663.228C975.553 663.691 991.281 680.26 991.492 705.955C991.856 753.617 991.856 801.166 991.492 848.604C991.492 874.72 973.871 892.929 950.867 892.424C927.864 891.92 912.177 874.089 912.009 847.174C911.925 824.296 912.051 801.208 912.051 778.121Z" fill="#F85192"/>
<path d="M613.881 768.7C613.881 792.461 614.176 816.18 613.881 839.941C613.419 865.594 597.816 882.415 574.981 882.752C550.842 883.13 534.693 866.435 534.482 839.394C534.062 791.872 533.978 744.393 534.482 696.913C534.777 669.746 550.799 653.934 575.612 654.438C598.826 654.985 613.46 671.26 613.923 697.46C614.175 709.32 613.923 721.221 613.923 733.08L613.881 768.7Z" fill="#F85192"/>
<path d="M1087.42 604.688C1109.29 596.908 1129.09 589.086 1149.41 582.862C1162.02 578.993 1169.3 572.306 1172.07 559.059C1177.04 535.298 1183.39 511.832 1188.89 488.197C1190.2 482.73 1190.83 476.044 1197.89 475.876C1208.2 475.581 1204.46 485.086 1205.59 490.09C1210.13 510.486 1217.32 530.294 1221.36 550.564C1225.57 571.591 1236.96 580.591 1255.55 586.353C1270.04 591.337 1284.78 595.548 1299.71 598.969C1303.91 599.768 1310.1 601.198 1309.38 607.926C1308.79 613.604 1303.28 612.679 1299.58 613.688C1279.29 618.489 1259.32 624.557 1239.78 631.855C1236.18 632.903 1232.92 634.869 1230.31 637.561C1227.7 640.252 1225.83 643.575 1224.89 647.205C1218.71 670.041 1211.69 692.666 1205 715.375C1203.74 719.581 1205.59 726.268 1198.06 725.931C1191.92 725.637 1190.24 720.59 1189.65 715.501C1184.98 655.364 1154.62 618.776 1093.52 610.366C1092.42 609.693 1091.03 607.632 1087.42 604.688Z" fill="#F85192"/>
<path d="M867.43 621.762C855.066 622.267 849.136 617.557 847.328 607.842C845.183 595.983 851.071 589.128 861.795 586.1C882.57 580.255 903.471 574.83 924.288 569.278C951.203 562.045 978.117 554.854 1005.03 547.705C1017.23 544.508 1029.59 543.163 1033.59 558.933C1037.41 574.031 1027.41 579.96 1014.58 583.409C968.739 595.394 923.026 607.632 877.229 619.744C873.234 620.795 869.112 621.51 867.43 621.762Z" fill="#F85192"/>
<path d="M655.602 621.51C650.513 620.248 642.355 618.44 634.238 616.295C593.782 605.445 553.284 594.637 512.869 583.493C500.253 580.002 487.09 574.409 492.305 557.924C496.931 543.205 509.463 544.719 522.079 548.125C567.918 560.741 613.926 572.39 659.807 584.797C671.036 587.866 681.844 592.787 678.774 607.632C676.671 617.809 669.522 622.856 655.602 621.51Z" fill="#F85192"/>
</svg>
