<svg width="36" height="36" viewBox="0 0 36 36" fill="none" xmlns="http://www.w3.org/2000/svg">
<rect width="36" height="36" rx="8" fill="#EA4335" fill-opacity="0.15"/>
<path d="M27.0697 11.23C25.4597 11.07 23.8497 10.95 22.2297 10.86V10.85L22.0097 9.55C21.8597 8.63 21.6397 7.25 19.2997 7.25H16.6797C14.3497 7.25 14.1297 8.57 13.9697 9.54L13.7597 10.82C12.8297 10.88 11.8997 10.94 10.9697 11.03L8.92967 11.23C8.50967 11.27 8.20967 11.64 8.24967 12.05C8.28967 12.46 8.64967 12.76 9.06967 12.72L11.1097 12.52C16.3497 12 21.6297 12.2 26.9297 12.73C26.9597 12.73 26.9797 12.73 27.0097 12.73C27.3897 12.73 27.7197 12.44 27.7597 12.05C27.7897 11.64 27.4897 11.27 27.0697 11.23Z" fill="#EA4335"/>
<path d="M25.2297 14.14C24.9897 13.89 24.6597 13.75 24.3197 13.75H11.6797C11.3397 13.75 10.9997 13.89 10.7697 14.14C10.5397 14.39 10.4097 14.73 10.4297 15.08L11.0497 25.34C11.1597 26.86 11.2997 28.76 14.7897 28.76H21.2097C24.6997 28.76 24.8398 26.87 24.9497 25.34L25.5697 15.09C25.5897 14.73 25.4597 14.39 25.2297 14.14ZM19.6597 23.75H16.3297C15.9197 23.75 15.5797 23.41 15.5797 23C15.5797 22.59 15.9197 22.25 16.3297 22.25H19.6597C20.0697 22.25 20.4097 22.59 20.4097 23C20.4097 23.41 20.0697 23.75 19.6597 23.75ZM20.4997 19.75H15.4997C15.0897 19.75 14.7497 19.41 14.7497 19C14.7497 18.59 15.0897 18.25 15.4997 18.25H20.4997C20.9097 18.25 21.2497 18.59 21.2497 19C21.2497 19.41 20.9097 19.75 20.4997 19.75Z" fill="#EA4335"/>
</svg>
