<svg width="90" height="90" viewBox="0 0 90 90" fill="none" xmlns="http://www.w3.org/2000/svg">
<path d="M76.875 38.2125H66.0375C57.15 38.2125 49.9125 30.975 49.9125 22.0875V11.25C49.9125 9.1875 48.225 7.5 46.1625 7.5H30.2625C18.7125 7.5 9.375 15 9.375 28.3875V61.6125C9.375 75 18.7125 82.5 30.2625 82.5H59.7375C71.2875 82.5 80.625 75 80.625 61.6125V41.9625C80.625 39.9 78.9375 38.2125 76.875 38.2125ZM46.5 58.425L39.525 65.4C38.6625 66.2625 37.4625 66.75 36.1875 66.75C34.9125 66.75 33.75 66.2625 32.85 65.4L25.875 58.425C24.3375 56.8875 24.075 54.3 25.3125 52.5L28.5 47.7C29.2875 46.4625 30.9375 45.6 32.4 45.6H39.9375C41.4 45.6 43.0125 46.4625 43.8375 47.7L47.0625 52.5C48.225 54.3 48 56.8875 46.5 58.425Z" fill="#EFC74D"/>
<path d="M65.3633 33.0375C68.9258 33.075 73.8758 33.075 78.1133 33.075C80.2508 33.075 81.3758 30.5625 79.8758 29.0625C74.4758 23.625 64.8008 13.8375 59.2508 8.2875C57.7133 6.75 55.0508 7.8 55.0508 9.9375V23.025C55.0508 28.5 59.7008 33.0375 65.3633 33.0375Z" fill="#EFC74D"/>
</svg>
