<svg width="22" height="22" viewBox="0 0 22 22" fill="none" xmlns="http://www.w3.org/2000/svg">
<path d="M15 11.6916V15.7199C15 19.0768 13.6 20.4196 10.1 20.4196H5.9C2.4 20.4196 1 19.0768 1 15.7199V11.6916C1 8.33461 2.4 6.99183 5.9 6.99183H10.1M15 11.6916C15 8.33461 13.6 6.99183 10.1 6.99183M15 11.6916V14.6648H16.1C19.6 14.6648 21 13.3221 21 9.96512V5.93679C21 2.57984 19.6 1.23706 16.1 1.23706H11.9C8.4 1.23706 7 2.57984 7 5.93679V6.99183H10.1" stroke="#A1A1A5" stroke-width="1.5" stroke-linecap="round" stroke-linejoin="round"/>
</svg>
