<svg width="127" height="127" viewBox="0 0 127 127" fill="none" xmlns="http://www.w3.org/2000/svg">
<g clip-path="url(#clip0_3113_10575)">
<path d="M63.5019 127C28.486 127 0 98.514 0 63.4981C0 28.4822 28.486 0 63.5019 0C98.5178 0 127.015 28.486 127.015 63.4981C127.015 98.5103 98.514 127 63.5019 127ZM63.5019 7.03538C32.365 7.03538 7.03538 32.365 7.03538 63.4981C7.03538 94.6313 32.365 119.965 63.5019 119.965C94.6387 119.965 119.965 94.635 119.965 63.4981C119.965 32.3612 94.635 7.03538 63.5019 7.03538V7.03538Z" fill="url(#paint0_linear_3113_10575)"/>
<path d="M63.912 120.324C32.5805 120.324 7.08984 94.8335 7.08984 63.4982C7.08984 32.1629 32.5805 6.67603 63.912 6.67603C95.2436 6.67603 120.738 32.1666 120.738 63.4982C120.738 94.8298 95.2474 120.324 63.912 120.324ZM63.912 13.7114C36.4595 13.7114 14.114 36.0456 14.114 63.5094C14.114 90.9733 36.4482 113.307 63.912 113.307C91.3759 113.307 113.71 90.9733 113.71 63.5094C113.71 36.0456 91.3684 13.7114 63.912 13.7114V13.7114Z" fill="url(#paint1_linear_3113_10575)"/>
<path d="M63.9156 120.976C32.2246 120.976 6.45312 95.1929 6.45312 63.4981C6.45312 31.8033 32.2246 6.02441 63.9156 6.02441C95.6066 6.02441 121.401 31.8071 121.401 63.4981C121.401 95.1891 95.6104 120.976 63.9156 120.976ZM63.9156 6.9717C32.7487 6.9717 7.37795 32.3313 7.37795 63.5093C7.37795 94.6874 32.7338 120.047 63.9156 120.047C95.0974 120.047 120.453 94.6911 120.453 63.5093C120.453 32.3275 95.0862 6.9717 63.9156 6.9717V6.9717Z" fill="url(#paint2_linear_3113_10575)"/>
<circle cx="63.4992" cy="63.5002" r="50.8" fill="url(#paint3_radial_3113_10575)"/>
<path d="M23.4922 74.5286V55.5719C23.4922 54.9624 23.7071 54.429 24.1368 54.0023C24.5666 53.5756 25.1038 53.3623 25.7177 53.3623H27.8818V70.5971H38.3034V74.5439H23.4922V74.5286Z" fill="white"/>
<path d="M78.1641 74.5311V55.5743C78.1641 54.9648 78.3789 54.4314 78.8087 54.0048C79.2384 53.5781 79.7756 53.3647 80.3896 53.3647H88.2019C90.3967 53.3647 92.0697 53.8219 93.2208 54.721C94.3719 55.7115 94.9552 57.0372 94.9552 58.7287C94.9552 59.7954 94.7249 60.6945 94.2798 61.4412C93.8194 62.1421 93.1901 62.6907 92.3613 63.1022C93.4357 63.5593 94.2645 64.1841 94.8477 65.007C95.3849 65.7842 95.6612 66.8204 95.6612 68.0852C95.6612 70.1424 95.0012 71.7424 93.6813 72.8853C92.3152 73.9977 90.3967 74.5463 87.9103 74.5463H78.1641V74.5311ZM82.3849 61.5326H87.4038C88.4782 61.5326 89.2609 61.3497 89.7674 60.984C90.2586 60.6183 90.5041 60.0392 90.5041 59.2621C90.5041 58.4849 90.2586 57.9058 89.7674 57.5401C89.353 57.2049 88.5549 57.0525 87.3424 57.0525H82.3849V61.5326V61.5326ZM82.3849 70.7062H87.588C88.7391 70.7062 89.6293 70.4776 90.2586 70.0357C90.8418 69.6243 91.1334 68.9233 91.1334 67.948C91.1334 66.9575 90.8418 66.2413 90.2586 65.7994C89.7214 65.388 88.8158 65.1899 87.5266 65.1899H82.3849V70.7062V70.7062Z" fill="white"/>
<path d="M98.0859 74.5311V66.5918C98.0859 64.9918 98.3162 63.6508 98.792 62.5536C99.2678 61.4717 99.9124 60.5878 100.741 59.9326C101.524 59.323 102.445 58.8659 103.504 58.5763C104.563 58.2868 105.637 58.1497 106.758 58.1497C106.835 58.1497 106.942 58.1497 107.065 58.1497C107.188 58.1497 107.295 58.1497 107.372 58.1497V62.5231H105.96C104.762 62.5231 103.872 62.8127 103.289 63.3917C102.706 63.9708 102.414 64.8699 102.414 66.1042V74.5463H98.0859V74.5311Z" fill="white"/>
<path d="M46.0029 65.1426C46.5115 65.1426 46.9238 64.7332 46.9238 64.2283C46.9238 63.7233 46.5115 63.314 46.0029 63.314C45.4943 63.314 45.082 63.7233 45.082 64.2283C45.082 64.7332 45.4943 65.1426 46.0029 65.1426Z" fill="#FBB040"/>
<path d="M49.1201 65.1426C49.6287 65.1426 50.041 64.7332 50.041 64.2283C50.041 63.7233 49.6287 63.314 49.1201 63.314C48.6115 63.314 48.1992 63.7233 48.1992 64.2283C48.1992 64.7332 48.6115 65.1426 49.1201 65.1426Z" fill="#8DC63F"/>
<path d="M52.2334 65.1426C52.742 65.1426 53.1543 64.7332 53.1543 64.2283C53.1543 63.7233 52.742 63.314 52.2334 63.314C51.7248 63.314 51.3125 63.7233 51.3125 64.2283C51.3125 64.7332 51.7248 65.1426 52.2334 65.1426Z" fill="#FFDE17"/>
<path d="M60.0147 55.7105C60.0607 55.6952 60.1068 55.6647 60.1375 55.6495C60.1068 55.68 60.0607 55.7105 60.0147 55.7562C59.9686 55.8019 59.9073 55.8324 59.8459 55.8781C60.4751 55.4971 61.2119 55.0704 61.9486 54.72C62.6853 54.3542 63.4374 54.0647 64.036 53.8514C64.4811 53.7599 64.8801 53.6685 64.9108 53.5923C64.9262 53.5618 64.8494 53.5314 64.7113 53.5161C64.5732 53.5161 64.3736 53.5314 64.1281 53.5618C64.0206 53.5771 63.8978 53.5923 63.8364 53.5923C63.1611 53.638 62.3323 53.8056 61.4574 54.1561C61.6263 54.0952 61.8105 54.0495 61.9793 53.9885C61.8565 54.0342 61.7337 54.0799 61.5956 54.1257C61.4728 54.1714 61.3347 54.2323 61.2119 54.2933C61.2426 54.2933 61.2886 54.2933 61.3193 54.278C61.1044 54.3542 60.8742 54.4609 60.644 54.5828C60.5365 54.6438 60.4138 54.7047 60.3063 54.7809C60.1989 54.8419 60.0914 54.9181 59.984 54.9943C59.8766 55.0704 59.7845 55.1466 59.6924 55.2228C59.6003 55.299 59.5082 55.3752 59.4315 55.4514C59.2626 55.6038 59.1398 55.7562 59.0324 55.8781C58.9863 55.939 58.9403 56 58.925 56.0457C58.8943 56.0914 58.8789 56.1371 58.8789 56.1676C58.8636 56.2286 58.8943 56.2591 58.9557 56.2591C59.017 56.2591 59.1091 56.2133 59.2319 56.1524C59.2933 56.1219 59.3701 56.0762 59.4468 56.0305C59.5235 55.9848 59.6003 55.9238 59.7077 55.8781L60.0147 55.7105Z" fill="url(#paint4_linear_3113_10575)"/>
<path d="M61.5928 55.2223C61.1324 55.4204 60.6873 55.6185 60.2575 55.8624L60.1654 55.8928L60.2575 55.969V55.9538C60.5645 55.6185 61.1938 55.1766 61.8231 54.8566C61.8998 54.8109 61.9766 54.7804 62.0379 54.7347C62.1454 54.6737 62.2068 54.628 62.2221 54.5976C62.2528 54.5214 62.0379 54.5671 61.731 54.689L61.378 54.8566C60.9482 55.0395 60.4264 55.3442 59.9813 55.6795C59.7664 55.8471 59.5669 56.0147 59.4134 56.1824C59.3366 56.2586 59.2599 56.35 59.2138 56.4109C59.1525 56.4871 59.1218 56.5481 59.0911 56.609C59.0297 56.7157 59.1525 56.6852 59.1985 56.7005C59.2138 56.7309 59.2906 56.7157 59.4134 56.6395C59.5362 56.5633 59.6896 56.4567 59.8585 56.3043C60.0427 56.1671 60.1961 56.03 60.3036 55.9233C60.4264 55.8166 60.4878 55.7252 60.4878 55.6947C60.5492 55.649 60.6259 55.6185 60.6873 55.5728C60.6412 55.6185 60.5952 55.649 60.5492 55.6947C60.5799 55.6338 60.6873 55.5423 60.8101 55.4509C60.8715 55.4052 60.9482 55.3442 61.0096 55.2985C61.0863 55.2528 61.1477 55.2071 61.2091 55.1614L61.4087 55.0395C61.4701 54.9938 61.5468 54.9633 61.6082 54.9328C61.5008 54.9176 61.3933 54.9023 61.3012 54.9023L61.1017 55.0395C61.117 55.0395 61.1631 55.0242 61.1631 55.0242C60.7794 55.2833 60.4264 55.5728 60.0427 55.8928C59.8892 56.0452 59.7357 56.1824 59.5822 56.3347C59.4748 56.4719 59.5208 56.4871 59.6743 56.3957C59.751 56.35 59.8278 56.289 59.9045 56.2433C59.8738 56.2586 59.8278 56.289 59.7971 56.3043C60.3189 55.9233 60.8868 55.5728 61.4547 55.3138C61.5468 55.268 61.6542 55.2071 61.6849 55.1766C61.731 55.1919 61.6849 55.1919 61.5928 55.2223Z" fill="url(#paint5_linear_3113_10575)"/>
<path d="M59.7367 56.4875C59.6446 56.5485 59.5678 56.5942 59.4604 56.7009C59.445 56.7314 59.4297 56.7466 59.4297 56.7466C59.4757 56.7161 59.5371 56.6704 59.5985 56.6399C59.7213 56.5637 59.7674 56.5028 59.7367 56.4875Z" fill="url(#paint6_linear_3113_10575)"/>
<path d="M59.4508 56.7432C59.403 56.7751 59.3711 56.7911 59.3711 56.7911C59.387 56.7751 59.403 56.7751 59.4189 56.7591C59.4349 56.7591 59.4349 56.7591 59.4508 56.7432C59.4349 56.7591 59.4349 56.7591 59.4508 56.7432Z" fill="url(#paint7_linear_3113_10575)"/>
<path d="M61.6091 57.0355C61.6398 56.9288 61.6705 56.8374 61.7012 56.7307C61.6551 56.8374 61.6244 56.9441 61.5938 57.0355H61.6091Z" fill="url(#paint8_linear_3113_10575)"/>
<path d="M62.5053 55.5574C62.4286 55.5574 62.3672 55.5726 62.3672 55.5726C62.4286 55.5574 62.4746 55.5574 62.5053 55.5574Z" fill="url(#paint9_linear_3113_10575)"/>
<path d="M60.5184 56.2595C60.4862 56.2755 60.454 56.2755 60.4219 56.2914C60.4862 56.2755 60.5023 56.2755 60.5184 56.2595Z" fill="url(#paint10_linear_3113_10575)"/>
<path d="M64.7117 54.3683C64.2206 54.414 63.6987 54.536 63.2383 54.6426C63.3764 54.6121 63.4992 54.6121 63.622 54.5969C63.7448 54.5969 63.8522 54.5817 63.9597 54.5969C64.1285 54.5512 64.328 54.5055 64.5122 54.475C64.635 54.4598 64.7731 54.4293 64.8959 54.414C65.0187 54.3988 65.1568 54.3836 65.2796 54.3683C65.5252 54.3531 65.7861 54.3378 66.0317 54.3378C65.9703 54.3074 66.0931 54.3074 66.1391 54.3074C66.2005 54.3074 66.2619 54.3074 66.3233 54.3074C65.7861 54.3074 65.2489 54.3226 64.7117 54.3683Z" fill="url(#paint11_linear_3113_10575)"/>
<path d="M59.9925 56.5967C59.9758 56.6134 59.9425 56.6301 59.9258 56.6467C59.9591 56.6467 59.9925 56.6301 59.9925 56.5967Z" fill="url(#paint12_linear_3113_10575)"/>
<path d="M60.0159 56.4905C60.0159 56.4426 60.0316 56.4106 60.0316 56.4106C59.9844 56.5064 59.9844 56.5064 59.9844 56.5064C59.9844 56.5064 60.0001 56.4905 60.0159 56.4905Z" fill="url(#paint13_linear_3113_10575)"/>
<path d="M65.2461 54.5381C65.2614 54.5381 65.2768 54.5381 65.2921 54.5381C65.4763 54.5686 65.6605 54.599 65.6605 54.599C65.4149 54.5381 65.4149 54.5381 65.4149 54.5381C65.3689 54.5381 65.3075 54.5381 65.2461 54.5381Z" fill="url(#paint14_linear_3113_10575)"/>
<path d="M51.5027 53.9267C51.5641 53.9419 51.6254 53.9724 51.6868 53.9876C51.6254 53.9876 51.5487 53.9724 51.472 53.9419C51.3799 53.9267 51.2878 53.9114 51.1957 53.881C51.4413 53.9419 51.6868 54.0181 51.9478 54.0943C52.1933 54.1705 52.4543 54.2619 52.7152 54.3534C53.237 54.5362 53.7589 54.7648 54.25 55.0086C54.7412 55.2524 55.217 55.5267 55.6467 55.8163C56.0765 56.1058 56.4602 56.3953 56.7978 56.6544C57.0127 56.8677 57.2276 57.0811 57.3811 57.2335C57.4578 57.3096 57.5346 57.3706 57.596 57.4163C57.6574 57.462 57.6881 57.4925 57.7187 57.4925C57.8108 57.4925 57.5806 57.0811 57.1355 56.6239C57.0434 56.5172 56.936 56.3953 56.8592 56.3191C56.5676 55.9687 56.2146 55.6029 55.7849 55.2524C55.6774 55.161 55.57 55.0696 55.4472 54.9934C55.3244 54.902 55.217 54.8258 55.0942 54.7343C54.9714 54.6581 54.8486 54.5667 54.7105 54.4905C54.5877 54.4143 54.4495 54.3381 54.3114 54.2619C54.4189 54.3229 54.5263 54.3838 54.6184 54.46C54.7258 54.5362 54.8179 54.5972 54.9253 54.6734C54.7719 54.5819 54.6184 54.4753 54.4649 54.3838C54.2961 54.2924 54.1426 54.201 53.9584 54.1248C53.9891 54.1553 54.0351 54.1857 54.0658 54.2162C53.5286 53.9114 52.8226 53.6372 52.1473 53.4695C51.472 53.3019 50.8273 53.2714 50.3976 53.2867C49.9678 53.3171 49.8297 53.3933 49.9371 53.4695C50.0599 53.561 50.4283 53.6372 50.9962 53.7743C51.165 53.8353 51.3338 53.881 51.5027 53.9267Z" fill="url(#paint15_linear_3113_10575)"/>
<path d="M53.4732 54.9779C52.8746 54.6579 52.2607 54.4141 51.616 54.216L51.4933 54.1703L51.5086 54.2922H51.5239C52.1532 54.3226 53.1509 54.5969 54.0104 55.0084C54.1178 55.0541 54.2099 55.0998 54.3174 55.1455C54.4708 55.2065 54.5629 55.2522 54.609 55.2522C54.655 55.2522 54.6243 55.2065 54.5322 55.1303C54.4862 55.0998 54.4248 55.0389 54.348 54.9931C54.2713 54.9474 54.1792 54.9017 54.0871 54.8408C53.9336 54.7493 53.7802 54.6884 53.6267 54.6122C53.0588 54.3226 52.276 54.0484 51.5393 53.9112C50.8026 53.7741 50.1272 53.7741 49.7742 53.8503C49.6208 53.896 49.7589 53.9417 49.7896 54.0026C49.7589 54.0331 49.8663 54.0636 50.0505 54.1093C50.1426 54.1245 50.25 54.155 50.3882 54.1703C50.511 54.1855 50.6491 54.216 50.8026 54.2312C51.4012 54.3226 51.923 54.3988 51.9844 54.3379C52.0765 54.3684 52.1839 54.3988 52.2914 54.4446C52.2146 54.4293 52.1225 54.4141 52.0458 54.3988C52.1379 54.3988 52.3221 54.4141 52.5369 54.475C52.7518 54.5207 52.982 54.5969 53.1816 54.6579C53.3811 54.7188 53.5806 54.8103 53.7648 54.8865L53.5039 54.5817C53.3965 54.5512 53.289 54.5055 53.1816 54.475C53.1969 54.4903 53.243 54.5207 53.243 54.5207C52.629 54.3379 52.0611 54.2007 51.3705 54.1093L50.9407 54.0636L50.511 54.0331C50.3882 54.0331 50.3421 54.0484 50.3421 54.0788C50.3421 54.0941 50.4189 54.1245 50.5417 54.155L50.91 54.2312C50.8486 54.216 50.8026 54.2007 50.7412 54.1855C51.6007 54.3226 52.4755 54.5969 53.243 54.9627C53.3658 55.0236 53.5192 55.0846 53.5806 55.0998C53.642 55.0693 53.596 55.0389 53.4732 54.9779Z" fill="url(#paint16_linear_3113_10575)"/>
<path d="M50.5288 54.1996C50.3907 54.1691 50.2526 54.1539 50.053 54.1387C50.007 54.1387 49.9763 54.1387 49.9609 54.1387C50.0377 54.1539 50.1298 54.1691 50.2372 54.1844C50.4367 54.2301 50.5288 54.2301 50.5288 54.1996Z" fill="url(#paint17_linear_3113_10575)"/>
<path d="M49.9758 54.1373C49.9115 54.1213 49.8633 54.1213 49.8633 54.1213C49.8954 54.1213 49.9115 54.1373 49.9437 54.1373C49.9598 54.1373 49.9598 54.1373 49.9598 54.1373C49.9598 54.1373 49.9598 54.1373 49.9758 54.1373Z" fill="url(#paint18_linear_3113_10575)"/>
<path d="M43.0378 72.316C41.9634 71.4778 41.0425 70.4111 40.3825 69.2225C39.7072 68.0339 39.2774 66.7082 39.124 65.3519C39.1086 65.2605 39.0933 65.1843 39.0779 65.1843C39.0626 65.1843 39.0626 65.2453 39.0779 65.3367C39.2314 66.6929 39.6612 68.0187 40.3211 69.2073C40.9965 70.3959 41.902 71.4626 42.9764 72.316C43.0531 72.3769 43.1145 72.4074 43.1299 72.4074C43.1606 72.4074 43.1145 72.3617 43.0378 72.316Z" fill="#1C75BC"/>
<path d="M44.8336 56.0104C44.7876 56.0409 44.7876 56.0561 44.849 56.0256C44.895 56.0104 44.9871 55.9647 45.0331 55.9342C45.0792 55.9037 45.0638 55.8885 45.0178 55.919C44.941 55.9342 44.8643 55.9647 44.8336 56.0104Z" fill="url(#paint19_linear_3113_10575)"/>
<path d="M62.5342 65.1426C63.0428 65.1426 63.4551 64.7332 63.4551 64.2283C63.4551 63.7233 63.0428 63.314 62.5342 63.314C62.0256 63.314 61.6133 63.7233 61.6133 64.2283C61.6133 64.7332 62.0256 65.1426 62.5342 65.1426Z" fill="#1C75BC"/>
<path d="M65.6514 65.1426C66.16 65.1426 66.5723 64.7332 66.5723 64.2283C66.5723 63.7233 66.16 63.314 65.6514 63.314C65.1428 63.314 64.7305 63.7233 64.7305 64.2283C64.7305 64.7332 65.1428 65.1426 65.6514 65.1426Z" fill="#EE2A7B"/>
<path d="M68.7647 65.1426C69.2733 65.1426 69.6856 64.7332 69.6856 64.2283C69.6856 63.7233 69.2733 63.314 68.7647 63.314C68.2561 63.314 67.8438 63.7233 67.8438 64.2283C67.8438 64.7332 68.2561 65.1426 68.7647 65.1426Z" fill="#92278F"/>
<path d="M51.4841 54.6602C51.4359 54.6283 51.4037 54.6283 51.3555 54.6123C51.4841 54.6602 51.4841 54.6602 51.4841 54.6602Z" fill="url(#paint20_linear_3113_10575)"/>
<path d="M51.75 55.9987L51.7807 56.0139C51.8421 55.9987 51.9035 55.9682 51.9649 55.9529L52.1491 55.9072L51.9495 55.9529L51.75 55.9987Z" fill="url(#paint21_linear_3113_10575)"/>
<path d="M53.8555 55.8625C53.9169 55.9083 53.9476 55.954 53.9936 55.9845C53.9476 55.954 53.9169 55.9083 53.9015 55.893C53.8708 55.8778 53.8555 55.8625 53.8555 55.8625Z" fill="url(#paint22_linear_3113_10575)"/>
<path d="M55.4414 56.2273C55.7177 56.4864 55.9019 56.7302 56.0707 56.9435C56.1628 57.0197 56.2549 57.1111 56.347 57.2026C56.439 57.294 56.5311 57.3854 56.6232 57.4769C57.099 57.995 57.4981 58.5436 57.8358 59.1226C57.8204 59.0312 57.8971 59.1683 57.9432 59.2445C57.9892 59.3207 58.0353 59.3817 58.0813 59.4579C57.759 58.8178 57.36 58.2083 56.8995 57.6445C56.4544 57.1416 55.9172 56.6387 55.4414 56.2273Z" fill="url(#paint23_linear_3113_10575)"/>
<path d="M49.0302 74.1639C48.9534 74.1487 48.846 74.1487 48.7539 74.1487C48.846 74.1487 48.9381 74.1639 49.0302 74.1639Z" fill="url(#paint24_linear_3113_10575)"/>
<path d="M57.2712 58.5411C57.2252 58.4649 57.1945 58.404 57.1484 58.343C57.1638 58.3583 57.1638 58.3735 57.1791 58.404C57.2252 58.5106 57.2866 58.6326 57.3173 58.7087C57.3633 58.7849 57.3787 58.8459 57.3787 58.8459C57.3173 58.6935 57.2866 58.6173 57.2712 58.5716C57.2712 58.5411 57.2712 58.5411 57.2712 58.5411Z" fill="url(#paint25_linear_3113_10575)"/>
<path d="M50.3973 74.1649C50.9498 74.1191 51.5023 74.0277 52.0395 73.9058C52.3772 73.8144 52.7149 73.6925 53.0525 73.5706C52.3618 73.8144 51.6558 73.982 50.9344 74.0734C50.3052 74.1649 49.6759 74.1801 49.0466 74.1649C49.0466 74.1649 49.0312 74.1649 49.0312 74.1801C49.4917 74.1953 49.9368 74.1953 50.3973 74.1649Z" fill="#662D91"/>
<path d="M59.841 62.5546C59.8257 62.6003 59.8103 62.6461 59.795 62.6918C59.7796 62.5241 59.7643 62.4022 59.7643 62.2651C59.7643 62.2041 59.7489 62.1279 59.7489 62.0518C59.7336 61.9756 59.7182 61.8994 59.7029 61.8079C59.7029 61.9146 59.7182 62.006 59.7182 62.1127V62.0975C59.7029 61.8994 59.6568 61.686 59.6108 61.4727C59.5494 61.2441 59.5034 61.0155 59.4113 60.787C59.2885 60.2688 59.0889 59.6898 58.8127 59.1107C58.5364 58.5316 58.168 57.9526 57.7383 57.404C57.3085 56.8554 56.802 56.3373 56.2495 55.8801C55.697 55.423 55.0984 55.042 54.4844 54.722C54.3003 54.6306 54.1161 54.5544 54.0854 54.5544C54.0547 54.5696 54.1775 54.6458 54.3617 54.7525C55.0677 55.1639 55.6509 55.6363 56.2802 56.2002C57.4467 57.2821 58.2755 58.5316 58.9048 60.0098C58.9355 60.1012 58.9662 60.1926 58.9969 60.2841C59.0276 60.4212 59.0583 60.5431 59.089 60.6803C59.089 60.665 59.0736 60.6498 59.0736 60.6193C59.0122 60.4517 58.9662 60.2841 58.9048 60.1165C58.9201 60.1469 58.9201 60.1774 58.9201 60.2079C58.6592 59.5679 58.3522 58.9431 57.9685 58.3793C57.6309 57.8154 57.2165 57.2668 56.7253 56.764C56.2342 56.2611 55.6663 55.7887 55.0677 55.4077C54.4537 55.0115 53.8091 54.6915 53.1491 54.463C52.4892 54.2344 51.8138 54.082 51.1845 54.021C50.9543 53.9753 50.7855 53.9906 50.8162 54.021C50.8315 54.0363 50.8929 54.0515 50.9697 54.082C51.0464 54.0972 51.1538 54.1277 51.2613 54.1429C52.4892 54.402 53.671 54.9049 54.6072 55.5449C54.6379 55.5754 54.5612 55.5601 54.6226 55.6058C54.6533 55.6363 54.684 55.6668 54.73 55.6973C54.6226 55.6058 54.4844 55.5297 54.3463 55.4535C54.2849 55.423 54.2082 55.3925 54.1621 55.362C54.1007 55.3316 54.0547 55.3163 53.9933 55.2858C53.8859 55.2401 53.8091 55.2096 53.7324 55.1792C53.5942 55.1182 53.5021 55.0877 53.4254 55.0725C53.4254 55.0725 53.4254 55.0725 53.3794 55.0573C53.318 55.0268 53.2566 55.0115 53.1645 54.9811C53.1491 54.9811 53.1338 54.9658 53.1031 54.9658C53.0263 54.9354 52.9343 54.8896 52.8575 54.8592C52.7654 54.8134 52.6733 54.7982 52.6119 54.783C52.5812 54.7677 52.5506 54.7373 52.5045 54.722C52.3817 54.6763 52.2896 54.6458 52.2129 54.6153C52.1361 54.5849 52.0748 54.5696 52.0134 54.5544C51.8906 54.5087 51.7678 54.4782 51.5069 54.4172C51.5069 54.4172 51.5069 54.4325 51.5222 54.4477C51.5069 54.4477 51.4608 54.4325 51.3994 54.4172C51.3227 54.402 51.2306 54.3868 51.1385 54.3715C51.0464 54.3563 50.985 54.341 50.9083 54.3258C50.8162 54.3106 50.6934 54.2953 50.4478 54.2496C50.4478 54.2496 50.4478 54.2496 50.678 54.3106C50.678 54.3106 50.6781 54.3106 50.4785 54.2649C50.4785 54.2649 50.4785 54.2649 50.5246 54.3106C50.5246 54.3106 50.5246 54.3106 50.4325 54.2649C50.4325 54.2649 50.4325 54.2649 50.4171 54.2649C50.4018 54.2649 50.3864 54.2649 50.3404 54.2801C50.3404 54.2801 50.3404 54.2801 49.926 54.1582C49.8953 54.1582 49.8185 54.1582 49.619 54.1582C49.619 54.1582 49.5576 54.1582 49.5269 54.1734C49.5269 54.1887 49.5269 54.1887 49.3581 54.2191C49.3581 54.2191 49.3581 54.2344 49.3734 54.2496C49.4195 54.2649 49.4195 54.2649 49.4348 54.2953C49.4348 54.2953 49.4962 54.3106 49.573 54.3258C49.6497 54.341 49.6651 54.3258 49.9567 54.3715C49.926 54.3715 49.9106 54.3868 49.8799 54.3868C49.8185 54.4477 49.8185 54.4477 50.1716 54.6153C50.1716 54.6153 50.2176 54.6306 50.3097 54.6458C50.4018 54.6611 50.5246 54.7068 50.678 54.7373C50.8622 54.7677 50.9543 54.7982 51.0464 54.8134C51.1385 54.8287 51.2459 54.8592 51.4608 54.9049C51.4608 54.9049 51.5529 54.9354 51.7064 54.9811C51.8138 55.0268 51.8445 55.042 51.9213 55.0877C51.8445 55.0725 51.7678 55.042 51.7064 55.042C51.5222 55.0115 51.4762 55.042 51.6296 55.103C51.3994 55.1487 51.5069 55.2554 51.7371 55.4077C51.6603 55.423 51.6143 55.4382 51.6143 55.4839C51.3073 55.4992 51.1078 55.5449 51.0157 55.6211L50.9697 55.6973C51.0464 55.7735 51.2613 55.8801 51.5836 56.0173L51.6757 56.063L51.5683 56.0935C51.7524 56.2306 52.0441 56.3983 52.3203 56.5964C52.3971 56.6421 52.4585 56.6878 52.5352 56.7487C52.5966 56.7945 52.6733 56.8554 52.7347 56.9011C52.8575 56.9926 52.9803 57.1145 53.0724 57.2059C53.1184 57.2516 53.1645 57.2973 53.2105 57.3278L53.3487 57.4649C53.5482 57.6631 53.8859 57.9373 54.2542 58.2726C54.377 58.3945 54.5151 58.5164 54.6379 58.6383C54.7147 58.7145 54.7914 58.7907 54.8682 58.8669C54.7607 58.7755 54.6533 58.7145 54.5612 58.6536C54.4691 58.5926 54.377 58.5621 54.3156 58.5469C54.1775 58.5012 54.1007 58.5164 54.1007 58.6078C54.1007 58.745 54.3003 59.0193 54.5612 59.4002C54.8375 59.7812 55.1751 60.2688 55.4821 60.8022C55.8811 61.5184 56.1574 62.2956 56.2802 63.1032C56.403 63.9109 56.3876 64.7337 56.2342 65.5414C56.0807 66.3338 55.7737 67.1109 55.344 67.8272C54.9142 68.5434 54.3463 69.1834 53.6863 69.7167C53.4254 69.9148 53.1645 70.1129 52.8882 70.2653C51.952 71.8044 50.632 73.1302 49.0358 74.1664C49.6651 74.1816 50.2943 74.1664 50.9236 74.075C51.645 73.9683 52.351 73.8007 53.0417 73.5721C52.7194 73.7092 52.3817 73.8159 52.0287 73.9073C51.4915 74.0445 50.939 74.1207 50.3864 74.1664C49.926 74.1969 49.4655 74.1969 49.0051 74.1664C48.9744 74.1816 48.9437 74.2121 48.913 74.2273C49.0051 74.2273 49.0972 74.2426 49.1893 74.2426C49.6958 74.2578 50.2176 74.2426 50.7241 74.1816C50.0948 74.2731 49.4655 74.3035 48.8362 74.2883C48.7749 74.334 48.6981 74.3645 48.6367 74.4102C49.4655 74.4559 50.2943 74.4254 51.1078 74.2731C51.952 74.1207 52.7808 73.8769 53.5635 73.5264C54.024 73.4197 54.7147 73.1454 55.436 72.7035C55.8044 72.4902 56.1574 72.2159 56.5104 71.9263C56.6793 71.7739 56.8634 71.6216 57.0169 71.4539C57.0937 71.3777 57.1858 71.2863 57.2625 71.2101C57.3392 71.1187 57.416 71.0425 57.4927 70.9511C57.9225 70.4482 58.2601 69.9148 58.5518 69.3662C58.475 69.4882 58.3983 69.6101 58.3215 69.732C58.2448 69.8539 58.1681 69.9758 58.076 70.0825C58.1987 69.8996 58.3062 69.732 58.3983 69.5644C58.4904 69.3815 58.5825 69.2139 58.6592 69.0462C58.8127 68.711 58.9508 68.3757 59.0583 68.0253C59.089 67.9643 59.1043 67.9186 59.135 67.8576C59.488 67.1109 59.7182 66.2271 59.841 65.3128C59.9792 64.3832 59.9485 63.4385 59.841 62.5546ZM50.5553 54.4477C50.586 54.4477 50.6167 54.463 50.6627 54.463C50.632 54.4782 50.586 54.4782 50.5553 54.4477ZM50.7855 54.402C50.7701 54.402 50.7548 54.3868 50.7241 54.3868C50.7241 54.3868 50.7241 54.3868 50.8622 54.3563C50.8622 54.3715 50.8315 54.3868 50.7855 54.402ZM51.3534 54.6001C51.3994 54.6153 51.4301 54.6306 51.4762 54.6458C51.4762 54.6611 51.4762 54.6611 51.3534 54.6001ZM51.952 55.9563C51.8906 55.9716 51.8292 55.9868 51.7678 56.0173L51.7371 56.0021L51.952 55.9563L52.1361 55.9106L51.952 55.9563ZM53.9933 56.0021C53.9626 55.9716 53.9166 55.9259 53.8552 55.8801C53.8552 55.8801 53.8705 55.8954 53.9012 55.9106C53.9166 55.9259 53.9473 55.9563 53.9933 56.0021ZM57.3239 58.7145C57.2778 58.6231 57.2318 58.5164 57.1858 58.4097C57.1704 58.3793 57.1704 58.364 57.1551 58.3488C57.1858 58.4097 57.2318 58.4707 57.2778 58.5469C57.2778 58.5469 57.2778 58.5469 57.2932 58.5926C57.3085 58.6383 57.3392 58.7145 57.4006 58.8669C57.3853 58.8517 57.3699 58.7907 57.3239 58.7145ZM57.9378 59.2631C57.8918 59.1869 57.815 59.0498 57.8304 59.1412C57.4927 58.5621 57.0937 57.9983 56.6179 57.4954C56.5258 57.404 56.4337 57.3126 56.3416 57.2211C56.2495 57.1297 56.1574 57.0535 56.0653 56.9621C55.8965 56.7335 55.7123 56.5049 55.436 56.2459C55.9272 56.6573 56.449 57.1602 56.8634 57.6783C57.3239 58.2421 57.7229 58.8517 58.0453 59.4917C58.0299 59.4002 57.9839 59.3241 57.9378 59.2631Z" fill="url(#paint26_linear_3113_10575)"/>
<path d="M50.6711 54.4623C50.639 54.4623 50.6068 54.4463 50.5586 54.4463C50.5908 54.4782 50.639 54.4782 50.6711 54.4623Z" fill="url(#paint27_linear_3113_10575)"/>
<path d="M50.7997 54.3978C50.8457 54.3673 50.8764 54.3521 50.8764 54.3521C50.7383 54.3825 50.7383 54.3825 50.7383 54.3825C50.7536 54.3978 50.7843 54.3978 50.7997 54.3978Z" fill="url(#paint28_linear_3113_10575)"/>
<path d="M69.5821 72.6856L69.4593 72.7314L69.3979 72.7466C69.3212 72.8228 69.2444 72.8837 69.1523 72.9599C69.4133 72.8685 69.6588 72.7771 69.9044 72.6704C69.7663 72.7009 69.6588 72.7009 69.5821 72.6856Z" fill="url(#paint29_linear_3113_10575)"/>
<path d="M72.2829 68.3725C71.8071 69.1344 71.1931 69.8201 70.4718 70.3992C70.1648 70.643 69.8578 70.8411 69.5662 71.0392C69.2592 71.2221 68.9523 71.3897 68.6453 71.5421C68.016 71.8316 67.3714 72.0754 66.65 72.1974C66.604 72.1974 66.604 72.2126 66.6347 72.2278C66.6654 72.2278 66.7268 72.2278 66.7728 72.2278C67.9393 72.0907 69.0597 71.6792 70.042 71.0849C70.5332 70.7802 71.009 70.4297 71.4387 70.0335C71.5768 69.9116 71.715 69.7744 71.8378 69.6373C72.0833 69.1496 72.2829 68.6468 72.4517 68.1287C72.375 68.2049 72.3289 68.2963 72.2829 68.3725Z" fill="url(#paint30_linear_3113_10575)"/>
<path d="M71.4214 70.3413C71.053 70.6308 70.6693 70.8747 70.2549 71.088L70.0861 71.1642C69.9786 71.2099 69.8712 71.2709 69.7945 71.3318C69.7024 71.3928 69.641 71.4385 69.5949 71.4842C69.5642 71.5147 69.5489 71.5299 69.5489 71.5452C69.1652 71.728 68.7815 71.8804 68.3671 72.0175C67.968 72.1395 67.5383 72.2309 67.1239 72.2918C66.2797 72.429 65.4355 72.429 64.6067 72.3376C64.53 72.3223 64.4839 72.3376 64.4839 72.3528C64.4532 72.3376 64.4072 72.3376 64.3765 72.3223C64.2844 72.3223 64.177 72.3071 64.0695 72.2766C63.9621 72.2614 63.8547 72.2461 63.7319 72.2156C63.6858 72.2004 63.6551 72.2004 63.6705 72.2156C63.6858 72.2309 63.7472 72.2614 63.7933 72.2614C63.916 72.2918 64.0235 72.3071 64.1463 72.3223C64.2537 72.3376 64.3765 72.3528 64.4839 72.368C64.5146 72.368 64.53 72.368 64.53 72.368C64.576 72.3833 64.6528 72.4137 64.7295 72.4137C65.1593 72.4747 65.5737 72.5052 66.0034 72.5052C66.4178 72.5052 66.8476 72.4747 67.262 72.3985C67.6764 72.3376 68.0755 72.2309 68.4745 72.109C68.8736 71.9871 69.2573 71.8347 69.6563 71.6671C69.288 71.8652 68.9043 72.0328 68.4899 72.1699C68.0755 72.3071 67.6457 72.4137 67.2006 72.4899C66.6634 72.5814 66.1262 72.6118 65.589 72.6118C65.0518 72.5966 64.5146 72.5357 63.9774 72.4137C63.916 72.3985 63.8853 72.3985 63.8853 72.4137C63.8853 72.429 63.9314 72.4442 63.9928 72.4595C65.1132 72.7338 66.2336 72.7338 67.2927 72.5357C68.3517 72.3376 69.3801 71.9718 70.3777 71.408C70.4545 71.3623 70.5312 71.3166 70.6079 71.2709C70.04 71.6975 69.4261 72.0785 68.7508 72.3528C67.7071 72.688 66.602 72.81 65.4969 72.749C64.4072 72.688 63.3175 72.4137 62.3198 71.9566C62.2277 71.9109 62.1356 71.8804 62.1356 71.8956C62.1356 71.9109 62.197 71.9718 62.3045 72.0175C63.4096 72.5966 64.6681 72.9471 65.942 73.0233C65.8499 73.0233 65.7578 73.0385 65.6658 73.0385L65.4048 73.0233C64.576 72.9471 63.7626 72.7642 62.9951 72.4747C62.7035 72.3528 62.458 72.2918 62.4119 72.3376C62.3812 72.3833 62.5807 72.5204 62.857 72.6423C62.811 72.6271 62.7649 72.6119 62.7189 72.5966C62.6728 72.5814 62.6421 72.5814 62.6421 72.5814C62.6575 72.5966 62.7189 72.6271 62.7649 72.6423C62.9338 72.7033 63.1026 72.749 63.2714 72.7947C64.7909 73.3433 66.4639 73.4347 68.0601 73.1147C66.3718 73.5109 64.5146 73.4043 62.8263 72.7642C62.857 72.7642 62.8724 72.7642 62.8263 72.7338C62.7956 72.7185 62.7189 72.688 62.6882 72.6728C62.6421 72.6576 62.6421 72.6728 62.6882 72.7033C62.2431 72.5204 61.798 72.3071 61.3989 72.048C60.9845 71.789 60.5855 71.5147 60.2171 71.1947C60.171 71.1642 60.125 71.1337 60.125 71.149C60.125 71.1642 60.1557 71.1947 60.2017 71.2404C61.4296 72.2918 62.9491 72.9928 64.5146 73.2519C66.0802 73.5262 67.7071 73.3585 69.1498 72.8252L69.3801 72.749L69.4415 72.7338C70.2089 72.0175 70.8842 71.2099 71.4214 70.3413Z" fill="url(#paint31_linear_3113_10575)"/>
<path d="M66.7145 73.4607C65.7936 73.5065 64.8727 73.415 63.9672 73.1864C63.8444 73.156 63.7216 73.1407 63.7216 73.156C63.7063 73.1712 63.8137 73.2169 63.9518 73.2626C64.1667 73.3084 64.3969 73.3693 64.6272 73.3998C64.5351 73.3998 64.4583 73.3998 64.3969 73.415C64.3355 73.4303 64.3049 73.4303 64.2895 73.4607C64.2742 73.5065 64.3509 73.5674 64.5044 73.6284C63.9979 73.5522 63.4914 73.4455 63.0002 73.3084C62.5091 73.156 62.0333 72.9731 61.5728 72.775C61.5114 72.7445 61.4808 72.7445 61.4961 72.7598C61.5114 72.775 61.5575 72.8055 61.6189 72.836C62.2789 73.1712 62.9695 73.415 63.6909 73.5979C64.3969 73.7655 65.1183 73.8569 65.855 73.8722C66.5918 73.9331 67.3438 73.9331 68.0959 73.8112C68.4796 73.5522 68.848 73.2626 69.1856 72.9579C68.3722 73.2322 67.5587 73.3998 66.7145 73.4607Z" fill="url(#paint32_linear_3113_10575)"/>
<path d="M67.2891 74.085C66.0613 74.2374 64.818 74.1916 63.6055 73.9021C62.393 73.6278 61.2265 73.125 60.1828 72.424C60.0447 72.3325 59.9373 72.2564 59.8452 72.2106C59.7531 72.1649 59.707 72.1497 59.707 72.1802C59.707 72.2411 59.9219 72.4545 60.1828 72.6373C61.1958 73.3383 62.2856 73.8259 63.4367 74.1002C64.5878 74.3745 65.7696 74.4659 66.9975 74.3288C67.0896 74.3136 67.1817 74.2983 67.2738 74.2983C67.4426 74.2069 67.5961 74.1002 67.7649 73.9935C67.6114 74.0393 67.458 74.0545 67.2891 74.085Z" fill="url(#paint33_linear_3113_10575)"/>
<path d="M63.1086 72.8855C63.1546 72.9008 63.1546 72.8855 63.1086 72.855C63.0779 72.8398 63.0165 72.8093 62.9705 72.8093C62.9398 72.8093 62.9244 72.8093 62.9705 72.8398C63.0012 72.855 63.0779 72.8703 63.1086 72.8855Z" fill="url(#paint34_linear_3113_10575)"/>
<path d="M44.0271 72.9133C44.0271 72.9438 44.0271 72.9743 44.0117 73.0048L44.2573 73.1419L44.3954 73.2181L44.5336 73.2943L44.8252 73.4314C45.2089 73.6143 45.6079 73.7819 46.0224 73.9038C46.4368 74.041 46.8512 74.1477 47.2656 74.2238C47.6953 74.3 48.1097 74.361 48.5395 74.3915C48.5702 74.3915 48.6009 74.3915 48.6316 74.3915C48.693 74.3458 48.7697 74.3153 48.8311 74.2696C47.1581 74.2086 45.4852 73.7362 44.0271 72.9133Z" fill="url(#paint35_linear_3113_10575)"/>
<path d="M50.3252 71.1929L50.095 71.2233L49.8648 71.2386L49.7573 71.2538H49.6345L49.4043 71.269C49.3276 71.269 49.2508 71.269 49.1741 71.269C49.0973 71.269 49.0206 71.269 48.9439 71.269C48.7904 71.2538 48.6369 71.2538 48.4834 71.2386C48.1764 71.2081 47.8695 71.1471 47.5625 71.0862L47.3323 71.0252L47.2248 70.9948L47.1174 70.9643C47.0407 70.9338 46.9639 70.9186 46.8872 70.8881C46.8104 70.8576 46.7337 70.8271 46.6723 70.7967L46.5649 70.7662L46.4574 70.7205L46.2426 70.629L46.043 70.5376C45.9663 70.5071 45.9049 70.4766 45.8435 70.4309L45.644 70.3243C45.5826 70.2938 45.5058 70.2481 45.4444 70.2176C45.3063 70.1414 45.1835 70.0652 45.0607 69.9738C44.5542 69.6385 44.0938 69.2423 43.6794 68.7852C43.2803 68.328 42.912 67.8404 42.6203 67.307C42.3287 66.7737 42.0985 66.1946 41.945 65.6003C41.6841 64.5946 41.6227 63.6345 41.6841 62.7202C41.7148 62.2631 41.7915 61.8059 41.9143 61.3488C42.0371 60.8916 42.1906 60.4497 42.4055 60.0078C42.4362 59.9621 42.4208 59.9468 42.4055 59.9621C42.3748 59.9925 42.3287 60.0687 42.3134 60.1144C41.592 61.5164 41.3004 63.1012 41.4692 64.6708C41.6227 66.2251 42.252 67.7489 43.2803 68.9985C43.5105 69.288 43.7715 69.5623 44.0324 69.8061C44.0631 69.8366 44.0938 69.8671 44.1245 69.8976C44.3701 70.1262 44.6156 70.3395 44.8919 70.5376C44.7998 70.4766 44.7077 70.4157 44.6156 70.3395C44.5235 70.2633 44.4314 70.2023 44.3701 70.1719C44.3087 70.1262 44.2473 70.1109 44.2319 70.1109C44.2166 70.1262 44.2319 70.1566 44.278 70.2023C43.9403 69.9433 43.618 69.6538 43.3264 69.349C43.0347 69.0442 42.7585 68.709 42.5129 68.3737C42.3748 68.1604 42.252 67.9623 42.1445 67.7947C41.7148 66.8956 41.4692 65.9356 41.3925 64.9603L41.3771 64.7165C41.3618 64.3965 41.3464 64.0765 41.3004 63.9241C41.285 63.8784 41.2697 63.8479 41.2697 63.8326C41.2697 63.2688 41.3464 62.6898 41.4692 62.1412C41.592 61.5773 41.7762 61.044 42.0218 60.5259C42.4976 59.4897 43.1882 58.5601 43.9863 57.7982C44.0631 57.722 44.1091 57.6763 44.0784 57.6763C44.1091 57.661 44.1552 57.6153 44.2012 57.5848C44.2473 57.5391 44.2933 57.4934 44.3547 57.4477C44.4161 57.402 44.4621 57.3563 44.5235 57.3105C44.5849 57.2648 44.6463 57.2191 44.7077 57.1734C44.7691 57.1277 44.8305 57.082 44.8919 57.0363C44.9533 56.9905 44.9686 56.9601 44.9379 56.9753C44.9072 56.9905 44.8305 57.021 44.7845 57.0667C44.5235 57.2496 44.278 57.4629 44.0631 57.661C44.0477 57.6763 44.0324 57.6915 44.0324 57.7068C43.971 57.7372 43.8943 57.7982 43.8175 57.8744C42.958 58.6515 42.298 59.5963 41.8376 60.6173C41.3771 61.6383 41.1315 62.7507 41.1009 63.8936C41.0855 62.7812 41.3004 61.6231 41.7915 60.5106C42.0985 59.8401 42.4669 59.2154 42.912 58.6668C43.1268 58.3772 43.3724 58.1182 43.6333 57.8591C43.7715 57.7372 43.8943 57.6001 44.0477 57.4934C44.1245 57.4325 44.1859 57.3715 44.2626 57.3105C44.3394 57.2496 44.4161 57.2039 44.4928 57.1429C44.5542 57.0972 44.6003 57.0667 44.5849 57.0515C44.5696 57.0515 44.5082 57.082 44.4468 57.1277C44.3701 57.1886 44.2933 57.2496 44.2166 57.2953C44.1398 57.3563 44.0631 57.4172 43.9863 57.4782L43.8789 57.5696L43.7715 57.661C43.6947 57.722 43.6333 57.7829 43.5566 57.8591C43.4185 57.9963 43.2803 58.1182 43.1575 58.2706C43.0961 58.3468 43.0347 58.4077 42.9734 58.4839L42.8045 58.6973C42.7431 58.7734 42.6971 58.8496 42.6357 58.9258C42.5896 59.002 42.5282 59.0782 42.4822 59.1544C42.3901 59.3068 42.2827 59.4592 42.1906 59.6268C42.0064 59.9468 41.8529 60.2668 41.6994 60.6021C41.4232 61.2726 41.2236 61.9735 41.1162 62.6898C41.1009 62.7812 41.0855 62.8726 41.0702 62.964C41.0548 63.0555 41.0548 63.1469 41.0395 63.2383L41.0241 63.3755V63.5126C41.0241 63.6041 41.0088 63.6955 41.0088 63.7869C41.0088 63.8784 41.0088 63.9698 41.0088 64.0765V64.2136V64.3508C41.0088 64.4422 41.0088 64.5489 41.0241 64.6403C41.0241 64.7317 41.0395 64.8384 41.0548 64.9298C41.0548 65.0517 41.0855 65.1736 41.0855 65.2955C40.8706 64.3508 40.8246 63.3755 40.9474 62.4155C41.1009 61.6992 41.3311 60.983 41.6534 60.3278C41.8069 59.9925 42.0064 59.6725 42.2059 59.3678C42.3134 59.2154 42.4055 59.063 42.5282 58.9106L42.6971 58.6973L42.8813 58.4839C42.9427 58.4077 43.004 58.3468 43.0654 58.2706L43.2496 58.0725C43.3878 57.9506 43.5105 57.8134 43.6487 57.6915C43.925 57.4325 44.2166 57.2191 44.5082 56.9905L44.7384 56.8382L44.8612 56.762L44.984 56.6858L45.2296 56.5486L45.4751 56.4115L45.5979 56.3505L45.7207 56.2896L45.9663 56.1677C46.0584 56.1372 46.1351 56.0915 46.2272 56.061C46.3193 56.0305 46.396 55.9848 46.4881 55.9543C46.6263 55.9086 46.7337 55.8476 46.7184 55.8324C46.703 55.8172 46.5802 55.8324 46.4421 55.8934C44.7998 56.3353 43.3264 57.3563 42.252 58.7125C42.3134 58.6058 42.3901 58.5144 42.4515 58.4077L42.6817 58.1334C43.4338 57.3105 44.324 56.6248 45.337 56.1067C45.383 56.0762 45.4291 56.061 45.4751 56.0305C45.5212 56.0153 45.5672 55.9848 45.5979 55.9696C45.6747 55.9238 45.7514 55.8934 45.8128 55.8476C45.9356 55.7715 46.0123 55.7257 46.0123 55.6953C46.0123 55.6648 45.9202 55.68 45.7975 55.7105C45.6747 55.741 45.5058 55.8019 45.3063 55.8934C45.3677 55.8629 45.4291 55.8324 45.4905 55.8019C45.5519 55.7715 45.5979 55.741 45.5672 55.741C45.5365 55.741 45.4598 55.7715 45.3984 55.8019C45.291 55.8629 45.1835 55.9238 45.0914 55.9848C44.984 56.0457 44.8919 56.1067 44.7845 56.1677C43.8329 56.701 42.9734 57.402 42.2673 58.2401C41.5613 59.0782 41.0088 60.0382 40.6558 61.0592C41.0241 59.9468 41.6073 58.8954 42.3901 57.981C43.1729 57.0667 44.1398 56.32 45.2296 55.7715C45.1835 55.8019 45.1835 55.8172 45.2449 55.7867C45.291 55.7715 45.383 55.7257 45.4291 55.6953C45.4751 55.6648 45.4598 55.6648 45.4137 55.68C46.5956 55.1162 47.9155 54.8267 49.2201 54.8114C49.2969 54.8114 49.3583 54.7962 49.3583 54.7962C49.3583 54.781 49.2815 54.781 49.2048 54.781C48.1151 54.781 47.0253 55.0095 45.997 55.3905C44.984 55.7715 44.0477 56.3505 43.2343 57.0667C42.8352 57.4172 42.4669 57.8134 42.1292 58.2249C41.7915 58.6363 41.4999 59.0935 41.2543 59.5506C41.0088 60.0078 40.7939 60.4954 40.6251 60.9983C40.4562 61.5011 40.3488 62.004 40.272 62.5221C40.226 62.7507 40.2106 62.964 40.18 63.1926C40.1339 63.2536 40.0879 63.406 40.0418 63.6041C40.0725 62.8574 40.1953 62.1259 40.3948 61.425C40.5944 60.7087 40.9013 60.023 41.2697 59.383C41.9143 58.3163 42.7585 57.3867 43.7715 56.6401C43.9249 56.5334 44.0324 56.442 44.017 56.4115C44.0017 56.3962 43.8789 56.4572 43.7254 56.5639C43.6026 56.6553 43.4798 56.7467 43.3571 56.8382C43.2343 56.9296 43.1268 57.0363 43.004 57.1429C43.1729 56.9601 43.2803 56.8077 43.265 56.762C43.2496 56.7162 43.1268 56.762 42.9427 56.8839C43.9556 55.9391 45.1835 55.1924 46.4728 54.7352C46.5495 54.7048 46.5956 54.6895 46.5649 54.6895C46.5342 54.6895 46.4574 54.7048 46.3807 54.7352C44.4775 55.36 42.8199 56.5791 41.638 58.1334C41.5153 58.2858 41.3925 58.4382 41.285 58.5906C41.1622 58.743 41.0548 58.9106 40.9474 59.063C40.7325 59.383 40.533 59.7182 40.3641 60.0687C40.1799 60.4192 40.0418 60.7849 39.9037 61.1659C39.7809 61.5469 39.6581 61.9431 39.5814 62.3697C39.3511 63.5736 39.3665 64.7927 39.6121 65.9356C39.8423 67.0785 40.2874 68.1604 40.9167 69.1357C41.3311 69.8519 41.8376 70.5071 42.4055 71.0862C42.3134 71.0252 42.2366 70.9795 42.2213 71.01C42.2213 71.01 42.2213 71.0252 42.2213 71.0405C41.7148 70.5224 41.2697 69.9433 40.8706 69.3033C40.6557 68.9376 40.4409 68.5566 40.272 68.1756C40.18 67.9775 40.1032 67.7794 40.0265 67.5813C39.9804 67.4899 39.9497 67.3832 39.919 67.2766C39.8883 67.1699 39.8423 67.0784 39.8269 66.9718C39.5814 66.1641 39.4279 65.326 39.3972 64.4879C39.3665 63.6498 39.4125 62.8117 39.5814 62.004C39.6274 61.8059 39.6735 61.5926 39.7195 61.3945C39.7502 61.2878 39.7655 61.1964 39.7962 61.0897L39.8883 60.8002C39.919 60.6935 39.9497 60.6021 39.9958 60.5106L40.1032 60.2211L40.226 59.9316C40.272 59.8401 40.3027 59.7335 40.3488 59.642C40.7018 58.8954 41.1622 58.1791 41.6841 57.5544C41.945 57.2344 42.2366 56.9296 42.5436 56.6401C42.8506 56.3658 43.1729 56.0762 43.5105 55.8324C44.8612 54.8419 46.4728 54.1714 48.1611 53.9428C48.2225 53.9276 48.2685 53.9276 48.3146 53.9124C48.3606 53.9124 48.4067 53.8971 48.4527 53.8971C48.5448 53.8819 48.6215 53.8666 48.6829 53.8514C48.8057 53.8209 48.8671 53.7904 48.8518 53.7752C48.8211 53.7447 48.7136 53.7447 48.5448 53.7295C48.4681 53.7295 48.3606 53.7295 48.2685 53.7295C48.1611 53.7447 48.0537 53.7447 47.9462 53.76C47.7467 53.7752 47.5318 53.8209 47.3323 53.8666C47.1328 53.9124 46.9332 53.9581 46.7337 54.0038C46.3346 54.1105 45.9509 54.2324 45.5826 54.3847C44.8305 54.6895 44.1245 55.0705 43.4798 55.5276C42.8352 55.9848 42.2366 56.5334 41.7148 57.1277C41.1929 57.7372 40.7325 58.4077 40.3488 59.1392C40.0725 59.6573 39.8576 60.1906 39.6888 60.724C39.52 61.2573 39.3972 61.7907 39.3051 62.324C39.1363 63.406 39.1516 64.5031 39.3358 65.646C39.566 66.987 40.0572 68.2213 40.7325 69.3338C41.3311 70.309 42.0985 71.1776 43.004 71.8938C43.0654 71.33 43.0347 70.629 42.8352 69.7757C43.1882 70.1566 44.0938 71.2386 44.0324 72.671C44.0017 73.7682 43.4185 74.5606 42.7278 75.5206C42.0678 76.4349 41.3771 77.0597 40.886 77.4559L47.7006 74.0272C48.0997 74.1034 48.5141 74.1491 48.9285 74.1644C48.9592 74.1491 48.9899 74.1187 49.0206 74.1034C48.9285 74.1034 48.8364 74.0882 48.7443 74.0882C48.8364 74.0882 48.9439 74.0882 49.036 74.1034C50.6322 73.0824 51.9521 71.7414 52.8884 70.2023C52.0903 70.7509 51.2308 71.0557 50.3252 71.1929Z" fill="url(#paint36_linear_3113_10575)"/>
<path d="M73.3342 70.9792C73.3649 70.9487 73.3956 70.9182 73.411 70.8878C73.4877 70.8116 73.5491 70.7354 73.6258 70.6439C74.0403 70.202 74.424 69.7144 74.7309 69.2115C74.7002 69.2877 74.7002 69.3487 74.7156 69.3639C74.7156 69.3639 74.7309 69.3639 74.7463 69.3639C74.4547 69.8211 74.1323 70.2477 73.764 70.6592C73.6259 70.8268 73.4724 70.9792 73.3189 71.1316C73.3189 71.2078 73.3189 71.284 73.3189 71.3449C73.3342 71.3297 73.3649 71.2992 73.3803 71.284C73.4724 71.1925 73.5491 71.1163 73.6258 71.0249C73.7026 70.9335 73.7947 70.8573 73.8714 70.7659L74.1016 70.4916L74.3165 70.202C74.3933 70.1106 74.4547 70.0039 74.5314 69.9125C74.5928 69.8058 74.6695 69.7144 74.7309 69.6077C74.9919 69.2115 75.2374 68.7848 75.437 68.3429C75.5137 68.1753 75.6058 67.9924 75.6672 67.8096C75.7286 67.6267 75.8053 67.4439 75.8514 67.2458C76.0969 66.5143 76.2658 65.7676 76.3425 65.0209C76.4193 64.2742 76.4193 63.5123 76.3425 62.7656C76.6188 64.5485 76.4039 66.3924 75.7746 68.0839C75.7286 68.2058 75.7132 68.2972 75.7286 68.282C75.7593 68.2667 75.8207 68.1601 75.8667 68.0534C76.3272 66.88 76.5727 65.6152 76.5881 64.3657C76.6034 63.1009 76.3886 61.8513 75.9588 60.6627C75.9281 60.3122 75.79 59.7789 75.529 59.1998C75.2835 58.6207 74.9151 58.0112 74.4854 57.4931C74.1784 57.1121 73.8561 56.7921 73.4877 56.5026C73.5645 56.5788 73.6412 56.655 73.7026 56.7312C73.7793 56.8074 73.8407 56.8835 73.9175 56.975C73.81 56.8683 73.7026 56.7464 73.5952 56.655C73.4877 56.5635 73.3803 56.4721 73.2728 56.3807C73.0426 56.2131 72.8277 56.0607 72.6129 55.9083C72.5822 55.8778 72.5361 55.8473 72.5054 55.8168C72.045 55.4054 71.4771 55.0397 70.8785 54.7197C70.2646 54.4149 69.6199 54.1558 68.9753 53.973C68.9906 54.0035 69.0213 54.0339 69.052 54.0644C68.9292 54.0187 68.8372 53.9882 68.7451 53.9425C68.653 53.912 68.5455 53.8663 68.4228 53.8358C68.4995 53.8663 68.5609 53.8968 68.6376 53.9273H68.6223C68.4841 53.8816 68.3307 53.8358 68.1618 53.7901C67.993 53.7596 67.8242 53.7139 67.64 53.6987C67.4405 53.653 67.2409 53.6073 67.0261 53.5615C66.9186 53.5463 66.8112 53.5311 66.6884 53.5158C66.581 53.5006 66.4582 53.5006 66.3354 53.4854C65.8596 53.4549 65.3531 53.4549 64.8466 53.5006C63.8182 53.6073 62.7439 53.8968 61.8383 54.3387C61.7002 54.3997 61.5774 54.4759 61.562 54.5063C61.562 54.5368 61.6541 54.5063 61.8076 54.4454C61.9457 54.3997 62.0839 54.3539 62.222 54.293C62.3602 54.2473 62.4983 54.2168 62.6364 54.1711C62.9127 54.0949 63.2043 54.0339 63.5113 53.9577C64.0945 53.8358 64.6471 53.7749 65.2303 53.7444C65.7982 53.7292 66.3661 53.7444 66.9647 53.8054C67.0414 53.8206 67.1028 53.8206 67.1795 53.8358C67.2716 53.8663 67.3791 53.8968 67.4712 53.9273C67.4558 53.9273 67.4405 53.9273 67.4251 53.9273L67.2256 53.8968L67.0261 53.8663C67.0567 53.8663 67.0721 53.8816 67.1028 53.8816C66.5963 53.8206 66.0745 53.8054 65.568 53.8206C65.0768 53.8054 64.5703 53.8511 64.0485 53.9425C63.5266 54.0339 63.0048 54.1711 62.5136 54.3539C62.2681 54.4454 62.0225 54.552 61.7769 54.674C61.6541 54.7349 61.5467 54.7959 61.4239 54.8568C61.3011 54.9178 61.1937 54.994 61.0862 55.0549C61.0248 55.0854 60.9788 55.1159 60.9174 55.1616C60.856 55.1921 60.81 55.2378 60.7639 55.2683C60.6565 55.3445 60.549 55.4054 60.457 55.4816C60.2574 55.634 60.0732 55.7864 59.9044 55.954C59.7663 56.0607 59.6895 56.1521 59.7202 56.1521C59.7509 56.1521 59.8891 56.0759 60.0119 55.9692L60.15 55.8778L60.2881 55.7864C60.3802 55.7254 60.4876 55.6645 60.5797 55.6035C60.7793 55.4968 60.9788 55.3749 61.1783 55.2683C61.5774 55.0549 61.9918 54.9025 62.4062 54.7654C62.4369 54.7502 62.3908 54.8111 62.4676 54.7959C62.4983 54.7959 62.529 54.7806 62.5597 54.7806C62.5136 54.7959 62.4522 54.8111 62.4062 54.8263C62.3602 54.8416 62.2988 54.8721 62.2374 54.8873C62.1453 54.9483 62.0532 54.994 61.9918 55.0244C61.915 55.0702 61.869 55.1006 61.823 55.1311C61.7309 55.1921 61.6695 55.2225 61.6234 55.253C61.6234 55.253 61.6234 55.253 61.5927 55.2683C61.5467 55.2987 61.516 55.3292 61.4546 55.3597C61.4392 55.3749 61.4392 55.3749 61.4239 55.3902C61.3625 55.4206 61.3011 55.4511 61.2397 55.4816C61.1783 55.5121 61.1169 55.5578 61.0862 55.5883C61.0555 55.5883 61.0248 55.6035 60.9941 55.6187C60.6565 55.8016 60.6565 55.8016 60.3342 56.0149C60.3342 56.0149 60.3342 56.0149 60.3495 56.0302C60.3495 56.0302 60.3188 56.0607 60.2728 56.0911C60.2267 56.1216 60.1807 56.1673 60.1193 56.2131C60.0579 56.2588 60.0272 56.274 59.9812 56.3197C59.9505 56.335 59.9198 56.3654 59.8737 56.3959C59.8277 56.4264 59.7816 56.4721 59.7049 56.5331C59.7049 56.5331 59.7049 56.5331 59.8584 56.4416C59.8584 56.4416 59.8584 56.4416 59.7202 56.5178C59.7202 56.5178 59.7202 56.5178 59.7816 56.5178C59.7816 56.5178 59.7816 56.5178 59.7049 56.5331C59.7049 56.5331 59.7049 56.5331 59.6742 56.594C59.6742 56.594 59.6742 56.594 59.6435 56.6093C59.6128 56.6245 59.5361 56.655 59.3979 56.7312C59.3826 56.7464 59.3365 56.7921 59.2444 56.8988C59.2444 56.8988 59.2137 56.9293 59.2137 56.9597C59.2137 56.975 59.2137 56.975 59.1523 57.0816C59.1523 57.0816 59.1523 57.0969 59.183 57.0969C59.2137 57.0816 59.2137 57.0816 59.2444 57.0969C59.2444 57.0969 59.2905 57.0816 59.3365 57.0512C59.3826 57.0207 59.3979 57.0055 59.5668 56.8683C59.5514 56.8835 59.5514 56.8988 59.5361 56.914C59.5361 56.9445 59.5514 56.975 59.5821 56.975C59.6281 56.975 59.6895 56.9597 59.843 56.9293C59.843 56.9293 59.9812 56.8683 60.1807 56.7312C60.2881 56.655 60.3495 56.6093 60.4109 56.5788C60.4723 56.5331 60.5337 56.4873 60.6718 56.4112C60.6718 56.4112 60.7332 56.3807 60.8253 56.3197C60.9174 56.2892 60.9328 56.2892 60.9941 56.2588C60.9481 56.2892 60.9021 56.335 60.8714 56.3654C60.7639 56.4569 60.7793 56.5026 60.8867 56.4569C60.81 56.6245 60.9481 56.6397 61.1476 56.6093C61.1169 56.6702 61.1169 56.7159 61.1476 56.7312C61.0862 56.8226 61.0402 56.914 61.0095 56.9902C60.9788 57.0664 60.9634 57.1274 60.9788 57.1883L61.0095 57.2645C61.0555 57.2797 61.1169 57.2645 61.209 57.234C61.3011 57.2188 61.4086 57.1731 61.516 57.1274C61.5467 57.1121 61.562 57.1121 61.5927 57.0969L61.562 57.1883C61.6541 57.1731 61.7616 57.1578 61.8844 57.1426C61.9457 57.1274 62.0071 57.1121 62.0685 57.0969C62.1299 57.0816 62.1913 57.0664 62.2527 57.0664C62.3755 57.0359 62.4983 57.0207 62.6211 57.0055C62.7439 56.9902 62.8513 56.975 62.9587 56.975L63.2504 56.9445C63.3578 56.9445 63.4959 56.9293 63.6341 56.8988C63.7108 56.8835 63.7875 56.8683 63.8796 56.8531C63.9564 56.8378 64.0485 56.8074 64.1406 56.7921C64.2633 56.7616 64.4015 56.7312 64.5243 56.7159C64.601 56.7007 64.6778 56.6854 64.7698 56.6702C64.3861 56.8378 64.202 57.0207 64.3094 57.1274C64.3554 57.1731 64.4475 57.2036 64.555 57.2188C64.6164 57.234 64.6778 57.234 64.7545 57.234C64.7852 57.234 64.8312 57.234 64.8773 57.234C64.9233 57.234 64.954 57.234 65.0001 57.234C65.3531 57.234 65.7828 57.2188 66.2433 57.2036C67.4712 57.2036 68.6683 57.5236 69.7274 58.1026C70.2492 58.3922 70.7404 58.7579 71.2008 59.1846C71.4157 59.3979 71.6459 59.6265 71.8301 59.8703C71.9375 59.9922 72.0143 60.1141 72.1217 60.236C72.1678 60.297 72.2138 60.3732 72.2598 60.4341C72.3059 60.4951 72.3519 60.5713 72.3826 60.6322C72.8738 61.4246 73.1961 62.278 73.3496 63.1771C73.5031 64.0609 73.4724 64.9904 73.2421 65.8895C73.0887 66.6667 72.8124 67.4286 72.4133 68.1143C72.2598 68.6325 72.045 69.1353 71.7994 69.623C72.0757 69.3334 72.3366 69.0134 72.5668 68.6782C72.6436 68.5563 72.7203 68.4496 72.797 68.3429C72.8738 68.221 72.9505 68.1143 73.0119 68.0077C73.0273 67.9772 73.0426 67.962 73.058 67.9315L73.1501 67.7791C73.1807 67.7334 73.2114 67.6724 73.2421 67.6267C73.3035 67.52 73.3649 67.4134 73.411 67.3067C73.3803 67.3829 73.3496 67.4591 73.3035 67.5353C73.2268 67.6877 73.1807 67.8248 73.2114 67.8553C73.2268 67.8553 73.2421 67.8553 73.2728 67.8248C73.0119 68.4039 72.6896 68.9372 72.3212 69.4553C72.2905 69.4858 72.2598 69.5315 72.2291 69.562C72.1985 69.5925 72.1678 69.623 72.1371 69.6687C72.0757 69.7296 72.0296 69.8058 71.9836 69.8668C71.784 70.0496 71.5845 70.2173 71.3696 70.3849C70.8324 71.2535 70.1571 72.0611 69.359 72.7926L69.4204 72.7773L69.5432 72.7316C69.6046 72.7469 69.7274 72.7469 69.8808 72.7164C69.6353 72.8231 69.3897 72.9297 69.1288 73.0059C68.7911 73.3107 68.4228 73.585 68.039 73.8593C68.4534 73.7983 68.8679 73.7069 69.2976 73.585C69.7427 73.4478 70.1571 73.2802 70.5562 73.0974C70.9552 72.8993 71.3389 72.6859 71.692 72.4269C71.9222 72.2745 72.1371 72.1068 72.3366 71.9392C72.5668 70.9335 73.1807 70.202 73.457 69.8973C73.411 70.2477 73.3649 70.6287 73.3342 70.9792ZM76.0202 61.257L76.0816 61.4399C76.1123 61.5618 76.1583 61.6837 76.189 61.8208C76.3425 62.6132 76.4193 63.4209 76.3732 64.2438C76.3732 63.7104 76.3425 63.1771 76.2811 62.6437C76.2197 62.1104 76.1123 61.5923 75.9741 61.0741L76.0202 61.257ZM59.9505 56.6397C59.9658 56.6245 59.9965 56.6093 60.0119 56.594C60.0119 56.6245 59.9812 56.6397 59.9505 56.6397ZM60.0272 56.4873C60.0119 56.4873 59.9965 56.5026 59.9812 56.5026C59.9812 56.5026 59.9812 56.5026 60.0272 56.4112C60.0426 56.4112 60.0426 56.4416 60.0272 56.4873ZM60.4416 56.3045C60.4723 56.2892 60.4877 56.274 60.5337 56.274C60.5183 56.274 60.503 56.274 60.4416 56.3045ZM61.6234 57.0207H61.6081C61.6388 56.914 61.6848 56.8226 61.7155 56.7159C61.6848 56.8226 61.6541 56.9293 61.6234 57.0207ZM62.529 55.5578C62.4983 55.5578 62.4522 55.5578 62.3908 55.573C62.3908 55.5578 62.4522 55.5578 62.529 55.5578ZM65.3377 54.5368C65.3224 54.5368 65.307 54.5368 65.2917 54.5368C65.3377 54.5368 65.3991 54.5368 65.4605 54.5368C65.4605 54.5368 65.4605 54.5368 65.7061 54.5978C65.7061 54.5978 65.5219 54.5673 65.3377 54.5368ZM66.1512 54.3387C66.0898 54.3387 65.967 54.3387 66.0438 54.3692C65.7982 54.3692 65.5526 54.3844 65.2917 54.3997C65.1689 54.4149 65.0461 54.4301 64.908 54.4454C64.7852 54.4606 64.6471 54.4759 64.5243 54.5063C64.3401 54.5368 64.1406 54.5825 63.9717 54.6282C63.8643 54.6282 63.7569 54.6282 63.6341 54.6282C63.5113 54.6282 63.3885 54.6435 63.2504 54.674C63.7108 54.5673 64.2326 54.4454 64.7238 54.3997C65.261 54.3387 65.7982 54.3235 66.3354 54.3539C66.2893 54.3235 66.2279 54.3235 66.1512 54.3387Z" fill="url(#paint37_linear_3113_10575)"/>
<path d="M70.8387 72.959C69.8871 73.4619 68.8588 73.8124 67.7997 73.9952C67.6463 74.1019 67.4774 74.1933 67.3086 74.3C67.6463 74.2543 67.9686 74.1933 68.2755 74.1171C68.4751 74.0714 68.6746 74.0105 68.8741 73.9648C68.9662 73.9343 69.0737 73.9038 69.1657 73.8733C69.2578 73.8428 69.3653 73.8124 69.4574 73.7819C69.6415 73.7057 69.8411 73.6447 70.0253 73.5533C70.1173 73.5076 70.2094 73.4771 70.3015 73.4314C70.3936 73.3857 70.4857 73.34 70.5778 73.2943C70.6699 73.2485 70.762 73.2028 70.8541 73.1571C70.9462 73.1114 71.0382 73.0657 71.1303 73.0047C71.3145 72.8981 71.4987 72.7914 71.6675 72.6695C71.8978 72.5171 72.1126 72.3647 72.3275 72.1971C72.3429 72.1209 72.3429 72.0447 72.3582 71.9685C71.8824 72.3495 71.3759 72.6847 70.8387 72.959Z" fill="url(#paint38_linear_3113_10575)"/>
<path d="M73.5967 75.5818C72.9061 74.637 72.3382 73.8598 72.2921 72.7322C72.2921 72.5493 72.2921 72.3817 72.3228 72.1988C72.3382 72.1226 72.3382 72.0464 72.3535 71.9702C72.3535 71.9397 72.3689 71.9093 72.3689 71.8788C72.4303 71.635 72.507 71.3912 72.5991 71.1778L72.2614 70.5073L68.7773 73.9665L75.6227 77.5018C75.0241 76.9685 73.919 75.9932 73.5967 75.5818Z" fill="url(#paint39_linear_3113_10575)"/>
<path d="M76.0447 61.4373L75.9833 61.2544L75.9219 61.0715C76.06 61.5896 76.1674 62.1078 76.2288 62.6411C76.2902 63.1745 76.3209 63.7078 76.3209 64.2411C76.367 63.4335 76.2902 62.6259 76.1368 61.8182C76.1214 61.6811 76.0754 61.5592 76.0447 61.4373Z" fill="url(#paint40_linear_3113_10575)"/>
</g>
<defs>
<linearGradient id="paint0_linear_3113_10575" x1="63.5019" y1="127" x2="63.5019" y2="0" gradientUnits="userSpaceOnUse">
<stop stop-color="#402414"/>
<stop offset="0.11" stop-color="#422514"/>
<stop offset="0.15" stop-color="#492B16"/>
<stop offset="0.18" stop-color="#543419"/>
<stop offset="0.21" stop-color="#65411D"/>
<stop offset="0.23" stop-color="#7B5322"/>
<stop offset="0.24" stop-color="#966829"/>
<stop offset="0.25" stop-color="#A8762D"/>
<stop offset="0.27" stop-color="#AD7C32"/>
<stop offset="0.29" stop-color="#BD8D41"/>
<stop offset="0.32" stop-color="#D6AA5A"/>
<stop offset="0.34" stop-color="#F9D17C"/>
<stop offset="0.35" stop-color="#FFD882"/>
<stop offset="0.39" stop-color="#FDD680"/>
<stop offset="0.41" stop-color="#F6CD7B"/>
<stop offset="0.42" stop-color="#EAC072"/>
<stop offset="0.44" stop-color="#D9AC64"/>
<stop offset="0.45" stop-color="#C39253"/>
<stop offset="0.46" stop-color="#A7733E"/>
<stop offset="0.47" stop-color="#7D421D"/>
<stop offset="0.54" stop-color="#874F22"/>
<stop offset="0.64" stop-color="#A06E2D"/>
<stop offset="1" stop-color="#FBD580"/>
</linearGradient>
<linearGradient id="paint1_linear_3113_10575" x1="63.4852" y1="-1.19431" x2="64.4138" y2="138.671" gradientUnits="userSpaceOnUse">
<stop offset="0.06" stop-color="#662C15"/>
<stop offset="0.11" stop-color="#6B3216"/>
<stop offset="0.17" stop-color="#7B4219"/>
<stop offset="0.25" stop-color="#945E1D"/>
<stop offset="0.33" stop-color="#B78424"/>
<stop offset="0.42" stop-color="#E3B52C"/>
<stop offset="0.46" stop-color="#F9CC30"/>
<stop offset="0.65" stop-color="#7A411C"/>
<stop offset="0.67" stop-color="#814A22"/>
<stop offset="0.69" stop-color="#936132"/>
<stop offset="0.73" stop-color="#B1874C"/>
<stop offset="0.77" stop-color="#DABB70"/>
<stop offset="0.8" stop-color="#FAE48C"/>
<stop offset="0.99" stop-color="#FAEA9C"/>
</linearGradient>
<linearGradient id="paint2_linear_3113_10575" x1="63.9156" y1="120.976" x2="63.9156" y2="6.02441" gradientUnits="userSpaceOnUse">
<stop offset="0.01" stop-color="#FAEA9C"/>
<stop offset="0.27" stop-color="#FAE48C"/>
<stop offset="0.62" stop-color="#F9CC30"/>
<stop offset="0.65" stop-color="#E3B52C"/>
<stop offset="0.72" stop-color="#B78424"/>
<stop offset="0.79" stop-color="#945E1D"/>
<stop offset="0.85" stop-color="#7B4219"/>
<stop offset="0.9" stop-color="#6B3216"/>
<stop offset="0.94" stop-color="#662C15"/>
</linearGradient>
<radialGradient id="paint3_radial_3113_10575" cx="0" cy="0" r="1" gradientUnits="userSpaceOnUse" gradientTransform="translate(63.4992 63.5002) rotate(90) scale(50.8)">
<stop stop-color="#3F3F41"/>
<stop offset="1" stop-color="#070707"/>
</radialGradient>
<linearGradient id="paint4_linear_3113_10575" x1="61.6608" y1="53.9387" x2="65.9487" y2="71.9171" gradientUnits="userSpaceOnUse">
<stop stop-color="#FFF33B"/>
<stop offset="0.053592" stop-color="#FDE23B"/>
<stop offset="0.2252" stop-color="#F7B03B"/>
<stop offset="0.3951" stop-color="#F2873A"/>
<stop offset="0.5602" stop-color="#EE673A"/>
<stop offset="0.7189" stop-color="#EB503A"/>
<stop offset="0.8686" stop-color="#EA433A"/>
<stop offset="1" stop-color="#E93E3A"/>
</linearGradient>
<linearGradient id="paint5_linear_3113_10575" x1="60.3175" y1="54.2579" x2="64.6055" y2="72.2363" gradientUnits="userSpaceOnUse">
<stop stop-color="#FFF33B"/>
<stop offset="0.053592" stop-color="#FDE23B"/>
<stop offset="0.2252" stop-color="#F7B03B"/>
<stop offset="0.3951" stop-color="#F2873A"/>
<stop offset="0.5602" stop-color="#EE673A"/>
<stop offset="0.7189" stop-color="#EB503A"/>
<stop offset="0.8686" stop-color="#EA433A"/>
<stop offset="1" stop-color="#E93E3A"/>
</linearGradient>
<linearGradient id="paint6_linear_3113_10575" x1="59.0844" y1="54.5527" x2="63.3723" y2="72.5311" gradientUnits="userSpaceOnUse">
<stop stop-color="#FFF33B"/>
<stop offset="0.053592" stop-color="#FDE23B"/>
<stop offset="0.2252" stop-color="#F7B03B"/>
<stop offset="0.3951" stop-color="#F2873A"/>
<stop offset="0.5602" stop-color="#EE673A"/>
<stop offset="0.7189" stop-color="#EB503A"/>
<stop offset="0.8686" stop-color="#EA433A"/>
<stop offset="1" stop-color="#E93E3A"/>
</linearGradient>
<linearGradient id="paint7_linear_3113_10575" x1="58.8641" y1="54.4996" x2="63.3891" y2="73.3176" gradientUnits="userSpaceOnUse">
<stop stop-color="#FFF33B"/>
<stop offset="0.053592" stop-color="#FDE23B"/>
<stop offset="0.2252" stop-color="#F7B03B"/>
<stop offset="0.3951" stop-color="#F2873A"/>
<stop offset="0.5602" stop-color="#EE673A"/>
<stop offset="0.7189" stop-color="#EB503A"/>
<stop offset="0.8686" stop-color="#EA433A"/>
<stop offset="1" stop-color="#E93E3A"/>
</linearGradient>
<linearGradient id="paint8_linear_3113_10575" x1="60.9702" y1="54.1059" x2="65.258" y2="72.0844" gradientUnits="userSpaceOnUse">
<stop stop-color="#FFF33B"/>
<stop offset="0.053592" stop-color="#FDE23B"/>
<stop offset="0.2252" stop-color="#F7B03B"/>
<stop offset="0.3951" stop-color="#F2873A"/>
<stop offset="0.5602" stop-color="#EE673A"/>
<stop offset="0.7189" stop-color="#EB503A"/>
<stop offset="0.8686" stop-color="#EA433A"/>
<stop offset="1" stop-color="#E93E3A"/>
</linearGradient>
<linearGradient id="paint9_linear_3113_10575" x1="62.03" y1="53.8509" x2="66.3181" y2="71.8297" gradientUnits="userSpaceOnUse">
<stop stop-color="#FFF33B"/>
<stop offset="0.053592" stop-color="#FDE23B"/>
<stop offset="0.2252" stop-color="#F7B03B"/>
<stop offset="0.3951" stop-color="#F2873A"/>
<stop offset="0.5602" stop-color="#EE673A"/>
<stop offset="0.7189" stop-color="#EB503A"/>
<stop offset="0.8686" stop-color="#EA433A"/>
<stop offset="1" stop-color="#E93E3A"/>
</linearGradient>
<linearGradient id="paint10_linear_3113_10575" x1="59.9761" y1="54.2466" x2="64.4681" y2="73.0809" gradientUnits="userSpaceOnUse">
<stop stop-color="#FFF33B"/>
<stop offset="0.053592" stop-color="#FDE23B"/>
<stop offset="0.2252" stop-color="#F7B03B"/>
<stop offset="0.3951" stop-color="#F2873A"/>
<stop offset="0.5602" stop-color="#EE673A"/>
<stop offset="0.7189" stop-color="#EB503A"/>
<stop offset="0.8686" stop-color="#EA433A"/>
<stop offset="1" stop-color="#E93E3A"/>
</linearGradient>
<linearGradient id="paint11_linear_3113_10575" x1="64.4796" y1="53.2654" x2="68.7675" y2="71.2438" gradientUnits="userSpaceOnUse">
<stop stop-color="#FFF33B"/>
<stop offset="0.053592" stop-color="#FDE23B"/>
<stop offset="0.2252" stop-color="#F7B03B"/>
<stop offset="0.3951" stop-color="#F2873A"/>
<stop offset="0.5602" stop-color="#EE673A"/>
<stop offset="0.7189" stop-color="#EB503A"/>
<stop offset="0.8686" stop-color="#EA433A"/>
<stop offset="1" stop-color="#E93E3A"/>
</linearGradient>
<linearGradient id="paint12_linear_3113_10575" x1="59.4002" y1="54.2686" x2="64.131" y2="73.9419" gradientUnits="userSpaceOnUse">
<stop stop-color="#FFF33B"/>
<stop offset="0.053592" stop-color="#FDE23B"/>
<stop offset="0.2252" stop-color="#F7B03B"/>
<stop offset="0.3951" stop-color="#F2873A"/>
<stop offset="0.5602" stop-color="#EE673A"/>
<stop offset="0.7189" stop-color="#EB503A"/>
<stop offset="0.8686" stop-color="#EA433A"/>
<stop offset="1" stop-color="#E93E3A"/>
</linearGradient>
<linearGradient id="paint13_linear_3113_10575" x1="59.5045" y1="54.3599" x2="64.0811" y2="73.1511" gradientUnits="userSpaceOnUse">
<stop stop-color="#FFF33B"/>
<stop offset="0.053592" stop-color="#FDE23B"/>
<stop offset="0.2252" stop-color="#F7B03B"/>
<stop offset="0.3951" stop-color="#F2873A"/>
<stop offset="0.5602" stop-color="#EE673A"/>
<stop offset="0.7189" stop-color="#EB503A"/>
<stop offset="0.8686" stop-color="#EA433A"/>
<stop offset="1" stop-color="#E93E3A"/>
</linearGradient>
<linearGradient id="paint14_linear_3113_10575" x1="65.1098" y1="53.1165" x2="69.3977" y2="71.095" gradientUnits="userSpaceOnUse">
<stop stop-color="#FFF33B"/>
<stop offset="0.053592" stop-color="#FDE23B"/>
<stop offset="0.2252" stop-color="#F7B03B"/>
<stop offset="0.3951" stop-color="#F2873A"/>
<stop offset="0.5602" stop-color="#EE673A"/>
<stop offset="0.7189" stop-color="#EB503A"/>
<stop offset="0.8686" stop-color="#EA433A"/>
<stop offset="1" stop-color="#E93E3A"/>
</linearGradient>
<linearGradient id="paint15_linear_3113_10575" x1="52.6814" y1="71.122" x2="53.9769" y2="52.7549" gradientUnits="userSpaceOnUse">
<stop stop-color="#662D91"/>
<stop offset="0.0940942" stop-color="#7C2D8D"/>
<stop offset="0.2912" stop-color="#A52C87"/>
<stop offset="0.4845" stop-color="#C52B82"/>
<stop offset="0.6705" stop-color="#DC2A7E"/>
<stop offset="0.846" stop-color="#E92A7C"/>
<stop offset="1" stop-color="#EE2A7B"/>
</linearGradient>
<linearGradient id="paint16_linear_3113_10575" x1="50.9897" y1="70.9999" x2="52.2852" y2="52.6327" gradientUnits="userSpaceOnUse">
<stop stop-color="#662D91"/>
<stop offset="0.0940942" stop-color="#7C2D8D"/>
<stop offset="0.2912" stop-color="#A52C87"/>
<stop offset="0.4845" stop-color="#C52B82"/>
<stop offset="0.6705" stop-color="#DC2A7E"/>
<stop offset="0.846" stop-color="#E92A7C"/>
<stop offset="1" stop-color="#EE2A7B"/>
</linearGradient>
<linearGradient id="paint17_linear_3113_10575" x1="49.0548" y1="70.8632" x2="50.3503" y2="52.4961" gradientUnits="userSpaceOnUse">
<stop stop-color="#662D91"/>
<stop offset="0.0940942" stop-color="#7C2D8D"/>
<stop offset="0.2912" stop-color="#A52C87"/>
<stop offset="0.4845" stop-color="#C52B82"/>
<stop offset="0.6705" stop-color="#DC2A7E"/>
<stop offset="0.846" stop-color="#E92A7C"/>
<stop offset="1" stop-color="#EE2A7B"/>
</linearGradient>
<linearGradient id="paint18_linear_3113_10575" x1="48.6595" y1="71.6336" x2="50.0166" y2="52.3917" gradientUnits="userSpaceOnUse">
<stop stop-color="#662D91"/>
<stop offset="0.0940942" stop-color="#7C2D8D"/>
<stop offset="0.2912" stop-color="#A52C87"/>
<stop offset="0.4845" stop-color="#C52B82"/>
<stop offset="0.6705" stop-color="#DC2A7E"/>
<stop offset="0.846" stop-color="#E92A7C"/>
<stop offset="1" stop-color="#EE2A7B"/>
</linearGradient>
<linearGradient id="paint19_linear_3113_10575" x1="43.8821" y1="70.4969" x2="45.1775" y2="52.1298" gradientUnits="userSpaceOnUse">
<stop stop-color="#662D91"/>
<stop offset="0.0940942" stop-color="#7C2D8D"/>
<stop offset="0.2912" stop-color="#A52C87"/>
<stop offset="0.4845" stop-color="#C52B82"/>
<stop offset="0.6705" stop-color="#DC2A7E"/>
<stop offset="0.846" stop-color="#E92A7C"/>
<stop offset="1" stop-color="#EE2A7B"/>
</linearGradient>
<linearGradient id="paint20_linear_3113_10575" x1="50.1985" y1="71.726" x2="51.5557" y2="52.484" gradientUnits="userSpaceOnUse">
<stop stop-color="#662D91"/>
<stop offset="0.0940942" stop-color="#7C2D8D"/>
<stop offset="0.2912" stop-color="#A52C87"/>
<stop offset="0.4845" stop-color="#C52B82"/>
<stop offset="0.6705" stop-color="#DC2A7E"/>
<stop offset="0.846" stop-color="#E92A7C"/>
<stop offset="1" stop-color="#EE2A7B"/>
</linearGradient>
<linearGradient id="paint21_linear_3113_10575" x1="50.8657" y1="70.9912" x2="52.1612" y2="52.6241" gradientUnits="userSpaceOnUse">
<stop stop-color="#662D91"/>
<stop offset="0.0940942" stop-color="#7C2D8D"/>
<stop offset="0.2912" stop-color="#A52C87"/>
<stop offset="0.4845" stop-color="#C52B82"/>
<stop offset="0.6705" stop-color="#DC2A7E"/>
<stop offset="0.846" stop-color="#E92A7C"/>
<stop offset="1" stop-color="#EE2A7B"/>
</linearGradient>
<linearGradient id="paint22_linear_3113_10575" x1="52.8365" y1="71.131" x2="54.1319" y2="52.7639" gradientUnits="userSpaceOnUse">
<stop stop-color="#662D91"/>
<stop offset="0.0940942" stop-color="#7C2D8D"/>
<stop offset="0.2912" stop-color="#A52C87"/>
<stop offset="0.4845" stop-color="#C52B82"/>
<stop offset="0.6705" stop-color="#DC2A7E"/>
<stop offset="0.846" stop-color="#E92A7C"/>
<stop offset="1" stop-color="#EE2A7B"/>
</linearGradient>
<linearGradient id="paint23_linear_3113_10575" x1="55.7803" y1="71.3384" x2="57.0758" y2="52.9713" gradientUnits="userSpaceOnUse">
<stop stop-color="#662D91"/>
<stop offset="0.0940942" stop-color="#7C2D8D"/>
<stop offset="0.2912" stop-color="#A52C87"/>
<stop offset="0.4845" stop-color="#C52B82"/>
<stop offset="0.6705" stop-color="#DC2A7E"/>
<stop offset="0.846" stop-color="#E92A7C"/>
<stop offset="1" stop-color="#EE2A7B"/>
</linearGradient>
<linearGradient id="paint24_linear_3113_10575" x1="48.8933" y1="75.1281" x2="48.8933" y2="53.3407" gradientUnits="userSpaceOnUse">
<stop stop-color="#00AEEF"/>
<stop offset="0.0150842" stop-color="#01ABEC"/>
<stop offset="0.2295" stop-color="#1082CB"/>
<stop offset="0.4396" stop-color="#1C62B2"/>
<stop offset="0.6418" stop-color="#244B9F"/>
<stop offset="0.8325" stop-color="#293E94"/>
<stop offset="1" stop-color="#2B3990"/>
</linearGradient>
<linearGradient id="paint25_linear_3113_10575" x1="56.3614" y1="71.3757" x2="57.6568" y2="53.0085" gradientUnits="userSpaceOnUse">
<stop stop-color="#662D91"/>
<stop offset="0.0940942" stop-color="#7C2D8D"/>
<stop offset="0.2912" stop-color="#A52C87"/>
<stop offset="0.4845" stop-color="#C52B82"/>
<stop offset="0.6705" stop-color="#DC2A7E"/>
<stop offset="0.846" stop-color="#E92A7C"/>
<stop offset="1" stop-color="#EE2A7B"/>
</linearGradient>
<linearGradient id="paint26_linear_3113_10575" x1="53.8062" y1="71.2018" x2="55.1016" y2="52.8347" gradientUnits="userSpaceOnUse">
<stop stop-color="#662D91"/>
<stop offset="0.0940942" stop-color="#7C2D8D"/>
<stop offset="0.2912" stop-color="#A52C87"/>
<stop offset="0.4845" stop-color="#C52B82"/>
<stop offset="0.6705" stop-color="#DC2A7E"/>
<stop offset="0.846" stop-color="#E92A7C"/>
<stop offset="1" stop-color="#EE2A7B"/>
</linearGradient>
<linearGradient id="paint27_linear_3113_10575" x1="49.3875" y1="71.6754" x2="50.7447" y2="52.4336" gradientUnits="userSpaceOnUse">
<stop stop-color="#662D91"/>
<stop offset="0.0940942" stop-color="#7C2D8D"/>
<stop offset="0.2912" stop-color="#A52C87"/>
<stop offset="0.4845" stop-color="#C52B82"/>
<stop offset="0.6705" stop-color="#DC2A7E"/>
<stop offset="0.846" stop-color="#E92A7C"/>
<stop offset="1" stop-color="#EE2A7B"/>
</linearGradient>
<linearGradient id="paint28_linear_3113_10575" x1="49.6241" y1="70.9017" x2="50.9195" y2="52.5345" gradientUnits="userSpaceOnUse">
<stop stop-color="#662D91"/>
<stop offset="0.0940942" stop-color="#7C2D8D"/>
<stop offset="0.2912" stop-color="#A52C87"/>
<stop offset="0.4845" stop-color="#C52B82"/>
<stop offset="0.6705" stop-color="#DC2A7E"/>
<stop offset="0.846" stop-color="#E92A7C"/>
<stop offset="1" stop-color="#EE2A7B"/>
</linearGradient>
<linearGradient id="paint29_linear_3113_10575" x1="60.8959" y1="74.0788" x2="67.3126" y2="73.1119" gradientUnits="userSpaceOnUse">
<stop stop-color="#006838"/>
<stop offset="0.1509" stop-color="#056B38"/>
<stop offset="0.3229" stop-color="#127439"/>
<stop offset="0.5051" stop-color="#29843A"/>
<stop offset="0.6947" stop-color="#49993C"/>
<stop offset="0.8878" stop-color="#72B43E"/>
<stop offset="1" stop-color="#8DC63F"/>
</linearGradient>
<linearGradient id="paint30_linear_3113_10575" x1="60.5091" y1="71.5152" x2="66.9259" y2="70.5483" gradientUnits="userSpaceOnUse">
<stop stop-color="#006838"/>
<stop offset="0.1509" stop-color="#056B38"/>
<stop offset="0.3229" stop-color="#127439"/>
<stop offset="0.5051" stop-color="#29843A"/>
<stop offset="0.6947" stop-color="#49993C"/>
<stop offset="0.8878" stop-color="#72B43E"/>
<stop offset="1" stop-color="#8DC63F"/>
</linearGradient>
<linearGradient id="paint31_linear_3113_10575" x1="60.6842" y1="72.6931" x2="67.1009" y2="71.7262" gradientUnits="userSpaceOnUse">
<stop stop-color="#006838"/>
<stop offset="0.1509" stop-color="#056B38"/>
<stop offset="0.3229" stop-color="#127439"/>
<stop offset="0.5051" stop-color="#29843A"/>
<stop offset="0.6947" stop-color="#49993C"/>
<stop offset="0.8878" stop-color="#72B43E"/>
<stop offset="1" stop-color="#8DC63F"/>
</linearGradient>
<linearGradient id="paint32_linear_3113_10575" x1="60.8501" y1="73.8578" x2="67.2668" y2="72.8909" gradientUnits="userSpaceOnUse">
<stop stop-color="#006838"/>
<stop offset="0.1509" stop-color="#056B38"/>
<stop offset="0.3229" stop-color="#127439"/>
<stop offset="0.5051" stop-color="#29843A"/>
<stop offset="0.6947" stop-color="#49993C"/>
<stop offset="0.8878" stop-color="#72B43E"/>
<stop offset="1" stop-color="#8DC63F"/>
</linearGradient>
<linearGradient id="paint33_linear_3113_10575" x1="60.8235" y1="73.6368" x2="67.2403" y2="72.6699" gradientUnits="userSpaceOnUse">
<stop stop-color="#006838"/>
<stop offset="0.1509" stop-color="#056B38"/>
<stop offset="0.3229" stop-color="#127439"/>
<stop offset="0.5051" stop-color="#29843A"/>
<stop offset="0.6947" stop-color="#49993C"/>
<stop offset="0.8878" stop-color="#72B43E"/>
<stop offset="1" stop-color="#8DC63F"/>
</linearGradient>
<linearGradient id="paint34_linear_3113_10575" x1="60.7485" y1="73.1811" x2="67.1652" y2="72.2142" gradientUnits="userSpaceOnUse">
<stop stop-color="#006838"/>
<stop offset="0.1509" stop-color="#056B38"/>
<stop offset="0.3229" stop-color="#127439"/>
<stop offset="0.5051" stop-color="#29843A"/>
<stop offset="0.6947" stop-color="#49993C"/>
<stop offset="0.8878" stop-color="#72B43E"/>
<stop offset="1" stop-color="#8DC63F"/>
</linearGradient>
<linearGradient id="paint35_linear_3113_10575" x1="46.43" y1="75.1271" x2="46.43" y2="53.3377" gradientUnits="userSpaceOnUse">
<stop stop-color="#00AEEF"/>
<stop offset="0.0150842" stop-color="#01ABEC"/>
<stop offset="0.2295" stop-color="#1082CB"/>
<stop offset="0.4396" stop-color="#1C62B2"/>
<stop offset="0.6418" stop-color="#244B9F"/>
<stop offset="0.8325" stop-color="#293E94"/>
<stop offset="1" stop-color="#2B3990"/>
</linearGradient>
<linearGradient id="paint36_linear_3113_10575" x1="48.1845" y1="79.1439" x2="42.401" y2="54.1359" gradientUnits="userSpaceOnUse">
<stop stop-color="#00AEEF"/>
<stop offset="0.0150842" stop-color="#01ABEC"/>
<stop offset="0.2295" stop-color="#1082CB"/>
<stop offset="0.4396" stop-color="#1C62B2"/>
<stop offset="0.6418" stop-color="#244B9F"/>
<stop offset="0.8325" stop-color="#293E94"/>
<stop offset="1" stop-color="#2B3990"/>
</linearGradient>
<linearGradient id="paint37_linear_3113_10575" x1="66.1698" y1="52.8697" x2="70.4577" y2="70.8481" gradientUnits="userSpaceOnUse">
<stop stop-color="#FFF33B"/>
<stop offset="0.053592" stop-color="#FDE23B"/>
<stop offset="0.2252" stop-color="#F7B03B"/>
<stop offset="0.3951" stop-color="#F2873A"/>
<stop offset="0.5602" stop-color="#EE673A"/>
<stop offset="0.7189" stop-color="#EB503A"/>
<stop offset="0.8686" stop-color="#EA433A"/>
<stop offset="1" stop-color="#E93E3A"/>
</linearGradient>
<linearGradient id="paint38_linear_3113_10575" x1="65.0031" y1="53.1482" x2="69.2911" y2="71.1266" gradientUnits="userSpaceOnUse">
<stop stop-color="#FFF33B"/>
<stop offset="0.053592" stop-color="#FDE23B"/>
<stop offset="0.2252" stop-color="#F7B03B"/>
<stop offset="0.3951" stop-color="#F2873A"/>
<stop offset="0.5602" stop-color="#EE673A"/>
<stop offset="0.7189" stop-color="#EB503A"/>
<stop offset="0.8686" stop-color="#EA433A"/>
<stop offset="1" stop-color="#E93E3A"/>
</linearGradient>
<linearGradient id="paint39_linear_3113_10575" x1="72.6139" y1="79.3207" x2="71.7559" y2="71.5431" gradientUnits="userSpaceOnUse">
<stop stop-color="#FFF33B"/>
<stop offset="0.0438805" stop-color="#FDE23B"/>
<stop offset="0.1844" stop-color="#F7B03B"/>
<stop offset="0.3235" stop-color="#F2873A"/>
<stop offset="0.4587" stop-color="#EE673A"/>
<stop offset="0.5886" stop-color="#EB503A"/>
<stop offset="0.7112" stop-color="#EA433A"/>
<stop offset="0.8188" stop-color="#E93E3A"/>
</linearGradient>
<linearGradient id="paint40_linear_3113_10575" x1="76.1294" y1="75.1257" x2="76.1294" y2="53.3363" gradientUnits="userSpaceOnUse">
<stop stop-color="#00AEEF"/>
<stop offset="0.0150842" stop-color="#01ABEC"/>
<stop offset="0.2295" stop-color="#1082CB"/>
<stop offset="0.4396" stop-color="#1C62B2"/>
<stop offset="0.6418" stop-color="#244B9F"/>
<stop offset="0.8325" stop-color="#293E94"/>
<stop offset="1" stop-color="#2B3990"/>
</linearGradient>
<clipPath id="clip0_3113_10575">
<rect width="127" height="127" fill="white"/>
</clipPath>
</defs>
</svg>
