<svg width="28" height="33" viewBox="0 0 28 33" fill="none" xmlns="http://www.w3.org/2000/svg">
<path d="M18.6455 15.991C17.9651 15.991 17.4135 15.439 17.4135 14.7581C17.4135 14.0772 17.9651 13.5252 18.6455 13.5252C19.326 13.5252 19.8776 14.0772 19.8776 14.7581C19.8776 15.439 19.326 15.991 18.6455 15.991Z" fill="#FBB040"/>
<path d="M14.4771 15.991C13.7967 15.991 13.245 15.439 13.245 14.7581C13.245 14.0772 13.7967 13.5252 14.4771 13.5252C15.1575 13.5252 15.7092 14.0772 15.7092 14.7581C15.7092 15.439 15.1575 15.991 14.4771 15.991Z" fill="#8DC63F"/>
<path d="M10.2881 15.991C9.60766 15.991 9.05605 15.439 9.05605 14.7581C9.05605 14.0772 9.60766 13.5252 10.2881 13.5252C10.9685 13.5252 11.5202 14.0772 11.5202 14.7581C11.5202 15.439 10.9685 15.991 10.2881 15.991Z" fill="#FFDE17"/>
<path d="M0.246878 4.31975C0.370083 4.40194 0.472752 4.46358 0.616491 4.60742C0.637026 4.64851 0.657562 4.66906 0.657562 4.66906C0.59596 4.62797 0.513821 4.56632 0.431685 4.52523C0.267411 4.42249 0.205809 4.3403 0.246878 4.31975Z" fill="url(#paint0_linear_2806_8740)"/>
<path d="M0.658402 4.66907C0.719504 4.71016 0.760239 4.73071 0.760239 4.73071C0.739871 4.71016 0.719507 4.71016 0.699139 4.68962C0.678772 4.68962 0.67877 4.68962 0.658402 4.66907C0.67877 4.68962 0.67877 4.68962 0.658402 4.66907Z" fill="url(#paint1_linear_2806_8740)"/>
<path d="M11.2327 0.867688C11.1506 0.888236 11.0684 0.929332 10.9863 0.94988C11.0684 0.94988 11.1711 0.929332 11.2738 0.888236C11.397 0.867688 11.5202 0.84714 11.6434 0.806044C11.3148 0.888236 10.9863 0.990976 10.6372 1.09372C10.3087 1.19646 9.95957 1.31974 9.61049 1.44303C8.91232 1.68961 8.21416 1.99783 7.55706 2.32659C6.89997 2.65536 6.26341 3.02522 5.68845 3.41563C5.11349 3.80604 4.60014 4.19646 4.14838 4.54577C3.8609 4.83344 3.57342 5.12111 3.36808 5.32659C3.26541 5.42933 3.16274 5.51152 3.0806 5.57317C2.99847 5.63481 2.9574 5.67591 2.91633 5.67591C2.79312 5.67591 3.10114 5.12111 3.69663 4.50467C3.81984 4.36084 3.96358 4.19646 4.06625 4.09372C4.4564 3.62111 4.92868 3.12796 5.50364 2.65536C5.64738 2.53207 5.79112 2.40878 5.95539 2.30604C6.11967 2.18276 6.26341 2.08002 6.42768 1.95673C6.59196 1.85399 6.75623 1.7307 6.94104 1.62796C7.10531 1.52522 7.29012 1.42248 7.47493 1.31974C7.33119 1.40193 7.18745 1.48413 7.06424 1.58687C6.9205 1.68961 6.7973 1.7718 6.65356 1.87454C6.8589 1.75125 7.06424 1.60741 7.26958 1.48413C7.49546 1.36084 7.7008 1.23755 7.94721 1.13481C7.90615 1.17591 7.84454 1.217 7.80347 1.2581C8.52217 0.84714 9.46675 0.477277 10.3703 0.25125C11.2738 0.0252225 12.1362 -0.0158736 12.7112 0.00467436C13.2861 0.0457703 13.4709 0.14851 13.3272 0.25125C13.1629 0.374538 12.6701 0.477277 11.9103 0.662209C11.6844 0.744401 11.4586 0.806044 11.2327 0.867688Z" fill="url(#paint2_linear_2806_8740)"/>
<path d="M8.64538 2.2855C9.44622 1.85399 10.2676 1.52523 11.13 1.2581L11.2943 1.19646L11.2738 1.36084H11.2532C10.4113 1.40194 9.0766 1.7718 7.92668 2.3266C7.78294 2.38824 7.65974 2.44988 7.516 2.51153C7.31066 2.59372 7.18745 2.65536 7.12585 2.65536C7.06425 2.65536 7.10532 2.59372 7.22852 2.49098C7.29012 2.44988 7.37226 2.36769 7.47493 2.30605C7.5776 2.2444 7.70081 2.18276 7.82401 2.10057C8.02935 1.97728 8.2347 1.89509 8.44004 1.79235C9.19981 1.40194 10.2471 1.03207 11.2327 0.847143C12.2183 0.662212 13.1218 0.662212 13.5941 0.764951C13.7995 0.826595 13.6147 0.888239 13.5736 0.970431C13.6147 1.01153 13.4709 1.05262 13.2245 1.11427C13.1013 1.13481 12.9576 1.17591 12.7728 1.19646C12.6085 1.21701 12.4237 1.2581 12.2183 1.27865C11.4175 1.40194 10.7193 1.50468 10.6372 1.42249C10.514 1.46358 10.3703 1.50468 10.2265 1.56632C10.3292 1.54577 10.4524 1.52523 10.5551 1.50468C10.4319 1.50468 10.1854 1.52523 9.89797 1.60742C9.61049 1.66906 9.30248 1.7718 9.03553 1.85399C8.76859 1.93618 8.50164 2.05947 8.25523 2.16221L8.60431 1.75125C8.74805 1.71016 8.89179 1.64851 9.03553 1.60742C9.015 1.62797 8.95339 1.66906 8.95339 1.66906C9.77476 1.42249 10.5345 1.23755 11.4586 1.11427L12.0335 1.05262L12.6085 1.01153C12.7728 1.01153 12.8344 1.03207 12.8344 1.07317C12.8344 1.09372 12.7317 1.13481 12.5674 1.17591L12.0746 1.27865C12.1567 1.2581 12.2183 1.23755 12.3005 1.21701C11.1506 1.40194 9.98011 1.7718 8.95339 2.26495C8.78912 2.34714 8.58378 2.42933 8.50164 2.44988C8.41951 2.40879 8.48111 2.36769 8.64538 2.2855Z" fill="url(#paint3_linear_2806_8740)"/>
<path d="M12.5674 1.23756C12.7522 1.19646 12.937 1.17591 13.204 1.15536C13.2656 1.15536 13.3066 1.15536 13.3272 1.15536C13.2245 1.17591 13.1013 1.19646 12.9576 1.21701C12.6906 1.27865 12.5674 1.27865 12.5674 1.23756Z" fill="url(#paint4_linear_2806_8740)"/>
<path d="M13.3067 1.15536C13.3888 1.13481 13.4504 1.13481 13.4504 1.13481C13.4093 1.13481 13.3888 1.15536 13.3477 1.15536C13.3272 1.15536 13.3272 1.15536 13.3272 1.15536C13.3272 1.15536 13.3272 1.15536 13.3067 1.15536Z" fill="url(#paint5_linear_2806_8740)"/>
<path d="M22.5881 25.6691C24.0255 24.5389 25.2576 23.1006 26.1405 21.4978C27.044 19.8951 27.619 18.1074 27.8243 16.2786C27.8449 16.1554 27.8654 16.0526 27.886 16.0526C27.9065 16.0526 27.9065 16.1348 27.886 16.2581C27.6806 18.0869 27.1056 19.8745 26.2227 21.4773C25.3192 23.08 24.1077 24.5184 22.6703 25.6691C22.5676 25.7512 22.4854 25.7923 22.4649 25.7923C22.4238 25.7923 22.4854 25.7307 22.5881 25.6691Z" fill="#1C75BC"/>
<path d="M20.1651 3.68275C20.2267 3.72385 20.2267 3.7444 20.1445 3.7033C20.0829 3.68275 19.9597 3.62111 19.8981 3.58001C19.8365 3.53892 19.8571 3.51837 19.9187 3.55946C20.0213 3.58001 20.124 3.62111 20.1651 3.68275Z" fill="url(#paint6_linear_2806_8740)"/>
<path d="M11.3148 1.85399C11.3764 1.81289 11.4175 1.81289 11.4791 1.79234C11.3148 1.85399 11.3148 1.85399 11.3148 1.85399Z" fill="url(#paint7_linear_2806_8740)"/>
<path d="M10.9452 3.66221L10.9041 3.68276C10.822 3.66221 10.7399 3.62112 10.6577 3.60057L10.4113 3.53893L10.6783 3.60057L10.9452 3.66221Z" fill="url(#paint8_linear_2806_8740)"/>
<path d="M8.13202 3.47728C8.04988 3.53892 8.00881 3.60057 7.94721 3.64166C8.00881 3.60057 8.04988 3.53892 8.07042 3.51838C8.11149 3.49783 8.13202 3.47728 8.13202 3.47728Z" fill="url(#paint9_linear_2806_8740)"/>
<path d="M5.99646 3.97043C5.62684 4.31974 5.38043 4.64851 5.15456 4.93618C5.03135 5.03892 4.90815 5.16221 4.78494 5.2855C4.66174 5.40878 4.53853 5.53207 4.41533 5.65536C3.77876 6.35399 3.24487 7.09372 2.79312 7.87454C2.81365 7.75125 2.71098 7.93618 2.64938 8.03892C2.58778 8.14166 2.52618 8.22385 2.46457 8.32659C2.89579 7.46358 3.42968 6.64166 4.04571 5.88139C4.6412 5.20331 5.3599 4.52522 5.99646 3.97043Z" fill="url(#paint10_linear_2806_8740)"/>
<path d="M14.5798 28.1554C14.6824 28.1348 14.8262 28.1348 14.9494 28.1348C14.8262 28.1348 14.703 28.1554 14.5798 28.1554Z" fill="url(#paint11_linear_2806_8740)"/>
<path d="M3.57343 7.09372C3.63503 6.99098 3.6761 6.90879 3.7377 6.8266C3.71717 6.84715 3.71717 6.8677 3.69663 6.90879C3.63503 7.05263 3.55289 7.21701 3.51182 7.31975C3.45022 7.42249 3.42969 7.50468 3.42969 7.50468C3.51182 7.2992 3.55289 7.19646 3.57343 7.13482C3.57343 7.09372 3.57343 7.09372 3.57343 7.09372Z" fill="url(#paint12_linear_2806_8740)"/>
<path d="M12.7522 28.1554C12.013 28.0937 11.2738 27.9704 10.5551 27.8061C10.1033 27.6828 9.65156 27.5184 9.19981 27.354C10.1238 27.6828 11.0684 27.9088 12.0335 28.0321C12.8754 28.1554 13.7173 28.1759 14.5592 28.1554C14.5592 28.1554 14.5798 28.1554 14.5798 28.1759C13.9637 28.1965 13.3683 28.1965 12.7522 28.1554Z" fill="#662D91"/>
<path d="M0.123679 12.4978C0.144213 12.5595 0.164751 12.6211 0.185285 12.6828C0.205819 12.4567 0.22635 12.2923 0.22635 12.1074C0.22635 12.0252 0.246885 11.9225 0.246885 11.8197C0.267419 11.717 0.287951 11.6143 0.308485 11.491C0.308485 11.6348 0.287956 11.7581 0.287956 11.9019V11.8814C0.30849 11.6143 0.370089 11.3266 0.431692 11.0389C0.513829 10.7307 0.575435 10.4225 0.698641 10.1143C0.862914 9.41563 1.12986 8.63481 1.49947 7.85399C1.86909 7.07317 2.36191 6.29235 2.93687 5.55262C3.51183 4.8129 4.18946 4.11427 4.92869 3.49783C5.66792 2.88139 6.46876 2.36769 7.29012 1.93618C7.53654 1.81289 7.78294 1.71016 7.82401 1.71016C7.86508 1.7307 7.70081 1.83344 7.4544 1.97728C6.50983 2.53207 5.72952 3.16906 4.88762 3.92933C3.32702 5.38824 2.21817 7.07317 1.37627 9.06632C1.3352 9.18961 1.29413 9.3129 1.25306 9.43618C1.21199 9.62112 1.17092 9.7855 1.12985 9.97043C1.12985 9.94988 1.15039 9.92933 1.15039 9.88824C1.23253 9.66221 1.29413 9.43618 1.37627 9.21015C1.35573 9.25125 1.35573 9.29235 1.35573 9.33344C1.70481 8.47043 2.1155 7.62796 2.62886 6.86769C3.08061 6.10742 3.63503 5.36769 4.29213 4.68961C4.94922 4.01153 5.70899 3.37454 6.50982 2.86084C7.33119 2.32659 8.19363 1.89509 9.0766 1.58687C9.95957 1.27865 10.8631 1.07317 11.705 0.990977C12.013 0.929334 12.2389 0.949882 12.1978 0.990977C12.1773 1.01153 12.0951 1.03207 11.9925 1.07317C11.8898 1.09372 11.7461 1.13481 11.6023 1.15536C9.95957 1.50468 8.37844 2.18276 7.12585 3.04577C7.08478 3.08687 7.18745 3.06632 7.10532 3.12796C7.06425 3.16906 7.02318 3.21016 6.96158 3.25125C7.10532 3.12796 7.29012 3.02522 7.47493 2.92248C7.55707 2.88139 7.65974 2.84029 7.72134 2.7992C7.80348 2.7581 7.86508 2.73755 7.94722 2.69646C8.09096 2.63481 8.19363 2.59372 8.2963 2.55262C8.48111 2.47043 8.60431 2.42933 8.70699 2.40879C8.70699 2.40879 8.70699 2.40879 8.76859 2.38824C8.85073 2.34714 8.93286 2.32659 9.05607 2.2855C9.0766 2.2855 9.09714 2.26495 9.13821 2.26495C9.24088 2.22385 9.36408 2.16221 9.46675 2.12111C9.58996 2.05947 9.71316 2.03892 9.7953 2.01837C9.83637 1.99783 9.87744 1.95673 9.93904 1.93618C10.1033 1.87454 10.2265 1.83344 10.3292 1.79235C10.4319 1.75125 10.514 1.7307 10.5961 1.71016C10.7604 1.64851 10.9247 1.60742 11.2738 1.52522C11.2738 1.52522 11.2738 1.54577 11.2532 1.56632C11.2738 1.56632 11.3354 1.54577 11.4175 1.52522C11.5202 1.50468 11.6434 1.48413 11.7666 1.46358C11.8898 1.44303 11.9719 1.42248 12.0746 1.40194C12.1978 1.38139 12.3621 1.36084 12.6906 1.2992C12.6906 1.2992 12.6906 1.2992 12.3826 1.38139C12.3826 1.38139 12.3826 1.38139 12.6496 1.31974C12.6496 1.31974 12.6496 1.31974 12.588 1.38139C12.588 1.38139 12.588 1.38139 12.7112 1.31974C12.7112 1.31974 12.7112 1.31974 12.7317 1.31974C12.7522 1.31974 12.7728 1.31974 12.8344 1.34029C12.8344 1.34029 12.8344 1.34029 13.3888 1.17591C13.4299 1.17591 13.5325 1.17591 13.7995 1.17591C13.7995 1.17591 13.8816 1.17591 13.9227 1.19646C13.9227 1.217 13.9227 1.217 14.1486 1.2581C14.1486 1.2581 14.1486 1.27865 14.128 1.2992C14.0664 1.31974 14.0664 1.31974 14.0459 1.36084C14.0459 1.36084 13.9637 1.38139 13.8611 1.40194C13.7584 1.42248 13.7379 1.40194 13.3477 1.46358C13.3888 1.46358 13.4093 1.48413 13.4504 1.48413C13.5325 1.56632 13.5325 1.56632 13.0602 1.79235C13.0602 1.79235 12.9986 1.81289 12.8754 1.83344C12.7522 1.85399 12.588 1.91564 12.3826 1.95673C12.1362 1.99783 12.013 2.03892 11.8898 2.05947C11.7666 2.08002 11.6228 2.12111 11.3354 2.18276C11.3354 2.18276 11.2122 2.22385 11.0068 2.2855C10.8631 2.34714 10.822 2.36769 10.7193 2.42933C10.822 2.40879 10.9247 2.36769 11.0068 2.36769C11.2532 2.32659 11.3148 2.36769 11.1095 2.44988C11.4175 2.51153 11.2738 2.65536 10.9657 2.86084C11.0684 2.88139 11.13 2.90194 11.13 2.96358C11.5407 2.98413 11.8077 3.04577 11.9309 3.14851L11.9925 3.25125C11.8898 3.35399 11.6023 3.49783 11.1711 3.68276L11.0479 3.7444L11.1916 3.7855C10.9452 3.97043 10.5551 4.19646 10.1854 4.46358C10.0828 4.52522 10.0006 4.58687 9.89797 4.66906C9.81583 4.7307 9.71316 4.81289 9.63103 4.87454C9.46675 4.99783 9.30248 5.16221 9.17927 5.2855C9.11767 5.34714 9.05607 5.40879 8.99447 5.44988L8.80966 5.63481C8.54271 5.90194 8.09096 6.2718 7.59814 6.72385C7.43386 6.88824 7.24906 7.05262 7.08478 7.217C6.98211 7.31974 6.87944 7.42248 6.77677 7.52522C6.92051 7.40194 7.06425 7.31974 7.18745 7.23755C7.31066 7.15536 7.43386 7.11427 7.516 7.09372C7.70081 7.03207 7.80348 7.05262 7.80348 7.17591C7.80348 7.36084 7.53654 7.7307 7.18745 8.2444C6.81784 8.7581 6.36608 9.41563 5.9554 10.1348C5.42151 11.1006 5.0519 12.1485 4.88762 13.2376C4.72335 14.3266 4.74388 15.4362 4.94922 16.5252C5.15456 17.5937 5.56525 18.6417 6.14021 19.6074C6.71517 20.5732 7.47493 21.4362 8.3579 22.1554C8.70699 22.4225 9.05607 22.6896 9.42568 22.8951C10.6783 24.9704 12.4442 26.7581 14.5798 28.1554C13.7379 28.1759 12.896 28.1554 12.0541 28.0321C11.089 27.8882 10.1444 27.6622 9.22034 27.354C9.65156 27.5389 10.1033 27.6828 10.5756 27.806C11.2943 27.991 12.0335 28.0937 12.7728 28.1554C13.3888 28.1965 14.0048 28.1965 14.6208 28.1554C14.6619 28.1759 14.703 28.217 14.744 28.2376C14.6208 28.2376 14.4976 28.2581 14.3744 28.2581C13.6968 28.2786 12.9986 28.2581 12.321 28.1759C13.1629 28.2992 14.0048 28.3403 14.8467 28.3197C14.9289 28.3814 15.0315 28.4225 15.1137 28.4841C14.0048 28.5458 12.896 28.5047 11.8077 28.2992C10.6783 28.0937 9.56942 27.7649 8.52218 27.2923C7.90615 27.1485 6.98211 26.7787 6.017 26.1828C5.52418 25.8951 5.0519 25.5252 4.57961 25.1348C4.35373 24.9293 4.10732 24.7239 3.90198 24.4978C3.79931 24.3951 3.6761 24.2718 3.57343 24.1691C3.47076 24.0458 3.36809 23.943 3.26542 23.8197C2.69046 23.1417 2.2387 22.4225 1.84855 21.6828C1.95122 21.8471 2.0539 22.0115 2.15657 22.1759C2.25924 22.3403 2.36191 22.5047 2.48511 22.6485C2.32084 22.4019 2.1771 22.1759 2.0539 21.9499C1.93069 21.7033 1.80749 21.4773 1.70482 21.2513C1.49947 20.7992 1.31466 20.3471 1.17093 19.8745C1.12986 19.7923 1.10932 19.7307 1.06825 19.6485C0.595967 18.6417 0.287952 17.4499 0.123679 16.217C-0.0611294 14.9636 -0.020061 13.6896 0.123679 12.4978ZM12.5469 1.56632C12.5058 1.56632 12.4647 1.58687 12.4031 1.58687C12.4442 1.60742 12.5058 1.60742 12.5469 1.56632ZM12.2389 1.50468C12.2594 1.50468 12.2799 1.48413 12.321 1.48413C12.321 1.48413 12.321 1.48413 12.1362 1.44303C12.1362 1.46358 12.1773 1.48413 12.2389 1.50468ZM11.4791 1.7718C11.4175 1.79235 11.3764 1.81289 11.3148 1.83344C11.3148 1.85399 11.3148 1.85399 11.4791 1.7718ZM10.6783 3.60057C10.7604 3.62111 10.8425 3.64166 10.9247 3.68276L10.9657 3.66221L10.6783 3.60057L10.4319 3.53892L10.6783 3.60057ZM7.94722 3.66221C7.98829 3.62111 8.04989 3.55947 8.13203 3.49783C8.13203 3.49783 8.11149 3.51837 8.07043 3.53892C8.04989 3.55947 8.00882 3.60057 7.94722 3.66221ZM3.49129 7.31974C3.5529 7.19646 3.6145 7.05262 3.6761 6.90879C3.69663 6.86769 3.69663 6.84714 3.71717 6.82659C3.6761 6.90879 3.6145 6.99098 3.5529 7.09372C3.5529 7.09372 3.5529 7.09372 3.53236 7.15536C3.51183 7.217 3.47076 7.31974 3.38862 7.52522C3.40916 7.50468 3.42969 7.42248 3.49129 7.31974ZM2.66992 8.05947C2.73153 7.95673 2.8342 7.7718 2.81366 7.89509C3.26542 7.11426 3.7993 6.35399 4.43587 5.67591C4.55907 5.55262 4.68228 5.42933 4.80548 5.30605C4.92869 5.18276 5.05189 5.08002 5.1751 4.95673C5.40098 4.64851 5.64739 4.34029 6.017 3.99098C5.35991 4.54577 4.66174 5.22385 4.10732 5.92248C3.49129 6.68276 2.9574 7.50468 2.52619 8.36769C2.54672 8.2444 2.60832 8.14166 2.66992 8.05947Z" fill="url(#paint13_linear_2806_8740)"/>
<path d="M12.4031 1.58686C12.4442 1.58686 12.4853 1.56631 12.5469 1.56631C12.5058 1.60741 12.4442 1.60741 12.4031 1.58686Z" fill="url(#paint14_linear_2806_8740)"/>
<path d="M12.2389 1.50468C12.1773 1.46359 12.1362 1.44304 12.1362 1.44304C12.321 1.48413 12.321 1.48413 12.321 1.48413C12.3005 1.50468 12.2594 1.50468 12.2389 1.50468Z" fill="url(#paint15_linear_2806_8740)"/>
<path d="M21.2739 26.4704C21.2739 26.5115 21.2739 26.5526 21.2945 26.5937L20.9659 26.7786L20.7811 26.8814L20.5963 26.9841L20.2061 27.1691C19.6928 27.4156 19.1589 27.6417 18.6045 27.806C18.0501 27.991 17.4956 28.1348 16.9412 28.2376C16.3663 28.3403 15.8118 28.4225 15.2369 28.4636C15.1958 28.4636 15.1547 28.4636 15.1137 28.4636C15.0315 28.4019 14.9289 28.3608 14.8467 28.2992C17.0849 28.217 19.3232 27.58 21.2739 26.4704Z" fill="url(#paint16_linear_2806_8740)"/>
<path d="M12.8549 24.1485L13.1629 24.1896L13.4709 24.2102L13.6147 24.2307H13.7789L14.0869 24.2513C14.1896 24.2513 14.2923 24.2513 14.395 24.2513C14.4976 24.2513 14.6003 24.2513 14.703 24.2513C14.9083 24.2307 15.1136 24.2307 15.319 24.2102C15.7297 24.1691 16.1404 24.0869 16.551 24.0047L16.8591 23.9225L17.0028 23.8814L17.1465 23.8403C17.2492 23.7992 17.3519 23.7786 17.4546 23.7376C17.5572 23.6965 17.6599 23.6554 17.742 23.6143L17.8858 23.5732L18.0295 23.5115L18.317 23.3882L18.5839 23.265C18.6866 23.2239 18.7687 23.1828 18.8509 23.1211L19.1178 22.9773C19.2 22.9362 19.3026 22.8745 19.3848 22.8334C19.5696 22.7307 19.7338 22.628 19.8981 22.5047C20.5758 22.0526 21.1918 21.5184 21.7462 20.9019C22.2801 20.2855 22.7729 19.628 23.1631 18.9088C23.5532 18.1896 23.8612 17.4088 24.0666 16.6074C24.4157 15.2513 24.4978 13.9567 24.4157 12.7239C24.3746 12.1074 24.2719 11.491 24.1076 10.8745C23.9434 10.2581 23.738 9.66221 23.4505 9.06632C23.4095 9.00468 23.43 8.98413 23.4505 9.00468C23.4916 9.04578 23.5532 9.14852 23.5738 9.21016C24.5389 11.1006 24.929 13.2376 24.7031 15.354C24.4978 17.4499 23.6559 19.5047 22.2801 21.1896C21.9721 21.58 21.623 21.9499 21.2739 22.2787C21.2328 22.3197 21.1918 22.3608 21.1507 22.4019C20.8222 22.7102 20.4936 22.9978 20.124 23.265C20.2472 23.1828 20.3704 23.1006 20.4936 22.9978C20.6168 22.8951 20.74 22.8129 20.8222 22.7718C20.9043 22.7102 20.9864 22.6896 21.007 22.6896C21.0275 22.7102 21.007 22.7513 20.9454 22.8129C21.3971 22.4636 21.8283 22.0732 22.2185 21.6622C22.6086 21.2513 22.9783 20.7992 23.3068 20.3471C23.4916 20.0595 23.6559 19.7924 23.7996 19.5663C24.3746 18.354 24.7031 17.0595 24.8058 15.7444L24.8263 15.4156C24.8469 14.9841 24.8674 14.5526 24.929 14.3471C24.9495 14.2855 24.9701 14.2444 24.9701 14.2239C24.9701 13.4636 24.8674 12.6828 24.7031 11.943C24.5389 11.1828 24.2924 10.4636 23.9639 9.76495C23.3273 8.36769 22.4033 7.11427 21.3355 6.08687C21.2328 5.98413 21.1712 5.92249 21.2123 5.92249C21.1712 5.90194 21.1096 5.8403 21.048 5.7992C20.9864 5.73756 20.9248 5.67591 20.8427 5.61427C20.7606 5.55263 20.699 5.49098 20.6168 5.42934C20.5347 5.36769 20.4525 5.30605 20.3704 5.24441C20.2883 5.18276 20.2061 5.12112 20.124 5.05947C20.0419 4.99783 20.0213 4.95673 20.0624 4.97728C20.1035 4.99783 20.2061 5.03893 20.2677 5.10057C20.6168 5.34715 20.9454 5.63482 21.2328 5.90194C21.2534 5.92249 21.2739 5.94304 21.2739 5.96358C21.3561 6.00468 21.4587 6.08687 21.5614 6.18961C22.7113 7.23756 23.5943 8.51153 24.2103 9.88824C24.8263 11.265 25.1549 12.765 25.196 14.306C25.2165 12.806 24.929 11.2444 24.2719 9.74441C23.8612 8.8403 23.3684 7.99783 22.7729 7.2581C22.4854 6.86769 22.1569 6.51838 21.8078 6.16906C21.623 6.00468 21.4587 5.81975 21.2534 5.67591C21.1507 5.59372 21.0686 5.51153 20.9659 5.42934C20.8632 5.34715 20.7606 5.2855 20.6579 5.20331C20.5758 5.14167 20.5142 5.10057 20.5347 5.08002C20.5552 5.08002 20.6374 5.12112 20.7195 5.18276C20.8222 5.26495 20.9248 5.34715 21.0275 5.40879C21.1302 5.49098 21.2328 5.57317 21.3355 5.65537L21.4793 5.77865L21.623 5.90194C21.7257 5.98413 21.8078 6.06632 21.9105 6.16906C22.0953 6.354 22.2801 6.51838 22.4444 6.72386C22.5265 6.8266 22.6086 6.90879 22.6908 7.01153L22.9167 7.2992C22.9988 7.40194 23.0604 7.50468 23.1425 7.60742C23.2041 7.71016 23.2863 7.8129 23.3479 7.91564C23.4711 8.12112 23.6148 8.3266 23.738 8.55263C23.9844 8.98413 24.1898 9.41564 24.3951 9.86769C24.7647 10.7718 25.0317 11.717 25.1754 12.6828C25.196 12.806 25.2165 12.9293 25.237 13.0526C25.2576 13.1759 25.2576 13.2992 25.2781 13.4225L25.2986 13.6074V13.7924C25.2986 13.9156 25.3192 14.0389 25.3192 14.1622C25.3192 14.2855 25.3192 14.4088 25.3192 14.5526V14.7376V14.9225C25.3192 15.0458 25.3192 15.1896 25.2986 15.3129C25.2986 15.4362 25.2781 15.58 25.2576 15.7033C25.2576 15.8677 25.2165 16.0321 25.2165 16.1965C25.504 14.9225 25.5656 13.6074 25.4013 12.3129C25.196 11.3471 24.8879 10.3814 24.4567 9.49783C24.2514 9.04578 23.9844 8.61427 23.7175 8.20331C23.5738 7.99783 23.4505 7.79235 23.2863 7.58687L23.0604 7.2992L22.814 7.01153C22.7318 6.90879 22.6497 6.8266 22.5676 6.72386L22.3212 6.45673C22.1364 6.29235 21.9721 6.10742 21.7873 5.94304C21.4177 5.59372 21.0275 5.30605 20.6374 4.99783L20.3293 4.79235L20.1651 4.68961L20.0008 4.58687L19.6722 4.40194L19.3437 4.21701L19.1794 4.13482L19.0152 4.05263L18.6866 3.88824C18.5634 3.84715 18.4607 3.7855 18.3375 3.74441C18.2143 3.70331 18.1116 3.64167 17.9884 3.60057C17.8036 3.53893 17.6599 3.45673 17.6804 3.43619C17.701 3.41564 17.8652 3.43619 18.05 3.51838C20.2472 4.11427 22.2185 5.49098 23.6559 7.31975C23.5737 7.17591 23.4711 7.05263 23.3889 6.90879L23.0809 6.53893C22.0748 5.42934 20.8838 4.50468 19.5285 3.80605C19.4669 3.76495 19.4053 3.74441 19.3437 3.70331C19.2821 3.68276 19.2205 3.64167 19.1794 3.62112C19.0768 3.55947 18.9741 3.51838 18.8919 3.45674C18.7277 3.354 18.625 3.29235 18.625 3.25126C18.625 3.21016 18.7482 3.23071 18.9125 3.2718C19.0768 3.3129 19.3026 3.39509 19.5696 3.51838C19.4874 3.47728 19.4053 3.43619 19.3232 3.39509C19.241 3.354 19.1794 3.3129 19.2205 3.3129C19.2616 3.3129 19.3642 3.354 19.4464 3.39509C19.5901 3.47728 19.7338 3.55947 19.8571 3.64167C20.0008 3.72386 20.124 3.80605 20.2677 3.88824C21.5409 4.60742 22.6908 5.55263 23.6354 6.68276C24.5799 7.8129 25.3192 9.10742 25.7914 10.4841C25.2986 8.98413 24.5183 7.56632 23.4711 6.33345C22.4238 5.10057 21.1302 4.09372 19.6722 3.354C19.7339 3.39509 19.7338 3.41564 19.6517 3.37454C19.5901 3.354 19.4669 3.29235 19.4053 3.25126C19.3437 3.21016 19.3642 3.21016 19.4258 3.23071C17.8447 2.47043 16.0788 2.08002 14.3334 2.05948C14.2307 2.05948 14.1485 2.03893 14.1485 2.03893C14.1485 2.01838 14.2512 2.01838 14.3539 2.01838C15.8118 2.01838 17.2697 2.3266 18.6455 2.8403C20.0008 3.354 21.2534 4.13482 22.3417 5.10057C22.8756 5.57317 23.3684 6.10742 23.8202 6.66221C24.2719 7.21701 24.6621 7.83345 24.9906 8.44989C25.3192 9.06632 25.6066 9.72386 25.8325 10.4019C26.0584 11.08 26.2021 11.7581 26.3048 12.4567C26.3664 12.765 26.3869 13.0526 26.428 13.3608C26.4896 13.443 26.5512 13.6485 26.6128 13.9156C26.5717 12.9088 26.4075 11.9225 26.1405 10.9773C25.8736 10.0115 25.4629 9.08687 24.9701 8.22386C24.1076 6.7855 22.9783 5.53208 21.623 4.52523C21.4177 4.38139 21.2739 4.25811 21.2945 4.21701C21.315 4.19646 21.4793 4.27865 21.6846 4.42249C21.8489 4.54578 22.0131 4.66906 22.1774 4.79235C22.3417 4.91564 22.4854 5.05947 22.6497 5.20331C22.4238 4.95674 22.2801 4.75126 22.3006 4.68961C22.3212 4.62797 22.4854 4.68961 22.7318 4.854C21.3766 3.58002 19.7338 2.57317 18.009 1.95674C17.9063 1.91564 17.8447 1.89509 17.8858 1.89509C17.9268 1.89509 18.0295 1.91564 18.1322 1.95674C20.6784 2.7992 22.8961 4.44304 24.4773 6.53893C24.6415 6.74441 24.8058 6.94989 24.9495 7.15537C25.1138 7.36084 25.2576 7.58687 25.4013 7.79235C25.6888 8.22386 25.9557 8.67591 26.1816 9.14852C26.428 9.62112 26.6128 10.1143 26.7976 10.628C26.9619 11.1417 27.1262 11.6759 27.2288 12.2513C27.5369 13.8745 27.5163 15.5184 27.1878 17.0595C26.8798 18.6006 26.2843 20.0595 25.4424 21.3745C24.8879 22.3403 24.2103 23.2239 23.4505 24.0047C23.5737 23.9225 23.6764 23.8608 23.697 23.9019C23.697 23.9019 23.697 23.9225 23.697 23.943C24.3746 23.2444 24.9701 22.4636 25.504 21.6006C25.7914 21.1074 26.0789 20.5937 26.3048 20.08C26.428 19.8129 26.5307 19.5458 26.6333 19.2787C26.695 19.1554 26.736 19.0115 26.7771 18.8677C26.8182 18.7239 26.8798 18.6006 26.9003 18.4567C27.2288 17.3677 27.4342 16.2376 27.4753 15.1074C27.5163 13.9773 27.4547 12.8471 27.2288 11.7581C27.1672 11.491 27.1056 11.2033 27.044 10.9362C27.003 10.7924 26.9824 10.6691 26.9414 10.5252L26.8182 10.1348C26.7771 9.99098 26.736 9.86769 26.6744 9.74441L26.5307 9.354L26.3664 8.96358C26.3048 8.8403 26.2637 8.69646 26.2021 8.57317C25.7298 7.56632 25.1138 6.60057 24.4157 5.75811C24.0666 5.3266 23.6764 4.91564 23.2657 4.52523C22.8551 4.15537 22.4238 3.76495 21.9721 3.43619C20.1651 2.10057 18.009 1.19646 15.7502 0.888242C15.6681 0.867694 15.6065 0.867694 15.5449 0.847146C15.4833 0.847146 15.4217 0.826598 15.3601 0.826598C15.2369 0.80605 15.1342 0.785502 15.052 0.764954C14.8878 0.723859 14.8056 0.682763 14.8262 0.662215C14.8672 0.621119 15.011 0.621119 15.2369 0.600571C15.3395 0.600571 15.4833 0.600571 15.6065 0.600571C15.7502 0.621119 15.8939 0.621119 16.0377 0.641667C16.3046 0.662215 16.5921 0.723859 16.8591 0.785502C17.126 0.847146 17.3929 0.90879 17.6599 0.970434C18.1938 1.11427 18.7071 1.27865 19.2 1.48413C20.2061 1.89509 21.1507 2.40879 22.0131 3.02523C22.8756 3.64167 23.6764 4.38139 24.3746 5.18276C25.0727 6.00468 25.6888 6.90879 26.2021 7.89509C26.5717 8.59372 26.8592 9.3129 27.0851 10.0321C27.311 10.7513 27.4753 11.4704 27.5985 12.1896C27.8243 13.6485 27.8038 15.128 27.5574 16.6691C27.2494 18.4773 26.5923 20.1417 25.6888 21.6417C24.8879 22.9567 23.8612 24.128 22.6497 25.0937C22.5676 24.3334 22.6086 23.3882 22.8756 22.2376C22.4033 22.7513 21.1918 24.2102 21.2739 26.1417C21.315 27.6211 22.0953 28.6896 23.0193 29.9841C23.9023 31.217 24.8263 32.0595 25.4834 32.5937L16.3662 27.9704C15.8323 28.0732 15.2779 28.1348 14.7235 28.1554C14.6824 28.1348 14.6414 28.0937 14.6003 28.0732C14.7235 28.0732 14.8467 28.0526 14.9699 28.0526C14.8467 28.0526 14.703 28.0526 14.5798 28.0732C12.4442 26.6965 10.6783 24.8882 9.42567 22.8129C10.4934 23.5526 11.6434 23.9636 12.8549 24.1485Z" fill="url(#paint17_linear_2806_8740)"/>
<defs>
<linearGradient id="paint0_linear_2806_8740" x1="1.11948" y1="1.71076" x2="-4.70302" y2="25.9325" gradientUnits="userSpaceOnUse">
<stop stop-color="#FFF33B"/>
<stop offset="0.053592" stop-color="#FDE23B"/>
<stop offset="0.2252" stop-color="#F7B03B"/>
<stop offset="0.3951" stop-color="#F2873A"/>
<stop offset="0.5602" stop-color="#EE673A"/>
<stop offset="0.7189" stop-color="#EB503A"/>
<stop offset="0.8686" stop-color="#EA433A"/>
<stop offset="1" stop-color="#E93E3A"/>
</linearGradient>
<linearGradient id="paint1_linear_2806_8740" x1="1.40769" y1="1.78129" x2="-4.45739" y2="25.9815" gradientUnits="userSpaceOnUse">
<stop stop-color="#FFF33B"/>
<stop offset="0.053592" stop-color="#FDE23B"/>
<stop offset="0.2252" stop-color="#F7B03B"/>
<stop offset="0.3951" stop-color="#F2873A"/>
<stop offset="0.5602" stop-color="#EE673A"/>
<stop offset="0.7189" stop-color="#EB503A"/>
<stop offset="0.8686" stop-color="#EA433A"/>
<stop offset="1" stop-color="#E93E3A"/>
</linearGradient>
<linearGradient id="paint2_linear_2806_8740" x1="9.65564" y1="24.0542" x2="7.89522" y2="-0.710455" gradientUnits="userSpaceOnUse">
<stop stop-color="#662D91"/>
<stop offset="0.0940942" stop-color="#7C2D8D"/>
<stop offset="0.2912" stop-color="#A52C87"/>
<stop offset="0.4845" stop-color="#C52B82"/>
<stop offset="0.6705" stop-color="#DC2A7E"/>
<stop offset="0.846" stop-color="#E92A7C"/>
<stop offset="1" stop-color="#EE2A7B"/>
</linearGradient>
<linearGradient id="paint3_linear_2806_8740" x1="11.968" y1="23.8899" x2="10.2075" y2="-0.874835" gradientUnits="userSpaceOnUse">
<stop stop-color="#662D91"/>
<stop offset="0.0940942" stop-color="#7C2D8D"/>
<stop offset="0.2912" stop-color="#A52C87"/>
<stop offset="0.4845" stop-color="#C52B82"/>
<stop offset="0.6705" stop-color="#DC2A7E"/>
<stop offset="0.846" stop-color="#E92A7C"/>
<stop offset="1" stop-color="#EE2A7B"/>
</linearGradient>
<linearGradient id="paint4_linear_2806_8740" x1="14.5395" y1="23.7071" x2="12.779" y2="-1.05762" gradientUnits="userSpaceOnUse">
<stop stop-color="#662D91"/>
<stop offset="0.0940942" stop-color="#7C2D8D"/>
<stop offset="0.2912" stop-color="#A52C87"/>
<stop offset="0.4845" stop-color="#C52B82"/>
<stop offset="0.6705" stop-color="#DC2A7E"/>
<stop offset="0.846" stop-color="#E92A7C"/>
<stop offset="1" stop-color="#EE2A7B"/>
</linearGradient>
<linearGradient id="paint5_linear_2806_8740" x1="14.9878" y1="23.6753" x2="13.2273" y2="-1.08951" gradientUnits="userSpaceOnUse">
<stop stop-color="#662D91"/>
<stop offset="0.0940942" stop-color="#7C2D8D"/>
<stop offset="0.2912" stop-color="#A52C87"/>
<stop offset="0.4845" stop-color="#C52B82"/>
<stop offset="0.6705" stop-color="#DC2A7E"/>
<stop offset="0.846" stop-color="#E92A7C"/>
<stop offset="1" stop-color="#EE2A7B"/>
</linearGradient>
<linearGradient id="paint6_linear_2806_8740" x1="21.4381" y1="23.2167" x2="19.6777" y2="-1.54804" gradientUnits="userSpaceOnUse">
<stop stop-color="#662D91"/>
<stop offset="0.0940942" stop-color="#7C2D8D"/>
<stop offset="0.2912" stop-color="#A52C87"/>
<stop offset="0.4845" stop-color="#C52B82"/>
<stop offset="0.6705" stop-color="#DC2A7E"/>
<stop offset="0.846" stop-color="#E92A7C"/>
<stop offset="1" stop-color="#EE2A7B"/>
</linearGradient>
<linearGradient id="paint7_linear_2806_8740" x1="12.9566" y1="23.8198" x2="11.1962" y2="-0.945141" gradientUnits="userSpaceOnUse">
<stop stop-color="#662D91"/>
<stop offset="0.0940942" stop-color="#7C2D8D"/>
<stop offset="0.2912" stop-color="#A52C87"/>
<stop offset="0.4845" stop-color="#C52B82"/>
<stop offset="0.6705" stop-color="#DC2A7E"/>
<stop offset="0.846" stop-color="#E92A7C"/>
<stop offset="1" stop-color="#EE2A7B"/>
</linearGradient>
<linearGradient id="paint8_linear_2806_8740" x1="12.1282" y1="23.8785" x2="10.3678" y2="-0.886222" gradientUnits="userSpaceOnUse">
<stop stop-color="#662D91"/>
<stop offset="0.0940942" stop-color="#7C2D8D"/>
<stop offset="0.2912" stop-color="#A52C87"/>
<stop offset="0.4845" stop-color="#C52B82"/>
<stop offset="0.6705" stop-color="#DC2A7E"/>
<stop offset="0.846" stop-color="#E92A7C"/>
<stop offset="1" stop-color="#EE2A7B"/>
</linearGradient>
<linearGradient id="paint9_linear_2806_8740" x1="9.4953" y1="24.0656" x2="7.73487" y2="-0.699062" gradientUnits="userSpaceOnUse">
<stop stop-color="#662D91"/>
<stop offset="0.0940942" stop-color="#7C2D8D"/>
<stop offset="0.2912" stop-color="#A52C87"/>
<stop offset="0.4845" stop-color="#C52B82"/>
<stop offset="0.6705" stop-color="#DC2A7E"/>
<stop offset="0.846" stop-color="#E92A7C"/>
<stop offset="1" stop-color="#EE2A7B"/>
</linearGradient>
<linearGradient id="paint10_linear_2806_8740" x1="5.54302" y1="24.3466" x2="3.78261" y2="-0.418118" gradientUnits="userSpaceOnUse">
<stop stop-color="#662D91"/>
<stop offset="0.0940942" stop-color="#7C2D8D"/>
<stop offset="0.2912" stop-color="#A52C87"/>
<stop offset="0.4845" stop-color="#C52B82"/>
<stop offset="0.6705" stop-color="#DC2A7E"/>
<stop offset="0.846" stop-color="#E92A7C"/>
<stop offset="1" stop-color="#EE2A7B"/>
</linearGradient>
<linearGradient id="paint11_linear_2806_8740" x1="14.7629" y1="29.4554" x2="14.7629" y2="0.076874" gradientUnits="userSpaceOnUse">
<stop stop-color="#00AEEF"/>
<stop offset="0.0150842" stop-color="#01ABEC"/>
<stop offset="0.2295" stop-color="#1082CB"/>
<stop offset="0.4396" stop-color="#1C62B2"/>
<stop offset="0.6418" stop-color="#244B9F"/>
<stop offset="0.8325" stop-color="#293E94"/>
<stop offset="1" stop-color="#2B3990"/>
</linearGradient>
<linearGradient id="paint12_linear_2806_8740" x1="4.79068" y1="24.4001" x2="3.03026" y2="-0.364632" gradientUnits="userSpaceOnUse">
<stop stop-color="#662D91"/>
<stop offset="0.0940942" stop-color="#7C2D8D"/>
<stop offset="0.2912" stop-color="#A52C87"/>
<stop offset="0.4845" stop-color="#C52B82"/>
<stop offset="0.6705" stop-color="#DC2A7E"/>
<stop offset="0.846" stop-color="#E92A7C"/>
<stop offset="1" stop-color="#EE2A7B"/>
</linearGradient>
<linearGradient id="paint13_linear_2806_8740" x1="8.19753" y1="24.1579" x2="6.43711" y2="-0.606809" gradientUnits="userSpaceOnUse">
<stop stop-color="#662D91"/>
<stop offset="0.0940942" stop-color="#7C2D8D"/>
<stop offset="0.2912" stop-color="#A52C87"/>
<stop offset="0.4845" stop-color="#C52B82"/>
<stop offset="0.6705" stop-color="#DC2A7E"/>
<stop offset="0.846" stop-color="#E92A7C"/>
<stop offset="1" stop-color="#EE2A7B"/>
</linearGradient>
<linearGradient id="paint14_linear_2806_8740" x1="14.0424" y1="23.7424" x2="12.2819" y2="-1.0223" gradientUnits="userSpaceOnUse">
<stop stop-color="#662D91"/>
<stop offset="0.0940942" stop-color="#7C2D8D"/>
<stop offset="0.2912" stop-color="#A52C87"/>
<stop offset="0.4845" stop-color="#C52B82"/>
<stop offset="0.6705" stop-color="#DC2A7E"/>
<stop offset="0.846" stop-color="#E92A7C"/>
<stop offset="1" stop-color="#EE2A7B"/>
</linearGradient>
<linearGradient id="paint15_linear_2806_8740" x1="13.8117" y1="23.7589" x2="12.0512" y2="-1.0059" gradientUnits="userSpaceOnUse">
<stop stop-color="#662D91"/>
<stop offset="0.0940942" stop-color="#7C2D8D"/>
<stop offset="0.2912" stop-color="#A52C87"/>
<stop offset="0.4845" stop-color="#C52B82"/>
<stop offset="0.6705" stop-color="#DC2A7E"/>
<stop offset="0.846" stop-color="#E92A7C"/>
<stop offset="1" stop-color="#EE2A7B"/>
</linearGradient>
<linearGradient id="paint16_linear_2806_8740" x1="18.0591" y1="29.4556" x2="18.0591" y2="0.0743003" gradientUnits="userSpaceOnUse">
<stop stop-color="#00AEEF"/>
<stop offset="0.0150842" stop-color="#01ABEC"/>
<stop offset="0.2295" stop-color="#1082CB"/>
<stop offset="0.4396" stop-color="#1C62B2"/>
<stop offset="0.6418" stop-color="#244B9F"/>
<stop offset="0.8325" stop-color="#293E94"/>
<stop offset="1" stop-color="#2B3990"/>
</linearGradient>
<linearGradient id="paint17_linear_2806_8740" x1="15.7189" y1="34.8698" x2="23.5726" y2="1.17568" gradientUnits="userSpaceOnUse">
<stop stop-color="#00AEEF"/>
<stop offset="0.0150842" stop-color="#01ABEC"/>
<stop offset="0.2295" stop-color="#1082CB"/>
<stop offset="0.4396" stop-color="#1C62B2"/>
<stop offset="0.6418" stop-color="#244B9F"/>
<stop offset="0.8325" stop-color="#293E94"/>
<stop offset="1" stop-color="#2B3990"/>
</linearGradient>
</defs>
</svg>
