<svg width="42" height="40" viewBox="0 0 42 40" fill="none" xmlns="http://www.w3.org/2000/svg">
<path d="M14 17.25C12.4858 17.25 11.25 18.4858 11.25 20H12.75C12.75 19.3142 13.3142 18.75 14 18.75V17.25ZM11.25 20C11.25 21.5142 12.4858 22.75 14 22.75V21.25C13.3142 21.25 12.75 20.6858 12.75 20H11.25ZM14 22.75C15.5142 22.75 16.75 21.5142 16.75 20H15.25C15.25 20.6858 14.6858 21.25 14 21.25V22.75ZM16.75 20C16.75 18.4858 15.5142 17.25 14 17.25V18.75C14.6858 18.75 15.25 19.3142 15.25 20H16.75ZM28 17.25C26.4858 17.25 25.25 18.4858 25.25 20H26.75C26.75 19.3142 27.3142 18.75 28 18.75V17.25ZM25.25 20C25.25 21.5142 26.4858 22.75 28 22.75V21.25C27.3142 21.25 26.75 20.6858 26.75 20H25.25ZM28 22.75C29.5142 22.75 30.75 21.5142 30.75 20H29.25C29.25 20.6858 28.6858 21.25 28 21.25V22.75ZM30.75 20C30.75 18.4858 29.5142 17.25 28 17.25V18.75C28.6858 18.75 29.25 19.3142 29.25 20H30.75ZM21 17.25C19.4858 17.25 18.25 18.4858 18.25 20H19.75C19.75 19.3142 20.3142 18.75 21 18.75V17.25ZM18.25 20C18.25 21.5142 19.4858 22.75 21 22.75V21.25C20.3142 21.25 19.75 20.6858 19.75 20H18.25ZM21 22.75C22.5142 22.75 23.75 21.5142 23.75 20H22.25C22.25 20.6858 21.6858 21.25 21 21.25V22.75ZM23.75 20C23.75 18.4858 22.5142 17.25 21 17.25V18.75C21.6858 18.75 22.25 19.3142 22.25 20H23.75Z" fill="#A1A1A5"/>
<rect x="0.5" y="0.5" width="41" height="39" rx="19.5" stroke="#2B2B35"/>
</svg>
