<svg width="29" height="27" viewBox="0 0 29 27" fill="none" xmlns="http://www.w3.org/2000/svg">
<path d="M0 14.3196C0.15135 14.0746 0.31537 13.836 0.452641 13.5832C1.47759 11.6877 2.49997 9.79035 3.51976 7.89109C4.31804 6.39097 5.55207 5.64548 7.2507 5.67083C7.56185 5.67575 7.873 5.67083 8.18344 5.67083C8.62552 5.67787 8.9416 5.97634 8.93878 6.37478C8.93596 6.77321 8.61848 7.06817 8.17358 7.07451C7.77796 7.08014 7.38234 7.07028 6.98672 7.07451C6.08707 7.0914 5.36763 7.47224 4.9333 8.25503C3.92876 10.0649 2.96223 11.8959 1.98163 13.7184C1.97292 13.752 1.96842 13.7865 1.96825 13.8212H2.2618C4.07095 13.8212 5.88011 13.8303 7.68856 13.8148C8.18485 13.8106 8.49881 13.9873 8.69662 14.4526C9.01973 15.2143 9.38579 15.9584 9.72932 16.7109C10.1935 17.7391 10.9863 18.2537 12.108 18.2547C13.6341 18.2547 15.1594 18.2547 16.6837 18.2547C17.8198 18.2547 18.6181 17.7373 19.0891 16.706C19.441 15.9359 19.8085 15.1735 20.145 14.3977C20.3245 13.9866 20.6138 13.8233 21.0496 13.8254C22.934 13.8331 24.8185 13.8254 26.7023 13.8254H27.0895C27.0444 13.7114 27.0156 13.6304 26.9797 13.5516C26.2288 11.8992 25.4762 10.2472 24.7221 8.59574C24.2603 7.58487 23.4761 7.07239 22.3603 7.07591C21.8422 7.07591 21.3241 7.07591 20.806 7.07591C20.3175 7.07591 19.995 6.78307 20.0007 6.3607C20.0063 5.951 20.3252 5.67223 20.8004 5.67012C21.3185 5.67012 21.8366 5.66308 22.3547 5.67012C24.0554 5.69335 25.2824 6.46911 25.9977 8.01498C26.8938 9.95296 27.7575 11.9043 28.6677 13.8374C28.8562 14.2345 28.9502 14.6699 28.9423 15.1094C28.9289 17.0805 28.9423 19.0473 28.9352 21.017C28.9296 23.4006 27.5632 25.3751 25.3141 26.1453C24.7068 26.3456 24.0712 26.4468 23.4317 26.4451C17.4496 26.4672 11.466 26.471 5.48097 26.4564C2.64193 26.4564 0.482911 24.5931 0.0401258 21.7927C0.0313589 21.7496 0.0179033 21.7076 0 21.6674V14.3196ZM1.4248 15.2347C1.41776 15.3319 1.40861 15.3959 1.40861 15.46C1.40861 17.3536 1.40861 19.2465 1.41354 21.1395C1.4141 21.4217 1.44669 21.703 1.51068 21.9779C1.95558 23.856 3.50498 25.0555 5.48167 25.057C11.4718 25.057 17.462 25.057 23.4522 25.057C23.7626 25.059 24.0725 25.0297 24.3772 24.9697C26.2553 24.5797 27.5189 23.0239 27.5337 21.0677C27.547 19.2029 27.5337 17.3367 27.5337 15.4734C27.5337 15.403 27.5203 15.3326 27.5133 15.2622C27.481 15.253 27.448 15.2464 27.4147 15.2425C25.4366 15.2425 23.4585 15.2382 21.4811 15.2488C21.3945 15.2488 21.2699 15.3551 21.2284 15.4424C20.9257 16.0696 20.6469 16.7095 20.3477 17.3353C19.66 18.7784 18.5301 19.6056 16.9188 19.645C15.2434 19.6867 13.567 19.6867 11.8897 19.645C10.2904 19.607 9.16264 18.7911 8.47558 17.3592C8.17523 16.7266 7.88426 16.0924 7.60268 15.4565C7.52665 15.284 7.43444 15.2263 7.24578 15.2277C5.99274 15.2368 4.74041 15.2326 3.48738 15.2326L1.4248 15.2347Z" fill="#14141F"/>
<path d="M13.7744 10.3053V9.88718C13.7744 7.09014 13.7744 4.29311 13.7744 1.49607C13.7744 1.17507 13.8349 0.899825 14.132 0.721725C14.2279 0.666618 14.3356 0.635346 14.4461 0.630536C14.5566 0.625727 14.6666 0.64752 14.7669 0.694087C14.8672 0.740654 14.9549 0.810629 15.0225 0.898127C15.0901 0.985626 15.1358 1.08809 15.1555 1.19689C15.1712 1.32768 15.1766 1.45948 15.1717 1.59111C15.1717 4.35998 15.1717 7.12886 15.1717 9.89774V10.2927L16.8352 8.92558C17.1407 8.67427 17.4434 8.42014 17.7503 8.17306C18.0967 7.8964 18.5387 7.91611 18.7879 8.21248C19.0498 8.52362 18.9907 8.96782 18.6373 9.25925C17.4317 10.2542 16.2234 11.246 15.0126 12.2349C14.6184 12.5573 14.3249 12.5573 13.925 12.2349C12.7002 11.2493 11.4772 10.261 10.256 9.26981C9.89632 8.97767 9.83366 8.54263 10.0878 8.22515C10.3419 7.90767 10.7819 7.89359 11.1437 8.18502C11.9181 8.81013 12.6924 9.44017 13.4724 10.0674C13.5548 10.1343 13.635 10.1962 13.7744 10.3053Z" fill="#14141F"/>
</svg>
