<svg width="71" height="18" viewBox="0 0 71 18" fill="none" xmlns="http://www.w3.org/2000/svg">
<g clip-path="url(#clip0_24_747)">
<path d="M54.4472 4.69531H50.646C50.4223 4.69531 50.1987 4.91892 50.0869 5.14252L48.5217 14.981C48.5217 15.2046 48.6335 15.3164 48.8571 15.3164H50.8696C51.0932 15.3164 51.205 15.2046 51.205 14.981L51.6522 12.186C51.6522 11.9624 51.8758 11.7388 52.2112 11.7388H53.441C56.0124 11.7388 57.4658 10.509 57.8012 8.04935C58.0248 7.04314 57.8012 6.14873 57.354 5.58972C56.6832 5.03072 55.677 4.69531 54.4472 4.69531ZM54.8944 8.38475C54.6708 9.72637 53.6646 9.72637 52.6584 9.72637H51.9876L52.4348 7.15494C52.4348 7.04314 52.5466 6.93134 52.7702 6.93134H52.9938C53.6646 6.93134 54.3354 6.93134 54.6708 7.37854C54.8944 7.49034 54.8944 7.82575 54.8944 8.38475Z" fill="#139AD6"/>
<path d="M27.0558 4.69531H23.2546C23.031 4.69531 22.8074 4.91892 22.6956 5.14252L21.1304 14.981C21.1304 15.2046 21.2422 15.3164 21.4658 15.3164H23.2546C23.4782 15.3164 23.7018 15.0928 23.8136 14.8692L24.2608 12.186C24.2608 11.9624 24.4844 11.7388 24.8198 11.7388H26.0496C28.6211 11.7388 30.0745 10.509 30.4099 8.04935C30.6335 7.04314 30.4099 6.14873 29.9627 5.58972C29.2919 5.03072 28.3975 4.69531 27.0558 4.69531ZM27.503 8.38475C27.2794 9.72637 26.2732 9.72637 25.267 9.72637H24.708L25.1552 7.15494C25.1552 7.04314 25.267 6.93134 25.4906 6.93134H25.7142C26.385 6.93134 27.0558 6.93134 27.3912 7.37854C27.503 7.49034 27.6148 7.82575 27.503 8.38475Z" fill="#263B80"/>
<path d="M38.5715 8.27292H36.7827C36.6709 8.27292 36.4473 8.38472 36.4473 8.49652L36.3355 9.05553L36.2237 8.83193C35.7765 8.27292 34.9939 8.04932 34.0995 8.04932C32.0871 8.04932 30.2983 9.61453 29.9629 11.7388C29.7393 12.8568 30.0747 13.863 30.6337 14.5338C31.1927 15.2046 31.9753 15.4282 32.9815 15.4282C34.6585 15.4282 35.5529 14.422 35.5529 14.422L35.4411 14.981C35.4411 15.2046 35.5529 15.3164 35.7765 15.3164H37.4535C37.6771 15.3164 37.9007 15.0928 38.0125 14.8692L39.0187 8.60832C38.9069 8.49652 38.6833 8.27292 38.5715 8.27292ZM36.0001 11.8506C35.7765 12.8568 34.9939 13.6394 33.8759 13.6394C33.3169 13.6394 32.8697 13.4158 32.6461 13.1922C32.4225 12.8568 32.3107 12.4096 32.3107 11.8506C32.4225 10.8443 33.3169 10.0617 34.3231 10.0617C34.8821 10.0617 35.2175 10.2853 35.5529 10.5089C35.8883 10.8443 36.0001 11.4034 36.0001 11.8506Z" fill="#263B80"/>
<path d="M65.8508 8.27341H64.062C63.9502 8.27341 63.7266 8.38521 63.7266 8.49701L63.6148 9.05602L63.503 8.83241C63.0558 8.27341 62.2732 8.0498 61.3788 8.0498C59.3664 8.0498 57.5776 9.61502 57.2422 11.7392C57.0186 12.8573 57.354 13.8635 57.913 14.5343C58.472 15.2051 59.2546 15.4287 60.2608 15.4287C61.9378 15.4287 62.8322 14.4225 62.8322 14.4225L62.7204 14.9815C62.7204 15.2051 62.8322 15.3169 63.0558 15.3169H64.7328C64.9564 15.3169 65.18 15.0933 65.2918 14.8697L66.298 8.60881C66.1862 8.49701 66.0744 8.27341 65.8508 8.27341ZM63.2794 11.851C63.0558 12.8573 62.2732 13.6399 61.1552 13.6399C60.5962 13.6399 60.149 13.4163 59.9254 13.1927C59.7018 12.8573 59.59 12.4101 59.59 11.851C59.7018 10.8448 60.5962 10.0622 61.6024 10.0622C62.1614 10.0622 62.4968 10.2858 62.8322 10.5094C63.2794 10.8448 63.3912 11.4038 63.2794 11.851Z" fill="#139AD6"/>
<path d="M48.2982 8.27344H46.3975C46.1739 8.27344 46.0621 8.38524 45.9503 8.49704L43.4907 12.2983L42.3727 8.72064C42.2609 8.49704 42.1491 8.38524 41.8137 8.38524H40.0249C39.8013 8.38524 39.6895 8.60884 39.6895 8.83244L41.7019 14.7579L39.8013 17.4411C39.6895 17.6647 39.8013 18.0001 40.0249 18.0001H41.8137C42.0373 18.0001 42.1491 17.8883 42.2609 17.7765L48.41 8.94424C48.7454 8.60884 48.5218 8.27344 48.2982 8.27344Z" fill="#263B80"/>
<path d="M67.9751 5.03113L66.4099 15.0932C66.4099 15.3168 66.5217 15.4286 66.7453 15.4286H68.3105C68.5341 15.4286 68.7577 15.205 68.8695 14.9814L70.4348 5.14294C70.4348 4.91933 70.323 4.80753 70.0994 4.80753H68.3105C68.1987 4.69573 68.0869 4.80753 67.9751 5.03113Z" fill="#139AD6"/>
<path d="M12.8571 1.34161C12.0745 0.447205 10.6211 0 8.6087 0H3.01863C2.68323 0 2.34783 0.335404 2.23603 0.670807L0 15.3168C0 15.6522 0.223603 15.8758 0.447205 15.8758H3.91304L4.80745 10.3975V10.6211C4.91926 10.2857 5.25466 9.95031 5.59006 9.95031H7.26708C10.5093 9.95031 12.9689 8.6087 13.7516 4.91925C13.7516 4.80745 13.7516 4.69565 13.7516 4.58385C13.6398 4.58385 13.6398 4.58385 13.7516 4.58385C13.8634 3.13043 13.6398 2.23602 12.8571 1.34161Z" fill="#263B80"/>
<path d="M13.6397 4.58398C13.6397 4.69579 13.6397 4.80759 13.6397 4.91939C12.8571 8.72063 10.3975 9.95044 7.15528 9.95044H5.47826C5.14285 9.95044 4.80745 10.2858 4.69565 10.6213L3.57764 17.4411C3.57764 17.6647 3.68944 17.8883 4.02484 17.8883H6.93167C7.26708 17.8883 7.60248 17.6647 7.60248 17.3293V17.2175L8.16149 13.7517V13.5281C8.16149 13.1927 8.49689 12.9691 8.83229 12.9691H9.2795C12.0745 12.9691 14.3106 11.8511 14.8696 8.49703C15.0932 7.15541 14.9814 5.9256 14.3106 5.14299C14.1988 4.91939 13.9752 4.69579 13.6397 4.58398Z" fill="#139AD6"/>
<path d="M12.8573 4.24849C12.7455 4.24849 12.6337 4.13669 12.5219 4.13669C12.4101 4.13669 12.2983 4.13669 12.1865 4.02489C11.7393 3.91309 11.2921 3.91309 10.7331 3.91309H6.37283C6.26103 3.91309 6.14923 3.91309 6.03743 4.02489C5.81383 4.13669 5.70203 4.36029 5.70203 4.58389L4.80762 10.3976V10.6212C4.91942 10.2858 5.25482 9.95035 5.59023 9.95035H7.26724C10.5095 9.95035 12.9691 8.60874 13.7517 4.9193C13.7517 4.8075 13.7517 4.69569 13.8635 4.58389C13.6399 4.47209 13.5281 4.36029 13.3045 4.36029C12.9691 4.24849 12.9691 4.24849 12.8573 4.24849Z" fill="#232C65"/>
</g>
<defs>
<clipPath id="clip0_24_747">
<rect width="70.4348" height="18" fill="white"/>
</clipPath>
</defs>
</svg>
