<svg width="22" height="22" viewBox="0 0 22 22" fill="none" xmlns="http://www.w3.org/2000/svg">
<path d="M20.7004 15.9599L17.5704 8.64988C16.5104 6.16988 14.5604 6.06988 13.2504 8.42988L11.3604 11.8399C10.4004 13.5699 8.61043 13.7199 7.37043 12.1699L7.15043 11.8899C5.86043 10.2699 4.04043 10.4699 3.11043 12.3199L1.39043 15.7699C0.180434 18.1699 1.93043 20.9999 4.61043 20.9999H17.3704C19.9704 20.9999 21.7204 18.3499 20.7004 15.9599Z" stroke="#727279"/>
<path d="M5.99048 7C7.64733 7 8.99048 5.65685 8.99048 4C8.99048 2.34315 7.64733 1 5.99048 1C4.33362 1 2.99048 2.34315 2.99048 4C2.99048 5.65685 4.33362 7 5.99048 7Z" stroke="#727279"/>
</svg>
