<svg width="32" height="32" viewBox="0 0 32 32" fill="none" xmlns="http://www.w3.org/2000/svg">
<path d="M32 16C32 24.8366 24.8366 32 16 32C7.16344 32 0 24.8366 0 16C0 7.16344 7.16344 0 16 0C24.8366 0 32 7.16344 32 16Z" fill="#272739"/>
<path d="M13.95 16C15.828 16 17.35 14.4329 17.35 12.5C17.35 10.5671 15.828 9 13.95 9C12.072 9 10.55 10.5671 10.55 12.5C10.55 14.4329 12.072 16 13.95 16ZM15.2967 17.3125H12.6033C10.0605 17.3125 8 19.4344 8 22.0512C8 22.5762 8.41225 23 8.92066 23H18.9783C19.4883 23 19.9 22.5762 19.9 22.0512C19.9 19.4344 17.8388 17.3125 15.2967 17.3125ZM20.7261 17.75H18.7645C19.985 18.7809 20.75 20.323 20.75 22.0512C20.75 22.4012 20.6491 22.7238 20.4844 23H24.15C24.6202 23 25 22.6063 25 22.1004C25 19.7078 23.0981 17.75 20.7261 17.75ZM19.475 16C21.1192 16 22.45 14.6301 22.45 12.9375C22.45 11.2449 21.1192 9.875 19.475 9.875C18.808 9.875 18.1989 10.1089 17.7028 10.4905C18.0088 11.0954 18.2 11.7727 18.2 12.5C18.2 13.4713 17.8831 14.3632 17.3609 15.0897C17.8998 15.65 18.6463 16 19.475 16Z" fill="#6F6F84"/>
</svg>
