<svg width="60" height="19" viewBox="0 0 60 19" fill="none" xmlns="http://www.w3.org/2000/svg">
<g clip-path="url(#clip0_24_743)">
<path d="M29.4322 0.283965L26.3921 18.1737H21.4812L24.5213 0.283965H29.4322ZM39.0202 7.4833C37.2997 6.66481 36.264 6.09689 36.264 5.2617C36.264 4.52673 37.1493 3.72495 39.0703 3.72495C40.6738 3.70824 41.8431 4.04232 42.7451 4.4098L43.1794 4.61025L43.8476 0.734967C42.8787 0.384187 41.3587 0 39.4545 0C34.6104 0 31.1861 2.42205 31.1694 5.89644C31.136 8.46882 33.6081 9.90535 35.4622 10.7572C37.3665 11.6258 38.0179 12.1938 38.0012 12.9788C37.9845 14.1815 36.4812 14.7327 35.0614 14.7327C33.107 14.7327 32.0547 14.4655 30.4511 13.7973L29.8164 13.5134L29.1315 17.5223C30.2841 18.0234 32.3888 18.4577 34.5937 18.4744C39.7551 18.4744 43.0959 16.0691 43.1293 12.3608C43.1627 10.3229 41.8431 8.76949 39.0202 7.4833ZM60.0001 18.1737H55.3899L54.8052 15.4343H48.6081L47.6059 18.1737H42.411L49.6772 1.80401C50.195 0.634744 51.0469 0.283965 52.2162 0.283965H55.9578L60.0001 18.1737ZM54.0536 11.8597C53.8531 10.9577 52.9177 6.69822 52.9177 6.69822L52.5836 5.16147C52.3331 5.82962 51.8988 6.91537 51.9322 6.86526C51.9322 6.86526 50.3787 10.8408 49.9778 11.8597H54.0536ZM17.4556 0.283965L12.5446 12.5445L12.1104 10.0891C11.2083 7.23274 8.43552 4.14254 5.32861 2.58909L9.65489 18.1737H14.8498L22.6504 0.283965H17.4556Z" fill="#293688"/>
<path d="M0 0.28418V0.568144C6.14699 2.05478 10.4232 5.79643 12.1102 10.0893L10.3396 1.82093C10.039 0.68507 9.13697 0.334291 8.08463 0.28418H0Z" fill="#F7981D"/>
</g>
<defs>
<clipPath id="clip0_24_743">
<rect width="60" height="18.4577" fill="white"/>
</clipPath>
</defs>
</svg>
