<svg width="18" height="18" viewBox="0 0 18 18" fill="none" xmlns="http://www.w3.org/2000/svg">
<path d="M9 18C13.9706 18 18 13.9706 18 9C18 4.02944 13.9706 0 9 0C4.02944 0 0 4.02944 0 9C0 13.9706 4.02944 18 9 18Z" fill="#818182"/>
<path d="M14.9999 8.99997C14.9999 8.27365 14.4105 7.68418 13.6842 7.68418C13.3263 7.68418 13.0105 7.82102 12.7789 8.0526C11.8842 7.41049 10.642 6.98944 9.27363 6.93681L9.87363 4.12628L11.821 4.53681C11.842 5.03155 12.2526 5.43155 12.7578 5.43155C13.2736 5.43155 13.6947 5.01049 13.6947 4.4947C13.6947 3.97891 13.2736 3.55786 12.7578 3.55786C12.3894 3.55786 12.0736 3.76839 11.9263 4.08418L9.74731 3.62102C9.68415 3.61049 9.621 3.62102 9.56836 3.6526C9.51573 3.68418 9.48415 3.73681 9.4631 3.79997L8.79994 6.93681C7.39994 6.97891 6.14731 7.38944 5.24205 8.0526C5.01047 7.83155 4.68415 7.68418 4.33679 7.68418C3.61047 7.68418 3.021 8.27365 3.021 8.99997C3.021 9.53681 3.33679 9.98944 3.79994 10.2C3.77889 10.3263 3.76836 10.4631 3.76836 10.6C3.76836 12.621 6.11573 14.2526 9.021 14.2526C11.9263 14.2526 14.2736 12.621 14.2736 10.6C14.2736 10.4631 14.2631 10.3368 14.242 10.2105C14.6736 9.99997 14.9999 9.53681 14.9999 8.99997ZM5.99994 9.93681C5.99994 9.42102 6.421 8.99997 6.93679 8.99997C7.45258 8.99997 7.87363 9.42102 7.87363 9.93681C7.87363 10.4526 7.45258 10.8737 6.93679 10.8737C6.421 10.8737 5.99994 10.4526 5.99994 9.93681ZM11.2315 12.4105C10.5894 13.0526 9.36836 13.0947 9.01047 13.0947C8.65258 13.0947 7.421 13.0421 6.78942 12.4105C6.69468 12.3158 6.69468 12.1579 6.78942 12.0631C6.88415 11.9684 7.04205 11.9684 7.13679 12.0631C7.53679 12.4631 8.39994 12.6105 9.021 12.6105C9.64205 12.6105 10.4947 12.4631 10.9052 12.0631C10.9999 11.9684 11.1578 11.9684 11.2526 12.0631C11.3263 12.1684 11.3263 12.3158 11.2315 12.4105ZM11.0631 10.8737C10.5473 10.8737 10.1263 10.4526 10.1263 9.93681C10.1263 9.42102 10.5473 8.99997 11.0631 8.99997C11.5789 8.99997 11.9999 9.42102 11.9999 9.93681C11.9999 10.4526 11.5789 10.8737 11.0631 10.8737Z" fill="#14141F"/>
</svg>
