<svg width="18" height="18" viewBox="0 0 18 18" fill="none" xmlns="http://www.w3.org/2000/svg">
<path d="M9 18C13.9706 18 18 13.9706 18 9C18 4.02944 13.9706 0 9 0C4.02944 0 0 4.02944 0 9C0 13.9706 4.02944 18 9 18Z" fill="#818182"/>
<path fill-rule="evenodd" clip-rule="evenodd" d="M4.07377 8.90496C6.69745 7.76187 8.44698 7.00827 9.32237 6.64417C11.8218 5.60458 12.3411 5.424 12.6796 5.41803C12.7541 5.41672 12.9205 5.43517 13.0284 5.52267C13.1194 5.59655 13.1445 5.69635 13.1565 5.7664C13.1685 5.83645 13.1834 5.99602 13.1715 6.1207C13.0361 7.54381 12.45 10.9973 12.1519 12.5912C12.0257 13.2657 11.7773 13.4918 11.5368 13.5139C11.0141 13.562 10.6173 13.1685 10.1111 12.8367C9.31894 12.3175 8.87144 11.9942 8.10256 11.4876C7.21398 10.902 7.79001 10.5802 8.29641 10.0542C8.42893 9.91655 10.7317 7.82198 10.7763 7.63197C10.7819 7.60821 10.787 7.51963 10.7344 7.47285C10.6818 7.42608 10.6041 7.44207 10.5481 7.4548C10.4686 7.47283 9.20322 8.30922 6.75183 9.96397C6.39264 10.2106 6.06731 10.3308 5.77581 10.3245C5.45447 10.3176 4.83633 10.1428 4.3768 9.99343C3.81317 9.81021 3.36522 9.71335 3.40422 9.4022C3.42454 9.24013 3.64772 9.07439 4.07377 8.90496Z" fill="#14141F"/>
</svg>
