<svg width="16" height="18" viewBox="0 0 16 18" fill="none" xmlns="http://www.w3.org/2000/svg">
<path d="M14.0749 0H2.01492C0.997922 0 0.169922 0.828 0.169922 1.854V14.022C0.169922 15.048 0.997922 15.876 2.01492 15.876H12.2209L11.7439 14.211L12.8959 15.282L13.9849 16.29L15.9199 18V1.854C15.9199 0.828 15.0919 0 14.0749 0ZM10.6009 11.754C10.6009 11.754 10.2769 11.367 10.0069 11.025C11.1859 10.692 11.6359 9.954 11.6359 9.954C11.2669 10.197 10.9159 10.368 10.6009 10.485C10.1509 10.674 9.71892 10.8 9.29592 10.872C8.43192 11.034 7.63992 10.989 6.96492 10.863C6.45192 10.764 6.01092 10.62 5.64192 10.476C5.43492 10.395 5.20992 10.296 4.98492 10.17C4.95792 10.152 4.93092 10.143 4.90392 10.125C4.88592 10.116 4.87692 10.107 4.86792 10.098C4.70592 10.008 4.61592 9.945 4.61592 9.945C4.61592 9.945 5.04792 10.665 6.19092 11.007C5.92092 11.349 5.58792 11.754 5.58792 11.754C3.59892 11.691 2.84292 10.386 2.84292 10.386C2.84292 7.488 4.13892 5.139 4.13892 5.139C5.43492 4.167 6.66792 4.194 6.66792 4.194L6.75792 4.302C5.13792 4.77 4.39092 5.481 4.39092 5.481C4.39092 5.481 4.58892 5.373 4.92192 5.22C5.88492 4.797 6.64992 4.68 6.96492 4.653C7.01892 4.644 7.06392 4.635 7.11792 4.635C7.66692 4.563 8.28792 4.545 8.93592 4.617C9.79092 4.716 10.7089 4.968 11.6449 5.481C11.6449 5.481 10.9339 4.806 9.40392 4.338L9.52992 4.194C9.52992 4.194 10.7629 4.167 12.0589 5.139C12.0589 5.139 13.3549 7.488 13.3549 10.386C13.3549 10.386 12.5899 11.691 10.6009 11.754Z" fill="#818182"/>
</svg>
