<svg width="21" height="17" viewBox="0 0 21 17" fill="none" xmlns="http://www.w3.org/2000/svg">
<path d="M20.3594 1.9506C19.6077 2.2767 18.8128 2.49226 17.9994 2.5906C18.8575 2.07792 19.5006 1.27138 19.8094 0.3206C19.0029 0.800664 18.1201 1.1389 17.1994 1.3206C16.5839 0.653172 15.7643 0.208897 14.8692 0.0574517C13.974 -0.0939932 13.0539 0.0559587 12.2532 0.48379C11.4524 0.911621 10.8163 1.59313 10.4446 2.42144C10.0729 3.24974 9.98667 4.17799 10.1994 5.0606C8.5688 4.97813 6.97382 4.55355 5.51803 3.81446C4.06224 3.07537 2.77822 2.03829 1.74938 0.7706C1.38851 1.40077 1.19889 2.11442 1.19937 2.8406C1.1981 3.51498 1.36359 4.17922 1.68113 4.77417C1.99867 5.36911 2.45839 5.87631 3.01937 6.2506C2.36735 6.23286 1.72926 6.0579 1.15937 5.7406V5.7906C1.16426 6.73549 1.49537 7.64969 2.09669 8.37857C2.69801 9.10744 3.53263 9.60624 4.45937 9.7906C4.10263 9.89917 3.73225 9.95641 3.35938 9.9606C3.10127 9.95759 2.8438 9.93418 2.58938 9.8906C2.85328 10.7034 3.364 11.4137 4.05045 11.9228C4.7369 12.4318 5.56495 12.7142 6.41938 12.7306C4.97658 13.8659 3.19526 14.4855 1.35938 14.4906C1.02511 14.4917 0.691111 14.4717 0.359375 14.4306C2.2338 15.6409 4.41819 16.2833 6.64937 16.2806C8.18907 16.2966 9.71651 16.0056 11.1425 15.4247C12.5685 14.8437 13.8644 13.9845 14.9546 12.8971C16.0448 11.8097 16.9073 10.516 17.4919 9.09151C18.0765 7.66702 18.3714 6.14033 18.3594 4.6006C18.3594 4.4306 18.3594 4.2506 18.3594 4.0706C19.1441 3.48541 19.8209 2.76803 20.3594 1.9506Z" fill="#818182"/>
</svg>
