<svg width="20" height="20" viewBox="0 0 20 20" fill="none" xmlns="http://www.w3.org/2000/svg">
<path d="M5.55796 6.36386C5.46889 7.31386 5.40639 8.99511 5.96733 9.71074C5.96733 9.71074 5.70327 7.86386 8.07046 5.54668C9.02358 4.61386 9.24389 3.34511 8.91108 2.39355C8.72202 1.85449 8.37671 1.40918 8.07671 1.09824C7.90171 0.915426 8.03608 0.613864 8.29077 0.624801C9.83139 0.693551 12.3283 1.12168 13.3892 3.78418C13.8548 4.95293 13.8892 6.16074 13.6673 7.38886C13.5267 8.17324 13.0267 9.91699 14.1673 10.1311C14.9814 10.2842 15.3751 9.6373 15.5517 9.17168C15.6251 8.97793 15.8798 8.92949 16.0173 9.08418C17.3923 10.6482 17.5095 12.4904 17.2251 14.0764C16.6751 17.142 13.5705 19.3732 10.4861 19.3732C6.63296 19.3732 3.56577 17.1685 2.77046 13.1779C2.45014 11.567 2.61264 8.37949 5.09702 6.12949C5.28139 5.96074 5.58296 6.11074 5.55796 6.36386Z" fill="url(#paint0_radial_2254_3909)"/>
<path d="M11.8903 12.097C10.47 10.2689 11.106 8.18298 11.4544 7.35173C11.5013 7.24236 11.3763 7.13923 11.2778 7.20642C10.6669 7.62205 9.41534 8.60017 8.83253 9.97673C8.04347 11.8377 8.09972 12.7486 8.5669 13.8611C8.84815 14.5314 8.52159 14.6736 8.35753 14.6986C8.19815 14.7236 8.05128 14.6174 7.93409 14.5064C7.59696 14.1828 7.35672 13.7715 7.24034 13.3189C7.21534 13.222 7.08878 13.1955 7.03097 13.2752C6.59347 13.8799 6.3669 14.8502 6.35597 15.5361C6.32159 17.6564 8.07315 19.3752 10.1919 19.3752C12.8622 19.3752 14.8075 16.422 13.2732 13.9533C12.8278 13.2345 12.4091 12.7642 11.8903 12.097Z" fill="url(#paint1_radial_2254_3909)"/>
<defs>
<radialGradient id="paint0_radial_2254_3909" cx="0" cy="0" r="1" gradientUnits="userSpaceOnUse" gradientTransform="translate(9.72292 19.4218) rotate(-179.751) scale(11.0293 18.0969)">
<stop offset="0.314" stop-color="#FF9800"/>
<stop offset="0.662" stop-color="#FF6D00"/>
<stop offset="0.972" stop-color="#F44336"/>
</radialGradient>
<radialGradient id="paint1_radial_2254_3909" cx="0" cy="0" r="1" gradientUnits="userSpaceOnUse" gradientTransform="translate(10.3388 8.44679) rotate(90.5787) scale(11.5401 8.68476)">
<stop offset="0.214" stop-color="#FFF176"/>
<stop offset="0.328" stop-color="#FFF27D"/>
<stop offset="0.487" stop-color="#FFF48F"/>
<stop offset="0.672" stop-color="#FFF7AD"/>
<stop offset="0.793" stop-color="#FFF9C4"/>
<stop offset="0.822" stop-color="#FFF8BD" stop-opacity="0.804"/>
<stop offset="0.863" stop-color="#FFF6AB" stop-opacity="0.529"/>
<stop offset="0.91" stop-color="#FFF38D" stop-opacity="0.209"/>
<stop offset="0.941" stop-color="#FFF176" stop-opacity="0"/>
</radialGradient>
</defs>
</svg>
