<svg width="23" height="23" viewBox="0 0 23 23" fill="none" xmlns="http://www.w3.org/2000/svg">
<path d="M5.19608 11.5L2.60131 14.094L0 11.5L2.59477 8.90597L5.19608 11.5ZM11.5033 5.1946L15.9542 9.64432L18.549 7.05028L11.5033 0L4.45098 7.05028L7.04575 9.64432L11.5033 5.1946ZM20.4052 8.90597L17.8105 11.5L20.4052 14.094L23 11.5L20.4052 8.90597ZM11.5033 17.8054L7.05229 13.3557L4.45752 15.9497L11.5033 23L18.549 15.9497L15.9542 13.3557L11.5033 17.8054ZM11.5033 14.094L14.098 11.5L11.5033 8.90597L8.90196 11.5L11.5033 14.094Z" fill="#F0B90B"/>
</svg>
