<svg width="18" height="18" viewBox="0 0 18 18" fill="none" xmlns="http://www.w3.org/2000/svg">
<path d="M7.41589 7.55103C6.90289 7.55103 6.49789 8.00103 6.49789 8.55003C6.49789 9.09903 6.91189 9.54903 7.41589 9.54903C7.92889 9.54903 8.33389 9.09903 8.33389 8.55003C8.34289 8.00103 7.92889 7.55103 7.41589 7.55103ZM10.7009 7.55103C10.1879 7.55103 9.78289 8.00103 9.78289 8.55003C9.78289 9.09903 10.1969 9.54903 10.7009 9.54903C11.2139 9.54903 11.6189 9.09903 11.6189 8.55003C11.6189 8.00103 11.2139 7.55103 10.7009 7.55103Z" fill="#818182"/>
<path d="M15.075 0H3.01495C1.99795 0 1.16995 0.828 1.16995 1.854V14.022C1.16995 15.048 1.99795 15.876 3.01495 15.876H13.221L12.744 14.211L13.896 15.282L14.985 16.29L16.92 18V1.854C16.92 0.828 16.092 0 15.075 0ZM11.601 11.754C11.601 11.754 11.277 11.367 11.007 11.025C12.186 10.692 12.636 9.954 12.636 9.954C12.267 10.197 11.916 10.368 11.601 10.485C11.151 10.674 10.719 10.8 10.296 10.872C9.43195 11.034 8.63995 10.989 7.96495 10.863C7.45195 10.764 7.01095 10.62 6.64195 10.476C6.43495 10.395 6.20995 10.296 5.98495 10.17C5.95795 10.152 5.93095 10.143 5.90395 10.125C5.88595 10.116 5.87695 10.107 5.86795 10.098C5.70595 10.008 5.61595 9.945 5.61595 9.945C5.61595 9.945 6.04795 10.665 7.19095 11.007C6.92095 11.349 6.58795 11.754 6.58795 11.754C4.59895 11.691 3.84295 10.386 3.84295 10.386C3.84295 7.488 5.13895 5.139 5.13895 5.139C6.43495 4.167 7.66795 4.194 7.66795 4.194L7.75795 4.302C6.13795 4.77 5.39095 5.481 5.39095 5.481C5.39095 5.481 5.58895 5.373 5.92195 5.22C6.88495 4.797 7.64995 4.68 7.96495 4.653C8.01895 4.644 8.06395 4.635 8.11795 4.635C8.66695 4.563 9.28795 4.545 9.93595 4.617C10.791 4.716 11.709 4.968 12.645 5.481C12.645 5.481 11.934 4.806 10.404 4.338L10.53 4.194C10.53 4.194 11.763 4.167 13.059 5.139C13.059 5.139 14.355 7.488 14.355 10.386C14.355 10.386 13.59 11.691 11.601 11.754V11.754Z" fill="#818182"/>
</svg>
