<svg width="22" height="19" viewBox="0 0 22 19" fill="none" xmlns="http://www.w3.org/2000/svg">
<path d="M14.315 9.48613C14.315 11.4661 12.715 13.0661 10.735 13.0661C8.75503 13.0661 7.15503 11.4661 7.15503 9.48613C7.15503 7.50613 8.75503 5.90613 10.735 5.90613C12.715 5.90613 14.315 7.50613 14.315 9.48613Z" stroke="#A1A1A5" stroke-width="1.5" stroke-linecap="round" stroke-linejoin="round"/>
<path d="M10.735 17.7561C14.265 17.7561 17.555 15.6761 19.845 12.0761C20.745 10.6661 20.745 8.29605 19.845 6.88605C17.555 3.28605 14.265 1.20605 10.735 1.20605C7.20495 1.20605 3.91495 3.28605 1.62495 6.88605C0.724951 8.29605 0.724951 10.6661 1.62495 12.0761C3.91495 15.6761 7.20495 17.7561 10.735 17.7561Z" stroke="#A1A1A5" stroke-width="1.5" stroke-linecap="round" stroke-linejoin="round"/>
</svg>
