<svg width="18" height="18" viewBox="0 0 18 18" fill="none" xmlns="http://www.w3.org/2000/svg">
<path d="M9 18C13.9706 18 18 13.9706 18 9C18 4.02944 13.9706 0 9 0C4.02944 0 0 4.02944 0 9C0 13.9706 4.02944 18 9 18Z" fill="#818182"/>
<path d="M15 8.99997C15 8.27365 14.4105 7.68418 13.6842 7.68418C13.3263 7.68418 13.0105 7.82102 12.7789 8.0526C11.8842 7.41049 10.6421 6.98944 9.27367 6.93681L9.87367 4.12628L11.821 4.53681C11.8421 5.03155 12.2526 5.43155 12.7579 5.43155C13.2737 5.43155 13.6947 5.01049 13.6947 4.4947C13.6947 3.97891 13.2737 3.55786 12.7579 3.55786C12.3895 3.55786 12.0737 3.76839 11.9263 4.08418L9.74736 3.62102C9.6842 3.61049 9.62104 3.62102 9.56841 3.6526C9.51578 3.68418 9.4842 3.73681 9.46315 3.79997L8.79999 6.93681C7.39999 6.97891 6.14736 7.38944 5.24209 8.0526C5.01052 7.83155 4.6842 7.68418 4.33683 7.68418C3.61052 7.68418 3.02104 8.27365 3.02104 8.99997C3.02104 9.53681 3.33683 9.98944 3.79999 10.2C3.77894 10.3263 3.76841 10.4631 3.76841 10.6C3.76841 12.621 6.11578 14.2526 9.02104 14.2526C11.9263 14.2526 14.2737 12.621 14.2737 10.6C14.2737 10.4631 14.2631 10.3368 14.2421 10.2105C14.6737 9.99997 15 9.53681 15 8.99997ZM5.99999 9.93681C5.99999 9.42102 6.42104 8.99997 6.93683 8.99997C7.45262 8.99997 7.87367 9.42102 7.87367 9.93681C7.87367 10.4526 7.45262 10.8737 6.93683 10.8737C6.42104 10.8737 5.99999 10.4526 5.99999 9.93681ZM11.2316 12.4105C10.5895 13.0526 9.36841 13.0947 9.01052 13.0947C8.65262 13.0947 7.42104 13.0421 6.78946 12.4105C6.69473 12.3158 6.69473 12.1579 6.78946 12.0631C6.8842 11.9684 7.04209 11.9684 7.13683 12.0631C7.53683 12.4631 8.39999 12.6105 9.02104 12.6105C9.64209 12.6105 10.4947 12.4631 10.9053 12.0631C11 11.9684 11.1579 11.9684 11.2526 12.0631C11.3263 12.1684 11.3263 12.3158 11.2316 12.4105ZM11.0631 10.8737C10.5474 10.8737 10.1263 10.4526 10.1263 9.93681C10.1263 9.42102 10.5474 8.99997 11.0631 8.99997C11.5789 8.99997 12 9.42102 12 9.93681C12 10.4526 11.5789 10.8737 11.0631 10.8737Z" fill="white"/>
</svg>
