<svg width="18" height="18" viewBox="0 0 18 18" fill="none" xmlns="http://www.w3.org/2000/svg">
<path d="M9 18C13.9706 18 18 13.9706 18 9C18 4.02944 13.9706 0 9 0C4.02944 0 0 4.02944 0 9C0 13.9706 4.02944 18 9 18Z" fill="#818182"/>
<path fill-rule="evenodd" clip-rule="evenodd" d="M4.07393 8.90496C6.69762 7.76187 8.44715 7.00827 9.32253 6.64417C11.8219 5.60458 12.3413 5.424 12.6798 5.41803C12.7542 5.41672 12.9207 5.43517 13.0285 5.52267C13.1196 5.59655 13.1446 5.69635 13.1566 5.7664C13.1686 5.83645 13.1835 5.99602 13.1717 6.1207C13.0362 7.54381 12.4502 10.9973 12.152 12.5912C12.0259 13.2657 11.7774 13.4918 11.537 13.5139C11.0143 13.562 10.6174 13.1685 10.1112 12.8367C9.31911 12.3175 8.87161 11.9942 8.10273 11.4876C7.21414 10.902 7.79017 10.5802 8.29657 10.0542C8.4291 9.91655 10.7319 7.82198 10.7765 7.63197C10.782 7.60821 10.7872 7.51963 10.7346 7.47285C10.682 7.42608 10.6043 7.44207 10.5482 7.4548C10.4688 7.47283 9.20338 8.30922 6.752 9.96397C6.39281 10.2106 6.06747 10.3308 5.77598 10.3245C5.45463 10.3176 4.83649 10.1428 4.37697 9.99343C3.81334 9.81021 3.36538 9.71335 3.40439 9.4022C3.42471 9.24013 3.64789 9.07439 4.07393 8.90496Z" fill="white"/>
</svg>
