<svg width="21" height="17" viewBox="0 0 21 17" fill="none" xmlns="http://www.w3.org/2000/svg">
<path d="M20.3591 1.9506C19.6075 2.2767 18.8126 2.49226 17.9991 2.5906C18.8573 2.07792 19.5004 1.27138 19.8091 0.3206C19.0027 0.800664 18.1199 1.1389 17.1991 1.3206C16.5837 0.653172 15.7641 0.208897 14.8689 0.0574517C13.9738 -0.0939932 13.0537 0.0559587 12.2529 0.48379C11.4522 0.911621 10.8161 1.59313 10.4444 2.42144C10.0727 3.24974 9.98642 4.17799 10.1991 5.0606C8.56856 4.97813 6.97357 4.55355 5.51779 3.81446C4.062 3.07537 2.77798 2.03829 1.74913 0.7706C1.38827 1.40077 1.19865 2.11442 1.19913 2.8406C1.19785 3.51498 1.36335 4.17922 1.68089 4.77417C1.99842 5.36911 2.45815 5.87631 3.01913 6.2506C2.36711 6.23286 1.72902 6.0579 1.15913 5.7406V5.7906C1.16402 6.73549 1.49513 7.64969 2.09645 8.37857C2.69777 9.10744 3.53239 9.60624 4.45913 9.7906C4.10239 9.89917 3.73201 9.95641 3.35913 9.9606C3.10102 9.95759 2.84355 9.93418 2.58913 9.8906C2.85304 10.7034 3.36375 11.4137 4.05021 11.9228C4.73666 12.4318 5.56471 12.7142 6.41913 12.7306C4.97633 13.8659 3.19501 14.4855 1.35913 14.4906C1.02487 14.4917 0.690866 14.4717 0.359131 14.4306C2.23356 15.6409 4.41794 16.2833 6.64913 16.2806C8.18882 16.2966 9.71627 16.0056 11.1422 15.4247C12.5682 14.8437 13.8642 13.9845 14.9543 12.8971C16.0445 11.8097 16.9071 10.516 17.4917 9.09151C18.0763 7.66702 18.3712 6.14033 18.3591 4.6006C18.3591 4.4306 18.3591 4.2506 18.3591 4.0706C19.1438 3.48541 19.8206 2.76803 20.3591 1.9506Z" fill="#818182"/>
</svg>
