<svg width="24" height="27" viewBox="0 0 24 27" fill="none" xmlns="http://www.w3.org/2000/svg">
<path d="M22 7.00074H19.238C19.8843 6.03862 20.1332 4.86374 19.9326 3.7222C19.732 2.58065 19.0975 1.56101 18.1619 0.876851C17.2264 0.192691 16.0624 -0.102906 14.9137 0.0519781C13.7651 0.206862 12.7209 0.80021 12 1.70774C11.2791 0.80021 10.2349 0.206862 9.08628 0.0519781C7.93764 -0.102906 6.77363 0.192691 5.83806 0.876851C4.9025 1.56101 4.26796 2.58065 4.06738 3.7222C3.86679 4.86374 4.11571 6.03862 4.762 7.00074H2C1.46973 7.00127 0.961329 7.21215 0.586371 7.58711C0.211413 7.96207 0.000529477 8.47046 0 9.00074V13.0007C0.000529477 13.531 0.211413 14.0394 0.586371 14.4144C0.961329 14.7893 1.46973 15.0002 2 15.0007V25.0007C2.00053 25.531 2.21141 26.0394 2.58637 26.4144C2.96133 26.7893 3.46973 27.0002 4 27.0007H20C20.5303 27.0002 21.0387 26.7893 21.4136 26.4144C21.7886 26.0394 21.9995 25.531 22 25.0007V15.0007C22.5303 15.0002 23.0387 14.7893 23.4136 14.4144C23.7886 14.0394 23.9995 13.531 24 13.0007V9.00074C23.9995 8.47046 23.7886 7.96207 23.4136 7.58711C23.0387 7.21215 22.5303 7.00127 22 7.00074ZM13 4.50074C13 4.00628 13.1466 3.52293 13.4213 3.11181C13.696 2.70069 14.0865 2.38026 14.5433 2.19104C15.0001 2.00182 15.5028 1.95231 15.9877 2.04877C16.4727 2.14524 16.9181 2.38334 17.2678 2.73297C17.6174 3.0826 17.8555 3.52806 17.952 4.01301C18.0484 4.49796 17.9989 5.00063 17.8097 5.45744C17.6205 5.91426 17.3 6.30471 16.8889 6.57941C16.4778 6.85411 15.9945 7.00074 15.5 7.00074H13V4.50074ZM8.5 2.00074C9.1628 2.00153 9.79822 2.26518 10.2669 2.73385C10.7356 3.20251 10.9992 3.83794 11 4.50074V7.00074H8.5C7.83696 7.00074 7.20107 6.73734 6.73223 6.2685C6.26339 5.79966 6 5.16378 6 4.50074C6 3.83769 6.26339 3.20181 6.73223 2.73297C7.20107 2.26413 7.83696 2.00074 8.5 2.00074ZM2 9.00074H11V13.0007H2V9.00074ZM4 15.0007H11V25.0007H4V15.0007ZM20.001 25.0007H13V15.0007H20L20.001 25.0007ZM13 13.0007V9.00074H22L22.001 13.0007H13Z" fill="white"/>
</svg>
