<svg width="22" height="20" viewBox="0 0 22 20" fill="none" xmlns="http://www.w3.org/2000/svg">
<path d="M9.87559 14.875C9.87559 15.1734 9.99412 15.4595 10.2051 15.6705C10.4161 15.8815 10.7022 16 11.0006 16C11.299 16 11.5851 15.8815 11.7961 15.6705C12.0071 15.4595 12.1256 15.1734 12.1256 14.875C12.1256 14.5766 12.0071 14.2905 11.7961 14.0795C11.5851 13.8685 11.299 13.75 11.0006 13.75C10.7022 13.75 10.4161 13.8685 10.2051 14.0795C9.99412 14.2905 9.87559 14.5766 9.87559 14.875ZM10.2506 7.75V12.0625C10.2506 12.1656 10.335 12.25 10.4381 12.25H11.5631C11.6662 12.25 11.7506 12.1656 11.7506 12.0625V7.75C11.7506 7.64687 11.6662 7.5625 11.5631 7.5625H10.4381C10.335 7.5625 10.2506 7.64687 10.2506 7.75ZM21.3998 18.0625L11.6498 1.1875C11.5045 0.936719 11.2537 0.8125 11.0006 0.8125C10.7475 0.8125 10.4943 0.936719 10.3514 1.1875L0.601375 18.0625C0.313094 18.5641 0.674031 19.1875 1.25059 19.1875H20.7506C21.3272 19.1875 21.6881 18.5641 21.3998 18.0625ZM3.03653 17.4086L11.0006 3.62266L18.9647 17.4086H3.03653Z" fill="#EFC74D"/>
</svg>
