<svg width="25" height="25" viewBox="0 0 25 25" fill="none" xmlns="http://www.w3.org/2000/svg">
<path d="M12.5 25C19.4036 25 25 19.4036 25 12.5C25 5.59644 19.4036 0 12.5 0C5.59644 0 0 5.59644 0 12.5C0 19.4036 5.59644 25 12.5 25Z" fill="#F0B90B"/>
<path d="M7.83962 12.5002L5.92712 14.426L4.00134 12.5002L5.92712 10.5745L7.83962 12.5002ZM12.5013 7.83853L15.7951 11.1323L17.7209 9.20649L14.4271 5.92603L12.5013 4.00024L10.5756 5.92603L7.29509 9.20649L9.22087 11.1323L12.5013 7.83853ZM19.0756 10.5745L17.1631 12.5002L19.0888 14.426L21.0013 12.5002L19.0756 10.5745ZM12.5013 17.162L9.20759 13.8682L7.29509 15.794L10.5888 19.0877L12.5013 21.0002L14.4271 19.0745L17.7209 15.7807L15.7951 13.8682L12.5013 17.162ZM12.5013 14.426L14.4271 12.5002L12.5013 10.5745L10.5756 12.5002L12.5013 14.426Z" fill="white"/>
</svg>
