<svg width="32" height="32" viewBox="0 0 32 32" fill="none" xmlns="http://www.w3.org/2000/svg">
<circle cx="16" cy="16" r="16" fill="#737373"/>
<path d="M22.6625 9.88571C21.4433 9.31738 20.1233 8.90488 18.7483 8.66655C18.7363 8.66616 18.7243 8.66842 18.7132 8.67317C18.7021 8.67793 18.6922 8.68505 18.6842 8.69405C18.5192 8.99655 18.3266 9.39071 18.1983 9.69321C16.7399 9.47321 15.2567 9.47321 13.7983 9.69321C13.67 9.38155 13.4775 8.99655 13.3033 8.69405C13.2942 8.67571 13.2666 8.66655 13.2391 8.66655C11.8642 8.90488 10.5533 9.31738 9.32498 9.88571C9.31582 9.88571 9.30665 9.89488 9.29748 9.90405C6.80415 13.6349 6.11665 17.2649 6.45582 20.8582C6.45582 20.8765 6.46498 20.8949 6.48332 20.904C8.13332 22.114 9.71915 22.8474 11.2867 23.3332C11.3142 23.3424 11.3417 23.3332 11.3508 23.3149C11.7175 22.8107 12.0475 22.279 12.3317 21.7199C12.35 21.6832 12.3317 21.6465 12.295 21.6374C11.7725 21.4357 11.2775 21.1974 10.7917 20.9224C10.755 20.904 10.755 20.849 10.7825 20.8215C10.8833 20.7482 10.9842 20.6657 11.085 20.5924C11.1033 20.574 11.1308 20.574 11.1492 20.5832C14.3025 22.0224 17.7033 22.0224 20.82 20.5832C20.8383 20.574 20.8658 20.574 20.8841 20.5924C20.985 20.6749 21.0858 20.7482 21.1866 20.8307C21.2233 20.8582 21.2233 20.9132 21.1775 20.9315C20.7008 21.2157 20.1967 21.4449 19.6742 21.6465C19.6375 21.6557 19.6283 21.7015 19.6375 21.729C19.9308 22.2882 20.2608 22.8199 20.6183 23.324C20.6458 23.3332 20.6733 23.3424 20.7008 23.3332C22.2775 22.8474 23.8633 22.114 25.5133 20.904C25.5316 20.8949 25.5408 20.8765 25.5408 20.8582C25.9441 16.7057 24.8716 13.1032 22.6991 9.90405C22.69 9.89488 22.6808 9.88571 22.6625 9.88571V9.88571ZM12.8083 18.6674C11.8642 18.6674 11.0758 17.7965 11.0758 16.724C11.0758 15.6515 11.8458 14.7807 12.8083 14.7807C13.78 14.7807 14.55 15.6607 14.5408 16.724C14.5408 17.7965 13.7708 18.6674 12.8083 18.6674ZM19.1975 18.6674C18.2533 18.6674 17.465 17.7965 17.465 16.724C17.465 15.6515 18.235 14.7807 19.1975 14.7807C20.1691 14.7807 20.9391 15.6607 20.93 16.724C20.93 17.7965 20.1691 18.6674 19.1975 18.6674Z" fill="#14141F"/>
</svg>
