<svg width="32" height="32" viewBox="0 0 32 32" fill="none" xmlns="http://www.w3.org/2000/svg">
<circle cx="16" cy="16" r="16" fill="#737373"/>
<path d="M20.5833 8.20838C20.5833 8.08682 20.535 7.97025 20.4491 7.88429C20.3631 7.79834 20.2466 7.75005 20.125 7.75005H17.8333C16.6794 7.69257 15.5495 8.09416 14.6907 8.86708C13.8319 9.64 13.314 10.7214 13.25 11.875V14.35H10.9583C10.8368 14.35 10.7202 14.3983 10.6342 14.4843C10.5483 14.5702 10.5 14.6868 10.5 14.8084V17.1917C10.5 17.3133 10.5483 17.4299 10.6342 17.5158C10.7202 17.6018 10.8368 17.65 10.9583 17.65H13.25V23.7917C13.25 23.9133 13.2983 24.0299 13.3842 24.1158C13.4702 24.2018 13.5868 24.25 13.7083 24.25H16.4583C16.5799 24.25 16.6965 24.2018 16.7824 24.1158C16.8684 24.0299 16.9167 23.9133 16.9167 23.7917V17.65H19.3183C19.4203 17.6515 19.5198 17.619 19.6011 17.5575C19.6825 17.4961 19.741 17.4093 19.7675 17.3109L20.4275 14.9275C20.4457 14.8598 20.4482 14.7888 20.4347 14.72C20.4211 14.6512 20.392 14.5864 20.3495 14.5306C20.307 14.4748 20.2523 14.4295 20.1895 14.3982C20.1267 14.3669 20.0576 14.3504 19.9875 14.35H16.9167V11.875C16.9395 11.6482 17.046 11.4379 17.2155 11.2854C17.385 11.1328 17.6053 11.0489 17.8333 11.05H20.125C20.2466 11.05 20.3631 11.0018 20.4491 10.9158C20.535 10.8299 20.5833 10.7133 20.5833 10.5917V8.20838Z" fill="#14141F"/>
</svg>
