<svg width="32" height="32" viewBox="0 0 32 32" fill="none" xmlns="http://www.w3.org/2000/svg">
<circle cx="16" cy="16" r="16" fill="#737373"/>
<path d="M24.7994 16.1099C24.7994 15.0099 23.9194 14.1299 22.8194 14.2399C22.3794 14.2399 21.8294 14.4599 21.4994 14.7899C19.9594 13.7999 18.1994 13.1399 16.3294 13.1399L17.2094 8.95994L20.0694 9.61994C20.0694 10.3899 20.7294 10.9399 21.4994 10.9399C22.2694 10.9399 22.8194 10.2799 22.8194 9.50994C22.8194 8.73994 22.1594 8.18994 21.3894 8.18994C20.8394 8.18994 20.3994 8.51994 20.1794 8.95994L17.0994 8.18994H16.8794C16.7694 8.18994 16.7694 8.29994 16.7694 8.40994L15.6694 13.1399C13.7994 13.1399 12.0394 13.6899 10.4994 14.7899C9.72937 14.0199 8.51937 14.0199 7.74937 14.7899C6.97938 15.5599 6.97938 16.7699 7.74937 17.5399C7.85937 17.6499 8.07937 17.8699 8.29937 17.8699V18.4199C8.29937 21.3899 11.7094 23.8099 15.9994 23.8099C20.2894 23.8099 23.6994 21.3899 23.6994 18.4199V17.8699C24.3594 17.5399 24.7994 16.8799 24.7994 16.1099V16.1099ZM11.5994 17.5399C11.5994 16.7699 12.2594 16.2199 12.9194 16.2199C13.6894 16.2199 14.2394 16.8799 14.2394 17.5399C14.2394 18.1999 13.5794 18.8599 12.9194 18.8599C12.1494 18.8599 11.5994 18.3099 11.5994 17.5399ZM19.2994 21.1699C18.3094 21.8299 17.2094 22.2699 15.9994 22.1599C14.7894 22.1599 13.6894 21.8299 12.6994 21.1699C12.5894 21.0599 12.5894 20.8399 12.6994 20.6199C12.8094 20.5099 13.0294 20.5099 13.1394 20.6199C13.9094 21.1699 14.8994 21.4999 15.8894 21.3899C16.8794 21.4999 17.8694 21.1699 18.6394 20.6199C18.7494 20.5099 18.9694 20.5099 19.1894 20.6199C19.4094 20.7299 19.4094 20.9499 19.2994 21.1699ZM18.9694 18.8599C18.1994 18.8599 17.6494 18.1999 17.6494 17.5399C17.6494 16.8799 18.3094 16.2199 18.9694 16.2199C19.7394 16.2199 20.2894 16.8799 20.2894 17.5399C20.3994 18.3099 19.7394 18.8599 18.9694 18.8599Z" fill="#14141F"/>
</svg>
