<svg width="32" height="32" viewBox="0 0 32 32" fill="none" xmlns="http://www.w3.org/2000/svg">
<circle cx="16" cy="16" r="16" fill="#737373"/>
<path d="M16.3977 7.01519C17.3792 7 18.3552 7.009 19.33 7C19.389 8.14806 19.8019 9.3175 20.6423 10.1292C21.481 10.9611 22.6673 11.3419 23.8215 11.4707V14.4908C22.7399 14.4554 21.6531 14.2304 20.6715 13.7646C20.244 13.5711 19.8458 13.3219 19.456 13.0671C19.4509 15.2586 19.465 17.4473 19.4419 19.6298C19.3834 20.6783 19.0375 21.7218 18.4277 22.5858C17.4467 24.0241 15.744 24.9617 13.9952 24.991C12.9225 25.0523 11.851 24.7598 10.9369 24.2209C9.42211 23.3277 8.35617 21.6925 8.20092 19.9375C8.18136 19.5658 8.17836 19.1934 8.19192 18.8215C8.32692 17.3944 9.03286 16.0293 10.1286 15.1006C11.3706 14.0189 13.1104 13.5036 14.7394 13.8085C14.7546 14.9194 14.7102 16.0293 14.7102 17.1402C13.966 16.8994 13.0964 16.9669 12.4461 17.4186C11.9704 17.732 11.6109 18.1931 11.4229 18.7309C11.2677 19.1112 11.3121 19.5336 11.3211 19.9375C11.4994 21.1682 12.6829 22.2027 13.9463 22.0907C14.7839 22.0817 15.5865 21.5958 16.023 20.8842C16.1642 20.635 16.3223 20.3802 16.3307 20.0871C16.4044 18.7456 16.3752 17.4096 16.3842 16.0681C16.3904 13.0446 16.3752 10.0296 16.3982 7.01575L16.3977 7.01519Z" fill="#14141F"/>
</svg>
