<svg width="32" height="32" viewBox="0 0 32 32" fill="none" xmlns="http://www.w3.org/2000/svg">
<circle cx="16" cy="16" r="16" fill="#737373"/>
<path d="M26.6732 9.52561C25.9078 9.86478 25.0855 10.0939 24.2211 10.1975C25.113 9.66384 25.7803 8.82387 26.0985 7.83436C25.2605 8.3321 24.3434 8.68246 23.387 8.8702C22.7438 8.18349 21.8919 7.72833 20.9636 7.57538C20.0352 7.42243 19.0824 7.58026 18.2529 8.02434C17.4235 8.46843 16.7638 9.17394 16.3764 10.0313C15.989 10.8887 15.8955 11.8501 16.1105 12.766C14.4125 12.6808 12.7515 12.2395 11.2351 11.4707C9.71874 10.7019 8.38098 9.62293 7.30862 8.3037C6.94196 8.9362 6.73113 9.66953 6.73113 10.4505C6.73072 11.1536 6.90385 11.8459 7.23518 12.466C7.56651 13.0862 8.04577 13.6149 8.63046 14.0054C7.95238 13.9838 7.28926 13.8006 6.69629 13.4709V13.5259C6.69622 14.512 7.03732 15.4678 7.66171 16.231C8.2861 16.9943 9.15532 17.518 10.1219 17.7133C9.49284 17.8835 8.83335 17.9086 8.19321 17.7866C8.46591 18.6351 8.99712 19.3771 9.71246 19.9086C10.4278 20.4402 11.2915 20.7348 12.1825 20.7511C10.6699 21.9386 8.80177 22.5827 6.87871 22.5799C6.53806 22.58 6.19769 22.5601 5.85938 22.5203C7.81139 23.7754 10.0837 24.4414 12.4044 24.4389C20.2602 24.4389 24.5548 17.9324 24.5548 12.2894C24.5548 12.106 24.5502 11.9209 24.542 11.7375C25.3773 11.1334 26.0984 10.3854 26.6714 9.52836L26.6732 9.52561V9.52561Z" fill="#14141F"/>
</svg>
