<svg width="32" height="32" viewBox="0 0 32 32" fill="none" xmlns="http://www.w3.org/2000/svg">
<circle cx="16" cy="16" r="16" fill="#737373"/>
<path d="M12.4129 18.4836C12.1905 16.8336 12.1905 15.1612 12.4129 13.5112H19.578C19.8014 15.1612 19.8014 16.8337 19.578 18.4836H12.4129Z" fill="#14141F"/>
<path d="M19.3576 12.2359H12.6289C12.9716 10.7827 13.4159 9.39054 14.3622 8.2145C14.6103 7.89415 14.9216 7.62823 15.2768 7.43325C15.7779 7.16815 16.2742 7.18325 16.7648 7.46033C17.2414 7.72908 17.5956 8.12544 17.9003 8.56867C18.5914 9.57492 18.9867 10.7041 19.2768 11.8796C19.3049 11.9942 19.3315 12.1083 19.3576 12.2359Z" fill="#14141F"/>
<path d="M12.6328 19.7588H19.3635C19.0411 21.1473 18.6245 22.4854 17.749 23.6213C17.488 23.9523 17.1795 24.2428 16.8333 24.4833C16.276 24.8739 15.6833 24.8307 15.1146 24.4635C14.6917 24.1906 14.3656 23.8213 14.0854 23.4093C13.3318 22.3051 12.9307 21.0619 12.6328 19.7588Z" fill="#14141F"/>
<path d="M20.8438 18.4824C21.049 16.8299 21.049 15.1584 20.8438 13.5059H25.0505C25.1281 13.9053 25.226 14.309 25.2839 14.7178C25.4553 15.9326 25.3827 17.1694 25.0703 18.3559C25.0422 18.4647 25.0005 18.5012 24.888 18.5012C23.58 18.4977 22.2722 18.4967 20.9646 18.498C20.924 18.4953 20.8837 18.4901 20.8438 18.4824Z" fill="#14141F"/>
<path d="M11.1497 13.5125C10.9447 15.1687 10.9462 16.8441 11.1544 18.5H10.9602C9.69141 18.5 8.42266 18.5 7.15391 18.5C7.01746 18.5 6.95235 18.4729 6.91485 18.3245C6.52055 16.7923 6.52324 15.185 6.92266 13.6541C6.94714 13.5583 6.96485 13.4922 7.09141 13.4927C8.41902 13.4974 9.74766 13.4958 11.0737 13.4968C11.0994 13.5003 11.1248 13.5055 11.1497 13.5125V13.5125Z" fill="#14141F"/>
<path d="M24.5812 12.2397H20.6542C20.2135 10.2709 19.6052 8.3777 18.125 6.90374C18.7698 6.85166 20.8979 7.88812 21.9641 8.77874C23.0933 9.71354 23.9894 10.8985 24.5812 12.2397V12.2397Z" fill="#14141F"/>
<path d="M11.3435 12.2395H7.41797C7.92719 11.0716 8.67187 10.0212 9.60547 9.15413C10.8253 8.01768 12.2471 7.25934 13.9169 6.85986C12.3961 8.37028 11.7857 10.2635 11.3435 12.2395Z" fill="#14141F"/>
<path d="M20.6544 19.7563H24.5805C24.0274 21.022 23.1994 22.1486 22.1565 23.0543C20.9852 24.0761 19.6414 24.7647 18.082 25.1345C19.6003 23.6267 20.2117 21.7355 20.6544 19.7563Z" fill="#14141F"/>
<path d="M11.3445 19.7563C11.7862 21.7355 12.3971 23.6241 13.9164 25.1329C12.4895 24.8044 11.1589 24.1473 10.0307 23.2139C8.90253 22.2805 8.00786 21.0965 7.41797 19.7563H11.3445Z" fill="#14141F"/>
</svg>
