<svg width="24" height="24" viewBox="0 0 24 24" fill="none" xmlns="http://www.w3.org/2000/svg">
<path d="M19.4004 4.11719H4.58203V17.5853H19.4004V4.11719Z" fill="white"/>
<path fill-rule="evenodd" clip-rule="evenodd" d="M23.9918 12.0002C23.9918 18.6188 18.6229 23.9842 11.9998 23.9842C5.37682 23.9842 0.0078125 18.6188 0.0078125 12.0002C0.0078125 5.38155 5.37682 0.0161133 11.9998 0.0161133C18.6229 0.0161133 23.9918 5.38155 23.9918 12.0002ZM8.60163 16.7692H6.27432C5.78528 16.7692 5.54372 16.7692 5.39643 16.675C5.23734 16.572 5.14012 16.4012 5.12834 16.2128C5.11949 16.0391 5.24029 15.8271 5.48186 15.4032L11.2283 5.28103C11.4728 4.8512 11.5965 4.63629 11.7527 4.5568C11.9206 4.47143 12.1209 4.47143 12.2888 4.5568C12.445 4.63629 12.5687 4.8512 12.8132 5.28103L13.9946 7.34184L14.0006 7.35236C14.2647 7.81348 14.3986 8.04732 14.4571 8.29275C14.5219 8.56066 14.5219 8.84328 14.4571 9.11119C14.3982 9.35848 14.2656 9.59401 13.9975 10.0621L10.979 15.3943L10.9712 15.408C10.7054 15.8729 10.5707 16.1086 10.384 16.2863C10.1807 16.4807 9.93616 16.6219 9.66808 16.7015C9.42356 16.7692 9.14959 16.7692 8.60163 16.7692ZM14.4789 16.7692H17.8136C18.3056 16.7692 18.5531 16.7692 18.7005 16.6722C18.8595 16.5691 18.9597 16.3953 18.9686 16.207C18.9771 16.039 18.8589 15.8352 18.6274 15.4359C18.6194 15.4223 18.6114 15.4085 18.6033 15.3944L16.9328 12.5387L16.9138 12.5066C16.6791 12.1099 16.5606 11.9096 16.4085 11.8322C16.2406 11.7468 16.0431 11.7468 15.8753 11.8322C15.7221 11.9116 15.5983 12.1207 15.3538 12.5417L13.6893 15.3974L13.6836 15.4072C13.44 15.8275 13.3182 16.0375 13.327 16.2099C13.3388 16.3983 13.436 16.572 13.5951 16.675C13.7394 16.7692 13.9869 16.7692 14.4789 16.7692Z" fill="#494958"/>
</svg>
