<svg width="24" height="24" viewBox="0 0 24 24" fill="none" xmlns="http://www.w3.org/2000/svg">
<path d="M12 24C18.6274 24 24 18.6274 24 12C24 5.37258 18.6274 0 12 0C5.37258 0 0 5.37258 0 12C0 18.6274 5.37258 24 12 24Z" fill="#494958"/>
<path d="M16.3092 9.2789C16.0187 9.11273 15.6451 9.11273 15.3131 9.2789L12.989 10.6498L11.4119 11.5222L9.12924 12.8931C8.83872 13.0593 8.4652 13.0593 8.13318 12.8931L6.34857 11.813C6.05805 11.6468 5.85054 11.3145 5.85054 10.9406V8.86347C5.85054 8.53113 6.01655 8.19879 6.34857 7.99108L8.13318 6.95251C8.42369 6.78634 8.79722 6.78634 9.12924 6.95251L10.9138 8.03262C11.2044 8.19879 11.4119 8.53113 11.4119 8.90501V10.2759L12.989 9.36198V7.94953C12.989 7.61719 12.823 7.28485 12.4909 7.07714L9.17074 5.12463C8.88022 4.95846 8.5067 4.95846 8.17468 5.12463L4.77147 7.11868C4.43945 7.28485 4.27344 7.61719 4.27344 7.94953V11.8545C4.27344 12.1869 4.43945 12.5192 4.77147 12.7269L8.13318 14.6795C8.42369 14.8456 8.79722 14.8456 9.12924 14.6795L11.4119 13.3501L12.989 12.4361L15.2716 11.1068C15.5621 10.9406 15.9357 10.9406 16.2677 11.1068L18.0523 12.1453C18.3428 12.3115 18.5503 12.6439 18.5503 13.0177V15.0949C18.5503 15.4272 18.3843 15.7596 18.0523 15.9673L16.3092 17.0058C16.0187 17.172 15.6451 17.172 15.3131 17.0058L13.5285 15.9673C13.238 15.8011 13.0305 15.4688 13.0305 15.0949V13.7655L11.4534 14.6795V16.0504C11.4534 16.3827 11.6194 16.715 11.9514 16.9228L15.3131 18.8753C15.6036 19.0414 15.9772 19.0414 16.3092 18.8753L19.6709 16.9228C19.9614 16.7566 20.1689 16.4242 20.1689 16.0504V12.1038C20.1689 11.7715 20.0029 11.4391 19.6709 11.2314L16.3092 9.2789Z" fill="white"/>
</svg>
