<svg width="24" height="24" viewBox="0 0 24 24" fill="none" xmlns="http://www.w3.org/2000/svg">
<path d="M12 24C18.6274 24 24 18.6274 24 12C24 5.37258 18.6274 0 12 0C5.37258 0 0 5.37258 0 12C0 18.6274 5.37258 24 12 24Z" fill="#494958"/>
<path d="M8.55373 11.9413C8.51829 12.583 8.99228 13.1323 9.60802 13.1693C9.63017 13.1693 9.65231 13.1693 9.67446 13.1693C10.2946 13.1693 10.7952 12.6476 10.7908 12.0013C10.7908 11.3549 10.2902 10.8333 9.67003 10.8379C9.07644 10.8379 8.58474 11.3226 8.55373 11.9413Z" fill="white"/>
<path d="M4.38133 11.6411C4.18199 11.6272 4.00923 11.7888 4.00037 11.9966C3.99151 12.2043 4.14212 12.3844 4.34146 12.3936C4.5408 12.4074 4.70914 12.2459 4.72243 12.0381C4.73571 11.8304 4.58067 11.6549 4.38133 11.6411Z" fill="white"/>
<path d="M8.48366 5.17325C8.66086 5.08092 8.73173 4.85009 8.64314 4.66543C8.55454 4.48077 8.33305 4.4069 8.15586 4.49923C7.97867 4.59156 7.90779 4.81778 7.99639 5.00244C8.08498 5.19172 8.30204 5.2702 8.48366 5.17325Z" fill="white"/>
<path d="M9.61659 7.23684C9.89123 7.09373 10.002 6.74287 9.86466 6.45664C9.72733 6.17041 9.39067 6.055 9.11602 6.19811C8.84138 6.34123 8.73063 6.69209 8.86796 6.97831C9.00528 7.26454 9.34194 7.37996 9.61659 7.23684Z" fill="white"/>
<path d="M5.79784 8.65417C6.01047 8.79729 6.29398 8.73727 6.43573 8.51567C6.57305 8.29408 6.51547 7.99862 6.30284 7.85089C6.09021 7.70777 5.8067 7.76779 5.66495 7.98939C5.5232 8.21098 5.58521 8.51106 5.79784 8.65417Z" fill="white"/>
<path d="M6.4767 11.4334C6.16661 11.4149 5.90526 11.6596 5.88754 11.9827C5.86982 12.3059 6.1046 12.5783 6.41468 12.5967C6.72476 12.6152 6.98612 12.3705 7.00384 12.0474C7.02156 11.7288 6.78678 11.4518 6.4767 11.4334Z" fill="white"/>
<path d="M5.86109 15.3435C5.63518 15.4636 5.54215 15.7498 5.65732 15.9899C5.7725 16.2253 6.04715 16.3223 6.27749 16.2022C6.50341 16.0822 6.59644 15.796 6.48126 15.5559C6.36609 15.3205 6.08701 15.2235 5.86109 15.3435Z" fill="white"/>
<path d="M8.0308 10.2284C8.33646 10.4361 8.744 10.3484 8.93891 10.0299C9.13825 9.71133 9.05408 9.28661 8.74843 9.08348C8.44277 8.87573 8.03523 8.96345 7.84032 9.28199C7.64098 9.59592 7.72515 10.0206 8.0308 10.2284Z" fill="white"/>
<path d="M14.9197 7.19077C15.1767 7.3662 15.5266 7.29234 15.695 7.02457C15.8633 6.75681 15.7924 6.3921 15.5355 6.21667C15.2786 6.04125 14.9286 6.11511 14.7603 6.38287C14.5875 6.65525 14.6584 7.01534 14.9197 7.19077Z" fill="white"/>
<path d="M16.0615 5.13643C16.2298 5.25184 16.4513 5.20106 16.5621 5.02563C16.6728 4.8502 16.6241 4.61937 16.4557 4.50396C16.2874 4.38854 16.0659 4.43933 15.9552 4.61014C15.8489 4.78557 15.8976 5.02101 16.0615 5.13643Z" fill="white"/>
<path d="M15.0049 10.8285C14.3892 10.7916 13.8576 11.2856 13.8266 11.9273C13.7911 12.569 14.2651 13.123 14.8809 13.1553C14.903 13.1553 14.9252 13.1553 14.9429 13.1553C15.5586 13.1553 16.0592 12.6336 16.0592 11.9873C16.0636 11.3733 15.5985 10.8609 15.0049 10.8285Z" fill="white"/>
<path d="M9.98469 10.1454C10.1752 10.5378 10.5606 10.7871 10.9858 10.7871C11.6016 10.7871 12.1021 10.2654 12.1021 9.61908C12.1021 9.43903 12.0623 9.25899 11.9825 9.09279C11.7034 8.51572 11.0301 8.28489 10.4808 8.57573C9.92711 8.87119 9.70562 9.57291 9.98469 10.1454Z" fill="white"/>
<path d="M18.7507 8.65414C18.9767 8.53411 19.0653 8.24326 18.9501 8.00782C18.8349 7.77237 18.5558 7.68004 18.3299 7.80007C18.104 7.9201 18.0154 8.20633 18.1261 8.44178C18.2457 8.67722 18.5204 8.77417 18.7507 8.65414Z" fill="white"/>
<path d="M15.9154 9.02356C15.592 9.19438 15.4591 9.60525 15.623 9.94226C15.7869 10.2793 16.1812 10.4178 16.5045 10.247C16.8279 10.0761 16.9608 9.66527 16.7969 9.32826C16.633 8.99125 16.2387 8.85737 15.9154 9.02356Z" fill="white"/>
<path d="M12.2623 4.96093C12.5148 4.97478 12.7319 4.77165 12.7496 4.50851C12.7673 4.24536 12.568 4.01915 12.3155 4.00068C12.063 3.98683 11.8459 4.18535 11.8282 4.44849C11.8149 4.71625 12.0098 4.94246 12.2623 4.96093Z" fill="white"/>
<path d="M12.2563 7.97553C12.6195 7.99861 12.9296 7.70777 12.9473 7.32921C12.9695 6.95065 12.6904 6.62749 12.3272 6.60902C11.9639 6.58594 11.6538 6.87678 11.6361 7.25534C11.6184 7.6339 11.893 7.95706 12.2563 7.97553Z" fill="white"/>
<path d="M8.69619 14.9743C9.01956 14.8035 9.15245 14.3926 8.98855 14.0556C8.82465 13.7186 8.4304 13.5801 8.10703 13.7509C7.78365 13.9218 7.65076 14.3326 7.81466 14.6696C7.97856 15.0067 8.37281 15.1451 8.69619 14.9743Z" fill="white"/>
<path d="M12.6829 8.97737C12.3462 9.5175 12.488 10.2377 13.0063 10.5885C13.5245 10.9394 14.2156 10.7917 14.5523 10.2515C14.8889 9.7114 14.7472 8.99122 14.2289 8.64036C14.0473 8.51571 13.8346 8.45108 13.6176 8.45108C13.241 8.45108 12.8911 8.64959 12.6829 8.97737Z" fill="white"/>
<path d="M14.6286 13.8524C14.3495 13.2753 13.6762 13.0445 13.1269 13.3353C12.5731 13.6262 12.3517 14.3279 12.6307 14.9004C12.9098 15.4774 13.5831 15.7083 14.1324 15.4174C14.6817 15.1312 14.9076 14.4387 14.633 13.8616C14.633 13.857 14.633 13.857 14.6286 13.8524Z" fill="white"/>
<path d="M16.5808 13.7693C16.2752 13.5616 15.8676 13.6493 15.6727 13.9678C15.4734 14.2864 15.5575 14.7111 15.8632 14.9142C16.1688 15.122 16.5764 15.0343 16.7713 14.7157C16.9706 14.4018 16.8865 13.9771 16.5808 13.7693Z" fill="white"/>
<path d="M18.7248 12.0197C18.7425 11.6966 18.5077 11.4242 18.1976 11.4057C17.8875 11.3873 17.6262 11.6319 17.6085 11.9551C17.5907 12.2783 17.8255 12.5506 18.1356 12.5691C18.4413 12.5876 18.7071 12.3383 18.7248 12.0197Z" fill="white"/>
<path d="M20.272 11.6041C20.0727 11.5903 19.8999 11.7519 19.891 11.9596C19.8822 12.1674 20.0328 12.3474 20.2321 12.3566C20.4315 12.3705 20.5998 12.2089 20.6131 12.0012C20.622 11.7934 20.4713 11.618 20.272 11.6041Z" fill="white"/>
<path d="M18.8125 15.3437C18.5999 15.2005 18.3164 15.2606 18.1746 15.4821C18.0373 15.7037 18.0949 15.9992 18.3075 16.1469C18.5201 16.29 18.8036 16.23 18.9454 16.0084C19.0871 15.7868 19.0251 15.4868 18.8125 15.3437Z" fill="white"/>
<path d="M8.54493 18.8615C8.3766 18.7461 8.15511 18.7968 8.04437 18.9677C7.93362 19.1431 7.98235 19.3739 8.14625 19.4893C8.31458 19.6047 8.53607 19.554 8.64682 19.3831C8.76199 19.2123 8.71326 18.9769 8.54493 18.8615Z" fill="white"/>
<path d="M16.13 18.8246C15.9528 18.9169 15.882 19.1477 15.9706 19.3324C16.0592 19.517 16.2806 19.5909 16.4578 19.4986C16.635 19.4062 16.7059 19.18 16.6173 18.9954C16.5287 18.8061 16.3117 18.7276 16.13 18.8246Z" fill="white"/>
<path d="M11.9294 15.0205C12.2661 14.4803 12.1243 13.7601 11.606 13.4047C11.0878 13.0538 10.3967 13.2015 10.0556 13.7417C9.71453 14.2818 9.86072 15.002 10.379 15.3575C10.5606 15.4821 10.7733 15.5468 10.9903 15.5468C11.3713 15.5514 11.7212 15.3529 11.9294 15.0205Z" fill="white"/>
<path d="M9.69236 16.807C9.43543 16.6316 9.08548 16.7054 8.91715 16.9732C8.74882 17.241 8.81969 17.6057 9.07662 17.7811C9.33355 17.9565 9.6835 17.8827 9.85183 17.6149C10.0246 17.3471 9.95371 16.9824 9.69236 16.807Z" fill="white"/>
<path d="M12.3015 19.0368C12.049 19.023 11.832 19.2261 11.8142 19.4892C11.7965 19.7524 11.9959 19.9786 12.2484 19.9971C12.5009 20.0109 12.7179 19.8124 12.7356 19.5493C12.7489 19.2815 12.554 19.0553 12.3015 19.0368Z" fill="white"/>
<path d="M12.306 16.0222C11.9427 15.9991 11.6326 16.2899 11.6149 16.6685C11.5928 17.0471 11.8718 17.3702 12.2351 17.3887C12.5983 17.4072 12.9084 17.1209 12.9261 16.7424C12.9483 16.3684 12.6692 16.0406 12.306 16.0222Z" fill="white"/>
<path d="M14.9954 16.7609C14.7207 16.9086 14.61 17.2595 14.7517 17.5457C14.8935 17.8319 15.2301 17.9473 15.5048 17.7996C15.7794 17.6565 15.8902 17.3056 15.7528 17.0194C15.6111 16.7332 15.2744 16.6131 14.9954 16.7609Z" fill="white"/>
</svg>
