<svg width="17" height="17" viewBox="0 0 17 17" fill="none" xmlns="http://www.w3.org/2000/svg">
<path d="M1.67157 2.24512C1.42219 2.24512 1.18266 2.24512 0.943601 2.24512C0.435476 2.24184 0.0567257 1.87809 0.0586007 1.39715C0.0604757 0.916211 0.439226 0.559492 0.949226 0.557617C1.4236 0.557617 1.89813 0.557617 2.37282 0.557617C2.85563 0.557617 3.19313 0.861836 3.25548 1.33715C3.32391 1.8598 3.3961 2.38152 3.46829 2.90371C3.54048 3.4259 3.61266 3.94715 3.6886 4.49746H15.6708C15.7468 4.49416 15.8229 4.49651 15.8986 4.50449C16.2375 4.55699 16.4358 4.87246 16.3477 5.2273C15.9073 6.99918 15.4658 8.77043 15.023 10.5411C14.9452 10.8532 14.8688 11.1659 14.7886 11.4786C14.6452 12.0411 14.2214 12.3753 13.6416 12.3757C10.4191 12.3757 7.19657 12.3757 3.97407 12.3757C3.36751 12.3757 2.91235 12.0036 2.82657 11.4036C2.69907 10.5129 2.59735 9.61527 2.48532 8.72043C2.3272 7.45387 2.16969 6.18715 2.01282 4.92027C1.91251 4.11809 1.81204 3.31637 1.71141 2.51512C1.70204 2.42699 1.68563 2.34355 1.67157 2.24512Z" fill="black"/>
<path d="M5.12391 13.4998C5.45767 13.4998 5.78393 13.5988 6.06144 13.7842C6.33895 13.9696 6.55523 14.2332 6.68296 14.5415C6.81068 14.8499 6.8441 15.1892 6.77899 15.5165C6.71388 15.8439 6.55316 16.1445 6.31716 16.3805C6.08115 16.6165 5.78047 16.7773 5.45313 16.8424C5.12578 16.9075 4.78648 16.8741 4.47813 16.7464C4.16978 16.6186 3.90623 16.4023 3.72081 16.1248C3.53538 15.8473 3.43641 15.5211 3.43641 15.1873C3.4374 14.7401 3.61551 14.3114 3.93176 13.9952C4.24802 13.6789 4.67666 13.5008 5.12391 13.4998Z" fill="black"/>
<path d="M11.8669 13.4998C12.2007 13.4984 12.5274 13.5961 12.8057 13.7804C13.084 13.9647 13.3014 14.2274 13.4303 14.5352C13.5593 14.8431 13.5941 15.1823 13.5303 15.51C13.4664 15.8376 13.3069 16.1389 13.0718 16.3759C12.8367 16.6128 12.5366 16.7747 12.2094 16.8411C11.8823 16.9075 11.5428 16.8753 11.234 16.7488C10.9251 16.6222 10.6607 16.4068 10.4743 16.13C10.2878 15.8531 10.1876 15.5272 10.1864 15.1934C10.1859 14.7463 10.3624 14.3173 10.6773 13.9999C10.9921 13.6826 11.4198 13.5028 11.8669 13.4998Z" fill="black"/>
</svg>
