<svg width="17" height="14" viewBox="0 0 17 14" fill="none" xmlns="http://www.w3.org/2000/svg">
<path d="M3.31016 6.49999L6.27316 9.46299C6.40735 9.59682 6.48591 9.77648 6.49303 9.96587C6.50015 10.1552 6.43531 10.3403 6.31155 10.4838C6.18778 10.6274 6.01427 10.7187 5.8259 10.7395C5.63753 10.7603 5.44826 10.709 5.29616 10.596L5.21216 10.523L0.970158 6.28099C0.842878 6.15395 0.765486 5.98539 0.752086 5.80606C0.738686 5.62672 0.790171 5.44854 0.897158 5.30399L0.970158 5.21999L5.21216 0.976992C5.3456 0.841082 5.52576 0.761034 5.71606 0.753094C5.90636 0.745154 6.09256 0.809917 6.23686 0.934239C6.38116 1.05856 6.47275 1.23313 6.49305 1.42251C6.51335 1.6119 6.46083 1.80191 6.34616 1.95399L6.27316 2.03799L3.31016 4.99999H9.00016C11.013 5.00002 12.9468 5.78314 14.3925 7.18365C15.8382 8.58417 16.6823 10.4922 16.7462 12.504L16.7502 12.751C16.7502 12.9499 16.6711 13.1407 16.5305 13.2813C16.3898 13.422 16.1991 13.501 16.0002 13.501C15.8012 13.501 15.6105 13.422 15.4698 13.2813C15.3292 13.1407 15.2502 12.9499 15.2502 12.751C15.2502 11.1332 14.6229 9.57836 13.5002 8.41351C12.3775 7.24865 10.8469 6.56453 9.23016 6.50499L9.00016 6.49999H3.31016L6.27316 9.46299L3.31016 6.49999Z" fill="white"/>
</svg>
