<svg width="15" height="12" viewBox="0 0 15 12" fill="none" xmlns="http://www.w3.org/2000/svg">
<path d="M7.5 0C9.05122 0 10.522 0.538182 11.8024 1.53455C13.0829 2.52364 14.1732 3.97091 14.9561 5.78182C15.0146 5.92 15.0146 6.08 14.9561 6.21091C13.3902 9.83273 10.6024 12 7.5 12H7.49268C4.39756 12 1.60976 9.83273 0.0439024 6.21091C-0.0146341 6.08 -0.0146341 5.92 0.0439024 5.78182C1.60976 2.16 4.39756 0 7.49268 0H7.5ZM7.5 3.09091C5.88293 3.09091 4.57317 4.39273 4.57317 6C4.57317 7.6 5.88293 8.90182 7.5 8.90182C9.10976 8.90182 10.4195 7.6 10.4195 6C10.4195 4.39273 9.10976 3.09091 7.5 3.09091ZM7.50088 4.18022C8.50332 4.18022 9.32283 4.99476 9.32283 5.9984C9.32283 6.99476 8.50332 7.80931 7.50088 7.80931C6.49112 7.80931 5.67161 6.99476 5.67161 5.9984C5.67161 5.87476 5.68624 5.7584 5.70819 5.64204H5.74478C6.55698 5.64204 7.21551 5.00204 7.24478 4.20204C7.32527 4.18749 7.41307 4.18022 7.50088 4.18022Z" fill="#F1C94A"/>
</svg>
